G04 Layer_Color=255*
%FSLAX25Y25*%
%MOIN*%
G70*
G01*
G75*
%ADD14R,0.03347X0.03937*%
%ADD15R,0.03740X0.01575*%
%ADD16R,0.02559X0.01181*%
%ADD17R,0.03150X0.01181*%
%ADD18R,0.03000X0.03000*%
%ADD19R,0.03000X0.03000*%
G04:AMPARAMS|DCode=20|XSize=43.31mil|YSize=149.61mil|CornerRadius=10.83mil|HoleSize=0mil|Usage=FLASHONLY|Rotation=0.000|XOffset=0mil|YOffset=0mil|HoleType=Round|Shape=RoundedRectangle|*
%AMROUNDEDRECTD20*
21,1,0.04331,0.12795,0,0,0.0*
21,1,0.02165,0.14961,0,0,0.0*
1,1,0.02165,0.01083,-0.06398*
1,1,0.02165,-0.01083,-0.06398*
1,1,0.02165,-0.01083,0.06398*
1,1,0.02165,0.01083,0.06398*
%
%ADD20ROUNDEDRECTD20*%
G04:AMPARAMS|DCode=21|XSize=47.24mil|YSize=145.67mil|CornerRadius=11.81mil|HoleSize=0mil|Usage=FLASHONLY|Rotation=90.000|XOffset=0mil|YOffset=0mil|HoleType=Round|Shape=RoundedRectangle|*
%AMROUNDEDRECTD21*
21,1,0.04724,0.12205,0,0,90.0*
21,1,0.02362,0.14567,0,0,90.0*
1,1,0.02362,0.06102,0.01181*
1,1,0.02362,0.06102,-0.01181*
1,1,0.02362,-0.06102,-0.01181*
1,1,0.02362,-0.06102,0.01181*
%
%ADD21ROUNDEDRECTD21*%
G04:AMPARAMS|DCode=22|XSize=90.55mil|YSize=70.87mil|CornerRadius=8.86mil|HoleSize=0mil|Usage=FLASHONLY|Rotation=90.000|XOffset=0mil|YOffset=0mil|HoleType=Round|Shape=RoundedRectangle|*
%AMROUNDEDRECTD22*
21,1,0.09055,0.05315,0,0,90.0*
21,1,0.07284,0.07087,0,0,90.0*
1,1,0.01772,0.02658,0.03642*
1,1,0.01772,0.02658,-0.03642*
1,1,0.01772,-0.02658,-0.03642*
1,1,0.01772,-0.02658,0.03642*
%
%ADD22ROUNDEDRECTD22*%
G04:AMPARAMS|DCode=23|XSize=50mil|YSize=50mil|CornerRadius=6.25mil|HoleSize=0mil|Usage=FLASHONLY|Rotation=180.000|XOffset=0mil|YOffset=0mil|HoleType=Round|Shape=RoundedRectangle|*
%AMROUNDEDRECTD23*
21,1,0.05000,0.03750,0,0,180.0*
21,1,0.03750,0.05000,0,0,180.0*
1,1,0.01250,-0.01875,0.01875*
1,1,0.01250,0.01875,0.01875*
1,1,0.01250,0.01875,-0.01875*
1,1,0.01250,-0.01875,-0.01875*
%
%ADD23ROUNDEDRECTD23*%
%ADD24R,0.05118X0.02362*%
%ADD25R,0.03543X0.06299*%
%ADD26R,0.01969X0.01102*%
%ADD27R,0.04331X0.02362*%
%ADD28R,0.07441X0.06181*%
%ADD29O,0.01181X0.04724*%
%ADD30R,0.02756X0.00984*%
%ADD31R,0.06496X0.09370*%
%ADD32R,0.06181X0.07441*%
%ADD33O,0.04724X0.01181*%
%ADD34O,0.07087X0.01181*%
%ADD35O,0.01181X0.07087*%
%ADD36R,0.02500X0.02000*%
%ADD47R,0.05906X0.05906*%
%ADD48C,0.05906*%
%ADD49R,0.05906X0.05906*%
D14*
X41357Y81147D02*
D03*
Y74454D02*
D03*
X36042D02*
D03*
Y81147D02*
D03*
D15*
X191420Y73100D02*
D03*
Y23100D02*
D03*
D16*
X180888Y69360D02*
D03*
Y66998D02*
D03*
Y64635D02*
D03*
Y62273D02*
D03*
Y59911D02*
D03*
Y57549D02*
D03*
Y55187D02*
D03*
Y52824D02*
D03*
Y50462D02*
D03*
Y48100D02*
D03*
Y45738D02*
D03*
Y43376D02*
D03*
Y41013D02*
D03*
Y38651D02*
D03*
Y36289D02*
D03*
Y33927D02*
D03*
Y31565D02*
D03*
Y29202D02*
D03*
Y26840D02*
D03*
D17*
X192207Y70541D02*
D03*
Y68179D02*
D03*
Y65816D02*
D03*
Y63454D02*
D03*
Y61092D02*
D03*
Y58730D02*
D03*
Y56368D02*
D03*
Y54005D02*
D03*
Y51643D02*
D03*
Y49281D02*
D03*
Y46919D02*
D03*
Y44557D02*
D03*
Y42195D02*
D03*
Y39832D02*
D03*
Y37470D02*
D03*
Y35108D02*
D03*
Y32746D02*
D03*
Y30384D02*
D03*
Y28021D02*
D03*
Y25659D02*
D03*
D18*
X147300Y21800D02*
D03*
Y27300D02*
D03*
X176100Y74600D02*
D03*
Y69100D02*
D03*
X127900Y42500D02*
D03*
Y48000D02*
D03*
X10000Y65100D02*
D03*
Y70600D02*
D03*
X119500Y17300D02*
D03*
Y22800D02*
D03*
X46500Y36700D02*
D03*
Y31200D02*
D03*
X47500Y21400D02*
D03*
Y26900D02*
D03*
X47100Y63200D02*
D03*
Y57700D02*
D03*
X5300Y65100D02*
D03*
Y70600D02*
D03*
X10000Y31500D02*
D03*
Y26000D02*
D03*
X150331Y33669D02*
D03*
Y39169D02*
D03*
X176193Y59016D02*
D03*
Y64516D02*
D03*
X5300Y31500D02*
D03*
Y26000D02*
D03*
Y45500D02*
D03*
Y51000D02*
D03*
X10000D02*
D03*
Y45500D02*
D03*
D19*
X41900Y86400D02*
D03*
X36400D02*
D03*
X125900Y62900D02*
D03*
X120400D02*
D03*
Y79000D02*
D03*
X114900D02*
D03*
X124900Y12400D02*
D03*
X119400D02*
D03*
X155393Y33216D02*
D03*
X160893D02*
D03*
X160932Y38168D02*
D03*
X155431D02*
D03*
X22100Y52500D02*
D03*
X16600D02*
D03*
X169900Y72200D02*
D03*
X164400D02*
D03*
X47500Y13600D02*
D03*
X53000D02*
D03*
X76600Y11700D02*
D03*
X71100D02*
D03*
X66800Y84000D02*
D03*
X61300D02*
D03*
X90800Y11800D02*
D03*
X96300D02*
D03*
X5300Y12000D02*
D03*
X10800D02*
D03*
X23100Y30000D02*
D03*
X28600D02*
D03*
D20*
X133791Y39400D02*
D03*
X145209D02*
D03*
X133791Y56600D02*
D03*
X145209D02*
D03*
D21*
X21600Y12888D02*
D03*
Y23912D02*
D03*
Y35888D02*
D03*
Y46912D02*
D03*
Y58488D02*
D03*
Y69512D02*
D03*
D22*
X28009Y82100D02*
D03*
X16591D02*
D03*
D23*
X166550Y78700D02*
D03*
X159050D02*
D03*
D24*
X150234Y71560D02*
D03*
Y79040D02*
D03*
X141966Y75300D02*
D03*
D25*
X7700Y58100D02*
D03*
Y19000D02*
D03*
Y38500D02*
D03*
D26*
X3960Y55147D02*
D03*
Y57116D02*
D03*
Y59084D02*
D03*
Y61053D02*
D03*
X11440D02*
D03*
Y59084D02*
D03*
Y57116D02*
D03*
Y55147D02*
D03*
Y16047D02*
D03*
Y18016D02*
D03*
Y19984D02*
D03*
Y21953D02*
D03*
X3960D02*
D03*
Y19984D02*
D03*
Y18016D02*
D03*
Y16047D02*
D03*
X11440Y35547D02*
D03*
Y37516D02*
D03*
Y39484D02*
D03*
Y41453D02*
D03*
X3960D02*
D03*
Y39484D02*
D03*
Y37516D02*
D03*
Y35547D02*
D03*
D27*
X153491Y27440D02*
D03*
Y23700D02*
D03*
Y19960D02*
D03*
X162940D02*
D03*
Y27440D02*
D03*
D28*
X171354Y41663D02*
D03*
D29*
X167516Y32116D02*
D03*
X170075D02*
D03*
X172634D02*
D03*
X175193D02*
D03*
X167516Y51210D02*
D03*
X170075D02*
D03*
X172634D02*
D03*
X175193D02*
D03*
D30*
X150390Y51937D02*
D03*
Y49968D02*
D03*
Y48000D02*
D03*
Y46031D02*
D03*
Y44063D02*
D03*
X161610Y51937D02*
D03*
Y49968D02*
D03*
Y48000D02*
D03*
Y46031D02*
D03*
Y44063D02*
D03*
D31*
X156000Y48000D02*
D03*
D32*
X160700Y62900D02*
D03*
D33*
X151153Y66739D02*
D03*
Y64179D02*
D03*
Y61620D02*
D03*
Y59061D02*
D03*
X170247Y66739D02*
D03*
Y64179D02*
D03*
Y61620D02*
D03*
Y59061D02*
D03*
D34*
X53876Y24078D02*
D03*
Y26046D02*
D03*
Y28015D02*
D03*
Y29983D02*
D03*
Y31952D02*
D03*
Y33920D02*
D03*
Y35889D02*
D03*
Y37857D02*
D03*
Y39826D02*
D03*
Y41794D02*
D03*
Y43763D02*
D03*
Y45731D02*
D03*
Y47700D02*
D03*
Y49668D02*
D03*
Y51637D02*
D03*
Y53606D02*
D03*
Y55574D02*
D03*
Y57543D02*
D03*
Y59511D02*
D03*
Y61480D02*
D03*
Y63448D02*
D03*
Y65417D02*
D03*
Y67385D02*
D03*
Y69353D02*
D03*
Y71322D02*
D03*
X113324D02*
D03*
Y69353D02*
D03*
Y67385D02*
D03*
Y65417D02*
D03*
Y63448D02*
D03*
Y61480D02*
D03*
Y59511D02*
D03*
Y57543D02*
D03*
Y55574D02*
D03*
Y53606D02*
D03*
Y51637D02*
D03*
Y49668D02*
D03*
Y47700D02*
D03*
Y45731D02*
D03*
Y43763D02*
D03*
Y41794D02*
D03*
Y39826D02*
D03*
Y37857D02*
D03*
Y35889D02*
D03*
Y33920D02*
D03*
Y31952D02*
D03*
Y29983D02*
D03*
Y28015D02*
D03*
Y26046D02*
D03*
Y24078D02*
D03*
D35*
X59978Y77424D02*
D03*
X61946D02*
D03*
X63915D02*
D03*
X65883D02*
D03*
X67852D02*
D03*
X69820D02*
D03*
X71789D02*
D03*
X73757D02*
D03*
X75726D02*
D03*
X77694D02*
D03*
X79663D02*
D03*
X81631D02*
D03*
X83600D02*
D03*
X85568D02*
D03*
X87537D02*
D03*
X89505D02*
D03*
X91474D02*
D03*
X93442D02*
D03*
X95411D02*
D03*
X97379D02*
D03*
X99348D02*
D03*
X101316D02*
D03*
X103285D02*
D03*
X105254D02*
D03*
X107222D02*
D03*
Y17976D02*
D03*
X105254D02*
D03*
X103285D02*
D03*
X101316D02*
D03*
X99348D02*
D03*
X97379D02*
D03*
X95411D02*
D03*
X93442D02*
D03*
X91474D02*
D03*
X89505D02*
D03*
X87537D02*
D03*
X85568D02*
D03*
X83600D02*
D03*
X81631D02*
D03*
X79663D02*
D03*
X77694D02*
D03*
X75726D02*
D03*
X73757D02*
D03*
X71789D02*
D03*
X69820D02*
D03*
X67852D02*
D03*
X65883D02*
D03*
X63915D02*
D03*
X61946D02*
D03*
X59978D02*
D03*
D36*
X168500Y85300D02*
D03*
X172500D02*
D03*
D47*
X187800Y85100D02*
D03*
X7800Y77000D02*
D03*
Y85300D02*
D03*
Y93700D02*
D03*
Y4500D02*
D03*
D48*
X35200Y64500D02*
D03*
Y54500D02*
D03*
Y44500D02*
D03*
Y34500D02*
D03*
Y24500D02*
D03*
X17800Y93700D02*
D03*
X27800D02*
D03*
X37800D02*
D03*
X47800D02*
D03*
X57800D02*
D03*
X67800D02*
D03*
X77800D02*
D03*
X87800D02*
D03*
X97800D02*
D03*
X107800D02*
D03*
X117800D02*
D03*
X127800D02*
D03*
X137800D02*
D03*
X147800D02*
D03*
X157800D02*
D03*
X167800D02*
D03*
X177800D02*
D03*
X187800D02*
D03*
X17800Y4500D02*
D03*
X27800D02*
D03*
X37800D02*
D03*
X47800D02*
D03*
X57800D02*
D03*
X67800D02*
D03*
X77800D02*
D03*
X87800D02*
D03*
X97800D02*
D03*
X107800D02*
D03*
X117800D02*
D03*
X127800D02*
D03*
X137800D02*
D03*
X147800D02*
D03*
X157800D02*
D03*
X167800D02*
D03*
X177800D02*
D03*
X187800D02*
D03*
D49*
X35200Y14500D02*
D03*
M02*
