G04 Layer_Physical_Order=3*
G04 Layer_Color=16440176*
%FSLAX25Y25*%
%MOIN*%
G70*
G01*
G75*
%ADD10C,0.01000*%
%ADD11C,0.01500*%
%ADD13C,0.01200*%
%ADD37C,0.01100*%
%ADD39C,0.02000*%
%ADD42C,0.02500*%
%ADD44C,0.02200*%
%ADD47R,0.05906X0.05906*%
%ADD48C,0.05906*%
%ADD50C,0.02200*%
G36*
X2601Y34989D02*
X2621Y34736D01*
X2633Y34668D01*
X2647Y34607D01*
X2664Y34554D01*
X2683Y34509D01*
X2705Y34472D01*
X2730Y34443D01*
X1470D01*
X1495Y34472D01*
X1517Y34509D01*
X1536Y34554D01*
X1553Y34607D01*
X1568Y34668D01*
X1579Y34736D01*
X1595Y34897D01*
X1599Y34989D01*
X1600Y35088D01*
X2600D01*
X2601Y34989D01*
D02*
G37*
G36*
X2705Y35828D02*
X2683Y35791D01*
X2664Y35746D01*
X2647Y35693D01*
X2633Y35632D01*
X2621Y35564D01*
X2605Y35403D01*
X2601Y35311D01*
X2600Y35212D01*
X1600D01*
X1599Y35311D01*
X1579Y35564D01*
X1568Y35632D01*
X1553Y35693D01*
X1536Y35746D01*
X1517Y35791D01*
X1495Y35828D01*
X1470Y35857D01*
X2730D01*
X2705Y35828D01*
D02*
G37*
G36*
Y38128D02*
X2683Y38091D01*
X2664Y38046D01*
X2647Y37993D01*
X2633Y37932D01*
X2621Y37864D01*
X2605Y37703D01*
X2603Y37661D01*
X2621Y37436D01*
X2633Y37368D01*
X2647Y37307D01*
X2664Y37254D01*
X2683Y37209D01*
X2705Y37172D01*
X2730Y37143D01*
X1470D01*
X1495Y37172D01*
X1517Y37209D01*
X1536Y37254D01*
X1553Y37307D01*
X1568Y37368D01*
X1579Y37436D01*
X1595Y37597D01*
X1597Y37639D01*
X1579Y37864D01*
X1568Y37932D01*
X1553Y37993D01*
X1536Y38046D01*
X1517Y38091D01*
X1495Y38128D01*
X1470Y38157D01*
X2730D01*
X2705Y38128D01*
D02*
G37*
G36*
X2601Y32289D02*
X2621Y32036D01*
X2633Y31968D01*
X2647Y31907D01*
X2664Y31854D01*
X2683Y31809D01*
X2705Y31772D01*
X2730Y31743D01*
X1470D01*
X1495Y31772D01*
X1517Y31809D01*
X1536Y31854D01*
X1553Y31907D01*
X1568Y31968D01*
X1579Y32036D01*
X1595Y32197D01*
X1599Y32289D01*
X1600Y32388D01*
X2600D01*
X2601Y32289D01*
D02*
G37*
G36*
X3715Y32317D02*
X3696Y32333D01*
X3668Y32347D01*
X3631Y32359D01*
X3584Y32370D01*
X3528Y32379D01*
X3389Y32392D01*
X3213Y32399D01*
X3112Y32400D01*
Y33400D01*
X3213Y33401D01*
X3528Y33421D01*
X3584Y33430D01*
X3631Y33441D01*
X3668Y33453D01*
X3696Y33468D01*
X3715Y33483D01*
Y32317D01*
D02*
G37*
G36*
X2705Y33128D02*
X2683Y33091D01*
X2664Y33046D01*
X2647Y32993D01*
X2633Y32932D01*
X2621Y32864D01*
X2605Y32703D01*
X2601Y32611D01*
X2600Y32512D01*
X1600D01*
X1599Y32611D01*
X1579Y32864D01*
X1568Y32932D01*
X1553Y32993D01*
X1536Y33046D01*
X1517Y33091D01*
X1495Y33128D01*
X1470Y33157D01*
X2730D01*
X2705Y33128D01*
D02*
G37*
G36*
X3957Y51770D02*
X3928Y51795D01*
X3891Y51817D01*
X3846Y51836D01*
X3793Y51853D01*
X3732Y51868D01*
X3664Y51879D01*
X3503Y51895D01*
X3411Y51899D01*
X3312Y51900D01*
Y52900D01*
X3411Y52901D01*
X3664Y52921D01*
X3732Y52933D01*
X3793Y52947D01*
X3846Y52964D01*
X3891Y52983D01*
X3928Y53005D01*
X3957Y53030D01*
Y51770D01*
D02*
G37*
G36*
X2705Y55428D02*
X2683Y55391D01*
X2664Y55346D01*
X2647Y55293D01*
X2633Y55232D01*
X2621Y55164D01*
X2605Y55003D01*
X2601Y54911D01*
X2600Y54812D01*
X1600D01*
X1599Y54911D01*
X1579Y55164D01*
X1568Y55232D01*
X1553Y55293D01*
X1536Y55346D01*
X1517Y55391D01*
X1495Y55428D01*
X1470Y55457D01*
X2730D01*
X2705Y55428D01*
D02*
G37*
G36*
X2601Y54489D02*
X2621Y54236D01*
X2633Y54168D01*
X2647Y54107D01*
X2664Y54054D01*
X2683Y54009D01*
X2705Y53972D01*
X2730Y53943D01*
X1470D01*
X1495Y53972D01*
X1517Y54009D01*
X1536Y54054D01*
X1553Y54107D01*
X1568Y54168D01*
X1579Y54236D01*
X1595Y54397D01*
X1599Y54489D01*
X1600Y54588D01*
X2600D01*
X2601Y54489D01*
D02*
G37*
G36*
X4247Y96100D02*
Y90147D01*
X11353D01*
Y95746D01*
X11706Y96100D01*
X14598D01*
X14819Y95652D01*
X14697Y95492D01*
X14339Y94627D01*
X14217Y93700D01*
X14339Y92773D01*
X14697Y91908D01*
X15266Y91166D01*
X16008Y90597D01*
X16873Y90239D01*
X17800Y90117D01*
X18727Y90239D01*
X19592Y90597D01*
X20334Y91166D01*
X20903Y91908D01*
X21261Y92773D01*
X21383Y93700D01*
X21261Y94627D01*
X20903Y95492D01*
X20781Y95652D01*
X21002Y96100D01*
X24598D01*
X24819Y95652D01*
X24697Y95492D01*
X24339Y94627D01*
X24217Y93700D01*
X24339Y92773D01*
X24697Y91908D01*
X25266Y91166D01*
X26008Y90597D01*
X26873Y90239D01*
X27800Y90117D01*
X28727Y90239D01*
X29592Y90597D01*
X30334Y91166D01*
X30903Y91908D01*
X31261Y92773D01*
X31383Y93700D01*
X31261Y94627D01*
X30903Y95492D01*
X30781Y95652D01*
X31002Y96100D01*
X44598D01*
X44819Y95652D01*
X44697Y95492D01*
X44339Y94627D01*
X44217Y93700D01*
X44339Y92773D01*
X44697Y91908D01*
X45266Y91166D01*
X46008Y90597D01*
X46873Y90239D01*
X47800Y90117D01*
X48727Y90239D01*
X49592Y90597D01*
X50334Y91166D01*
X50903Y91908D01*
X51261Y92773D01*
X51383Y93700D01*
X51261Y94627D01*
X50903Y95492D01*
X50781Y95652D01*
X51002Y96100D01*
X54598D01*
X54819Y95652D01*
X54697Y95492D01*
X54339Y94627D01*
X54217Y93700D01*
X54339Y92773D01*
X54697Y91908D01*
X55266Y91166D01*
X56008Y90597D01*
X56873Y90239D01*
X57800Y90117D01*
X58727Y90239D01*
X59592Y90597D01*
X60334Y91166D01*
X60903Y91908D01*
X61261Y92773D01*
X61383Y93700D01*
X61261Y94627D01*
X60903Y95492D01*
X60781Y95652D01*
X61002Y96100D01*
X64598D01*
X64819Y95652D01*
X64697Y95492D01*
X64339Y94627D01*
X64217Y93700D01*
X64339Y92773D01*
X64697Y91908D01*
X65266Y91166D01*
X66008Y90597D01*
X66873Y90239D01*
X67800Y90117D01*
X68727Y90239D01*
X69592Y90597D01*
X70334Y91166D01*
X70903Y91908D01*
X71261Y92773D01*
X71383Y93700D01*
X71261Y94627D01*
X70903Y95492D01*
X70781Y95652D01*
X71002Y96100D01*
X74598D01*
X74819Y95652D01*
X74697Y95492D01*
X74339Y94627D01*
X74217Y93700D01*
X74339Y92773D01*
X74697Y91908D01*
X75266Y91166D01*
X76008Y90597D01*
X76873Y90239D01*
X77800Y90117D01*
X78727Y90239D01*
X79592Y90597D01*
X80334Y91166D01*
X80903Y91908D01*
X81261Y92773D01*
X81383Y93700D01*
X81261Y94627D01*
X80903Y95492D01*
X80781Y95652D01*
X81002Y96100D01*
X84598D01*
X84819Y95652D01*
X84697Y95492D01*
X84339Y94627D01*
X84217Y93700D01*
X84339Y92773D01*
X84697Y91908D01*
X85266Y91166D01*
X86008Y90597D01*
X86873Y90239D01*
X87800Y90117D01*
X88727Y90239D01*
X89592Y90597D01*
X90334Y91166D01*
X90903Y91908D01*
X91261Y92773D01*
X91383Y93700D01*
X91261Y94627D01*
X90903Y95492D01*
X90781Y95652D01*
X91002Y96100D01*
X94598D01*
X94819Y95652D01*
X94697Y95492D01*
X94339Y94627D01*
X94217Y93700D01*
X94339Y92773D01*
X94697Y91908D01*
X95266Y91166D01*
X96008Y90597D01*
X96873Y90239D01*
X97800Y90117D01*
X98727Y90239D01*
X99592Y90597D01*
X100334Y91166D01*
X100903Y91908D01*
X101261Y92773D01*
X101383Y93700D01*
X101261Y94627D01*
X100903Y95492D01*
X100781Y95652D01*
X101002Y96100D01*
X104598D01*
X104819Y95652D01*
X104697Y95492D01*
X104339Y94627D01*
X104217Y93700D01*
X104339Y92773D01*
X104697Y91908D01*
X105266Y91166D01*
X106008Y90597D01*
X106873Y90239D01*
X107800Y90117D01*
X108727Y90239D01*
X109592Y90597D01*
X110334Y91166D01*
X110903Y91908D01*
X111261Y92773D01*
X111383Y93700D01*
X111261Y94627D01*
X110903Y95492D01*
X110781Y95652D01*
X111002Y96100D01*
X114598D01*
X114819Y95652D01*
X114697Y95492D01*
X114339Y94627D01*
X114217Y93700D01*
X114339Y92773D01*
X114697Y91908D01*
X115266Y91166D01*
X116008Y90597D01*
X116873Y90239D01*
X117800Y90117D01*
X118727Y90239D01*
X119592Y90597D01*
X120334Y91166D01*
X120903Y91908D01*
X121261Y92773D01*
X121383Y93700D01*
X121261Y94627D01*
X120903Y95492D01*
X120781Y95652D01*
X121002Y96100D01*
X124598D01*
X124819Y95652D01*
X124697Y95492D01*
X124339Y94627D01*
X124217Y93700D01*
X124339Y92773D01*
X124697Y91908D01*
X125266Y91166D01*
X126008Y90597D01*
X126873Y90239D01*
X127800Y90117D01*
X128727Y90239D01*
X129592Y90597D01*
X130334Y91166D01*
X130903Y91908D01*
X131261Y92773D01*
X131383Y93700D01*
X131261Y94627D01*
X130903Y95492D01*
X130781Y95652D01*
X131002Y96100D01*
X134598D01*
X134819Y95652D01*
X134697Y95492D01*
X134339Y94627D01*
X134217Y93700D01*
X134339Y92773D01*
X134697Y91908D01*
X135266Y91166D01*
X136008Y90597D01*
X136873Y90239D01*
X137800Y90117D01*
X138727Y90239D01*
X139592Y90597D01*
X140334Y91166D01*
X140903Y91908D01*
X141261Y92773D01*
X141383Y93700D01*
X141261Y94627D01*
X140903Y95492D01*
X140781Y95652D01*
X141002Y96100D01*
X144598D01*
X144819Y95652D01*
X144697Y95492D01*
X144339Y94627D01*
X144217Y93700D01*
X144339Y92773D01*
X144697Y91908D01*
X145266Y91166D01*
X146008Y90597D01*
X146873Y90239D01*
X147800Y90117D01*
X148727Y90239D01*
X149592Y90597D01*
X150334Y91166D01*
X150903Y91908D01*
X151261Y92773D01*
X151383Y93700D01*
X151261Y94627D01*
X150903Y95492D01*
X150781Y95652D01*
X151002Y96100D01*
X154598D01*
X154819Y95652D01*
X154697Y95492D01*
X154339Y94627D01*
X154217Y93700D01*
X154339Y92773D01*
X154697Y91908D01*
X155266Y91166D01*
X156008Y90597D01*
X156873Y90239D01*
X157800Y90117D01*
X158727Y90239D01*
X159592Y90597D01*
X160334Y91166D01*
X160903Y91908D01*
X161261Y92773D01*
X161383Y93700D01*
X161261Y94627D01*
X160903Y95492D01*
X160781Y95652D01*
X161002Y96100D01*
X164598D01*
X164819Y95652D01*
X164697Y95492D01*
X164339Y94627D01*
X164217Y93700D01*
X164339Y92773D01*
X164697Y91908D01*
X165266Y91166D01*
X166008Y90597D01*
X166873Y90239D01*
X167800Y90117D01*
X168727Y90239D01*
X169592Y90597D01*
X170334Y91166D01*
X170903Y91908D01*
X171261Y92773D01*
X171383Y93700D01*
X171261Y94627D01*
X170903Y95492D01*
X170781Y95652D01*
X171002Y96100D01*
X174598D01*
X174819Y95652D01*
X174697Y95492D01*
X174339Y94627D01*
X174217Y93700D01*
X174339Y92773D01*
X174697Y91908D01*
X175266Y91166D01*
X176008Y90597D01*
X176873Y90239D01*
X177800Y90117D01*
X178727Y90239D01*
X179592Y90597D01*
X180334Y91166D01*
X180903Y91908D01*
X181261Y92773D01*
X181383Y93700D01*
X181261Y94627D01*
X180903Y95492D01*
X180781Y95652D01*
X181002Y96100D01*
X184598D01*
X184819Y95652D01*
X184697Y95492D01*
X184339Y94627D01*
X184217Y93700D01*
X184339Y92773D01*
X184697Y91908D01*
X185266Y91166D01*
X186008Y90597D01*
X186873Y90239D01*
X187800Y90117D01*
X188727Y90239D01*
X189592Y90597D01*
X190334Y91166D01*
X190903Y91908D01*
X191261Y92773D01*
X191383Y93700D01*
X191261Y94627D01*
X190903Y95492D01*
X190781Y95652D01*
X191002Y96100D01*
X193300D01*
Y17019D01*
X192801Y16963D01*
X192426Y17526D01*
X191863Y17901D01*
X191200Y18033D01*
X190652Y17924D01*
X190453Y18321D01*
X190436Y18390D01*
X190801Y18937D01*
X190933Y19600D01*
X190801Y20263D01*
X190426Y20826D01*
X189863Y21201D01*
X189200Y21333D01*
X188537Y21201D01*
X187974Y20826D01*
X187599Y20263D01*
X187467Y19600D01*
X187599Y18937D01*
X187974Y18374D01*
X188537Y17999D01*
X189200Y17867D01*
X189748Y17976D01*
X189947Y17579D01*
X189964Y17511D01*
X189599Y16963D01*
X189467Y16300D01*
X189599Y15637D01*
X189709Y15471D01*
X189349Y15111D01*
X189063Y15301D01*
X188400Y15433D01*
X187737Y15301D01*
X187174Y14926D01*
X186799Y14363D01*
X186667Y13700D01*
X186759Y13238D01*
X186310Y12936D01*
X186063Y13101D01*
X185400Y13233D01*
X184737Y13101D01*
X184174Y12726D01*
X183799Y12163D01*
X183667Y11500D01*
X183799Y10837D01*
X184174Y10274D01*
X184737Y9899D01*
X185400Y9767D01*
X186063Y9899D01*
X186626Y10274D01*
X187001Y10837D01*
X187133Y11500D01*
X187041Y11962D01*
X187490Y12263D01*
X187737Y12099D01*
X188400Y11967D01*
X189063Y12099D01*
X189626Y12474D01*
X190001Y13037D01*
X190133Y13700D01*
X190001Y14363D01*
X189891Y14529D01*
X190251Y14889D01*
X190537Y14699D01*
X191200Y14567D01*
X191863Y14699D01*
X192426Y15074D01*
X192801Y15637D01*
X193300Y15581D01*
Y2454D01*
X192946Y2100D01*
X191002D01*
X190781Y2548D01*
X190903Y2708D01*
X191261Y3573D01*
X191383Y4500D01*
X191261Y5427D01*
X190903Y6292D01*
X190334Y7034D01*
X189592Y7603D01*
X188727Y7961D01*
X187800Y8083D01*
X186873Y7961D01*
X186008Y7603D01*
X185266Y7034D01*
X184697Y6292D01*
X184339Y5427D01*
X184217Y4500D01*
X184339Y3573D01*
X184697Y2708D01*
X184819Y2548D01*
X184598Y2100D01*
X181002D01*
X180781Y2548D01*
X180903Y2708D01*
X181261Y3573D01*
X181383Y4500D01*
X181261Y5427D01*
X180903Y6292D01*
X180334Y7034D01*
X179592Y7603D01*
X178727Y7961D01*
X177800Y8083D01*
X176873Y7961D01*
X176008Y7603D01*
X175266Y7034D01*
X174697Y6292D01*
X174339Y5427D01*
X174217Y4500D01*
X174339Y3573D01*
X174697Y2708D01*
X174819Y2548D01*
X174598Y2100D01*
X171002D01*
X170781Y2548D01*
X170903Y2708D01*
X171261Y3573D01*
X171383Y4500D01*
X171261Y5427D01*
X170903Y6292D01*
X170334Y7034D01*
X169592Y7603D01*
X168727Y7961D01*
X167800Y8083D01*
X166873Y7961D01*
X166008Y7603D01*
X165266Y7034D01*
X164697Y6292D01*
X164339Y5427D01*
X164217Y4500D01*
X164339Y3573D01*
X164697Y2708D01*
X164819Y2548D01*
X164598Y2100D01*
X161002D01*
X160781Y2548D01*
X160903Y2708D01*
X161261Y3573D01*
X161383Y4500D01*
X161261Y5427D01*
X160903Y6292D01*
X160334Y7034D01*
X159592Y7603D01*
X158727Y7961D01*
X157800Y8083D01*
X156873Y7961D01*
X156008Y7603D01*
X155266Y7034D01*
X154697Y6292D01*
X154339Y5427D01*
X154217Y4500D01*
X154339Y3573D01*
X154697Y2708D01*
X154819Y2548D01*
X154598Y2100D01*
X151002D01*
X150781Y2548D01*
X150903Y2708D01*
X151261Y3573D01*
X151383Y4500D01*
X151261Y5427D01*
X150903Y6292D01*
X150334Y7034D01*
X149592Y7603D01*
X148727Y7961D01*
X147800Y8083D01*
X146873Y7961D01*
X146008Y7603D01*
X145266Y7034D01*
X144697Y6292D01*
X144339Y5427D01*
X144217Y4500D01*
X144339Y3573D01*
X144697Y2708D01*
X144819Y2548D01*
X144598Y2100D01*
X141002D01*
X140781Y2548D01*
X140903Y2708D01*
X141261Y3573D01*
X141383Y4500D01*
X141261Y5427D01*
X140903Y6292D01*
X140334Y7034D01*
X139592Y7603D01*
X138727Y7961D01*
X137800Y8083D01*
X136873Y7961D01*
X136008Y7603D01*
X135266Y7034D01*
X134697Y6292D01*
X134339Y5427D01*
X134217Y4500D01*
X134339Y3573D01*
X134697Y2708D01*
X134819Y2548D01*
X134598Y2100D01*
X131002D01*
X130781Y2548D01*
X130903Y2708D01*
X131261Y3573D01*
X131383Y4500D01*
X131261Y5427D01*
X130903Y6292D01*
X130334Y7034D01*
X129592Y7603D01*
X128727Y7961D01*
X127800Y8083D01*
X126873Y7961D01*
X126008Y7603D01*
X125266Y7034D01*
X124697Y6292D01*
X124339Y5427D01*
X124217Y4500D01*
X124339Y3573D01*
X124697Y2708D01*
X124819Y2548D01*
X124598Y2100D01*
X121002D01*
X120781Y2548D01*
X120903Y2708D01*
X121261Y3573D01*
X121383Y4500D01*
X121261Y5427D01*
X120903Y6292D01*
X120334Y7034D01*
X119592Y7603D01*
X118727Y7961D01*
X117800Y8083D01*
X116873Y7961D01*
X116008Y7603D01*
X115266Y7034D01*
X114697Y6292D01*
X114339Y5427D01*
X114217Y4500D01*
X114339Y3573D01*
X114697Y2708D01*
X114819Y2548D01*
X114598Y2100D01*
X111002D01*
X110781Y2548D01*
X110903Y2708D01*
X111261Y3573D01*
X111383Y4500D01*
X111261Y5427D01*
X110903Y6292D01*
X110334Y7034D01*
X109592Y7603D01*
X108727Y7961D01*
X107800Y8083D01*
X106873Y7961D01*
X106008Y7603D01*
X105266Y7034D01*
X104697Y6292D01*
X104339Y5427D01*
X104217Y4500D01*
X104339Y3573D01*
X104697Y2708D01*
X104819Y2548D01*
X104598Y2100D01*
X101002D01*
X100781Y2548D01*
X100903Y2708D01*
X101261Y3573D01*
X101383Y4500D01*
X101261Y5427D01*
X100903Y6292D01*
X100334Y7034D01*
X99592Y7603D01*
X98727Y7961D01*
X97800Y8083D01*
X96873Y7961D01*
X96008Y7603D01*
X95266Y7034D01*
X94697Y6292D01*
X94339Y5427D01*
X94217Y4500D01*
X94339Y3573D01*
X94697Y2708D01*
X94819Y2548D01*
X94598Y2100D01*
X91002D01*
X90781Y2548D01*
X90903Y2708D01*
X91261Y3573D01*
X91383Y4500D01*
X91261Y5427D01*
X90903Y6292D01*
X90334Y7034D01*
X89592Y7603D01*
X88727Y7961D01*
X87800Y8083D01*
X86873Y7961D01*
X86008Y7603D01*
X85266Y7034D01*
X84697Y6292D01*
X84339Y5427D01*
X84217Y4500D01*
X84339Y3573D01*
X84697Y2708D01*
X84819Y2548D01*
X84598Y2100D01*
X81002D01*
X80781Y2548D01*
X80903Y2708D01*
X81261Y3573D01*
X81383Y4500D01*
X81261Y5427D01*
X80903Y6292D01*
X80334Y7034D01*
X79592Y7603D01*
X78727Y7961D01*
X77800Y8083D01*
X76873Y7961D01*
X76008Y7603D01*
X75266Y7034D01*
X74697Y6292D01*
X74339Y5427D01*
X74217Y4500D01*
X74339Y3573D01*
X74697Y2708D01*
X74819Y2548D01*
X74598Y2100D01*
X71002D01*
X70781Y2548D01*
X70903Y2708D01*
X71261Y3573D01*
X71383Y4500D01*
X71261Y5427D01*
X70903Y6292D01*
X70334Y7034D01*
X69592Y7603D01*
X68727Y7961D01*
X67800Y8083D01*
X66873Y7961D01*
X66008Y7603D01*
X65266Y7034D01*
X64697Y6292D01*
X64339Y5427D01*
X64217Y4500D01*
X64339Y3573D01*
X64697Y2708D01*
X64819Y2548D01*
X64598Y2100D01*
X61002D01*
X60781Y2548D01*
X60903Y2708D01*
X61261Y3573D01*
X61383Y4500D01*
X61261Y5427D01*
X60903Y6292D01*
X60334Y7034D01*
X59592Y7603D01*
X58727Y7961D01*
X57800Y8083D01*
X56873Y7961D01*
X56008Y7603D01*
X55266Y7034D01*
X54697Y6292D01*
X54339Y5427D01*
X54217Y4500D01*
X54339Y3573D01*
X54697Y2708D01*
X54819Y2548D01*
X54598Y2100D01*
X51002D01*
X50781Y2548D01*
X50903Y2708D01*
X51261Y3573D01*
X51383Y4500D01*
X51261Y5427D01*
X50903Y6292D01*
X50334Y7034D01*
X49592Y7603D01*
X48727Y7961D01*
X47800Y8083D01*
X46873Y7961D01*
X46008Y7603D01*
X45266Y7034D01*
X44697Y6292D01*
X44339Y5427D01*
X44217Y4500D01*
X44339Y3573D01*
X44697Y2708D01*
X44819Y2548D01*
X44598Y2100D01*
X41002D01*
X40781Y2548D01*
X40903Y2708D01*
X41261Y3573D01*
X41383Y4500D01*
X41261Y5427D01*
X40903Y6292D01*
X40334Y7034D01*
X39592Y7603D01*
X38727Y7961D01*
X37800Y8083D01*
X36873Y7961D01*
X36008Y7603D01*
X35266Y7034D01*
X34697Y6292D01*
X34339Y5427D01*
X34217Y4500D01*
X34339Y3573D01*
X34697Y2708D01*
X34819Y2548D01*
X34598Y2100D01*
X31002D01*
X30781Y2548D01*
X30903Y2708D01*
X31261Y3573D01*
X31383Y4500D01*
X31261Y5427D01*
X30903Y6292D01*
X30334Y7034D01*
X29592Y7603D01*
X28727Y7961D01*
X27800Y8083D01*
X26873Y7961D01*
X26008Y7603D01*
X25266Y7034D01*
X24697Y6292D01*
X24339Y5427D01*
X24217Y4500D01*
X24339Y3573D01*
X24697Y2708D01*
X24819Y2548D01*
X24598Y2100D01*
X21002D01*
X20781Y2548D01*
X20903Y2708D01*
X21261Y3573D01*
X21383Y4500D01*
X21261Y5427D01*
X20903Y6292D01*
X20334Y7034D01*
X19592Y7603D01*
X18727Y7961D01*
X17800Y8083D01*
X16873Y7961D01*
X16008Y7603D01*
X15266Y7034D01*
X14697Y6292D01*
X14339Y5427D01*
X14217Y4500D01*
X14339Y3573D01*
X14697Y2708D01*
X14819Y2548D01*
X14598Y2100D01*
X1600D01*
Y9972D01*
X1987Y10289D01*
X2100Y10267D01*
X2763Y10399D01*
X3200Y10690D01*
X3637Y10399D01*
X4300Y10267D01*
X4963Y10399D01*
X5526Y10774D01*
X5901Y11337D01*
X6033Y12000D01*
X5901Y12663D01*
X5526Y13226D01*
X4963Y13601D01*
X4300Y13733D01*
X4228Y13719D01*
X3802Y14144D01*
X3833Y14300D01*
X3701Y14963D01*
X3535Y15213D01*
X3359Y15600D01*
X3535Y15987D01*
X3701Y16237D01*
X3833Y16900D01*
X3701Y17563D01*
X3410Y18000D01*
X3701Y18437D01*
X3833Y19100D01*
X3701Y19763D01*
X3326Y20326D01*
X2763Y20701D01*
X2100Y20833D01*
X1795Y21238D01*
Y21282D01*
X2200Y21667D01*
X2863Y21799D01*
X3426Y22174D01*
X3801Y22737D01*
X3933Y23400D01*
X3801Y24063D01*
X3426Y24626D01*
X2863Y25001D01*
X2200Y25133D01*
X1987Y25091D01*
X1600Y25408D01*
Y29072D01*
X1987Y29389D01*
X2100Y29367D01*
X2763Y29499D01*
X3326Y29874D01*
X3701Y30437D01*
X3833Y31100D01*
X3983Y31250D01*
X4400Y31167D01*
X5063Y31299D01*
X5626Y31674D01*
X6001Y32237D01*
X6133Y32900D01*
X6001Y33563D01*
X5626Y34126D01*
X5063Y34501D01*
X4400Y34633D01*
X3737Y34501D01*
X3443Y34907D01*
X3365Y35150D01*
X3478Y35502D01*
X3701Y35837D01*
X3833Y36500D01*
X3701Y37163D01*
X3376Y37650D01*
X3701Y38137D01*
X3833Y38800D01*
X3701Y39463D01*
X3326Y40026D01*
X2763Y40401D01*
X2100Y40533D01*
X1945Y40900D01*
X2100Y41267D01*
X2763Y41399D01*
X3326Y41774D01*
X3701Y42337D01*
X3833Y43000D01*
X3701Y43663D01*
X3326Y44226D01*
X2763Y44601D01*
X2100Y44733D01*
X1987Y44711D01*
X1600Y45028D01*
Y48872D01*
X1987Y49189D01*
X2100Y49167D01*
X2763Y49299D01*
X3326Y49674D01*
X3701Y50237D01*
X3730Y50381D01*
X4308Y50725D01*
X4600Y50667D01*
X5263Y50799D01*
X5826Y51174D01*
X6201Y51737D01*
X6333Y52400D01*
X6201Y53063D01*
X5826Y53626D01*
X5263Y54001D01*
X4600Y54133D01*
X4193Y54052D01*
X3931Y54005D01*
X3479Y54297D01*
X3419Y54386D01*
X3359Y54700D01*
X3419Y55014D01*
X3701Y55437D01*
X3833Y56100D01*
X3701Y56763D01*
X3410Y57200D01*
X3701Y57637D01*
X3833Y58300D01*
X3701Y58963D01*
X3326Y59526D01*
X2763Y59901D01*
X2100Y60033D01*
X1989Y60394D01*
X2300Y60767D01*
X2963Y60899D01*
X3526Y61274D01*
X3901Y61837D01*
X4033Y62500D01*
X3901Y63163D01*
X3526Y63726D01*
X2963Y64101D01*
X2300Y64233D01*
X2100Y64193D01*
X1600Y64604D01*
Y95746D01*
X1953Y96100D01*
X4247D01*
D02*
G37*
G36*
X2705Y52628D02*
X2683Y52591D01*
X2664Y52546D01*
X2647Y52493D01*
X2633Y52432D01*
X2621Y52364D01*
X2605Y52203D01*
X2601Y52111D01*
X2601Y52100D01*
X2601Y52089D01*
X2621Y51836D01*
X2633Y51768D01*
X2647Y51707D01*
X2664Y51654D01*
X2683Y51609D01*
X2705Y51572D01*
X2730Y51543D01*
X1470D01*
X1495Y51572D01*
X1517Y51609D01*
X1536Y51654D01*
X1553Y51707D01*
X1568Y51768D01*
X1579Y51836D01*
X1595Y51997D01*
X1599Y52089D01*
X1599Y52100D01*
X1599Y52111D01*
X1579Y52364D01*
X1568Y52432D01*
X1553Y52493D01*
X1536Y52546D01*
X1517Y52591D01*
X1495Y52628D01*
X1470Y52657D01*
X2730D01*
X2705Y52628D01*
D02*
G37*
G36*
Y57628D02*
X2683Y57591D01*
X2664Y57546D01*
X2647Y57493D01*
X2633Y57432D01*
X2621Y57364D01*
X2607Y57219D01*
X2621Y57036D01*
X2633Y56968D01*
X2647Y56907D01*
X2664Y56854D01*
X2683Y56809D01*
X2705Y56772D01*
X2730Y56743D01*
X1470D01*
X1495Y56772D01*
X1517Y56809D01*
X1536Y56854D01*
X1553Y56907D01*
X1568Y56968D01*
X1579Y57036D01*
X1593Y57181D01*
X1579Y57364D01*
X1568Y57432D01*
X1553Y57493D01*
X1536Y57546D01*
X1517Y57591D01*
X1495Y57628D01*
X1470Y57657D01*
X2730D01*
X2705Y57628D01*
D02*
G37*
G36*
Y16228D02*
X2683Y16191D01*
X2664Y16146D01*
X2647Y16093D01*
X2633Y16032D01*
X2621Y15964D01*
X2605Y15803D01*
X2601Y15711D01*
X2600Y15612D01*
X1600D01*
X1599Y15711D01*
X1579Y15964D01*
X1568Y16032D01*
X1553Y16093D01*
X1536Y16146D01*
X1517Y16191D01*
X1495Y16228D01*
X1470Y16257D01*
X2730D01*
X2705Y16228D01*
D02*
G37*
G36*
Y13628D02*
X2683Y13591D01*
X2664Y13546D01*
X2647Y13493D01*
X2633Y13432D01*
X2621Y13364D01*
X2605Y13203D01*
X2603Y13161D01*
X2621Y12936D01*
X2633Y12868D01*
X2647Y12807D01*
X2664Y12754D01*
X2683Y12709D01*
X2705Y12672D01*
X2730Y12643D01*
X1470D01*
X1495Y12672D01*
X1517Y12709D01*
X1536Y12754D01*
X1553Y12807D01*
X1568Y12868D01*
X1579Y12936D01*
X1595Y13097D01*
X1597Y13139D01*
X1579Y13364D01*
X1568Y13432D01*
X1553Y13493D01*
X1536Y13546D01*
X1517Y13591D01*
X1495Y13628D01*
X1470Y13657D01*
X2730D01*
X2705Y13628D01*
D02*
G37*
G36*
X3657Y11370D02*
X3628Y11395D01*
X3591Y11417D01*
X3546Y11436D01*
X3493Y11453D01*
X3432Y11468D01*
X3364Y11479D01*
X3219Y11493D01*
X3036Y11479D01*
X2968Y11468D01*
X2907Y11453D01*
X2854Y11436D01*
X2809Y11417D01*
X2772Y11395D01*
X2743Y11370D01*
Y12630D01*
X2772Y12605D01*
X2809Y12583D01*
X2854Y12564D01*
X2907Y12547D01*
X2968Y12532D01*
X3036Y12521D01*
X3181Y12507D01*
X3364Y12521D01*
X3432Y12532D01*
X3493Y12547D01*
X3546Y12564D01*
X3591Y12583D01*
X3628Y12605D01*
X3657Y12630D01*
Y11370D01*
D02*
G37*
G36*
X2705Y18428D02*
X2683Y18391D01*
X2664Y18346D01*
X2647Y18293D01*
X2633Y18232D01*
X2621Y18164D01*
X2607Y18019D01*
X2621Y17836D01*
X2633Y17768D01*
X2647Y17707D01*
X2664Y17654D01*
X2683Y17609D01*
X2705Y17572D01*
X2730Y17543D01*
X1470D01*
X1495Y17572D01*
X1517Y17609D01*
X1536Y17654D01*
X1553Y17707D01*
X1568Y17768D01*
X1579Y17836D01*
X1593Y17981D01*
X1579Y18164D01*
X1568Y18232D01*
X1553Y18293D01*
X1536Y18346D01*
X1517Y18391D01*
X1495Y18428D01*
X1470Y18457D01*
X2730D01*
X2705Y18428D01*
D02*
G37*
G36*
X2601Y15489D02*
X2621Y15236D01*
X2633Y15168D01*
X2647Y15107D01*
X2664Y15054D01*
X2683Y15009D01*
X2705Y14972D01*
X2730Y14943D01*
X1470D01*
X1495Y14972D01*
X1517Y15009D01*
X1536Y15054D01*
X1553Y15107D01*
X1568Y15168D01*
X1579Y15236D01*
X1595Y15397D01*
X1599Y15489D01*
X1600Y15588D01*
X2600D01*
X2601Y15489D01*
D02*
G37*
%LPC*%
G36*
X63700Y46033D02*
X63037Y45901D01*
X62474Y45526D01*
X62099Y44963D01*
X61967Y44300D01*
X62099Y43637D01*
X62474Y43074D01*
X63037Y42699D01*
X63700Y42567D01*
X64363Y42699D01*
X64926Y43074D01*
X65301Y43637D01*
X65433Y44300D01*
X65301Y44963D01*
X64926Y45526D01*
X64363Y45901D01*
X63700Y46033D01*
D02*
G37*
G36*
X35200Y48083D02*
X34273Y47961D01*
X33408Y47603D01*
X32666Y47034D01*
X32097Y46292D01*
X31739Y45427D01*
X31617Y44500D01*
X31739Y43573D01*
X32097Y42708D01*
X32666Y41966D01*
X33408Y41397D01*
X34273Y41039D01*
X35200Y40917D01*
X36127Y41039D01*
X36992Y41397D01*
X37734Y41966D01*
X38303Y42708D01*
X38661Y43573D01*
X38783Y44500D01*
X38661Y45427D01*
X38303Y46292D01*
X37734Y47034D01*
X36992Y47603D01*
X36127Y47961D01*
X35200Y48083D01*
D02*
G37*
G36*
X133800Y47133D02*
X133137Y47001D01*
X132574Y46626D01*
X132199Y46063D01*
X132067Y45400D01*
X132199Y44737D01*
X132574Y44174D01*
X133137Y43799D01*
X133800Y43667D01*
X134463Y43799D01*
X135026Y44174D01*
X135401Y44737D01*
X135533Y45400D01*
X135401Y46063D01*
X135026Y46626D01*
X134463Y47001D01*
X133800Y47133D01*
D02*
G37*
G36*
X172700Y48733D02*
X172037Y48601D01*
X171474Y48226D01*
X171099Y47663D01*
X170967Y47000D01*
X171099Y46337D01*
X171474Y45774D01*
X172037Y45399D01*
X172700Y45267D01*
X173363Y45399D01*
X173926Y45774D01*
X174301Y46337D01*
X174433Y47000D01*
X174301Y47663D01*
X173926Y48226D01*
X173363Y48601D01*
X172700Y48733D01*
D02*
G37*
G36*
X11500Y47233D02*
X10837Y47101D01*
X10274Y46726D01*
X9899Y46163D01*
X9767Y45500D01*
X9899Y44837D01*
X10274Y44274D01*
X10837Y43899D01*
X11500Y43767D01*
X12163Y43899D01*
X12726Y44274D01*
X13101Y44837D01*
X13233Y45500D01*
X13101Y46163D01*
X12726Y46726D01*
X12163Y47101D01*
X11500Y47233D01*
D02*
G37*
G36*
X177400Y40033D02*
X176737Y39901D01*
X176174Y39526D01*
X175799Y38963D01*
X175667Y38300D01*
X175799Y37637D01*
X176174Y37074D01*
X176737Y36699D01*
X177400Y36567D01*
X178063Y36699D01*
X178626Y37074D01*
X179001Y37637D01*
X179133Y38300D01*
X179001Y38963D01*
X178626Y39526D01*
X178063Y39901D01*
X177400Y40033D01*
D02*
G37*
G36*
X69600Y44333D02*
X68937Y44201D01*
X68374Y43826D01*
X67999Y43263D01*
X67867Y42600D01*
X67999Y41937D01*
X68374Y41374D01*
X68937Y40999D01*
X69600Y40867D01*
X70263Y40999D01*
X70669Y41269D01*
X71029Y40909D01*
X70999Y40863D01*
X70867Y40200D01*
X70999Y39537D01*
X71374Y38974D01*
X71937Y38599D01*
X72600Y38467D01*
X73263Y38599D01*
X73826Y38974D01*
X74201Y39537D01*
X74333Y40200D01*
X74201Y40863D01*
X73826Y41426D01*
X73263Y41801D01*
X72600Y41933D01*
X71937Y41801D01*
X71531Y41530D01*
X71171Y41891D01*
X71201Y41937D01*
X71333Y42600D01*
X71201Y43263D01*
X70826Y43826D01*
X70263Y44201D01*
X69600Y44333D01*
D02*
G37*
G36*
X150331Y40902D02*
X149668Y40770D01*
X149106Y40394D01*
X148730Y39832D01*
X148598Y39169D01*
X148730Y38505D01*
X149106Y37943D01*
X149668Y37567D01*
X150331Y37435D01*
X150995Y37567D01*
X151557Y37943D01*
X151933Y38505D01*
X152065Y39169D01*
X151933Y39832D01*
X151557Y40394D01*
X150995Y40770D01*
X150331Y40902D01*
D02*
G37*
G36*
X183987Y42747D02*
X183323Y42615D01*
X182761Y42239D01*
X182385Y41677D01*
X182253Y41013D01*
X182385Y40350D01*
X182761Y39788D01*
X183304Y39425D01*
X183317Y39340D01*
X183282Y38910D01*
X183237Y38901D01*
X182674Y38526D01*
X182299Y37963D01*
X182167Y37300D01*
X182299Y36637D01*
X182674Y36074D01*
X182489Y35597D01*
X182199Y35163D01*
X182067Y34500D01*
X182199Y33837D01*
X182574Y33274D01*
X183137Y32899D01*
X183800Y32767D01*
X184463Y32899D01*
X185026Y33274D01*
X185401Y33837D01*
X185533Y34500D01*
X185401Y35163D01*
X185026Y35726D01*
X185212Y36203D01*
X185501Y36637D01*
X185530Y36781D01*
X186108Y37125D01*
X186400Y37067D01*
X187063Y37199D01*
X187626Y37574D01*
X188001Y38137D01*
X188133Y38800D01*
X188001Y39463D01*
X187626Y40026D01*
X187063Y40401D01*
X186400Y40533D01*
X186123Y40478D01*
X185698Y40903D01*
X185720Y41013D01*
X185588Y41677D01*
X185212Y42239D01*
X184650Y42615D01*
X183987Y42747D01*
D02*
G37*
G36*
X189100Y43633D02*
X188437Y43501D01*
X187874Y43126D01*
X187499Y42563D01*
X187367Y41900D01*
X187499Y41237D01*
X187874Y40674D01*
X188437Y40299D01*
X189100Y40167D01*
X189763Y40299D01*
X190326Y40674D01*
X190701Y41237D01*
X190833Y41900D01*
X190701Y42563D01*
X190326Y43126D01*
X189763Y43501D01*
X189100Y43633D01*
D02*
G37*
G36*
X102100Y40533D02*
X101437Y40401D01*
X100874Y40026D01*
X100499Y39463D01*
X100367Y38800D01*
X100499Y38137D01*
X100874Y37574D01*
X101437Y37199D01*
X102100Y37067D01*
X102763Y37199D01*
X103326Y37574D01*
X103701Y38137D01*
X103833Y38800D01*
X103701Y39463D01*
X103326Y40026D01*
X102763Y40401D01*
X102100Y40533D01*
D02*
G37*
G36*
X128500Y61633D02*
X127837Y61501D01*
X127274Y61126D01*
X126899Y60563D01*
X126767Y59900D01*
X126802Y59723D01*
X126700Y59233D01*
X126037Y59101D01*
X125474Y58726D01*
X125099Y58163D01*
X124967Y57500D01*
X124970Y57484D01*
X124704Y57217D01*
X124532Y57120D01*
X123937Y57001D01*
X123374Y56626D01*
X122999Y56063D01*
X122918Y55660D01*
X122500Y55233D01*
X121837Y55101D01*
X121274Y54726D01*
X120899Y54163D01*
X120818Y53760D01*
X120400Y53333D01*
X119737Y53201D01*
X119174Y52826D01*
X118799Y52263D01*
X118667Y51600D01*
X118799Y50937D01*
X119174Y50374D01*
X119737Y49999D01*
X120400Y49867D01*
X121063Y49999D01*
X121626Y50374D01*
X122001Y50937D01*
X122082Y51340D01*
X122500Y51767D01*
X123163Y51899D01*
X123726Y52274D01*
X124101Y52837D01*
X124182Y53240D01*
X124600Y53667D01*
X125263Y53799D01*
X125278Y53809D01*
X125428Y53776D01*
X125796Y53553D01*
X125899Y53037D01*
X126274Y52474D01*
X126837Y52099D01*
X127500Y51967D01*
X128163Y52099D01*
X128726Y52474D01*
X129101Y53037D01*
X129233Y53700D01*
X129101Y54363D01*
X128726Y54926D01*
X128163Y55301D01*
X127500Y55433D01*
X127498Y55433D01*
X127363Y55899D01*
X127926Y56274D01*
X128301Y56837D01*
X128433Y57500D01*
X128398Y57677D01*
X128500Y58167D01*
X129163Y58299D01*
X129726Y58674D01*
X130101Y59237D01*
X130233Y59900D01*
X130101Y60563D01*
X129726Y61126D01*
X129163Y61501D01*
X128500Y61633D01*
D02*
G37*
G36*
X47600Y55333D02*
X46937Y55201D01*
X46374Y54826D01*
X45999Y54263D01*
X45867Y53600D01*
X45999Y52937D01*
X46374Y52374D01*
X46937Y51999D01*
X47600Y51867D01*
X48263Y51999D01*
X48826Y52374D01*
X49201Y52937D01*
X49333Y53600D01*
X49201Y54263D01*
X48826Y54826D01*
X48263Y55201D01*
X47600Y55333D01*
D02*
G37*
G36*
X67000Y13533D02*
X66337Y13401D01*
X65774Y13026D01*
X65399Y12463D01*
X65267Y11800D01*
X65399Y11137D01*
X65774Y10574D01*
X66337Y10199D01*
X67000Y10067D01*
X67663Y10199D01*
X68226Y10574D01*
X68601Y11137D01*
X68733Y11800D01*
X68601Y12463D01*
X68226Y13026D01*
X67663Y13401D01*
X67000Y13533D01*
D02*
G37*
G36*
X73500Y10133D02*
X72837Y10001D01*
X72274Y9626D01*
X71899Y9063D01*
X71767Y8400D01*
X71899Y7737D01*
X72274Y7174D01*
X72837Y6799D01*
X73500Y6667D01*
X74163Y6799D01*
X74726Y7174D01*
X75101Y7737D01*
X75233Y8400D01*
X75101Y9063D01*
X74726Y9626D01*
X74163Y10001D01*
X73500Y10133D01*
D02*
G37*
G36*
X165923Y56362D02*
X165260Y56230D01*
X164697Y55854D01*
X164321Y55292D01*
X164190Y54628D01*
X164321Y53965D01*
X164697Y53403D01*
X165260Y53027D01*
X165923Y52895D01*
X166586Y53027D01*
X167148Y53403D01*
X167524Y53965D01*
X167656Y54628D01*
X167524Y55292D01*
X167148Y55854D01*
X166586Y56230D01*
X165923Y56362D01*
D02*
G37*
G36*
X132900Y9933D02*
X132237Y9801D01*
X131674Y9426D01*
X131299Y8863D01*
X131167Y8200D01*
X131299Y7537D01*
X131674Y6974D01*
X132237Y6599D01*
X132900Y6467D01*
X133563Y6599D01*
X134126Y6974D01*
X134501Y7537D01*
X134633Y8200D01*
X134501Y8863D01*
X134126Y9426D01*
X133563Y9801D01*
X132900Y9933D01*
D02*
G37*
G36*
X158400Y58333D02*
X157737Y58201D01*
X157174Y57826D01*
X156799Y57263D01*
X156667Y56600D01*
X156799Y55937D01*
X157174Y55374D01*
X157737Y54999D01*
X158400Y54867D01*
X158597Y54906D01*
X159022Y54481D01*
X158967Y54200D01*
X159099Y53537D01*
X159474Y52974D01*
X160037Y52599D01*
X160700Y52467D01*
X161363Y52599D01*
X161926Y52974D01*
X162301Y53537D01*
X162433Y54200D01*
X162301Y54863D01*
X161926Y55426D01*
X161363Y55801D01*
X160700Y55933D01*
X160503Y55894D01*
X160078Y56319D01*
X160133Y56600D01*
X160001Y57263D01*
X159626Y57826D01*
X159063Y58201D01*
X158400Y58333D01*
D02*
G37*
G36*
X99500Y14333D02*
X98837Y14201D01*
X98274Y13826D01*
X97899Y13263D01*
X97767Y12600D01*
X97899Y11937D01*
X98274Y11374D01*
X98837Y10999D01*
X99500Y10867D01*
X100163Y10999D01*
X100726Y11374D01*
X101101Y11937D01*
X101233Y12600D01*
X101101Y13263D01*
X100726Y13826D01*
X100163Y14201D01*
X99500Y14333D01*
D02*
G37*
G36*
X88600Y51333D02*
X87937Y51201D01*
X87374Y50826D01*
X86999Y50263D01*
X86867Y49600D01*
X86999Y48937D01*
X87374Y48374D01*
X87937Y47999D01*
X88600Y47867D01*
X89263Y47999D01*
X89826Y48374D01*
X90201Y48937D01*
X90333Y49600D01*
X90201Y50263D01*
X89826Y50826D01*
X89263Y51201D01*
X88600Y51333D01*
D02*
G37*
G36*
X101100Y50333D02*
X100437Y50201D01*
X99874Y49826D01*
X99499Y49263D01*
X99367Y48600D01*
X99499Y47937D01*
X99874Y47374D01*
X100437Y46999D01*
X101100Y46867D01*
X101763Y46999D01*
X102326Y47374D01*
X102701Y47937D01*
X102833Y48600D01*
X102701Y49263D01*
X102326Y49826D01*
X101763Y50201D01*
X101100Y50333D01*
D02*
G37*
G36*
X188700Y48433D02*
X188037Y48301D01*
X187474Y47926D01*
X187099Y47363D01*
X186967Y46700D01*
X187028Y46392D01*
X186578Y46092D01*
X186563Y46101D01*
X185900Y46233D01*
X185863Y46226D01*
X185509Y46580D01*
X185533Y46700D01*
X185401Y47363D01*
X185026Y47926D01*
X184463Y48301D01*
X183800Y48433D01*
X183137Y48301D01*
X182574Y47926D01*
X182199Y47363D01*
X182067Y46700D01*
X182199Y46037D01*
X182574Y45474D01*
X183137Y45099D01*
X183800Y44967D01*
X183837Y44974D01*
X184191Y44620D01*
X184167Y44500D01*
X184299Y43837D01*
X184674Y43274D01*
X185237Y42899D01*
X185900Y42767D01*
X186563Y42899D01*
X187126Y43274D01*
X187501Y43837D01*
X187633Y44500D01*
X187572Y44808D01*
X188022Y45108D01*
X188037Y45099D01*
X188700Y44967D01*
X189363Y45099D01*
X189926Y45474D01*
X190301Y46037D01*
X190433Y46700D01*
X190301Y47363D01*
X189926Y47926D01*
X189363Y48301D01*
X188700Y48433D01*
D02*
G37*
G36*
X133900Y53533D02*
X133237Y53401D01*
X132674Y53026D01*
X132299Y52463D01*
X132167Y51800D01*
X132299Y51137D01*
X132674Y50574D01*
X133237Y50199D01*
X133900Y50067D01*
X134563Y50199D01*
X135126Y50574D01*
X135501Y51137D01*
X135633Y51800D01*
X135501Y52463D01*
X135126Y53026D01*
X134563Y53401D01*
X133900Y53533D01*
D02*
G37*
G36*
X38753Y18053D02*
X31647D01*
Y10947D01*
X38753D01*
Y18053D01*
D02*
G37*
G36*
X35200Y58083D02*
X34273Y57961D01*
X33408Y57603D01*
X32666Y57034D01*
X32097Y56292D01*
X31739Y55427D01*
X31617Y54500D01*
X31739Y53573D01*
X32097Y52708D01*
X32666Y51966D01*
X33408Y51397D01*
X34273Y51039D01*
X35200Y50917D01*
X36127Y51039D01*
X36992Y51397D01*
X37734Y51966D01*
X38303Y52708D01*
X38661Y53573D01*
X38783Y54500D01*
X38661Y55427D01*
X38303Y56292D01*
X37734Y57034D01*
X36992Y57603D01*
X36127Y57961D01*
X35200Y58083D01*
D02*
G37*
G36*
X188200Y53733D02*
X187537Y53601D01*
X186974Y53226D01*
X186599Y52663D01*
X186467Y52000D01*
X186599Y51337D01*
X186974Y50774D01*
X187537Y50399D01*
X188200Y50267D01*
X188863Y50399D01*
X189426Y50774D01*
X189801Y51337D01*
X189933Y52000D01*
X189801Y52663D01*
X189426Y53226D01*
X188863Y53601D01*
X188200Y53733D01*
D02*
G37*
G36*
X154900Y39433D02*
X154237Y39301D01*
X153674Y38926D01*
X153299Y38363D01*
X153167Y37700D01*
X153299Y37037D01*
X153674Y36474D01*
X154237Y36099D01*
X154900Y35967D01*
X155563Y36099D01*
X156126Y36474D01*
X156501Y37037D01*
X156633Y37700D01*
X156501Y38363D01*
X156126Y38926D01*
X155563Y39301D01*
X154900Y39433D01*
D02*
G37*
G36*
X71000Y33333D02*
X70337Y33201D01*
X69774Y32826D01*
X69399Y32263D01*
X69267Y31600D01*
X69399Y30937D01*
X69744Y30419D01*
X69737Y30401D01*
X69174Y30026D01*
X68799Y29463D01*
X68667Y28800D01*
X68799Y28137D01*
X69174Y27574D01*
X69111Y27080D01*
X68899Y26763D01*
X68767Y26100D01*
X68899Y25437D01*
X69274Y24874D01*
X69837Y24499D01*
X70500Y24367D01*
X71163Y24499D01*
X71726Y24874D01*
X72101Y25437D01*
X72233Y26100D01*
X72101Y26763D01*
X71858Y27128D01*
X71733Y27368D01*
X71817Y27861D01*
X72001Y28137D01*
X72133Y28800D01*
X72001Y29463D01*
X71656Y29980D01*
X71663Y29999D01*
X72226Y30374D01*
X72601Y30937D01*
X72733Y31600D01*
X72601Y32263D01*
X72226Y32826D01*
X71663Y33201D01*
X71000Y33333D01*
D02*
G37*
G36*
X11800Y27733D02*
X11137Y27601D01*
X10574Y27226D01*
X10199Y26663D01*
X10067Y26000D01*
X10199Y25337D01*
X10574Y24774D01*
X11137Y24399D01*
X11800Y24267D01*
X12463Y24399D01*
X13026Y24774D01*
X13401Y25337D01*
X13533Y26000D01*
X13401Y26663D01*
X13026Y27226D01*
X12463Y27601D01*
X11800Y27733D01*
D02*
G37*
G36*
X189700Y27333D02*
X189037Y27201D01*
X188474Y26826D01*
X188099Y26263D01*
X187967Y25600D01*
X188099Y24937D01*
X188474Y24374D01*
X189037Y23999D01*
X189700Y23867D01*
X190363Y23999D01*
X190926Y24374D01*
X191301Y24937D01*
X191433Y25600D01*
X191301Y26263D01*
X190926Y26826D01*
X190363Y27201D01*
X189700Y27333D01*
D02*
G37*
G36*
X66400Y28333D02*
X65737Y28201D01*
X65174Y27826D01*
X64799Y27263D01*
X64667Y26600D01*
X64799Y25937D01*
X65174Y25374D01*
X65737Y24999D01*
X66400Y24867D01*
X67063Y24999D01*
X67626Y25374D01*
X68001Y25937D01*
X68133Y26600D01*
X68001Y27263D01*
X67626Y27826D01*
X67063Y28201D01*
X66400Y28333D01*
D02*
G37*
G36*
X105300Y35033D02*
X104637Y34901D01*
X104074Y34526D01*
X103699Y33963D01*
X103567Y33300D01*
X103699Y32637D01*
X104074Y32074D01*
X104178Y32005D01*
Y30800D01*
X104178Y30800D01*
X104264Y30371D01*
X104507Y30007D01*
X106380Y28134D01*
X106499Y27537D01*
X106874Y26974D01*
X107437Y26599D01*
X108100Y26467D01*
X108763Y26599D01*
X109326Y26974D01*
X109701Y27537D01*
X109833Y28200D01*
X109701Y28863D01*
X109326Y29426D01*
X108763Y29801D01*
X108100Y29933D01*
X107810Y29876D01*
X106422Y31265D01*
Y32005D01*
X106526Y32074D01*
X106901Y32637D01*
X107033Y33300D01*
X106901Y33963D01*
X106526Y34526D01*
X105963Y34901D01*
X105300Y35033D01*
D02*
G37*
G36*
X99200Y29933D02*
X98537Y29801D01*
X97974Y29426D01*
X97599Y28863D01*
X97467Y28200D01*
X97599Y27537D01*
X97974Y26974D01*
X98537Y26599D01*
X99200Y26467D01*
X99863Y26599D01*
X100426Y26974D01*
X100801Y27537D01*
X100933Y28200D01*
X100801Y28863D01*
X100426Y29426D01*
X99863Y29801D01*
X99200Y29933D01*
D02*
G37*
G36*
X160216Y29533D02*
X159552Y29401D01*
X158990Y29026D01*
X158614Y28463D01*
X158482Y27800D01*
X158614Y27137D01*
X158990Y26574D01*
X159552Y26199D01*
X160216Y26067D01*
X160879Y26199D01*
X161441Y26574D01*
X161817Y27137D01*
X161949Y27800D01*
X161817Y28463D01*
X161441Y29026D01*
X160879Y29401D01*
X160216Y29533D01*
D02*
G37*
G36*
X79800Y25233D02*
X79137Y25101D01*
X78574Y24726D01*
X78199Y24163D01*
X78067Y23500D01*
X78199Y22837D01*
X78574Y22274D01*
X79137Y21899D01*
X79800Y21767D01*
X80463Y21899D01*
X81026Y22274D01*
X81401Y22837D01*
X81533Y23500D01*
X81401Y24163D01*
X81026Y24726D01*
X80463Y25101D01*
X79800Y25233D01*
D02*
G37*
G36*
X35200Y28083D02*
X34273Y27961D01*
X33408Y27603D01*
X32666Y27034D01*
X32097Y26292D01*
X31739Y25427D01*
X31617Y24500D01*
X31739Y23573D01*
X32097Y22708D01*
X32666Y21966D01*
X33408Y21397D01*
X34273Y21039D01*
X35200Y20917D01*
X36127Y21039D01*
X36992Y21397D01*
X37734Y21966D01*
X38303Y22708D01*
X38661Y23573D01*
X38783Y24500D01*
X38661Y25427D01*
X38303Y26292D01*
X37734Y27034D01*
X36992Y27603D01*
X36127Y27961D01*
X35200Y28083D01*
D02*
G37*
G36*
X167600Y22533D02*
X166937Y22401D01*
X166374Y22026D01*
X165999Y21463D01*
X165867Y20800D01*
X165999Y20137D01*
X166374Y19574D01*
X166937Y19199D01*
X167600Y19067D01*
X168263Y19199D01*
X168826Y19574D01*
X169201Y20137D01*
X169333Y20800D01*
X169201Y21463D01*
X168826Y22026D01*
X168263Y22401D01*
X167600Y22533D01*
D02*
G37*
G36*
X150100Y25433D02*
X149437Y25301D01*
X148874Y24926D01*
X148499Y24363D01*
X148367Y23700D01*
X148499Y23037D01*
X148874Y22474D01*
X149437Y22099D01*
X150100Y21967D01*
X150763Y22099D01*
X151326Y22474D01*
X151701Y23037D01*
X151833Y23700D01*
X151701Y24363D01*
X151326Y24926D01*
X150763Y25301D01*
X150100Y25433D01*
D02*
G37*
G36*
X54100Y23933D02*
X53437Y23801D01*
X52874Y23426D01*
X52650Y23090D01*
X52341Y22897D01*
X52013Y22968D01*
X51663Y23201D01*
X51000Y23333D01*
X50337Y23201D01*
X49774Y22826D01*
X49399Y22263D01*
X49267Y21600D01*
X49399Y20937D01*
X49774Y20374D01*
X50337Y19999D01*
X51000Y19867D01*
X51663Y19999D01*
X52226Y20374D01*
X52450Y20710D01*
X52759Y20903D01*
X53087Y20832D01*
X53437Y20599D01*
X54100Y20467D01*
X54763Y20599D01*
X55326Y20974D01*
X55701Y21537D01*
X55833Y22200D01*
X55701Y22863D01*
X55326Y23426D01*
X54763Y23801D01*
X54100Y23933D01*
D02*
G37*
G36*
X99400Y25733D02*
X98737Y25601D01*
X98174Y25226D01*
X97799Y24663D01*
X97667Y24000D01*
X97799Y23337D01*
X98174Y22774D01*
X98737Y22399D01*
X99400Y22267D01*
X100063Y22399D01*
X100626Y22774D01*
X101001Y23337D01*
X101133Y24000D01*
X101001Y24663D01*
X100626Y25226D01*
X100063Y25601D01*
X99400Y25733D01*
D02*
G37*
G36*
X164800Y25433D02*
X164137Y25301D01*
X163574Y24926D01*
X163199Y24363D01*
X163067Y23700D01*
X163199Y23037D01*
X163574Y22474D01*
X164137Y22099D01*
X164800Y21967D01*
X165463Y22099D01*
X166026Y22474D01*
X166401Y23037D01*
X166533Y23700D01*
X166401Y24363D01*
X166026Y24926D01*
X165463Y25301D01*
X164800Y25433D01*
D02*
G37*
G36*
X90200Y37033D02*
X89537Y36901D01*
X88974Y36526D01*
X88599Y35963D01*
X88467Y35300D01*
X88599Y34637D01*
X88974Y34074D01*
X89537Y33699D01*
X90200Y33567D01*
X90863Y33699D01*
X91426Y34074D01*
X91801Y34637D01*
X91933Y35300D01*
X91801Y35963D01*
X91426Y36526D01*
X90863Y36901D01*
X90200Y37033D01*
D02*
G37*
G36*
X106600Y42686D02*
X105878Y42543D01*
X105266Y42134D01*
X104857Y41522D01*
X104714Y40800D01*
X104857Y40078D01*
X105266Y39466D01*
X105514Y39219D01*
Y38200D01*
X105657Y37478D01*
X106066Y36866D01*
X106678Y36457D01*
X107400Y36314D01*
X109286D01*
X112534Y33066D01*
X113146Y32657D01*
X113867Y32514D01*
X133800D01*
X134522Y32657D01*
X135134Y33066D01*
X135543Y33678D01*
X135686Y34400D01*
Y36500D01*
X135543Y37222D01*
X135134Y37834D01*
X134522Y38243D01*
X133800Y38386D01*
X133078Y38243D01*
X132466Y37834D01*
X132057Y37222D01*
X131914Y36500D01*
Y36286D01*
X114649D01*
X111401Y39534D01*
X110789Y39943D01*
X110067Y40086D01*
X109269D01*
X109143Y40722D01*
X108734Y41334D01*
X107934Y42134D01*
X107322Y42543D01*
X106600Y42686D01*
D02*
G37*
G36*
X83800Y34733D02*
X83137Y34601D01*
X82574Y34226D01*
X82199Y33663D01*
X82067Y33000D01*
X82151Y32577D01*
X81701Y32276D01*
X81663Y32301D01*
X81000Y32433D01*
X80337Y32301D01*
X79774Y31926D01*
X79399Y31363D01*
X79267Y30700D01*
X79399Y30037D01*
X79774Y29474D01*
X80337Y29099D01*
X81000Y28967D01*
X81663Y29099D01*
X82226Y29474D01*
X82601Y30037D01*
X82733Y30700D01*
X82649Y31123D01*
X83099Y31424D01*
X83137Y31399D01*
X83800Y31267D01*
X84463Y31399D01*
X85026Y31774D01*
X85401Y32337D01*
X85533Y33000D01*
X85401Y33663D01*
X85026Y34226D01*
X84463Y34601D01*
X83800Y34733D01*
D02*
G37*
G36*
X62000Y35633D02*
X61337Y35501D01*
X60774Y35126D01*
X60399Y34563D01*
X60357Y34354D01*
X60263Y33901D01*
X59600Y34033D01*
X58937Y33901D01*
X58374Y33526D01*
X57999Y32963D01*
X57867Y32300D01*
X57999Y31637D01*
X58374Y31074D01*
X58937Y30699D01*
X59600Y30567D01*
X60006Y30648D01*
X60406Y30432D01*
X60492Y30273D01*
X60586Y29801D01*
X60588Y29720D01*
X60306Y29275D01*
X59937Y29201D01*
X59374Y28826D01*
X58999Y28263D01*
X58867Y27600D01*
X58999Y26937D01*
X59374Y26374D01*
X59937Y25999D01*
X60041Y25978D01*
X60272Y25422D01*
X60099Y25163D01*
X59967Y24500D01*
X60099Y23837D01*
X60474Y23274D01*
X61037Y22899D01*
X61700Y22767D01*
X62363Y22899D01*
X62926Y23274D01*
X63301Y23837D01*
X63433Y24500D01*
X63301Y25163D01*
X62926Y25726D01*
X62363Y26101D01*
X62258Y26122D01*
X62028Y26678D01*
X62201Y26937D01*
X62333Y27600D01*
X62214Y28199D01*
X62212Y28280D01*
X62494Y28725D01*
X62863Y28799D01*
X63387Y29148D01*
X63445Y29151D01*
X63498Y29177D01*
X64300D01*
X64768Y29270D01*
X65165Y29535D01*
X65197Y29567D01*
X65200Y29567D01*
X65863Y29699D01*
X66426Y30074D01*
X66801Y30637D01*
X66933Y31300D01*
X66801Y31963D01*
X66426Y32526D01*
X65863Y32901D01*
X65200Y33033D01*
X64537Y32901D01*
X63974Y32526D01*
X63667Y32066D01*
X63482Y31977D01*
X63208Y32073D01*
X63191Y32114D01*
X63226Y32674D01*
X63601Y33237D01*
X63733Y33900D01*
X63601Y34563D01*
X63226Y35126D01*
X62663Y35501D01*
X62000Y35633D01*
D02*
G37*
G36*
X113000Y14633D02*
X112337Y14501D01*
X111774Y14126D01*
X111550Y13791D01*
X110967Y13763D01*
X110926Y13826D01*
X110363Y14201D01*
X109700Y14333D01*
X109037Y14201D01*
X108474Y13826D01*
X108099Y13263D01*
X107967Y12600D01*
X108099Y11937D01*
X108474Y11374D01*
X109037Y10999D01*
X109700Y10867D01*
X110363Y10999D01*
X110926Y11374D01*
X111150Y11710D01*
X111733Y11737D01*
X111774Y11674D01*
X112337Y11299D01*
X113000Y11167D01*
X113663Y11299D01*
X114226Y11674D01*
X114601Y12237D01*
X114733Y12900D01*
X114601Y13563D01*
X114226Y14126D01*
X113663Y14501D01*
X113000Y14633D01*
D02*
G37*
G36*
X97000Y38533D02*
X96337Y38401D01*
X95774Y38026D01*
X95399Y37463D01*
X95267Y36800D01*
X95399Y36137D01*
X95774Y35574D01*
X96337Y35199D01*
X97000Y35067D01*
X97663Y35199D01*
X98226Y35574D01*
X98601Y36137D01*
X98733Y36800D01*
X98601Y37463D01*
X98226Y38026D01*
X97663Y38401D01*
X97000Y38533D01*
D02*
G37*
G36*
X74300Y37933D02*
X73637Y37801D01*
X73074Y37426D01*
X72699Y36863D01*
X72567Y36200D01*
X72699Y35537D01*
X73074Y34974D01*
X73637Y34599D01*
X74300Y34467D01*
X74963Y34599D01*
X75526Y34974D01*
X75901Y35537D01*
X76033Y36200D01*
X75901Y36863D01*
X75526Y37426D01*
X74963Y37801D01*
X74300Y37933D01*
D02*
G37*
G36*
X177600Y35033D02*
X176937Y34901D01*
X176374Y34526D01*
X175999Y33963D01*
X175867Y33300D01*
X175999Y32637D01*
X176374Y32074D01*
X176937Y31699D01*
X177257Y31635D01*
Y31125D01*
X177137Y31101D01*
X176574Y30726D01*
X176199Y30163D01*
X176067Y29500D01*
X176199Y28837D01*
X176574Y28274D01*
X177137Y27899D01*
X177800Y27767D01*
X178463Y27899D01*
X179026Y28274D01*
X179401Y28837D01*
X179533Y29500D01*
X179401Y30163D01*
X179026Y30726D01*
X178463Y31101D01*
X178143Y31165D01*
Y31675D01*
X178263Y31699D01*
X178826Y32074D01*
X179201Y32637D01*
X179333Y33300D01*
X179201Y33963D01*
X178826Y34526D01*
X178263Y34901D01*
X177600Y35033D01*
D02*
G37*
G36*
X166193Y33949D02*
X165530Y33817D01*
X164967Y33441D01*
X164592Y32879D01*
X164460Y32216D01*
X164564Y31691D01*
X164370Y31355D01*
X164215Y31216D01*
X163637Y31101D01*
X163074Y30726D01*
X162699Y30163D01*
X162567Y29500D01*
X162699Y28837D01*
X163074Y28274D01*
X163637Y27899D01*
X164300Y27767D01*
X164963Y27899D01*
X165526Y28274D01*
X165901Y28837D01*
X166033Y29500D01*
X165929Y30025D01*
X166123Y30361D01*
X166278Y30499D01*
X166856Y30614D01*
X167419Y30990D01*
X167794Y31552D01*
X167926Y32216D01*
X167794Y32879D01*
X167419Y33441D01*
X166856Y33817D01*
X166193Y33949D01*
D02*
G37*
G36*
X143000Y30833D02*
X142337Y30701D01*
X141774Y30326D01*
X141399Y29763D01*
X141267Y29100D01*
X141399Y28437D01*
X141774Y27874D01*
X142337Y27499D01*
X143000Y27367D01*
X143663Y27499D01*
X144226Y27874D01*
X144601Y28437D01*
X144733Y29100D01*
X144601Y29763D01*
X144226Y30326D01*
X143663Y30701D01*
X143000Y30833D01*
D02*
G37*
G36*
X35200Y38083D02*
X34273Y37961D01*
X33408Y37603D01*
X32666Y37034D01*
X32097Y36292D01*
X31739Y35427D01*
X31617Y34500D01*
X31739Y33573D01*
X32097Y32708D01*
X32666Y31966D01*
X33408Y31397D01*
X34273Y31039D01*
X35200Y30917D01*
X36127Y31039D01*
X36992Y31397D01*
X37734Y31966D01*
X38303Y32708D01*
X38661Y33573D01*
X38783Y34500D01*
X38661Y35427D01*
X38303Y36292D01*
X37734Y37034D01*
X36992Y37603D01*
X36127Y37961D01*
X35200Y38083D01*
D02*
G37*
G36*
X24400Y32333D02*
X23737Y32201D01*
X23400Y31976D01*
X22800D01*
X22463Y32201D01*
X21800Y32333D01*
X21137Y32201D01*
X20800Y31976D01*
X19900D01*
X19563Y32201D01*
X18900Y32333D01*
X18237Y32201D01*
X17674Y31826D01*
X17299Y31263D01*
X17167Y30600D01*
X17299Y29937D01*
X17524Y29600D01*
Y29300D01*
X17299Y28963D01*
X17167Y28300D01*
X17299Y27637D01*
X17524Y27300D01*
Y27000D01*
X17299Y26663D01*
X17167Y26000D01*
X17299Y25337D01*
X17674Y24774D01*
X18237Y24399D01*
X18900Y24267D01*
X19563Y24399D01*
X19900Y24624D01*
X20800D01*
X21137Y24399D01*
X21800Y24267D01*
X22463Y24399D01*
X22800Y24624D01*
X23400D01*
X23737Y24399D01*
X24400Y24267D01*
X25063Y24399D01*
X25626Y24774D01*
X26001Y25337D01*
X26133Y26000D01*
X26001Y26663D01*
X25776Y27000D01*
Y27400D01*
X26001Y27737D01*
X26133Y28400D01*
X26001Y29063D01*
X25776Y29400D01*
Y29600D01*
X26001Y29937D01*
X26133Y30600D01*
X26001Y31263D01*
X25626Y31826D01*
X25063Y32201D01*
X24400Y32333D01*
D02*
G37*
G36*
X155916Y21433D02*
X155252Y21301D01*
X154690Y20926D01*
X154314Y20363D01*
X154182Y19700D01*
X154314Y19037D01*
X154690Y18474D01*
X155252Y18099D01*
X155916Y17967D01*
X156579Y18099D01*
X157141Y18474D01*
X157517Y19037D01*
X157649Y19700D01*
X157517Y20363D01*
X157141Y20926D01*
X156579Y21301D01*
X155916Y21433D01*
D02*
G37*
G36*
X99400Y34833D02*
X98737Y34701D01*
X98174Y34326D01*
X97799Y33763D01*
X97667Y33100D01*
X97799Y32437D01*
X98174Y31874D01*
X98737Y31499D01*
X99400Y31367D01*
X100063Y31499D01*
X100626Y31874D01*
X101001Y32437D01*
X101133Y33100D01*
X101001Y33763D01*
X100626Y34326D01*
X100063Y34701D01*
X99400Y34833D01*
D02*
G37*
G36*
X150400Y56933D02*
X149737Y56801D01*
X149174Y56426D01*
X148799Y55863D01*
X148667Y55200D01*
X148799Y54537D01*
X149174Y53974D01*
X149737Y53599D01*
X150400Y53467D01*
X151063Y53599D01*
X151626Y53974D01*
X152001Y54537D01*
X152133Y55200D01*
X152001Y55863D01*
X151626Y56426D01*
X151063Y56801D01*
X150400Y56933D01*
D02*
G37*
G36*
X94158Y73520D02*
X93494Y73388D01*
X92932Y73012D01*
X92556Y72450D01*
X92424Y71786D01*
X92556Y71123D01*
X92932Y70561D01*
X93494Y70185D01*
X94158Y70053D01*
X94821Y70185D01*
X95383Y70561D01*
X95759Y71123D01*
X95891Y71786D01*
X95759Y72450D01*
X95383Y73012D01*
X94821Y73388D01*
X94158Y73520D01*
D02*
G37*
G36*
X154000Y72733D02*
X153337Y72601D01*
X152774Y72226D01*
X152399Y71663D01*
X152267Y71000D01*
X152399Y70337D01*
X152774Y69774D01*
X153337Y69399D01*
X154000Y69267D01*
X154663Y69399D01*
X155226Y69774D01*
X155601Y70337D01*
X155733Y71000D01*
X155601Y71663D01*
X155226Y72226D01*
X154663Y72601D01*
X154000Y72733D01*
D02*
G37*
G36*
X182900Y77733D02*
X182237Y77601D01*
X181674Y77226D01*
X181299Y76663D01*
X181167Y76000D01*
X181299Y75337D01*
X181674Y74774D01*
X182237Y74399D01*
X182324Y74381D01*
X182389Y74103D01*
X182376Y73861D01*
X181874Y73526D01*
X181499Y72963D01*
X181367Y72300D01*
X181499Y71637D01*
X181874Y71074D01*
X182437Y70699D01*
X183100Y70567D01*
X183763Y70699D01*
X184326Y71074D01*
X184701Y71637D01*
X184833Y72300D01*
X184701Y72963D01*
X184326Y73526D01*
X183763Y73901D01*
X183676Y73919D01*
X183611Y74196D01*
X183624Y74439D01*
X184126Y74774D01*
X184501Y75337D01*
X184633Y76000D01*
X184501Y76663D01*
X184126Y77226D01*
X183563Y77601D01*
X182900Y77733D01*
D02*
G37*
G36*
X14800Y80433D02*
X14137Y80301D01*
X13574Y79926D01*
X13199Y79363D01*
X13067Y78700D01*
X13199Y78037D01*
X13574Y77474D01*
X14137Y77099D01*
X14800Y76967D01*
X14802Y76967D01*
X14937Y76501D01*
X14374Y76126D01*
X13999Y75563D01*
X13867Y74900D01*
X13999Y74237D01*
X14374Y73674D01*
X14423Y73642D01*
Y73158D01*
X14374Y73126D01*
X13999Y72563D01*
X13867Y71900D01*
X13999Y71237D01*
X14374Y70674D01*
X14937Y70299D01*
X15600Y70167D01*
X16263Y70299D01*
X16774Y70640D01*
X17274Y70674D01*
X17837Y70299D01*
X18500Y70167D01*
X19163Y70299D01*
X19674Y70640D01*
X20174Y70674D01*
X20737Y70299D01*
X21400Y70167D01*
X22063Y70299D01*
X22575Y70640D01*
X23074Y70674D01*
X23637Y70299D01*
X24300Y70167D01*
X24963Y70299D01*
X25475Y70640D01*
X25974Y70674D01*
X26537Y70299D01*
X27200Y70167D01*
X27863Y70299D01*
X28374Y70640D01*
X28874Y70674D01*
X29437Y70299D01*
X30100Y70167D01*
X30763Y70299D01*
X31326Y70674D01*
X31701Y71237D01*
X31833Y71900D01*
X31701Y72563D01*
X31326Y73126D01*
X31277Y73158D01*
Y73642D01*
X31326Y73674D01*
X31701Y74237D01*
X31833Y74900D01*
X31701Y75563D01*
X31326Y76126D01*
X30763Y76501D01*
X30100Y76633D01*
X29437Y76501D01*
X28925Y76160D01*
X28426Y76126D01*
X27863Y76501D01*
X27200Y76633D01*
X26537Y76501D01*
X26026Y76160D01*
X25526Y76126D01*
X24963Y76501D01*
X24300Y76633D01*
X23637Y76501D01*
X23125Y76160D01*
X22626Y76126D01*
X22063Y76501D01*
X21400Y76633D01*
X20737Y76501D01*
X20225Y76160D01*
X19726Y76126D01*
X19163Y76501D01*
X18500Y76633D01*
X17837Y76501D01*
X17325Y76160D01*
X16826Y76126D01*
X16263Y76501D01*
X15600Y76633D01*
X15598Y76633D01*
X15463Y77099D01*
X16026Y77474D01*
X16401Y78037D01*
X16533Y78700D01*
X16401Y79363D01*
X16026Y79926D01*
X15463Y80301D01*
X14800Y80433D01*
D02*
G37*
G36*
X107400Y70133D02*
X106737Y70001D01*
X106174Y69626D01*
X105799Y69063D01*
X105754Y68841D01*
X105199Y68611D01*
X105063Y68701D01*
X104400Y68833D01*
X103737Y68701D01*
X103174Y68326D01*
X102799Y67763D01*
X102667Y67100D01*
X102799Y66437D01*
X103174Y65874D01*
X103737Y65499D01*
X104400Y65367D01*
X105063Y65499D01*
X105626Y65874D01*
X106001Y66437D01*
X106046Y66659D01*
X106601Y66889D01*
X106737Y66799D01*
X107400Y66667D01*
X108063Y66799D01*
X108626Y67174D01*
X109001Y67737D01*
X109133Y68400D01*
X109001Y69063D01*
X108626Y69626D01*
X108063Y70001D01*
X107400Y70133D01*
D02*
G37*
G36*
X143800Y71833D02*
X143137Y71701D01*
X142574Y71326D01*
X142199Y70763D01*
X142067Y70100D01*
X142199Y69437D01*
X142574Y68874D01*
X143137Y68499D01*
X143800Y68367D01*
X144463Y68499D01*
X145026Y68874D01*
X145401Y69437D01*
X145533Y70100D01*
X145401Y70763D01*
X145026Y71326D01*
X144463Y71701D01*
X143800Y71833D01*
D02*
G37*
G36*
X74700Y69933D02*
X74037Y69801D01*
X73474Y69426D01*
X73099Y68863D01*
X72967Y68200D01*
X73099Y67537D01*
X73474Y66974D01*
X74037Y66599D01*
X74700Y66467D01*
X75363Y66599D01*
X75926Y66974D01*
X76301Y67537D01*
X76433Y68200D01*
X76301Y68863D01*
X75926Y69426D01*
X75363Y69801D01*
X74700Y69933D01*
D02*
G37*
G36*
X128500Y72033D02*
X127837Y71901D01*
X127274Y71526D01*
X126899Y70963D01*
X126767Y70300D01*
X126770Y70284D01*
X126504Y70017D01*
X126332Y69920D01*
X125737Y69801D01*
X125174Y69426D01*
X124799Y68863D01*
X124698Y68356D01*
X124619Y68278D01*
X124237Y68201D01*
X123674Y67826D01*
X123299Y67263D01*
X123167Y66600D01*
X123299Y65937D01*
X123674Y65374D01*
X124237Y64999D01*
X124900Y64867D01*
X125563Y64999D01*
X126126Y65374D01*
X126501Y65937D01*
X126615Y66509D01*
X127063Y66599D01*
X127626Y66974D01*
X128001Y67537D01*
X128120Y68133D01*
X128217Y68304D01*
X128484Y68570D01*
X128500Y68567D01*
X129163Y68699D01*
X129726Y69074D01*
X130101Y69637D01*
X130233Y70300D01*
X130101Y70963D01*
X129726Y71526D01*
X129163Y71901D01*
X128500Y72033D01*
D02*
G37*
G36*
X118600Y74033D02*
X117937Y73901D01*
X117374Y73526D01*
X116999Y72963D01*
X116867Y72300D01*
X116999Y71637D01*
X117374Y71074D01*
X117937Y70699D01*
X118340Y70618D01*
X118732Y70234D01*
X118788Y70094D01*
X118899Y69537D01*
X119274Y68974D01*
X119837Y68599D01*
X120500Y68467D01*
X121163Y68599D01*
X121726Y68974D01*
X122101Y69537D01*
X122233Y70200D01*
X122101Y70863D01*
X121726Y71426D01*
X121163Y71801D01*
X120760Y71882D01*
X120368Y72266D01*
X120312Y72406D01*
X120201Y72963D01*
X119826Y73526D01*
X119263Y73901D01*
X118600Y74033D01*
D02*
G37*
G36*
X122900Y76333D02*
X122237Y76201D01*
X121674Y75826D01*
X121299Y75263D01*
X121167Y74600D01*
X121299Y73937D01*
X121674Y73374D01*
X122237Y72999D01*
X122900Y72867D01*
X123563Y72999D01*
X124126Y73374D01*
X124501Y73937D01*
X124633Y74600D01*
X124501Y75263D01*
X124126Y75826D01*
X123563Y76201D01*
X122900Y76333D01*
D02*
G37*
G36*
X127400Y77933D02*
X126737Y77801D01*
X126174Y77426D01*
X125799Y76863D01*
X125667Y76200D01*
X125799Y75537D01*
X126174Y74974D01*
X126737Y74599D01*
X127400Y74467D01*
X128063Y74599D01*
X128626Y74974D01*
X129001Y75537D01*
X129133Y76200D01*
X129001Y76863D01*
X128626Y77426D01*
X128063Y77801D01*
X127400Y77933D01*
D02*
G37*
G36*
X11353Y80553D02*
X4247D01*
Y73447D01*
X11353D01*
Y80553D01*
D02*
G37*
G36*
X112250Y76462D02*
X111587Y76330D01*
X111024Y75954D01*
X110649Y75392D01*
X110517Y74729D01*
X110649Y74065D01*
X111024Y73503D01*
X111587Y73127D01*
X112250Y72995D01*
X112913Y73127D01*
X113476Y73503D01*
X113851Y74065D01*
X113983Y74729D01*
X113851Y75392D01*
X113476Y75954D01*
X112913Y76330D01*
X112250Y76462D01*
D02*
G37*
G36*
X188400Y78833D02*
X187737Y78701D01*
X187174Y78326D01*
X186799Y77763D01*
X186667Y77100D01*
X186799Y76437D01*
X187174Y75874D01*
X187737Y75499D01*
X188400Y75367D01*
X189063Y75499D01*
X189626Y75874D01*
X190001Y76437D01*
X190133Y77100D01*
X190001Y77763D01*
X189626Y78326D01*
X189063Y78701D01*
X188400Y78833D01*
D02*
G37*
G36*
X110300Y82333D02*
X109637Y82201D01*
X109074Y81826D01*
X108699Y81263D01*
X108567Y80600D01*
X108699Y79937D01*
X109074Y79374D01*
X109637Y78999D01*
X110300Y78867D01*
X110963Y78999D01*
X111526Y79374D01*
X111901Y79937D01*
X112033Y80600D01*
X111901Y81263D01*
X111526Y81826D01*
X110963Y82201D01*
X110300Y82333D01*
D02*
G37*
G36*
X98258Y74056D02*
X97594Y73924D01*
X97032Y73548D01*
X96656Y72986D01*
X96524Y72323D01*
X96656Y71659D01*
X97032Y71097D01*
X97594Y70721D01*
X98258Y70589D01*
X98921Y70721D01*
X99483Y71097D01*
X99859Y71659D01*
X99991Y72323D01*
X99859Y72986D01*
X99483Y73548D01*
X98921Y73924D01*
X98258Y74056D01*
D02*
G37*
G36*
X176400Y84033D02*
X175737Y83901D01*
X175174Y83526D01*
X174799Y82963D01*
X174667Y82300D01*
X174799Y81637D01*
X174889Y81501D01*
X174659Y80946D01*
X174437Y80901D01*
X173874Y80526D01*
X173499Y79963D01*
X173367Y79300D01*
X173499Y78637D01*
X173874Y78074D01*
X174437Y77699D01*
X175100Y77567D01*
X175763Y77699D01*
X176175Y77974D01*
X176737Y77599D01*
X177400Y77467D01*
X178063Y77599D01*
X178626Y77974D01*
X179001Y78537D01*
X179133Y79200D01*
X179001Y79863D01*
X178626Y80426D01*
X178063Y80801D01*
X178047Y80805D01*
X177817Y81360D01*
X178001Y81637D01*
X178133Y82300D01*
X178001Y82963D01*
X177626Y83526D01*
X177063Y83901D01*
X176400Y84033D01*
D02*
G37*
G36*
X57800Y83833D02*
X57137Y83701D01*
X56574Y83326D01*
X56199Y82763D01*
X56067Y82100D01*
X56199Y81437D01*
X56574Y80874D01*
X56801Y80723D01*
X56729Y80375D01*
X56649Y80223D01*
X56037Y80101D01*
X55474Y79726D01*
X55099Y79163D01*
X54967Y78500D01*
X55033Y78167D01*
X54562Y77972D01*
X54326Y78326D01*
X53763Y78701D01*
X53100Y78833D01*
X52437Y78701D01*
X51874Y78326D01*
X51499Y77763D01*
X51367Y77100D01*
X51499Y76437D01*
X51874Y75874D01*
X52437Y75499D01*
X53100Y75367D01*
X53763Y75499D01*
X54326Y75874D01*
X54701Y76437D01*
X54833Y77100D01*
X54767Y77433D01*
X55238Y77628D01*
X55474Y77274D01*
X56037Y76899D01*
X56700Y76767D01*
X57363Y76899D01*
X57926Y77274D01*
X58301Y77837D01*
X58433Y78500D01*
X58301Y79163D01*
X57926Y79726D01*
X57699Y79877D01*
X57771Y80225D01*
X57851Y80377D01*
X58463Y80499D01*
X59026Y80874D01*
X59401Y81437D01*
X59533Y82100D01*
X59401Y82763D01*
X59026Y83326D01*
X58463Y83701D01*
X57800Y83833D01*
D02*
G37*
G36*
X95700Y68833D02*
X95037Y68701D01*
X94474Y68326D01*
X94099Y67763D01*
X93967Y67100D01*
X94099Y66437D01*
X94474Y65874D01*
X95037Y65499D01*
X95700Y65367D01*
X96363Y65499D01*
X96926Y65874D01*
X97301Y66437D01*
X97433Y67100D01*
X97301Y67763D01*
X96926Y68326D01*
X96363Y68701D01*
X95700Y68833D01*
D02*
G37*
G36*
X66800Y89033D02*
X66137Y88901D01*
X65574Y88526D01*
X65539Y88472D01*
X64856D01*
X64663Y88601D01*
X64000Y88733D01*
X63337Y88601D01*
X62774Y88226D01*
X62399Y87663D01*
X62267Y87000D01*
X62399Y86337D01*
X62774Y85774D01*
X63337Y85399D01*
X64000Y85267D01*
X64663Y85399D01*
X65226Y85774D01*
X65881Y85869D01*
X66137Y85699D01*
X66800Y85567D01*
X67463Y85699D01*
X68026Y86074D01*
X68401Y86637D01*
X68533Y87300D01*
X68401Y87963D01*
X68026Y88526D01*
X67463Y88901D01*
X66800Y89033D01*
D02*
G37*
G36*
X133900Y60833D02*
X133237Y60701D01*
X132674Y60326D01*
X132299Y59763D01*
X132167Y59100D01*
X132299Y58437D01*
X132674Y57874D01*
X133237Y57499D01*
X133900Y57367D01*
X134563Y57499D01*
X135126Y57874D01*
X135501Y58437D01*
X135633Y59100D01*
X135501Y59763D01*
X135126Y60326D01*
X134563Y60701D01*
X133900Y60833D01*
D02*
G37*
G36*
X166200Y65033D02*
X165537Y64901D01*
X164974Y64526D01*
X164599Y63963D01*
X164467Y63300D01*
X164599Y62637D01*
X164974Y62074D01*
X165537Y61699D01*
X166200Y61567D01*
X166863Y61699D01*
X167426Y62074D01*
X167801Y62637D01*
X167933Y63300D01*
X167801Y63963D01*
X167426Y64526D01*
X166863Y64901D01*
X166200Y65033D01*
D02*
G37*
G36*
X101600Y59233D02*
X100937Y59101D01*
X100374Y58726D01*
X100150Y58390D01*
X99841Y58197D01*
X99513Y58268D01*
X99163Y58501D01*
X98500Y58633D01*
X97837Y58501D01*
X97274Y58126D01*
X96899Y57563D01*
X96767Y56900D01*
X96805Y56709D01*
X96375Y56308D01*
X95837Y56201D01*
X95274Y55826D01*
X94899Y55263D01*
X94767Y54600D01*
X94899Y53937D01*
X95274Y53374D01*
Y53026D01*
X94899Y52463D01*
X94767Y51800D01*
X94899Y51137D01*
X95274Y50574D01*
X95837Y50199D01*
X96500Y50067D01*
X97163Y50199D01*
X97726Y50574D01*
X98101Y51137D01*
X98233Y51800D01*
X98101Y52463D01*
X97726Y53026D01*
Y53374D01*
X98101Y53937D01*
X98233Y54600D01*
X98195Y54791D01*
X98625Y55192D01*
X99163Y55299D01*
X99726Y55674D01*
X99950Y56010D01*
X100259Y56203D01*
X100587Y56132D01*
X100937Y55899D01*
X101600Y55767D01*
X102263Y55899D01*
X102826Y56274D01*
X103201Y56837D01*
X103333Y57500D01*
X103201Y58163D01*
X102826Y58726D01*
X102263Y59101D01*
X101600Y59233D01*
D02*
G37*
G36*
X46900Y60033D02*
X46237Y59901D01*
X45674Y59526D01*
X45299Y58963D01*
X45167Y58300D01*
X45299Y57637D01*
X45674Y57074D01*
X46237Y56699D01*
X46900Y56567D01*
X47563Y56699D01*
X48126Y57074D01*
X48501Y57637D01*
X48633Y58300D01*
X48501Y58963D01*
X48126Y59526D01*
X47563Y59901D01*
X46900Y60033D01*
D02*
G37*
G36*
X25300Y55033D02*
X24637Y54901D01*
X24300Y54676D01*
X23800D01*
X23463Y54901D01*
X22800Y55033D01*
X22137Y54901D01*
X21574Y54526D01*
X21199Y53963D01*
X21067Y53300D01*
X21199Y52637D01*
X21424Y52300D01*
Y51700D01*
X21199Y51363D01*
X21067Y50700D01*
X21199Y50037D01*
X21574Y49474D01*
X22137Y49099D01*
X22800Y48967D01*
X23463Y49099D01*
X23800Y49324D01*
X24300D01*
X24637Y49099D01*
X25300Y48967D01*
X25963Y49099D01*
X26300Y49324D01*
X26800D01*
X27137Y49099D01*
X27800Y48967D01*
X28463Y49099D01*
X29026Y49474D01*
X29401Y50037D01*
X29533Y50700D01*
X29401Y51363D01*
X29026Y51926D01*
Y51974D01*
X29401Y52537D01*
X29533Y53200D01*
X29401Y53863D01*
X29026Y54426D01*
X28463Y54801D01*
X27800Y54933D01*
X27137Y54801D01*
X26950Y54676D01*
X26300D01*
X25963Y54901D01*
X25300Y55033D01*
D02*
G37*
G36*
X185300Y60033D02*
X184637Y59901D01*
X184074Y59526D01*
X183699Y58963D01*
X183567Y58300D01*
X183699Y57637D01*
X184074Y57074D01*
X184637Y56699D01*
X185300Y56567D01*
X185963Y56699D01*
X186279Y56909D01*
X186428Y56876D01*
X186796Y56654D01*
X186899Y56137D01*
X187274Y55574D01*
X187837Y55199D01*
X188500Y55067D01*
X189163Y55199D01*
X189726Y55574D01*
X190101Y56137D01*
X190233Y56800D01*
X190101Y57463D01*
X189726Y58026D01*
X189163Y58401D01*
X188500Y58533D01*
X187837Y58401D01*
X187521Y58191D01*
X187372Y58224D01*
X187004Y58446D01*
X186901Y58963D01*
X186526Y59526D01*
X185963Y59901D01*
X185300Y60033D01*
D02*
G37*
G36*
X172300Y59233D02*
X171637Y59101D01*
X171074Y58726D01*
X170699Y58163D01*
X170567Y57500D01*
X170699Y56837D01*
X171074Y56274D01*
X171637Y55899D01*
X172300Y55767D01*
X172963Y55899D01*
X173526Y56274D01*
X173901Y56837D01*
X174033Y57500D01*
X173901Y58163D01*
X173526Y58726D01*
X172963Y59101D01*
X172300Y59233D01*
D02*
G37*
G36*
X177500Y56933D02*
X176837Y56801D01*
X176274Y56426D01*
X175899Y55863D01*
X175767Y55200D01*
X175899Y54537D01*
X176274Y53974D01*
X176837Y53599D01*
X177500Y53467D01*
X178163Y53599D01*
X178726Y53974D01*
X179101Y54537D01*
X179233Y55200D01*
X179101Y55863D01*
X178726Y56426D01*
X178163Y56801D01*
X177500Y56933D01*
D02*
G37*
G36*
X188900Y68633D02*
X188237Y68501D01*
X187674Y68126D01*
X187299Y67563D01*
X187167Y66900D01*
X187299Y66237D01*
X187674Y65674D01*
X188237Y65299D01*
X188900Y65167D01*
X189563Y65299D01*
X190126Y65674D01*
X190501Y66237D01*
X190633Y66900D01*
X190501Y67563D01*
X190126Y68126D01*
X189563Y68501D01*
X188900Y68633D01*
D02*
G37*
G36*
X100100D02*
X99437Y68501D01*
X98874Y68126D01*
X98499Y67563D01*
X98367Y66900D01*
X98499Y66237D01*
X98874Y65674D01*
X99437Y65299D01*
X100100Y65167D01*
X100763Y65299D01*
X101326Y65674D01*
X101701Y66237D01*
X101833Y66900D01*
X101701Y67563D01*
X101326Y68126D01*
X100763Y68501D01*
X100100Y68633D01*
D02*
G37*
G36*
X61046Y72383D02*
X60383Y72251D01*
X59820Y71876D01*
X59444Y71313D01*
X59313Y70650D01*
X59444Y69987D01*
X59701Y69603D01*
X59544Y69096D01*
X59511Y69056D01*
X59237Y69001D01*
X58674Y68626D01*
X58299Y68063D01*
X58167Y67400D01*
X58299Y66737D01*
X58674Y66174D01*
X59237Y65799D01*
X59900Y65667D01*
X60563Y65799D01*
X61126Y66174D01*
X61391Y66572D01*
X61826Y66415D01*
X61869Y66387D01*
X61999Y65737D01*
X62267Y65336D01*
Y64300D01*
X62399Y63637D01*
X62774Y63074D01*
X63667Y62182D01*
Y57665D01*
X63422Y57532D01*
X63167Y57465D01*
X62663Y57801D01*
X62000Y57933D01*
X61510Y57836D01*
X61213Y57938D01*
X60998Y58176D01*
X60901Y58663D01*
X60526Y59226D01*
X59963Y59601D01*
X59300Y59733D01*
X58637Y59601D01*
X58074Y59226D01*
X57699Y58663D01*
X57567Y58000D01*
X57699Y57337D01*
X58074Y56774D01*
X58637Y56399D01*
X59300Y56267D01*
X59790Y56364D01*
X60087Y56262D01*
X60302Y56024D01*
X60399Y55537D01*
X60774Y54974D01*
X61337Y54599D01*
X62000Y54467D01*
X62663Y54599D01*
X63167Y54935D01*
X63422Y54868D01*
X63667Y54734D01*
Y52532D01*
X63433Y52376D01*
X63200D01*
X62863Y52601D01*
X62200Y52733D01*
X61537Y52601D01*
X60974Y52226D01*
X60599Y51663D01*
X60467Y51000D01*
X60599Y50337D01*
X60724Y50150D01*
Y49350D01*
X60599Y49163D01*
X60467Y48500D01*
X60500Y48333D01*
X60200Y48033D01*
X59537Y47901D01*
X58974Y47526D01*
X58599Y46963D01*
X58467Y46300D01*
X58599Y45637D01*
X58974Y45074D01*
X59537Y44699D01*
X60200Y44567D01*
X60863Y44699D01*
X61426Y45074D01*
X61801Y45637D01*
X61933Y46300D01*
X61900Y46467D01*
X62200Y46767D01*
X62863Y46899D01*
X63200Y47124D01*
X63433D01*
X63770Y46899D01*
X64433Y46767D01*
X65097Y46899D01*
X65433Y47124D01*
X65667D01*
X66003Y46899D01*
X66667Y46767D01*
X67330Y46899D01*
X67892Y47274D01*
X68268Y47837D01*
X68400Y48500D01*
X68391Y48544D01*
X68423Y48577D01*
X68423Y48577D01*
X69166Y49320D01*
X69563Y49399D01*
X70126Y49774D01*
X70501Y50337D01*
X70633Y51000D01*
X70501Y51663D01*
X70126Y52226D01*
X69563Y52601D01*
X68900Y52733D01*
X68237Y52601D01*
X67900Y52376D01*
X67667D01*
X67330Y52601D01*
X67133Y52640D01*
Y53413D01*
X67633Y53679D01*
X68200Y53567D01*
X68863Y53699D01*
X69426Y54074D01*
X69801Y54637D01*
X69933Y55300D01*
X69906Y55435D01*
X70300Y55867D01*
X70963Y55999D01*
X71526Y56374D01*
X71901Y56937D01*
X72033Y57600D01*
X71901Y58263D01*
X71526Y58826D01*
X70963Y59201D01*
X70300Y59333D01*
X69637Y59201D01*
X69074Y58826D01*
X68699Y58263D01*
X68567Y57600D01*
X68594Y57465D01*
X68200Y57033D01*
X67633Y56921D01*
X67133Y57187D01*
Y62900D01*
X67001Y63563D01*
X66626Y64126D01*
X65733Y65018D01*
Y65682D01*
X65772Y65721D01*
X66148Y66283D01*
X66280Y66947D01*
X66765Y66910D01*
X66859Y66437D01*
X67234Y65874D01*
X67797Y65499D01*
X68460Y65367D01*
X69123Y65499D01*
X69686Y65874D01*
X70061Y66437D01*
X70193Y67100D01*
X70091Y67612D01*
Y68440D01*
X69967Y69064D01*
X69614Y69594D01*
X69016Y70191D01*
X68726Y70626D01*
X68163Y71001D01*
X67500Y71133D01*
X66837Y71001D01*
X66274Y70626D01*
X66200Y70514D01*
X65769Y70423D01*
X65566Y70466D01*
X65326Y70826D01*
X64763Y71201D01*
X64100Y71333D01*
X63437Y71201D01*
X63209Y71049D01*
X62654Y71280D01*
X62647Y71313D01*
X62271Y71876D01*
X61709Y72251D01*
X61046Y72383D01*
D02*
G37*
G36*
X148700Y68733D02*
X148037Y68601D01*
X147474Y68226D01*
X147099Y67663D01*
X146967Y67000D01*
X147099Y66337D01*
X147474Y65774D01*
X148037Y65399D01*
X148700Y65267D01*
X149363Y65399D01*
X149926Y65774D01*
X150301Y66337D01*
X150433Y67000D01*
X150301Y67663D01*
X149926Y68226D01*
X149363Y68601D01*
X148700Y68733D01*
D02*
G37*
G36*
X142500Y67733D02*
X141837Y67601D01*
X141274Y67226D01*
X140899Y66663D01*
X140767Y66000D01*
X140899Y65337D01*
X141274Y64774D01*
X141837Y64399D01*
X142500Y64267D01*
X143163Y64399D01*
X143726Y64774D01*
X144101Y65337D01*
X144233Y66000D01*
X144101Y66663D01*
X143726Y67226D01*
X143163Y67601D01*
X142500Y67733D01*
D02*
G37*
G36*
X155200Y65933D02*
X154537Y65801D01*
X153974Y65426D01*
X153599Y64863D01*
X153467Y64200D01*
X153599Y63537D01*
X153974Y62974D01*
X154537Y62599D01*
X155200Y62467D01*
X155863Y62599D01*
X156426Y62974D01*
X156801Y63537D01*
X156933Y64200D01*
X156801Y64863D01*
X156426Y65426D01*
X155863Y65801D01*
X155200Y65933D01*
D02*
G37*
G36*
X98800Y84633D02*
X98137Y84501D01*
X97574Y84126D01*
X97199Y83563D01*
X97067Y82900D01*
X97199Y82237D01*
X97574Y81674D01*
X98137Y81299D01*
X98800Y81167D01*
X99463Y81299D01*
X100026Y81674D01*
X100401Y82237D01*
X100533Y82900D01*
X100401Y83563D01*
X100026Y84126D01*
X99463Y84501D01*
X98800Y84633D01*
D02*
G37*
G36*
X181700Y82533D02*
X181037Y82401D01*
X180474Y82026D01*
X180099Y81463D01*
X179967Y80800D01*
X180099Y80137D01*
X180474Y79574D01*
X181037Y79199D01*
X181700Y79067D01*
X182363Y79199D01*
X182926Y79574D01*
X183301Y80137D01*
X183433Y80800D01*
X183301Y81463D01*
X182926Y82026D01*
X182363Y82401D01*
X181700Y82533D01*
D02*
G37*
G36*
X11800Y66833D02*
X11137Y66701D01*
X10574Y66326D01*
X10199Y65763D01*
X10067Y65100D01*
X10199Y64437D01*
X10574Y63874D01*
X11137Y63499D01*
X11800Y63367D01*
X12463Y63499D01*
X13026Y63874D01*
X13401Y64437D01*
X13533Y65100D01*
X13401Y65763D01*
X13026Y66326D01*
X12463Y66701D01*
X11800Y66833D01*
D02*
G37*
%LPD*%
G36*
X24905Y74228D02*
X24883Y74191D01*
X24864Y74146D01*
X24847Y74093D01*
X24833Y74032D01*
X24821Y73964D01*
X24805Y73803D01*
X24801Y73711D01*
X24800Y73612D01*
X23800D01*
X23799Y73711D01*
X23779Y73964D01*
X23767Y74032D01*
X23753Y74093D01*
X23736Y74146D01*
X23717Y74191D01*
X23695Y74228D01*
X23670Y74257D01*
X24930D01*
X24905Y74228D01*
D02*
G37*
G36*
X27805D02*
X27783Y74191D01*
X27764Y74146D01*
X27747Y74093D01*
X27733Y74032D01*
X27721Y73964D01*
X27705Y73803D01*
X27701Y73711D01*
X27700Y73612D01*
X26700D01*
X26699Y73711D01*
X26679Y73964D01*
X26667Y74032D01*
X26653Y74093D01*
X26636Y74146D01*
X26617Y74191D01*
X26595Y74228D01*
X26570Y74257D01*
X27830D01*
X27805Y74228D01*
D02*
G37*
G36*
X30705D02*
X30683Y74191D01*
X30664Y74146D01*
X30647Y74093D01*
X30632Y74032D01*
X30621Y73964D01*
X30605Y73803D01*
X30601Y73711D01*
X30600Y73612D01*
X29600D01*
X29599Y73711D01*
X29579Y73964D01*
X29568Y74032D01*
X29553Y74093D01*
X29536Y74146D01*
X29517Y74191D01*
X29495Y74228D01*
X29470Y74257D01*
X30730D01*
X30705Y74228D01*
D02*
G37*
G36*
X16205D02*
X16183Y74191D01*
X16164Y74146D01*
X16147Y74093D01*
X16132Y74032D01*
X16121Y73964D01*
X16105Y73803D01*
X16101Y73711D01*
X16100Y73612D01*
X15100D01*
X15099Y73711D01*
X15079Y73964D01*
X15067Y74032D01*
X15053Y74093D01*
X15036Y74146D01*
X15017Y74191D01*
X14995Y74228D01*
X14970Y74257D01*
X16230D01*
X16205Y74228D01*
D02*
G37*
G36*
X19105D02*
X19083Y74191D01*
X19064Y74146D01*
X19047Y74093D01*
X19033Y74032D01*
X19021Y73964D01*
X19005Y73803D01*
X19001Y73711D01*
X19000Y73612D01*
X18000D01*
X17999Y73711D01*
X17979Y73964D01*
X17967Y74032D01*
X17953Y74093D01*
X17936Y74146D01*
X17917Y74191D01*
X17895Y74228D01*
X17870Y74257D01*
X19130D01*
X19105Y74228D01*
D02*
G37*
G36*
X22005D02*
X21983Y74191D01*
X21964Y74146D01*
X21947Y74093D01*
X21933Y74032D01*
X21921Y73964D01*
X21905Y73803D01*
X21901Y73711D01*
X21900Y73612D01*
X20900D01*
X20899Y73711D01*
X20879Y73964D01*
X20867Y74032D01*
X20853Y74093D01*
X20836Y74146D01*
X20817Y74191D01*
X20795Y74228D01*
X20770Y74257D01*
X22030D01*
X22005Y74228D01*
D02*
G37*
G36*
X16272Y75505D02*
X16309Y75483D01*
X16354Y75464D01*
X16407Y75447D01*
X16468Y75432D01*
X16536Y75421D01*
X16697Y75405D01*
X16789Y75401D01*
X16888Y75400D01*
Y74400D01*
X16789Y74399D01*
X16536Y74379D01*
X16468Y74367D01*
X16407Y74353D01*
X16354Y74336D01*
X16309Y74317D01*
X16272Y74295D01*
X16243Y74270D01*
Y75530D01*
X16272Y75505D01*
D02*
G37*
G36*
X26557Y74270D02*
X26528Y74295D01*
X26491Y74317D01*
X26446Y74336D01*
X26393Y74353D01*
X26332Y74367D01*
X26264Y74379D01*
X26103Y74395D01*
X26011Y74399D01*
X25912Y74400D01*
Y75400D01*
X26011Y75401D01*
X26264Y75421D01*
X26332Y75432D01*
X26393Y75447D01*
X26446Y75464D01*
X26491Y75483D01*
X26528Y75505D01*
X26557Y75530D01*
Y74270D01*
D02*
G37*
G36*
X24972Y75505D02*
X25009Y75483D01*
X25054Y75464D01*
X25107Y75447D01*
X25168Y75432D01*
X25236Y75421D01*
X25397Y75405D01*
X25489Y75401D01*
X25588Y75400D01*
Y74400D01*
X25489Y74399D01*
X25236Y74379D01*
X25168Y74367D01*
X25107Y74353D01*
X25054Y74336D01*
X25009Y74317D01*
X24972Y74295D01*
X24943Y74270D01*
Y75530D01*
X24972Y75505D01*
D02*
G37*
G36*
X29457Y74270D02*
X29428Y74295D01*
X29391Y74317D01*
X29346Y74336D01*
X29293Y74353D01*
X29232Y74367D01*
X29164Y74379D01*
X29003Y74395D01*
X28911Y74399D01*
X28812Y74400D01*
Y75400D01*
X28911Y75401D01*
X29164Y75421D01*
X29232Y75432D01*
X29293Y75447D01*
X29346Y75464D01*
X29391Y75483D01*
X29428Y75505D01*
X29457Y75530D01*
Y74270D01*
D02*
G37*
G36*
X27872Y75505D02*
X27909Y75483D01*
X27954Y75464D01*
X28007Y75447D01*
X28068Y75432D01*
X28136Y75421D01*
X28297Y75405D01*
X28389Y75401D01*
X28488Y75400D01*
Y74400D01*
X28389Y74399D01*
X28136Y74379D01*
X28068Y74367D01*
X28007Y74353D01*
X27954Y74336D01*
X27909Y74317D01*
X27872Y74295D01*
X27843Y74270D01*
Y75530D01*
X27872Y75505D01*
D02*
G37*
G36*
X23657Y74270D02*
X23628Y74295D01*
X23591Y74317D01*
X23546Y74336D01*
X23493Y74353D01*
X23432Y74367D01*
X23364Y74379D01*
X23203Y74395D01*
X23111Y74399D01*
X23012Y74400D01*
Y75400D01*
X23111Y75401D01*
X23364Y75421D01*
X23432Y75432D01*
X23493Y75447D01*
X23546Y75464D01*
X23591Y75483D01*
X23628Y75505D01*
X23657Y75530D01*
Y74270D01*
D02*
G37*
G36*
X19172Y75505D02*
X19209Y75483D01*
X19254Y75464D01*
X19307Y75447D01*
X19368Y75432D01*
X19436Y75421D01*
X19597Y75405D01*
X19689Y75401D01*
X19788Y75400D01*
Y74400D01*
X19689Y74399D01*
X19436Y74379D01*
X19368Y74367D01*
X19307Y74353D01*
X19254Y74336D01*
X19209Y74317D01*
X19172Y74295D01*
X19143Y74270D01*
Y75530D01*
X19172Y75505D01*
D02*
G37*
G36*
X17857Y74270D02*
X17828Y74295D01*
X17791Y74317D01*
X17746Y74336D01*
X17693Y74353D01*
X17632Y74367D01*
X17564Y74379D01*
X17403Y74395D01*
X17311Y74399D01*
X17212Y74400D01*
Y75400D01*
X17311Y75401D01*
X17564Y75421D01*
X17632Y75432D01*
X17693Y75447D01*
X17746Y75464D01*
X17791Y75483D01*
X17828Y75505D01*
X17857Y75530D01*
Y74270D01*
D02*
G37*
G36*
X22072Y75505D02*
X22109Y75483D01*
X22154Y75464D01*
X22207Y75447D01*
X22268Y75432D01*
X22336Y75421D01*
X22497Y75405D01*
X22589Y75401D01*
X22688Y75400D01*
Y74400D01*
X22589Y74399D01*
X22336Y74379D01*
X22268Y74367D01*
X22207Y74353D01*
X22154Y74336D01*
X22109Y74317D01*
X22072Y74295D01*
X22043Y74270D01*
Y75530D01*
X22072Y75505D01*
D02*
G37*
G36*
X20757Y74270D02*
X20728Y74295D01*
X20691Y74317D01*
X20646Y74336D01*
X20593Y74353D01*
X20532Y74367D01*
X20464Y74379D01*
X20303Y74395D01*
X20211Y74399D01*
X20112Y74400D01*
Y75400D01*
X20211Y75401D01*
X20464Y75421D01*
X20532Y75432D01*
X20593Y75447D01*
X20646Y75464D01*
X20691Y75483D01*
X20728Y75505D01*
X20757Y75530D01*
Y74270D01*
D02*
G37*
G36*
X23657Y71270D02*
X23628Y71295D01*
X23591Y71317D01*
X23546Y71336D01*
X23493Y71353D01*
X23432Y71368D01*
X23364Y71379D01*
X23203Y71395D01*
X23111Y71399D01*
X23012Y71400D01*
Y72400D01*
X23111Y72401D01*
X23364Y72421D01*
X23432Y72433D01*
X23493Y72447D01*
X23546Y72464D01*
X23591Y72483D01*
X23628Y72505D01*
X23657Y72530D01*
Y71270D01*
D02*
G37*
G36*
X22072Y72505D02*
X22109Y72483D01*
X22154Y72464D01*
X22207Y72447D01*
X22268Y72433D01*
X22336Y72421D01*
X22497Y72405D01*
X22589Y72401D01*
X22688Y72400D01*
Y71400D01*
X22589Y71399D01*
X22336Y71379D01*
X22268Y71368D01*
X22207Y71353D01*
X22154Y71336D01*
X22109Y71317D01*
X22072Y71295D01*
X22043Y71270D01*
Y72530D01*
X22072Y72505D01*
D02*
G37*
G36*
X20757Y71270D02*
X20728Y71295D01*
X20691Y71317D01*
X20646Y71336D01*
X20593Y71353D01*
X20532Y71368D01*
X20464Y71379D01*
X20303Y71395D01*
X20211Y71399D01*
X20112Y71400D01*
Y72400D01*
X20211Y72401D01*
X20464Y72421D01*
X20532Y72433D01*
X20593Y72447D01*
X20646Y72464D01*
X20691Y72483D01*
X20728Y72505D01*
X20757Y72530D01*
Y71270D01*
D02*
G37*
G36*
X24972Y72505D02*
X25009Y72483D01*
X25054Y72464D01*
X25107Y72447D01*
X25168Y72433D01*
X25236Y72421D01*
X25397Y72405D01*
X25489Y72401D01*
X25588Y72400D01*
Y71400D01*
X25489Y71399D01*
X25236Y71379D01*
X25168Y71368D01*
X25107Y71353D01*
X25054Y71336D01*
X25009Y71317D01*
X24972Y71295D01*
X24943Y71270D01*
Y72530D01*
X24972Y72505D01*
D02*
G37*
G36*
X61991Y33000D02*
X61953Y32997D01*
X61911Y32986D01*
X61865Y32968D01*
X61816Y32943D01*
X61763Y32910D01*
X61706Y32870D01*
X61582Y32767D01*
X61514Y32705D01*
X61443Y32636D01*
X60735Y33343D01*
X60805Y33414D01*
X60970Y33606D01*
X61010Y33663D01*
X61043Y33716D01*
X61068Y33765D01*
X61086Y33811D01*
X61097Y33853D01*
X61100Y33891D01*
X61991Y33000D01*
D02*
G37*
G36*
X61230Y32423D02*
X60359Y31817D01*
X60173Y32994D01*
X60199Y32980D01*
X60230Y32974D01*
X60266Y32978D01*
X60308Y32992D01*
X60354Y33015D01*
X60406Y33047D01*
X60462Y33089D01*
X60524Y33140D01*
X60663Y33270D01*
X61230Y32423D01*
D02*
G37*
G36*
X64358Y48988D02*
X64324Y49000D01*
X64246Y49010D01*
X64126Y49019D01*
X62891Y49047D01*
X62100Y49050D01*
Y50550D01*
X64358Y50612D01*
Y48988D01*
D02*
G37*
G36*
X66131Y51826D02*
X66164Y51810D01*
X66203Y51796D01*
X66249Y51784D01*
X66302Y51774D01*
X66428Y51758D01*
X66501Y51754D01*
X66667Y51750D01*
Y50560D01*
X66957Y50551D01*
X67200Y50550D01*
Y49050D01*
X66957Y49049D01*
X65964Y48989D01*
X65876Y48970D01*
X65810Y48948D01*
X65766Y48925D01*
Y50675D01*
X65810Y50652D01*
X65876Y50630D01*
X65964Y50611D01*
X66075Y50595D01*
X66106Y50592D01*
Y51844D01*
X66131Y51826D01*
D02*
G37*
G36*
X28301Y51943D02*
X28324Y51551D01*
X28330Y51516D01*
X28341Y51469D01*
X28353Y51432D01*
X28367Y51404D01*
X28383Y51385D01*
X28334D01*
X28335Y51366D01*
X28348Y51292D01*
X28363Y51232D01*
X28379Y51186D01*
X28398Y51153D01*
X27202D01*
X27221Y51186D01*
X27237Y51232D01*
X27252Y51292D01*
X27265Y51366D01*
X27267Y51385D01*
X27217D01*
X27233Y51404D01*
X27247Y51432D01*
X27259Y51469D01*
X27270Y51516D01*
X27279Y51572D01*
X27291Y51696D01*
X27295Y51782D01*
X27296Y51808D01*
X27300Y52100D01*
X28300D01*
X28301Y51943D01*
D02*
G37*
G36*
X19172Y72505D02*
X19209Y72483D01*
X19254Y72464D01*
X19307Y72447D01*
X19368Y72433D01*
X19436Y72421D01*
X19597Y72405D01*
X19689Y72401D01*
X19788Y72400D01*
Y71400D01*
X19689Y71399D01*
X19436Y71379D01*
X19368Y71368D01*
X19307Y71353D01*
X19254Y71336D01*
X19209Y71317D01*
X19172Y71295D01*
X19143Y71270D01*
Y72530D01*
X19172Y72505D01*
D02*
G37*
G36*
X17857Y71270D02*
X17828Y71295D01*
X17791Y71317D01*
X17746Y71336D01*
X17693Y71353D01*
X17632Y71368D01*
X17564Y71379D01*
X17403Y71395D01*
X17311Y71399D01*
X17212Y71400D01*
Y72400D01*
X17311Y72401D01*
X17564Y72421D01*
X17632Y72433D01*
X17693Y72447D01*
X17746Y72464D01*
X17791Y72483D01*
X17828Y72505D01*
X17857Y72530D01*
Y71270D01*
D02*
G37*
G36*
X16272Y72505D02*
X16309Y72483D01*
X16354Y72464D01*
X16407Y72447D01*
X16468Y72433D01*
X16536Y72421D01*
X16697Y72405D01*
X16789Y72401D01*
X16888Y72400D01*
Y71400D01*
X16789Y71399D01*
X16536Y71379D01*
X16468Y71368D01*
X16407Y71353D01*
X16354Y71336D01*
X16309Y71317D01*
X16272Y71295D01*
X16243Y71270D01*
Y72530D01*
X16272Y72505D01*
D02*
G37*
G36*
X27701Y73089D02*
X27721Y72836D01*
X27733Y72768D01*
X27747Y72707D01*
X27764Y72654D01*
X27783Y72609D01*
X27805Y72572D01*
X27830Y72543D01*
X26570D01*
X26595Y72572D01*
X26617Y72609D01*
X26636Y72654D01*
X26653Y72707D01*
X26667Y72768D01*
X26679Y72836D01*
X26695Y72997D01*
X26699Y73089D01*
X26700Y73188D01*
X27700D01*
X27701Y73089D01*
D02*
G37*
G36*
X62854Y31024D02*
X62875Y31019D01*
X62906Y31015D01*
X62999Y31008D01*
X63308Y31000D01*
X63411Y31000D01*
Y29800D01*
X62843Y29770D01*
Y31030D01*
X62854Y31024D01*
D02*
G37*
G36*
X24801Y73089D02*
X24821Y72836D01*
X24833Y72768D01*
X24847Y72707D01*
X24864Y72654D01*
X24883Y72609D01*
X24905Y72572D01*
X24930Y72543D01*
X23670D01*
X23695Y72572D01*
X23717Y72609D01*
X23736Y72654D01*
X23753Y72707D01*
X23767Y72768D01*
X23779Y72836D01*
X23795Y72997D01*
X23799Y73089D01*
X23800Y73188D01*
X24800D01*
X24801Y73089D01*
D02*
G37*
G36*
X70902Y27347D02*
X70914Y27172D01*
X70925Y27096D01*
X70939Y27029D01*
X70956Y26969D01*
X70976Y26917D01*
X70999Y26873D01*
X71025Y26837D01*
X71055Y26809D01*
X69802Y26669D01*
X69821Y26697D01*
X69838Y26733D01*
X69852Y26777D01*
X69865Y26829D01*
X69876Y26889D01*
X69891Y27034D01*
X69899Y27210D01*
X69900Y27311D01*
X70900Y27446D01*
X70902Y27347D01*
D02*
G37*
G36*
X71005Y28128D02*
X70983Y28091D01*
X70964Y28046D01*
X70947Y27993D01*
X70933Y27932D01*
X70921Y27864D01*
X70905Y27703D01*
X70901Y27611D01*
X70900Y27512D01*
X69900D01*
X69899Y27611D01*
X69879Y27864D01*
X69867Y27932D01*
X69853Y27993D01*
X69836Y28046D01*
X69817Y28091D01*
X69795Y28128D01*
X69770Y28157D01*
X71030D01*
X71005Y28128D01*
D02*
G37*
G36*
X30601Y73089D02*
X30621Y72836D01*
X30632Y72768D01*
X30647Y72707D01*
X30664Y72654D01*
X30683Y72609D01*
X30705Y72572D01*
X30730Y72543D01*
X29470D01*
X29495Y72572D01*
X29517Y72609D01*
X29536Y72654D01*
X29553Y72707D01*
X29568Y72768D01*
X29579Y72836D01*
X29595Y72997D01*
X29599Y73089D01*
X29600Y73188D01*
X30600D01*
X30601Y73089D01*
D02*
G37*
G36*
X29457Y71270D02*
X29428Y71295D01*
X29391Y71317D01*
X29346Y71336D01*
X29293Y71353D01*
X29232Y71368D01*
X29164Y71379D01*
X29003Y71395D01*
X28911Y71399D01*
X28812Y71400D01*
Y72400D01*
X28911Y72401D01*
X29164Y72421D01*
X29232Y72433D01*
X29293Y72447D01*
X29346Y72464D01*
X29391Y72483D01*
X29428Y72505D01*
X29457Y72530D01*
Y71270D01*
D02*
G37*
G36*
X27872Y72505D02*
X27909Y72483D01*
X27954Y72464D01*
X28007Y72447D01*
X28068Y72433D01*
X28136Y72421D01*
X28297Y72405D01*
X28389Y72401D01*
X28488Y72400D01*
Y71400D01*
X28389Y71399D01*
X28136Y71379D01*
X28068Y71368D01*
X28007Y71353D01*
X27954Y71336D01*
X27909Y71317D01*
X27872Y71295D01*
X27843Y71270D01*
Y72530D01*
X27872Y72505D01*
D02*
G37*
G36*
X26557Y71270D02*
X26528Y71295D01*
X26491Y71317D01*
X26446Y71336D01*
X26393Y71353D01*
X26332Y71368D01*
X26264Y71379D01*
X26103Y71395D01*
X26011Y71399D01*
X25912Y71400D01*
Y72400D01*
X26011Y72401D01*
X26264Y72421D01*
X26332Y72433D01*
X26393Y72447D01*
X26446Y72464D01*
X26491Y72483D01*
X26528Y72505D01*
X26557Y72530D01*
Y71270D01*
D02*
G37*
G36*
X21901Y73089D02*
X21921Y72836D01*
X21933Y72768D01*
X21947Y72707D01*
X21964Y72654D01*
X21983Y72609D01*
X22005Y72572D01*
X22030Y72543D01*
X20770D01*
X20795Y72572D01*
X20817Y72609D01*
X20836Y72654D01*
X20853Y72707D01*
X20867Y72768D01*
X20879Y72836D01*
X20895Y72997D01*
X20899Y73089D01*
X20900Y73188D01*
X21900D01*
X21901Y73089D01*
D02*
G37*
G36*
X19001D02*
X19021Y72836D01*
X19033Y72768D01*
X19047Y72707D01*
X19064Y72654D01*
X19083Y72609D01*
X19105Y72572D01*
X19130Y72543D01*
X17870D01*
X17895Y72572D01*
X17917Y72609D01*
X17936Y72654D01*
X17953Y72707D01*
X17967Y72768D01*
X17979Y72836D01*
X17995Y72997D01*
X17999Y73089D01*
X18000Y73188D01*
X19000D01*
X19001Y73089D01*
D02*
G37*
G36*
X16101D02*
X16121Y72836D01*
X16132Y72768D01*
X16147Y72707D01*
X16164Y72654D01*
X16183Y72609D01*
X16205Y72572D01*
X16230Y72543D01*
X14970D01*
X14995Y72572D01*
X15017Y72609D01*
X15036Y72654D01*
X15053Y72707D01*
X15067Y72768D01*
X15079Y72836D01*
X15095Y72997D01*
X15099Y73089D01*
X15100Y73188D01*
X16100D01*
X16101Y73089D01*
D02*
G37*
D10*
X61046Y68654D02*
Y70650D01*
Y68654D02*
X61100Y68600D01*
X107900Y28200D02*
X108100D01*
X105300Y30800D02*
X107900Y28200D01*
X105300Y30800D02*
Y33300D01*
X59900Y67400D02*
X61100Y68600D01*
X59600Y32300D02*
X60400D01*
X62000Y33900D01*
X70400Y26200D02*
X70500Y26100D01*
X70400Y26200D02*
Y28800D01*
X30100Y71900D02*
Y74900D01*
X27200Y71900D02*
Y74900D01*
X24300Y71900D02*
Y74900D01*
X21400Y71900D02*
Y74900D01*
X18500Y71900D02*
Y74900D01*
X15600Y71900D02*
Y74900D01*
X27200Y71900D02*
X30100D01*
X24300D02*
X27200D01*
X21400D02*
X24300D01*
X18500D02*
X21400D01*
X15600D02*
X18500D01*
X27200Y74900D02*
X30100D01*
X24300D02*
X27200D01*
X21400D02*
X24300D01*
X18500D02*
X21400D01*
X15600D02*
X18500D01*
X27800Y52800D02*
Y53200D01*
Y50700D02*
Y52100D01*
X22800Y52300D02*
X23000Y52100D01*
X27700Y53300D02*
X27800Y53200D01*
X2100Y12000D02*
X4300D01*
X2100Y16900D02*
Y19100D01*
Y14300D02*
Y16900D01*
Y12000D02*
Y14300D01*
Y33800D02*
X3000Y32900D01*
X4400D01*
X2100Y36500D02*
Y38800D01*
Y33800D02*
Y36500D01*
Y31100D02*
Y33800D01*
Y53300D02*
X3000Y52400D01*
X4600D01*
X2100Y56100D02*
Y58300D01*
Y53300D02*
Y56100D01*
Y50900D02*
Y53300D01*
D11*
X118100Y10000D02*
X118200Y9900D01*
X119900D01*
X27100Y52100D02*
X27800Y52800D01*
X23000Y52100D02*
X27100D01*
X22800Y52300D02*
Y53300D01*
Y50700D02*
Y52300D01*
X25300Y50700D02*
X27800D01*
X22800D02*
X25300D01*
Y53300D02*
X27700D01*
X22800D02*
X25300D01*
X21800Y28400D02*
X24400D01*
X19000D02*
X21800D01*
X18900Y28300D02*
X19000Y28400D01*
X21800D02*
Y30600D01*
Y26000D02*
Y28400D01*
X24400D02*
Y30600D01*
Y26000D02*
Y28400D01*
X21800Y30600D02*
X24400D01*
X18900D02*
X21800D01*
Y26000D02*
X24400D01*
X18900D02*
X21800D01*
X18900Y28300D02*
Y30600D01*
Y26000D02*
Y28300D01*
X18800Y30700D02*
X18900Y30600D01*
X65100Y49800D02*
X67200D01*
X62100D02*
X65100D01*
X65400Y51000D02*
X66667D01*
X64433D02*
X65400D01*
X67450Y49550D02*
X68900Y51000D01*
X66667Y48767D02*
X67450Y49550D01*
X62100Y49800D02*
Y51000D01*
Y48600D02*
Y49800D01*
X67200D02*
X67450Y49550D01*
X62100Y48600D02*
X62200Y48500D01*
X64433D01*
X66667D01*
Y48767D01*
Y51000D02*
X68900D01*
X62200D02*
X64433D01*
D13*
X64300Y30400D02*
X65200Y31300D01*
X62200Y30400D02*
X64300D01*
D37*
Y87300D02*
X66800D01*
X64000Y87000D02*
X64300Y87300D01*
X124900Y66600D02*
Y66900D01*
X126300Y68300D01*
X126400Y68200D01*
D39*
X133800Y34400D02*
X133900Y34500D01*
X68460Y67100D02*
Y68440D01*
X67500Y69400D02*
X68460Y68440D01*
X64100Y69600D02*
X64700Y69000D01*
Y67900D02*
Y69000D01*
D42*
X113867Y34400D02*
X133800D01*
Y36500D01*
X110067Y38200D02*
X113867Y34400D01*
X107400Y38200D02*
X110067D01*
X107400D02*
Y40000D01*
X106600Y40800D02*
X107400Y40000D01*
D44*
X65400Y51000D02*
Y62900D01*
X64000Y64300D02*
X65400Y62900D01*
X65100Y49800D02*
X65400Y50100D01*
Y51000D01*
X64000Y66400D02*
X64547Y66947D01*
X63600Y66400D02*
X64000Y66000D01*
Y64300D02*
Y66000D01*
Y66400D01*
X64547Y66947D02*
Y68523D01*
D47*
X187800Y85100D02*
D03*
X7800Y85300D02*
D03*
Y4500D02*
D03*
D48*
X35200Y64500D02*
D03*
X37800Y93700D02*
D03*
D50*
X66800Y87300D02*
D03*
X61046Y70650D02*
D03*
X105200Y72700D02*
D03*
X124900Y66600D02*
D03*
X129200Y67200D02*
D03*
X126400Y68200D02*
D03*
X123300Y44800D02*
D03*
Y47100D02*
D03*
X188600Y61100D02*
D03*
X189600Y28400D02*
D03*
X118100Y10000D02*
D03*
X91600Y11600D02*
D03*
X133800Y36500D02*
D03*
X106600Y40800D02*
D03*
X107400Y38200D02*
D03*
X68460Y67100D02*
D03*
X67500Y69400D02*
D03*
X71800Y23400D02*
D03*
X70500Y26100D02*
D03*
X70400Y28800D02*
D03*
X18900Y28300D02*
D03*
X24400Y30600D02*
D03*
Y28400D02*
D03*
Y26000D02*
D03*
X21800D02*
D03*
Y28400D02*
D03*
X18900Y30600D02*
D03*
X21800D02*
D03*
X119200Y78000D02*
D03*
X118100Y75600D02*
D03*
X145700Y66200D02*
D03*
X153900Y78900D02*
D03*
X119900Y9900D02*
D03*
X95300Y26000D02*
D03*
X82000Y26500D02*
D03*
X83100Y83900D02*
D03*
X79900Y56300D02*
D03*
X62300Y60000D02*
D03*
X69400Y83600D02*
D03*
X92000Y69600D02*
D03*
X81600Y71600D02*
D03*
X107700Y45700D02*
D03*
X105300Y33300D02*
D03*
X107800Y31600D02*
D03*
X108100Y28200D02*
D03*
X64000Y87000D02*
D03*
X47500Y50800D02*
D03*
X13500Y53600D02*
D03*
X14100Y39900D02*
D03*
X11500Y12900D02*
D03*
X30100Y74900D02*
D03*
Y71900D02*
D03*
X27200D02*
D03*
Y74900D02*
D03*
X24300D02*
D03*
Y71900D02*
D03*
X21400D02*
D03*
X18500D02*
D03*
X15600D02*
D03*
Y74900D02*
D03*
X18500D02*
D03*
X21400D02*
D03*
X22800Y50700D02*
D03*
X25300D02*
D03*
X27800D02*
D03*
Y53200D02*
D03*
X25300Y53300D02*
D03*
X22800D02*
D03*
X2100Y12000D02*
D03*
X7700Y56525D02*
D03*
Y59675D02*
D03*
Y20575D02*
D03*
Y17425D02*
D03*
Y40075D02*
D03*
Y36925D02*
D03*
X169189Y41663D02*
D03*
X173520D02*
D03*
X154032Y49968D02*
D03*
X157968D02*
D03*
X154032Y46031D02*
D03*
X157968D02*
D03*
X160700Y65065D02*
D03*
Y60735D02*
D03*
X4300Y12000D02*
D03*
X2100Y36500D02*
D03*
Y33800D02*
D03*
Y56100D02*
D03*
Y53300D02*
D03*
Y31100D02*
D03*
X4400Y32900D02*
D03*
X2100Y50900D02*
D03*
X4600Y52400D02*
D03*
X18900Y26000D02*
D03*
X2100Y19100D02*
D03*
Y38800D02*
D03*
Y16900D02*
D03*
Y14300D02*
D03*
Y58300D02*
D03*
X63200Y37500D02*
D03*
X62200Y30400D02*
D03*
X59600Y32300D02*
D03*
X46700Y36500D02*
D03*
X47400Y22000D02*
D03*
X62000Y33900D02*
D03*
X65200Y31300D02*
D03*
X89300Y30800D02*
D03*
X129900Y15400D02*
D03*
X50900Y74500D02*
D03*
X59900Y67400D02*
D03*
X52700Y90900D02*
D03*
X68900Y51000D02*
D03*
X66667Y48500D02*
D03*
X62200D02*
D03*
Y51000D02*
D03*
X66667D02*
D03*
X64433D02*
D03*
Y48500D02*
D03*
X64700Y67900D02*
D03*
X133800Y34400D02*
D03*
X77600Y11600D02*
D03*
X191900Y77600D02*
D03*
X172900Y84700D02*
D03*
X178700Y10000D02*
D03*
X162700Y7800D02*
D03*
X63600Y66400D02*
D03*
X64100Y69600D02*
D03*
X85200Y52700D02*
D03*
X76000Y43700D02*
D03*
X80300Y48200D02*
D03*
X53000Y8000D02*
D03*
X30000Y40800D02*
D03*
X47500Y42500D02*
D03*
X87000Y85000D02*
D03*
X92500Y40100D02*
D03*
X148300Y18600D02*
D03*
X178600Y76300D02*
D03*
X32800Y8000D02*
D03*
X191300Y10700D02*
D03*
M02*
