G04 Layer_Color=16711935*
%FSLAX25Y25*%
%MOIN*%
G70*
G01*
G75*
%ADD74R,0.03720X0.03720*%
%ADD75R,0.03720X0.03720*%
%ADD92R,0.03220X0.02720*%
%ADD93R,0.06625X0.06625*%
%ADD94C,0.06625*%
%ADD95R,0.06625X0.06625*%
%ADD96C,0.02751*%
%ADD97C,0.02920*%
%ADD98R,0.05906X0.02900*%
%ADD99R,0.05906X0.03050*%
%ADD100R,0.02900X0.05906*%
%ADD101R,0.03050X0.05906*%
%ADD102O,0.07413X0.03082*%
%ADD103R,0.10563X0.08594*%
G04:AMPARAMS|DCode=104|XSize=97.75mil|YSize=78.07mil|CornerRadius=12.46mil|HoleSize=0mil|Usage=FLASHONLY|Rotation=180.000|XOffset=0mil|YOffset=0mil|HoleType=Round|Shape=RoundedRectangle|*
%AMROUNDEDRECTD104*
21,1,0.09775,0.05315,0,0,180.0*
21,1,0.07284,0.07807,0,0,180.0*
1,1,0.02492,-0.03642,0.02658*
1,1,0.02492,0.03642,0.02658*
1,1,0.02492,0.03642,-0.02658*
1,1,0.02492,-0.03642,-0.02658*
%
%ADD104ROUNDEDRECTD104*%
%ADD105O,0.02689X0.06625*%
G04:AMPARAMS|DCode=106|XSize=30.82mil|YSize=22.95mil|CornerRadius=5.57mil|HoleSize=0mil|Usage=FLASHONLY|Rotation=90.000|XOffset=0mil|YOffset=0mil|HoleType=Round|Shape=RoundedRectangle|*
%AMROUNDEDRECTD106*
21,1,0.03082,0.01181,0,0,90.0*
21,1,0.01969,0.02295,0,0,90.0*
1,1,0.01114,0.00591,0.00984*
1,1,0.01114,0.00591,-0.00984*
1,1,0.01114,-0.00591,-0.00984*
1,1,0.01114,-0.00591,0.00984*
%
%ADD106ROUNDEDRECTD106*%
G04:AMPARAMS|DCode=107|XSize=30.82mil|YSize=19.01mil|CornerRadius=5.08mil|HoleSize=0mil|Usage=FLASHONLY|Rotation=90.000|XOffset=0mil|YOffset=0mil|HoleType=Round|Shape=RoundedRectangle|*
%AMROUNDEDRECTD107*
21,1,0.03082,0.00886,0,0,90.0*
21,1,0.02067,0.01901,0,0,90.0*
1,1,0.01015,0.00443,0.01034*
1,1,0.01015,0.00443,-0.01034*
1,1,0.01015,-0.00443,-0.01034*
1,1,0.01015,-0.00443,0.01034*
%
%ADD107ROUNDEDRECTD107*%
G04:AMPARAMS|DCode=108|XSize=30.82mil|YSize=22.95mil|CornerRadius=5.57mil|HoleSize=0mil|Usage=FLASHONLY|Rotation=0.000|XOffset=0mil|YOffset=0mil|HoleType=Round|Shape=RoundedRectangle|*
%AMROUNDEDRECTD108*
21,1,0.03082,0.01181,0,0,0.0*
21,1,0.01969,0.02295,0,0,0.0*
1,1,0.01114,0.00984,-0.00591*
1,1,0.01114,-0.00984,-0.00591*
1,1,0.01114,-0.00984,0.00591*
1,1,0.01114,0.00984,0.00591*
%
%ADD108ROUNDEDRECTD108*%
G04:AMPARAMS|DCode=109|XSize=30.82mil|YSize=19.01mil|CornerRadius=5.08mil|HoleSize=0mil|Usage=FLASHONLY|Rotation=0.000|XOffset=0mil|YOffset=0mil|HoleType=Round|Shape=RoundedRectangle|*
%AMROUNDEDRECTD109*
21,1,0.03082,0.00886,0,0,0.0*
21,1,0.02067,0.01901,0,0,0.0*
1,1,0.01015,0.01034,-0.00443*
1,1,0.01015,-0.01034,-0.00443*
1,1,0.01015,-0.01034,0.00443*
1,1,0.01015,0.01034,0.00443*
%
%ADD109ROUNDEDRECTD109*%
D74*
X122500Y73600D02*
D03*
Y79100D02*
D03*
X49300Y73400D02*
D03*
Y67900D02*
D03*
X65000Y80300D02*
D03*
Y85800D02*
D03*
X68200Y73400D02*
D03*
Y67900D02*
D03*
X63700Y73400D02*
D03*
Y67900D02*
D03*
X176700Y47600D02*
D03*
Y42100D02*
D03*
X154600Y64600D02*
D03*
Y59100D02*
D03*
X19300Y85700D02*
D03*
Y80200D02*
D03*
X161700Y47400D02*
D03*
Y52900D02*
D03*
X150600Y48700D02*
D03*
Y43200D02*
D03*
X168454Y63328D02*
D03*
Y57828D02*
D03*
X164054D02*
D03*
Y63328D02*
D03*
X10000Y31500D02*
D03*
Y26000D02*
D03*
X5100Y65200D02*
D03*
Y70700D02*
D03*
X10000Y70600D02*
D03*
Y65100D02*
D03*
X53900Y67900D02*
D03*
Y73400D02*
D03*
X11900Y15900D02*
D03*
Y21400D02*
D03*
X10900Y35800D02*
D03*
Y41300D02*
D03*
X10000Y51400D02*
D03*
Y45900D02*
D03*
X26800Y85700D02*
D03*
Y80200D02*
D03*
D75*
X95500Y11800D02*
D03*
X101000D02*
D03*
X156532Y37868D02*
D03*
X162031D02*
D03*
Y42369D02*
D03*
X156532D02*
D03*
X157100Y53400D02*
D03*
X151600D02*
D03*
X155316Y21100D02*
D03*
X160816D02*
D03*
Y25500D02*
D03*
X155316D02*
D03*
X160791Y29900D02*
D03*
X155291D02*
D03*
X172493Y37316D02*
D03*
X166993D02*
D03*
X171800Y49700D02*
D03*
X166300D02*
D03*
Y45200D02*
D03*
X171800D02*
D03*
X166400Y33200D02*
D03*
X171900D02*
D03*
X150000Y58200D02*
D03*
X144500D02*
D03*
X162100Y67900D02*
D03*
X167600D02*
D03*
X135500Y62700D02*
D03*
X141000D02*
D03*
X109500Y71800D02*
D03*
X115000D02*
D03*
X109500Y77400D02*
D03*
X115000D02*
D03*
X62000Y11800D02*
D03*
X56500D02*
D03*
X73200D02*
D03*
X78700D02*
D03*
X88800D02*
D03*
X83300D02*
D03*
D92*
X147700Y72600D02*
D03*
X151700D02*
D03*
D93*
X187800Y85100D02*
D03*
X7800Y77000D02*
D03*
Y85300D02*
D03*
Y93700D02*
D03*
Y4500D02*
D03*
D94*
X35200Y64500D02*
D03*
Y54500D02*
D03*
Y44500D02*
D03*
Y34500D02*
D03*
Y24500D02*
D03*
X17800Y93700D02*
D03*
X27800D02*
D03*
X37800D02*
D03*
X47800D02*
D03*
X57800D02*
D03*
X67800D02*
D03*
X77800D02*
D03*
X87800D02*
D03*
X97800D02*
D03*
X107800D02*
D03*
X117800D02*
D03*
X127800D02*
D03*
X137800D02*
D03*
X147800D02*
D03*
X157800D02*
D03*
X167800D02*
D03*
X177800D02*
D03*
X187800D02*
D03*
X17800Y4500D02*
D03*
X27800D02*
D03*
X37800D02*
D03*
X47800D02*
D03*
X57800D02*
D03*
X67800D02*
D03*
X77800D02*
D03*
X87800D02*
D03*
X97800D02*
D03*
X107800D02*
D03*
X117800D02*
D03*
X127800D02*
D03*
X137800D02*
D03*
X147800D02*
D03*
X157800D02*
D03*
X167800D02*
D03*
X177800D02*
D03*
X187800D02*
D03*
D95*
X35200Y14500D02*
D03*
D96*
X7700Y56525D02*
D03*
Y59675D02*
D03*
Y20575D02*
D03*
Y17425D02*
D03*
Y40075D02*
D03*
Y36925D02*
D03*
D97*
X169189Y41663D02*
D03*
X173520D02*
D03*
X154032Y49968D02*
D03*
X157968D02*
D03*
X154032Y46031D02*
D03*
X157968D02*
D03*
X160700Y65065D02*
D03*
Y60735D02*
D03*
D98*
X39947Y76650D02*
D03*
D99*
X39847Y80575D02*
D03*
D100*
X135950Y73053D02*
D03*
X140250Y24053D02*
D03*
D101*
X139875Y73153D02*
D03*
X144175Y24153D02*
D03*
D102*
X74625Y85600D02*
D03*
Y80600D02*
D03*
Y75600D02*
D03*
Y70600D02*
D03*
X102775Y75600D02*
D03*
Y85600D02*
D03*
Y80600D02*
D03*
Y70600D02*
D03*
D103*
X141931Y49990D02*
D03*
Y36013D02*
D03*
D104*
X21400Y14191D02*
D03*
Y25609D02*
D03*
X21300Y38591D02*
D03*
Y50009D02*
D03*
X21200Y61591D02*
D03*
Y73009D02*
D03*
D105*
X46555Y61944D02*
D03*
X49705D02*
D03*
X52854D02*
D03*
X56004D02*
D03*
X59153D02*
D03*
X62303D02*
D03*
X65453D02*
D03*
X68602D02*
D03*
X71752D02*
D03*
X74902D02*
D03*
X78051D02*
D03*
X81201D02*
D03*
X84350D02*
D03*
X87500D02*
D03*
X90650D02*
D03*
X93799D02*
D03*
X96949D02*
D03*
X100098D02*
D03*
X103248D02*
D03*
X106398D02*
D03*
X109547D02*
D03*
X112697D02*
D03*
X115847D02*
D03*
X118996D02*
D03*
X122146D02*
D03*
X125295D02*
D03*
X128445D02*
D03*
X46555Y17456D02*
D03*
X49705D02*
D03*
X52854D02*
D03*
X56004D02*
D03*
X59153D02*
D03*
X62303D02*
D03*
X65453D02*
D03*
X68602D02*
D03*
X71752D02*
D03*
X74902D02*
D03*
X78051D02*
D03*
X81201D02*
D03*
X84350D02*
D03*
X87500D02*
D03*
X90650D02*
D03*
X93799D02*
D03*
X96949D02*
D03*
X100098D02*
D03*
X103248D02*
D03*
X106398D02*
D03*
X109547D02*
D03*
X112697D02*
D03*
X115847D02*
D03*
X118996D02*
D03*
X122146D02*
D03*
X125295D02*
D03*
X128445D02*
D03*
D106*
X36849Y76631D02*
D03*
X42951D02*
D03*
Y80568D02*
D03*
X36849D02*
D03*
D107*
X38916Y76631D02*
D03*
X40884D02*
D03*
Y80568D02*
D03*
X38916D02*
D03*
D108*
X135932Y76151D02*
D03*
Y70049D02*
D03*
X139868D02*
D03*
Y76151D02*
D03*
X140232Y27151D02*
D03*
Y21049D02*
D03*
X144168D02*
D03*
Y27151D02*
D03*
D109*
X135932Y74084D02*
D03*
Y72116D02*
D03*
X139868D02*
D03*
Y74084D02*
D03*
X140232Y25084D02*
D03*
Y23116D02*
D03*
X144168D02*
D03*
Y25084D02*
D03*
M02*
