G04 Layer_Color=32896*
%FSLAX25Y25*%
%MOIN*%
G70*
G01*
G75*
%ADD10C,0.01000*%
%ADD12C,0.00800*%
%ADD40C,0.00700*%
%ADD59C,0.00984*%
%ADD61C,0.02362*%
%ADD62C,0.00600*%
%ADD64C,0.00750*%
%ADD65C,0.00500*%
%ADD66C,0.00787*%
%ADD110C,0.00400*%
D10*
X178900Y54700D02*
Y58100D01*
X180600Y54700D02*
Y58000D01*
Y54700D02*
X182800Y58000D01*
Y54700D02*
Y58000D01*
X184500Y59700D02*
Y60100D01*
Y54800D02*
Y58100D01*
X176846Y54753D02*
X178695Y56549D01*
X176700Y58000D02*
X178695Y56549D01*
D12*
X186541Y59970D02*
G03*
X186541Y62030I2059J1030D01*
G01*
X188961Y56300D02*
G03*
X188961Y56300I-361J0D01*
G01*
Y61000D02*
G03*
X188961Y61000I-361J0D01*
G01*
X186541Y55370D02*
G03*
X186583Y57509I2059J1030D01*
G01*
X180000Y36860D02*
Y37060D01*
X177500D02*
X180000D01*
X177500Y35280D02*
X180000D01*
X177500Y31720D02*
X180000D01*
X177500Y33500D02*
X180000D01*
Y33400D02*
Y33500D01*
X177500Y28160D02*
X180000D01*
X177500Y29940D02*
X180000D01*
Y29840D02*
Y29940D01*
X180900Y27160D02*
X181100D01*
X180900Y24660D02*
Y27160D01*
X182680Y24660D02*
Y27160D01*
X186240Y24660D02*
Y27160D01*
X184460Y24660D02*
Y27160D01*
X184560D01*
X189800Y24660D02*
Y27160D01*
X188020Y24660D02*
Y27160D01*
X188120D01*
X190800Y28060D02*
Y28260D01*
Y28060D02*
X193300D01*
X190800Y29840D02*
X193300D01*
X190800Y33400D02*
X193300D01*
X190800Y31620D02*
X193300D01*
X190800D02*
Y31720D01*
Y36960D02*
X193300D01*
X190800Y35180D02*
X193300D01*
X190800D02*
Y35280D01*
X182680Y37960D02*
X182780D01*
Y40460D01*
X181000Y37960D02*
Y40460D01*
X186240Y37960D02*
X186340D01*
Y40460D01*
X184560Y37960D02*
Y40460D01*
X188120Y37960D02*
Y40460D01*
X189900Y37960D02*
Y40460D01*
X189700Y37960D02*
X189900D01*
X180000Y27160D02*
Y37960D01*
X190800D01*
Y27160D02*
Y37960D01*
X180000Y27160D02*
X190800D01*
X186500Y57400D02*
Y59970D01*
X190600Y58100D02*
Y59400D01*
X190900Y56300D02*
Y61000D01*
X192500Y12466D02*
Y10467D01*
X191833Y9800D01*
X191167Y10467D01*
X190501Y9800D01*
X189834Y10467D01*
Y12466D01*
X188501D02*
Y10467D01*
X187835Y9800D01*
X187168Y10467D01*
X186502Y9800D01*
X185836Y10467D01*
Y12466D01*
X184503D02*
Y10467D01*
X183836Y9800D01*
X183170Y10467D01*
X182503Y9800D01*
X181837Y10467D01*
Y12466D01*
X180504Y9800D02*
Y10467D01*
X179837D01*
Y9800D01*
X180504D01*
X174506Y13132D02*
X175172Y13799D01*
X176505D01*
X177172Y13132D01*
Y10467D01*
X176505Y9800D01*
X175172D01*
X174506Y10467D01*
X173173Y9800D02*
X171840D01*
X172506D01*
Y12466D01*
X173173D01*
X169841D02*
Y9800D01*
Y11133D01*
X169174Y11799D01*
X168508Y12466D01*
X167841D01*
X163176D02*
X165175D01*
X165842Y11799D01*
Y10467D01*
X165175Y9800D01*
X163176D01*
X161843Y12466D02*
Y10467D01*
X161177Y9800D01*
X159177D01*
Y12466D01*
X157844Y9800D02*
X156512D01*
X157178D01*
Y12466D01*
X157844D01*
X153846Y13132D02*
Y12466D01*
X154512D01*
X153179D01*
X153846D01*
Y10467D01*
X153179Y9800D01*
X151180Y13799D02*
Y11133D01*
X149847Y9800D01*
X148514Y11133D01*
Y13799D01*
X146515Y12466D02*
X145182D01*
X144516Y11799D01*
Y9800D01*
X146515D01*
X147181Y10467D01*
X146515Y11133D01*
X144516D01*
X143183Y9800D02*
X141850D01*
X142516D01*
Y13799D01*
X143183D01*
X139850Y9800D02*
X138517D01*
X139184D01*
Y13799D01*
X139850D01*
X134519Y9800D02*
X135852D01*
X136518Y10467D01*
Y11799D01*
X135852Y12466D01*
X134519D01*
X133852Y11799D01*
Y11133D01*
X136518D01*
X132519Y12466D02*
Y10467D01*
X131853Y9800D01*
X129853D01*
Y9133D01*
X130520Y8467D01*
X131186D01*
X129853Y9800D02*
Y12466D01*
X128521Y9800D02*
Y10467D01*
X127854D01*
Y9800D01*
X128521D01*
X122523Y12466D02*
X124522D01*
X125188Y11799D01*
Y10467D01*
X124522Y9800D01*
X122523D01*
X120523D02*
X119190D01*
X118524Y10467D01*
Y11799D01*
X119190Y12466D01*
X120523D01*
X121190Y11799D01*
Y10467D01*
X120523Y9800D01*
X117191D02*
Y12466D01*
X116525D01*
X115858Y11799D01*
Y9800D01*
Y11799D01*
X115192Y12466D01*
X114525Y11799D01*
Y9800D01*
D40*
X184017Y93400D02*
Y94100D01*
X74017Y93400D02*
Y94100D01*
X44017Y93400D02*
Y94100D01*
X61200Y92800D02*
X61900D01*
X63700Y94600D01*
X64400D01*
X63700Y92800D02*
X64400D01*
X61900Y94600D02*
X63700Y92800D01*
X61200Y94600D02*
X61900D01*
X91200Y92800D02*
X91900D01*
X93700Y94600D01*
X94400D01*
X93700Y92800D02*
X94400D01*
X91900Y94600D02*
X93700Y92800D01*
X91200Y94600D02*
X91900D01*
X111200Y92800D02*
X111900D01*
X113700Y94600D01*
X114400D01*
X113700Y92800D02*
X114400D01*
X111900Y94600D02*
X113700Y92800D01*
X111200Y94600D02*
X111900D01*
X131200Y92800D02*
X131900D01*
X133700Y94600D01*
X134400D01*
X133700Y92800D02*
X134400D01*
X131900Y94600D02*
X133700Y92800D01*
X131200Y94600D02*
X131900D01*
X151200Y92800D02*
X151900D01*
X153700Y94600D01*
X154400D01*
X153700Y92800D02*
X154400D01*
X151900Y94600D02*
X153700Y92800D01*
X151200Y94600D02*
X151900D01*
X171200Y92900D02*
X171900D01*
X173700Y94700D01*
X174400D01*
X173700Y92900D02*
X174400D01*
X171900Y94700D02*
X173700Y92900D01*
X171200Y94700D02*
X171900D01*
X183900Y4100D02*
Y4800D01*
X123900Y4100D02*
Y4800D01*
X93900Y4100D02*
Y4800D01*
X171200Y3600D02*
X171900D01*
X173700Y5400D01*
X174400D01*
X173700Y3600D02*
X174400D01*
X171900Y5400D02*
X173700Y3600D01*
X171200Y5400D02*
X171900D01*
X151200Y3600D02*
X151900D01*
X153700Y5400D01*
X154400D01*
X153700Y3600D02*
X154400D01*
X151900Y5400D02*
X153700Y3600D01*
X151200Y5400D02*
X151900D01*
X111200Y3600D02*
X111900D01*
X113700Y5400D01*
X114400D01*
X113700Y3600D02*
X114400D01*
X111900Y5400D02*
X113700Y3600D01*
X111200Y5400D02*
X111900D01*
X81300Y3700D02*
X82000D01*
X83800Y5500D01*
X84500D01*
X83800Y3700D02*
X84500D01*
X82000Y5500D02*
X83800Y3700D01*
X81300Y5500D02*
X82000D01*
X61200Y3600D02*
X61900D01*
X63700Y5400D01*
X64400D01*
X63700Y3600D02*
X64400D01*
X61900Y5400D02*
X63700Y3600D01*
X61200Y5400D02*
X61900D01*
X41300Y3600D02*
X42000D01*
X43800Y5400D01*
X44500D01*
X43800Y3600D02*
X44500D01*
X42000Y5400D02*
X43800Y3600D01*
X41300Y5400D02*
X42000D01*
X192500Y17999D02*
Y16000D01*
X191500Y15000D01*
X190501Y16000D01*
Y17999D01*
X189501Y15000D02*
X188501D01*
X189001D01*
Y17999D01*
X189501Y17499D01*
X187002Y15000D02*
Y15500D01*
X186502D01*
Y15000D01*
X187002D01*
X184503Y17499D02*
X184003Y17999D01*
X183003D01*
X182503Y17499D01*
Y15500D01*
X183003Y15000D01*
X184003D01*
X184503Y15500D01*
Y17499D01*
X178505Y15000D02*
X177505D01*
X178005D01*
Y17999D01*
X178505Y17499D01*
X174006Y15000D02*
X176005D01*
X174006Y16999D01*
Y17499D01*
X174506Y17999D01*
X175505D01*
X176005Y17499D01*
X173006Y15000D02*
X172007D01*
X172506D01*
Y17999D01*
X173006Y17499D01*
X169008Y15000D02*
Y17999D01*
X170507Y16499D01*
X168508D01*
X192500Y23399D02*
Y20200D01*
X191434Y21266D01*
X190367Y20200D01*
Y23399D01*
X189301Y20200D02*
X188235D01*
X188768D01*
Y22333D01*
X189301D01*
X186635D02*
Y20200D01*
Y21266D01*
X186102Y21800D01*
X185569Y22333D01*
X185036D01*
X181837Y20200D02*
X182903D01*
X183436Y20733D01*
Y21800D01*
X182903Y22333D01*
X181837D01*
X181304Y21800D01*
Y21266D01*
X183436D01*
X178105Y23399D02*
X180237D01*
Y21800D01*
X179171D01*
X180237D01*
Y20200D01*
X177038D02*
Y23399D01*
X175439D01*
X174906Y22866D01*
Y21800D01*
X175439Y21266D01*
X177038D01*
X175972D02*
X174906Y20200D01*
X173839D02*
Y22333D01*
X172773Y23399D01*
X171707Y22333D01*
Y20200D01*
Y21800D01*
X173839D01*
X170640Y20200D02*
Y23399D01*
X169574Y22333D01*
X168508Y23399D01*
Y20200D01*
X165309Y23399D02*
X167441D01*
Y20200D01*
X165309D01*
X167441Y21800D02*
X166375D01*
X6099Y45533D02*
X5566Y44466D01*
X4499Y43400D01*
X3433D01*
X2900Y43933D01*
Y45000D01*
X3433Y45533D01*
X3966D01*
X4499Y45000D01*
Y43400D01*
X6099Y46599D02*
X3966D01*
X2900Y47665D01*
X3966Y48732D01*
X6099D01*
X2900Y52997D02*
X6099D01*
X5033Y54063D01*
X6099Y55129D01*
X2900D01*
X5033Y56729D02*
Y57795D01*
X4499Y58328D01*
X2900D01*
Y56729D01*
X3433Y56196D01*
X3966Y56729D01*
Y58328D01*
X5033Y59395D02*
X2900Y61528D01*
X3966Y60461D01*
X5033Y61528D01*
X2900Y59395D01*
X21400Y1600D02*
Y2433D01*
Y2017D01*
X23899D01*
X23483Y1600D01*
X23899Y3683D02*
X22233D01*
X21400Y4516D01*
X22233Y5349D01*
X23899D01*
X21400Y7848D02*
Y6182D01*
X23066Y7848D01*
X23483D01*
X23899Y7431D01*
Y6598D01*
X23483Y6182D01*
X11700Y3566D02*
Y1900D01*
X13366Y3566D01*
X13783D01*
X14199Y3150D01*
Y2317D01*
X13783Y1900D01*
X14199Y4399D02*
X12533D01*
X11700Y5232D01*
X12533Y6065D01*
X14199D01*
Y8564D02*
Y6898D01*
X12950D01*
X13366Y7731D01*
Y8148D01*
X12950Y8564D01*
X12116D01*
X11700Y8148D01*
Y7315D01*
X12116Y6898D01*
X13899Y88200D02*
X14399Y88700D01*
Y89700D01*
X13899Y90199D01*
X13399D01*
X12900Y89700D01*
Y89200D01*
Y89700D01*
X12400Y90199D01*
X11900D01*
X11400Y89700D01*
Y88700D01*
X11900Y88200D01*
X14399Y91199D02*
X12400D01*
X11400Y92199D01*
X12400Y93198D01*
X14399D01*
X13899Y94198D02*
X14399Y94698D01*
Y95698D01*
X13899Y96197D01*
X13399D01*
X12900Y95698D01*
Y95198D01*
Y95698D01*
X12400Y96197D01*
X11900D01*
X11400Y95698D01*
Y94698D01*
X11900Y94198D01*
X21200Y88400D02*
X23199Y90399D01*
X24199Y93398D02*
Y91399D01*
X21200D01*
Y93398D01*
X22700Y91399D02*
Y92399D01*
X21200Y94398D02*
X24199D01*
X21200Y96397D01*
X24199D01*
D59*
X103267Y88946D02*
G03*
X103267Y88946I-492J0D01*
G01*
X43898Y61944D02*
G03*
X43898Y61944I-492J0D01*
G01*
X141931Y44069D02*
X144431D01*
X139432D02*
X141931D01*
D61*
X95098Y84793D02*
G03*
X95098Y84793I-1181J0D01*
G01*
X48130Y53479D02*
G03*
X48130Y53479I-1181J0D01*
G01*
D62*
X189454Y56300D02*
G03*
X189454Y56300I-854J0D01*
G01*
Y61000D02*
G03*
X189454Y61000I-854J0D01*
G01*
X182200Y35960D02*
X184300Y33860D01*
X182200Y31760D02*
X184300Y29660D01*
X186400Y31760D02*
X188500Y29660D01*
X186400Y35960D02*
X188500Y33860D01*
X184300D02*
X188500D01*
X184300Y29660D02*
Y33860D01*
Y29660D02*
X188500D01*
Y33860D01*
X186400Y31760D02*
Y35960D01*
X182200Y31760D02*
X186400D01*
X182200D02*
Y35960D01*
X186400D01*
X186900Y58400D02*
Y59200D01*
X186500Y59970D02*
X186541D01*
X190100Y58400D02*
Y59100D01*
X190200D01*
X190500Y59400D02*
X190600D01*
X73000Y89600D02*
Y96500D01*
X162800Y89600D02*
Y96500D01*
X123000Y1400D02*
Y8300D01*
X52800Y1600D02*
Y8500D01*
X43700Y77300D02*
Y79800D01*
X36100Y77300D02*
Y79800D01*
X136600Y69300D02*
X139100D01*
X136600Y76900D02*
X139100D01*
X140900Y20300D02*
X143400D01*
X140900Y27900D02*
X143400D01*
D64*
X2845Y4900D02*
Y7400D01*
X1289Y4900D02*
X4400D01*
X1289D02*
X2900Y2700D01*
X4400Y4900D01*
X2945Y85200D02*
Y87700D01*
X1389Y85200D02*
X4500D01*
X1389D02*
X3000Y83000D01*
X4500Y85200D01*
X1600Y93300D02*
X3700D01*
X2650Y92250D02*
Y94350D01*
X1700Y76900D02*
X3800D01*
X2750Y75850D02*
Y77950D01*
X182445Y85300D02*
Y87800D01*
X180889Y85300D02*
X184000D01*
X180889D02*
X182500Y83100D01*
X184000Y85300D01*
X32945Y93200D02*
Y95700D01*
X31389Y93200D02*
X34500D01*
X31389D02*
X33000Y91000D01*
X34500Y93200D01*
D65*
X145600Y70700D02*
X153800D01*
X145600D02*
Y74500D01*
X153800D01*
Y70700D02*
Y74500D01*
X120200Y81400D02*
X124800D01*
X120200Y71300D02*
X124800D01*
Y81400D01*
X120200Y71300D02*
Y81400D01*
X93200Y9500D02*
X103300D01*
X93200Y14100D02*
X103300D01*
Y9500D02*
Y14100D01*
X93200Y9500D02*
Y14100D01*
X47000Y65600D02*
Y75700D01*
X51600Y65600D02*
Y75700D01*
X47000Y65600D02*
X51600D01*
X47000Y75700D02*
X51600D01*
X67300Y78000D02*
Y88100D01*
X62700Y78000D02*
Y88100D01*
X67300D01*
X62700Y78000D02*
X67300D01*
X65900Y65600D02*
Y75700D01*
X70500Y65600D02*
Y75700D01*
X65900Y65600D02*
X70500D01*
X65900Y75700D02*
X70500D01*
X61400Y65600D02*
Y75700D01*
X66000Y65600D02*
Y75700D01*
X61400Y65600D02*
X66000D01*
X61400Y75700D02*
X66000D01*
X174400Y39800D02*
Y49900D01*
X179000D01*
X174400Y39800D02*
X179000D01*
Y49900D01*
X152300Y56800D02*
X156900D01*
X152300Y66900D02*
X156900D01*
X152300Y56800D02*
Y66900D01*
X156900Y56800D02*
Y66900D01*
X154232Y35568D02*
X164331D01*
X154232Y40168D02*
X164331D01*
Y35568D02*
Y40168D01*
X154232Y35568D02*
Y40168D01*
Y40069D02*
Y44668D01*
X164331Y40069D02*
Y44668D01*
X154232D02*
X164331D01*
X154232Y40069D02*
X164331D01*
X149300Y55700D02*
X159400D01*
X149300Y51100D02*
X159400D01*
X149300D02*
Y55700D01*
X159400Y51100D02*
Y55700D01*
X17000Y77900D02*
Y88000D01*
X21600Y77900D02*
Y88000D01*
X17000Y77900D02*
X21600D01*
X17000Y88000D02*
X21600D01*
X164000Y45100D02*
Y55200D01*
X159400Y45100D02*
Y55200D01*
X164000D01*
X159400Y45100D02*
X164000D01*
X148300Y40900D02*
X152900D01*
X148300Y51000D02*
X152900D01*
X148300Y40900D02*
Y51000D01*
X152900Y40900D02*
Y51000D01*
X153016Y18800D02*
X163116D01*
X153016D02*
Y23400D01*
X163116Y18800D02*
Y23400D01*
X153016D02*
X163116D01*
X153016Y27800D02*
X163116D01*
Y23200D02*
Y27800D01*
X153016Y23200D02*
Y27800D01*
Y23200D02*
X163116D01*
X152991Y32200D02*
X163091D01*
Y27600D02*
Y32200D01*
X152991Y27600D02*
Y32200D01*
Y27600D02*
X163091D01*
X164693Y39616D02*
X174793D01*
Y35016D02*
Y39616D01*
X164693Y35016D02*
Y39616D01*
Y35016D02*
X174793D01*
X164000Y52000D02*
X174100D01*
Y47400D02*
Y52000D01*
X164000Y47400D02*
Y52000D01*
Y47400D02*
X174100D01*
X164000Y42900D02*
X174100D01*
X164000D02*
Y47500D01*
X174100Y42900D02*
Y47500D01*
X164000D02*
X174100D01*
X164100Y30900D02*
X174200D01*
X164100D02*
Y35500D01*
X174200Y30900D02*
Y35500D01*
X164100D02*
X174200D01*
X142200Y60500D02*
X152300D01*
Y55900D02*
Y60500D01*
X142200Y55900D02*
Y60500D01*
Y55900D02*
X152300D01*
X166154Y65628D02*
X170754D01*
Y55528D02*
Y65628D01*
X166154Y55528D02*
Y65628D01*
Y55528D02*
X170754D01*
X159800Y65600D02*
X169900D01*
X159800D02*
Y70200D01*
X169900Y65600D02*
Y70200D01*
X159800D02*
X169900D01*
X161754Y55528D02*
X166354D01*
X161754D02*
Y65628D01*
X166354Y55528D02*
Y65628D01*
X161754D02*
X166354D01*
X15495Y15569D02*
Y25806D01*
X14313Y25412D02*
X15495D01*
X14313Y25018D02*
X15495D01*
X14313Y25806D02*
X15495D01*
X14313Y25018D02*
Y25806D01*
X27305Y25018D02*
X28487D01*
X27305Y25412D02*
X28487D01*
X27305Y15569D02*
Y25806D01*
X28487Y25018D02*
Y25806D01*
X27305D02*
X28487D01*
X7700Y33800D02*
X12300D01*
Y23700D02*
Y33800D01*
X7700Y23700D02*
Y33800D01*
Y23700D02*
X12300D01*
X15394Y39969D02*
Y50205D01*
X14213Y49812D02*
X15394D01*
X14213Y49418D02*
X15394D01*
X14213Y50205D02*
X15394D01*
X14213Y49418D02*
Y50205D01*
X27206Y49418D02*
X28387D01*
X27206Y49812D02*
X28387D01*
X27206Y39969D02*
Y50205D01*
X28387Y49418D02*
Y50205D01*
X27206D02*
X28387D01*
X27106Y72812D02*
X28287D01*
X27106Y72418D02*
X28287D01*
Y73206D01*
X14113Y72418D02*
Y73206D01*
Y72418D02*
X15294D01*
X14113Y72812D02*
X15294D01*
Y62969D02*
Y73206D01*
X14113D02*
X15294D01*
X27106D02*
X28287D01*
X27106Y62969D02*
Y73206D01*
X2800Y73000D02*
X7400D01*
X2800Y62900D02*
X7400D01*
Y73000D01*
X2800Y62900D02*
Y73000D01*
X7700Y62800D02*
X12300D01*
X7700Y72900D02*
X12300D01*
X7700Y62800D02*
Y72900D01*
X12300Y62800D02*
Y72900D01*
X143300Y60400D02*
Y65000D01*
X133200Y60400D02*
Y65000D01*
Y60400D02*
X143300D01*
X133200Y65000D02*
X143300D01*
X51600Y75700D02*
X56200D01*
X51600Y65600D02*
X56200D01*
Y75700D01*
X51600Y65600D02*
Y75700D01*
X117300Y69500D02*
Y74100D01*
X107200Y69500D02*
Y74100D01*
Y69500D02*
X117300D01*
X107200Y74100D02*
X117300D01*
Y75100D02*
Y79700D01*
X107200Y75100D02*
Y79700D01*
Y75100D02*
X117300D01*
X107200Y79700D02*
X117300D01*
X54200Y9500D02*
Y14100D01*
X64300Y9500D02*
Y14100D01*
X54200D02*
X64300D01*
X54200Y9500D02*
X64300D01*
X81000D02*
Y14100D01*
X70900Y9500D02*
Y14100D01*
Y9500D02*
X81000D01*
X70900Y14100D02*
X81000D01*
X91100D01*
X81000Y9500D02*
X91100D01*
X81000D02*
Y14100D01*
X91100Y9500D02*
Y14100D01*
X14200Y13600D02*
Y23700D01*
X9600Y13600D02*
Y23700D01*
X14200D01*
X9600Y13600D02*
X14200D01*
X13200Y33500D02*
Y43600D01*
X8600Y33500D02*
Y43600D01*
X13200D01*
X8600Y33500D02*
X13200D01*
X7700Y53700D02*
X12300D01*
Y43600D02*
Y53700D01*
X7700Y43600D02*
Y53700D01*
Y43600D02*
X12300D01*
X24500Y77900D02*
Y88000D01*
X29100Y77900D02*
Y88000D01*
X24500Y77900D02*
X29100D01*
X24500Y88000D02*
X29100D01*
D66*
X79546Y88730D02*
X97853D01*
X79546Y67470D02*
Y88730D01*
Y67470D02*
X97853D01*
Y88730D01*
X43012Y57416D02*
X131988D01*
X43012Y21983D02*
X131988D01*
X43012D02*
Y57416D01*
X131988Y21983D02*
Y57416D01*
D110*
X141931Y44069D02*
X144431Y41568D01*
X141931D02*
X144431D01*
X139432D02*
X141931D01*
X135829Y54813D02*
X148132D01*
Y31191D02*
Y54813D01*
X139432Y41568D02*
X141931Y44069D01*
X135829Y31191D02*
Y54813D01*
Y31191D02*
X148132D01*
M02*
