G04 Layer_Physical_Order=4*
G04 Layer_Color=16711680*
%FSLAX25Y25*%
%MOIN*%
G70*
G01*
G75*
%ADD10C,0.01000*%
%ADD11C,0.01500*%
%ADD12C,0.00800*%
%ADD13C,0.01200*%
%ADD18R,0.03000X0.03000*%
%ADD19R,0.03000X0.03000*%
%ADD36R,0.02500X0.02000*%
%ADD37C,0.01100*%
%ADD39C,0.02000*%
%ADD40C,0.00700*%
%ADD42C,0.02500*%
%ADD43C,0.03500*%
%ADD47R,0.05906X0.05906*%
%ADD48C,0.05906*%
%ADD49R,0.05906X0.05906*%
%ADD50C,0.02200*%
%ADD51O,0.06693X0.02362*%
%ADD52R,0.09843X0.07874*%
G04:AMPARAMS|DCode=53|XSize=90.55mil|YSize=70.87mil|CornerRadius=8.86mil|HoleSize=0mil|Usage=FLASHONLY|Rotation=180.000|XOffset=0mil|YOffset=0mil|HoleType=Round|Shape=RoundedRectangle|*
%AMROUNDEDRECTD53*
21,1,0.09055,0.05315,0,0,180.0*
21,1,0.07284,0.07087,0,0,180.0*
1,1,0.01772,-0.03642,0.02658*
1,1,0.01772,0.03642,0.02658*
1,1,0.01772,0.03642,-0.02658*
1,1,0.01772,-0.03642,-0.02658*
%
%ADD53ROUNDEDRECTD53*%
%ADD54O,0.01969X0.05906*%
G04:AMPARAMS|DCode=55|XSize=23.62mil|YSize=15.75mil|CornerRadius=1.97mil|HoleSize=0mil|Usage=FLASHONLY|Rotation=90.000|XOffset=0mil|YOffset=0mil|HoleType=Round|Shape=RoundedRectangle|*
%AMROUNDEDRECTD55*
21,1,0.02362,0.01181,0,0,90.0*
21,1,0.01969,0.01575,0,0,90.0*
1,1,0.00394,0.00591,0.00984*
1,1,0.00394,0.00591,-0.00984*
1,1,0.00394,-0.00591,-0.00984*
1,1,0.00394,-0.00591,0.00984*
%
%ADD55ROUNDEDRECTD55*%
G04:AMPARAMS|DCode=56|XSize=23.62mil|YSize=11.81mil|CornerRadius=1.48mil|HoleSize=0mil|Usage=FLASHONLY|Rotation=90.000|XOffset=0mil|YOffset=0mil|HoleType=Round|Shape=RoundedRectangle|*
%AMROUNDEDRECTD56*
21,1,0.02362,0.00886,0,0,90.0*
21,1,0.02067,0.01181,0,0,90.0*
1,1,0.00295,0.00443,0.01034*
1,1,0.00295,0.00443,-0.01034*
1,1,0.00295,-0.00443,-0.01034*
1,1,0.00295,-0.00443,0.01034*
%
%ADD56ROUNDEDRECTD56*%
G04:AMPARAMS|DCode=57|XSize=23.62mil|YSize=15.75mil|CornerRadius=1.97mil|HoleSize=0mil|Usage=FLASHONLY|Rotation=0.000|XOffset=0mil|YOffset=0mil|HoleType=Round|Shape=RoundedRectangle|*
%AMROUNDEDRECTD57*
21,1,0.02362,0.01181,0,0,0.0*
21,1,0.01969,0.01575,0,0,0.0*
1,1,0.00394,0.00984,-0.00591*
1,1,0.00394,-0.00984,-0.00591*
1,1,0.00394,-0.00984,0.00591*
1,1,0.00394,0.00984,0.00591*
%
%ADD57ROUNDEDRECTD57*%
G04:AMPARAMS|DCode=58|XSize=23.62mil|YSize=11.81mil|CornerRadius=1.48mil|HoleSize=0mil|Usage=FLASHONLY|Rotation=0.000|XOffset=0mil|YOffset=0mil|HoleType=Round|Shape=RoundedRectangle|*
%AMROUNDEDRECTD58*
21,1,0.02362,0.00886,0,0,0.0*
21,1,0.02067,0.01181,0,0,0.0*
1,1,0.00295,0.01034,-0.00443*
1,1,0.00295,-0.01034,-0.00443*
1,1,0.00295,-0.01034,0.00443*
1,1,0.00295,0.01034,0.00443*
%
%ADD58ROUNDEDRECTD58*%
G36*
X3757Y32270D02*
X3728Y32295D01*
X3691Y32317D01*
X3646Y32336D01*
X3593Y32353D01*
X3532Y32368D01*
X3464Y32379D01*
X3303Y32395D01*
X3211Y32399D01*
X3112Y32400D01*
Y33400D01*
X3211Y33401D01*
X3464Y33421D01*
X3532Y33432D01*
X3593Y33447D01*
X3646Y33464D01*
X3691Y33483D01*
X3728Y33505D01*
X3757Y33530D01*
Y32270D01*
D02*
G37*
G36*
X146849Y36178D02*
X146909Y36009D01*
X147010Y35859D01*
X147151Y35728D01*
X147332Y35618D01*
X147553Y35528D01*
X147815Y35458D01*
X148116Y35408D01*
X148459Y35379D01*
X148841Y35368D01*
Y33369D01*
X148459Y33358D01*
X148116Y33329D01*
X147815Y33279D01*
X147553Y33209D01*
X147332Y33119D01*
X147151Y33009D01*
X147010Y32879D01*
X146909Y32728D01*
X146849Y32559D01*
X146829Y32368D01*
Y36369D01*
X146849Y36178D01*
D02*
G37*
G36*
X90191Y34400D02*
X90126Y34397D01*
X90061Y34388D01*
X89996Y34371D01*
X89931Y34348D01*
X89865Y34318D01*
X89799Y34281D01*
X89732Y34237D01*
X89666Y34187D01*
X89598Y34129D01*
X89531Y34065D01*
X88965Y34631D01*
X89029Y34698D01*
X89087Y34765D01*
X89137Y34832D01*
X89181Y34899D01*
X89218Y34965D01*
X89248Y35031D01*
X89271Y35096D01*
X89288Y35162D01*
X89297Y35226D01*
X89300Y35291D01*
X90191Y34400D01*
D02*
G37*
G36*
X163967Y35661D02*
X164763Y34977D01*
X165103Y34735D01*
X165405Y34559D01*
X165669Y34450D01*
X165894Y34407D01*
X166081Y34430D01*
X166230Y34520D01*
X166340Y34676D01*
X164912Y31712D01*
X164891Y31764D01*
X164827Y31855D01*
X164721Y31985D01*
X164148Y32612D01*
X162791Y33995D01*
X163512Y36102D01*
X163967Y35661D01*
D02*
G37*
G36*
X2705Y33126D02*
X2683Y33085D01*
X2664Y33032D01*
X2647Y32969D01*
X2633Y32894D01*
X2621Y32809D01*
X2605Y32606D01*
X2600Y32371D01*
X2601Y32289D01*
X2621Y32036D01*
X2633Y31968D01*
X2647Y31907D01*
X2664Y31854D01*
X2683Y31809D01*
X2705Y31772D01*
X2730Y31743D01*
X1470D01*
X1495Y31772D01*
X1517Y31809D01*
X1536Y31854D01*
X1553Y31907D01*
X1568Y31968D01*
X1579Y32036D01*
X1595Y32197D01*
X1599Y32289D01*
X1600Y32376D01*
X1599Y32489D01*
X1568Y32894D01*
X1553Y32969D01*
X1536Y33032D01*
X1517Y33085D01*
X1495Y33126D01*
X1470Y33157D01*
X2730D01*
X2705Y33126D01*
D02*
G37*
G36*
X100303Y33026D02*
X100312Y32961D01*
X100329Y32896D01*
X100352Y32831D01*
X100382Y32765D01*
X100419Y32699D01*
X100463Y32632D01*
X100513Y32566D01*
X100571Y32498D01*
X100635Y32431D01*
X100069Y31865D01*
X100002Y31929D01*
X99935Y31987D01*
X99868Y32037D01*
X99801Y32081D01*
X99735Y32118D01*
X99669Y32148D01*
X99604Y32171D01*
X99538Y32188D01*
X99474Y32197D01*
X99409Y32200D01*
X100300Y33091D01*
X100303Y33026D01*
D02*
G37*
G36*
X2705Y35828D02*
X2683Y35791D01*
X2664Y35746D01*
X2647Y35693D01*
X2633Y35632D01*
X2621Y35564D01*
X2605Y35403D01*
X2601Y35311D01*
X2600Y35212D01*
X1600D01*
X1599Y35311D01*
X1579Y35564D01*
X1568Y35632D01*
X1553Y35693D01*
X1536Y35746D01*
X1517Y35791D01*
X1495Y35828D01*
X1470Y35857D01*
X2730D01*
X2705Y35828D01*
D02*
G37*
G36*
X73657Y35570D02*
X73610Y35614D01*
X73557Y35653D01*
X73499Y35687D01*
X73436Y35717D01*
X73369Y35743D01*
X73296Y35763D01*
X73218Y35779D01*
X73135Y35791D01*
X73047Y35798D01*
X72954Y35800D01*
Y36600D01*
X73047Y36602D01*
X73135Y36609D01*
X73218Y36621D01*
X73296Y36637D01*
X73369Y36658D01*
X73436Y36683D01*
X73499Y36713D01*
X73557Y36747D01*
X73610Y36786D01*
X73657Y36830D01*
Y35570D01*
D02*
G37*
G36*
X117984Y50135D02*
X117976Y50096D01*
Y20649D01*
X117854Y20567D01*
X117722Y20369D01*
X117121D01*
X116989Y20567D01*
X116707Y20755D01*
X116697Y20859D01*
X116696Y20962D01*
X116637Y21099D01*
X116588Y21344D01*
X116367Y21675D01*
X111275Y26767D01*
X110944Y26988D01*
X110554Y27066D01*
X109963D01*
X109706Y27479D01*
X109707Y27566D01*
X109833Y28200D01*
X109701Y28863D01*
X109326Y29426D01*
X108763Y29801D01*
X108100Y29933D01*
X107437Y29801D01*
X106874Y29426D01*
X106499Y28863D01*
X106483Y28783D01*
X106004Y28638D01*
X103820Y30822D01*
Y31643D01*
X104320Y31910D01*
X104637Y31699D01*
X105300Y31567D01*
X105963Y31699D01*
X106526Y32074D01*
X106901Y32637D01*
X107033Y33300D01*
X106901Y33963D01*
X106526Y34526D01*
X105963Y34901D01*
X105300Y35033D01*
X104637Y34901D01*
X104320Y34690D01*
X103820Y34957D01*
Y37700D01*
X103742Y38090D01*
X103703Y38148D01*
X103833Y38800D01*
X103701Y39463D01*
X103326Y40026D01*
X102763Y40401D01*
X102100Y40533D01*
X101437Y40401D01*
X100874Y40026D01*
X100499Y39463D01*
X100367Y38800D01*
X100499Y38137D01*
X100874Y37574D01*
X101437Y37199D01*
X101780Y37130D01*
Y33178D01*
X101754Y33146D01*
X101280Y32943D01*
X101131Y33087D01*
X101133Y33100D01*
X101001Y33763D01*
X100626Y34326D01*
X100063Y34701D01*
X99400Y34833D01*
X98737Y34701D01*
X98520Y34556D01*
X98020Y34824D01*
Y35437D01*
X98226Y35574D01*
X98601Y36137D01*
X98733Y36800D01*
X98601Y37463D01*
X98226Y38026D01*
X97663Y38401D01*
X97000Y38533D01*
X96337Y38401D01*
X95774Y38026D01*
X95399Y37463D01*
X95267Y36800D01*
X95399Y36137D01*
X95774Y35574D01*
X95980Y35437D01*
Y27270D01*
X96058Y26880D01*
X96279Y26549D01*
X96380Y26447D01*
Y25552D01*
X96279Y25451D01*
X96058Y25120D01*
X95980Y24730D01*
Y20683D01*
X95807Y20567D01*
X95456Y20042D01*
X95333Y19424D01*
Y15487D01*
X95456Y14869D01*
X95807Y14345D01*
X96331Y13995D01*
X96949Y13872D01*
X97567Y13995D01*
X97983Y14273D01*
X98410Y14213D01*
X98562Y14151D01*
X98602Y14044D01*
X98274Y13826D01*
X97899Y13263D01*
X97767Y12600D01*
X97899Y11937D01*
X98274Y11374D01*
X98837Y10999D01*
X98900Y10986D01*
Y9700D01*
X98494Y9472D01*
X94153D01*
X93763Y9395D01*
X93432Y9174D01*
X91481Y7223D01*
X91422Y7204D01*
X91285Y7086D01*
X91192Y7029D01*
X91101Y6995D01*
X91002Y6977D01*
X90885Y6977D01*
X90741Y7000D01*
X90570Y7052D01*
X90370Y7139D01*
X90146Y7264D01*
X89881Y7440D01*
X89876Y7441D01*
X89873Y7445D01*
X89775Y7463D01*
X89592Y7603D01*
X88727Y7961D01*
X87800Y8083D01*
X86873Y7961D01*
X86008Y7603D01*
X85266Y7034D01*
X84697Y6292D01*
X84339Y5427D01*
X84217Y4500D01*
X84339Y3573D01*
X84697Y2708D01*
X85163Y2100D01*
X84976Y1600D01*
X80624D01*
X80437Y2100D01*
X80903Y2708D01*
X81261Y3573D01*
X81383Y4500D01*
X81261Y5427D01*
X80903Y6292D01*
X80334Y7034D01*
X79592Y7603D01*
X78727Y7961D01*
X77800Y8083D01*
X76873Y7961D01*
X76008Y7603D01*
X75266Y7034D01*
X74697Y6292D01*
X74339Y5427D01*
X74217Y4500D01*
X74339Y3573D01*
X74697Y2708D01*
X75163Y2100D01*
X74976Y1600D01*
X70624D01*
X70437Y2100D01*
X70903Y2708D01*
X71261Y3573D01*
X71383Y4500D01*
X71261Y5427D01*
X70903Y6292D01*
X70334Y7034D01*
X69592Y7603D01*
X68727Y7961D01*
X67800Y8083D01*
X66873Y7961D01*
X66008Y7603D01*
X65266Y7034D01*
X64697Y6292D01*
X64339Y5427D01*
X64217Y4500D01*
X64339Y3573D01*
X64697Y2708D01*
X65163Y2100D01*
X64976Y1600D01*
X60624D01*
X60437Y2100D01*
X60903Y2708D01*
X61261Y3573D01*
X61383Y4500D01*
X61261Y5427D01*
X60903Y6292D01*
X60334Y7034D01*
X59592Y7603D01*
X58727Y7961D01*
X57800Y8083D01*
X56873Y7961D01*
X56008Y7603D01*
X55266Y7034D01*
X54697Y6292D01*
X54339Y5427D01*
X54217Y4500D01*
X54339Y3573D01*
X54697Y2708D01*
X55163Y2100D01*
X54976Y1600D01*
X50624D01*
X50437Y2100D01*
X50903Y2708D01*
X51261Y3573D01*
X51383Y4500D01*
X51261Y5427D01*
X50903Y6292D01*
X50334Y7034D01*
X49592Y7603D01*
X48727Y7961D01*
X47800Y8083D01*
X46873Y7961D01*
X46008Y7603D01*
X45266Y7034D01*
X44697Y6292D01*
X44339Y5427D01*
X44217Y4500D01*
X44339Y3573D01*
X44697Y2708D01*
X45163Y2100D01*
X44976Y1600D01*
X40624D01*
X40437Y2100D01*
X40903Y2708D01*
X41261Y3573D01*
X41383Y4500D01*
X41261Y5427D01*
X40903Y6292D01*
X40334Y7034D01*
X39592Y7603D01*
X38727Y7961D01*
X37800Y8083D01*
X36873Y7961D01*
X36008Y7603D01*
X35266Y7034D01*
X34697Y6292D01*
X34339Y5427D01*
X34217Y4500D01*
X34339Y3573D01*
X34697Y2708D01*
X35163Y2100D01*
X34976Y1600D01*
X30624D01*
X30437Y2100D01*
X30903Y2708D01*
X31261Y3573D01*
X31383Y4500D01*
X31261Y5427D01*
X30903Y6292D01*
X30334Y7034D01*
X29592Y7603D01*
X28727Y7961D01*
X27800Y8083D01*
X26873Y7961D01*
X26008Y7603D01*
X25266Y7034D01*
X24697Y6292D01*
X24339Y5427D01*
X24217Y4500D01*
X24339Y3573D01*
X24697Y2708D01*
X25163Y2100D01*
X24976Y1600D01*
X20624D01*
X20437Y2100D01*
X20903Y2708D01*
X21261Y3573D01*
X21383Y4500D01*
X21261Y5427D01*
X20903Y6292D01*
X20334Y7034D01*
X19592Y7603D01*
X18727Y7961D01*
X17800Y8083D01*
X16873Y7961D01*
X16008Y7603D01*
X15266Y7034D01*
X14697Y6292D01*
X14339Y5427D01*
X14217Y4500D01*
X14339Y3573D01*
X14697Y2708D01*
X15163Y2100D01*
X14976Y1600D01*
X1200D01*
Y10001D01*
X1700Y10346D01*
X2100Y10267D01*
X2763Y10399D01*
X3200Y10690D01*
X3637Y10399D01*
X4300Y10267D01*
X4963Y10399D01*
X5526Y10774D01*
X5901Y11337D01*
X6033Y12000D01*
X5901Y12663D01*
X5526Y13226D01*
X4963Y13601D01*
X4300Y13733D01*
X4228Y13719D01*
X3802Y14144D01*
X3833Y14300D01*
X3701Y14963D01*
X3350Y15490D01*
X3349Y15517D01*
X3322Y15583D01*
Y15617D01*
X3349Y15683D01*
X3350Y15710D01*
X3701Y16237D01*
X3833Y16900D01*
X3701Y17563D01*
X3410Y18000D01*
X3701Y18437D01*
X3833Y19100D01*
X3701Y19763D01*
X3326Y20326D01*
X2763Y20701D01*
X2100Y20833D01*
X1706Y20755D01*
X1317Y21054D01*
X1326Y21461D01*
X1740Y21758D01*
X2200Y21667D01*
X2863Y21799D01*
X3426Y22174D01*
X3801Y22737D01*
X3933Y23400D01*
X3892Y23607D01*
X3905Y23621D01*
X3932Y23690D01*
X7400Y27158D01*
X7490Y27153D01*
X7900Y26996D01*
Y23900D01*
X9252D01*
X9411Y23662D01*
X9482Y23615D01*
X9800Y23252D01*
Y19300D01*
X14000D01*
Y23500D01*
X12983D01*
X12981Y23508D01*
X12965Y23605D01*
X12954Y23732D01*
X12949Y23905D01*
X12922Y23967D01*
Y24638D01*
X12949Y24703D01*
X12950Y24724D01*
X13026Y24774D01*
X13401Y25337D01*
X13533Y26000D01*
X13401Y26663D01*
X13026Y27226D01*
X12463Y27601D01*
X12100Y27674D01*
Y28100D01*
X8220D01*
X7900Y28100D01*
X7720Y28525D01*
Y28975D01*
X7900Y29400D01*
X8220Y29400D01*
X11357D01*
X11419Y29366D01*
X11454Y29377D01*
X11488Y29363D01*
X11578Y29400D01*
X12100D01*
Y29881D01*
X12132Y29939D01*
X12609Y30044D01*
X15077Y27577D01*
X15523Y27278D01*
X16050Y27174D01*
X16201Y27050D01*
Y25400D01*
X16243Y25297D01*
Y22951D01*
X16356Y22382D01*
X16400Y21900D01*
X16400Y21900D01*
X16400Y21900D01*
Y17900D01*
X26400D01*
Y21900D01*
X26400Y21900D01*
X26443Y22382D01*
X26557Y22951D01*
Y28266D01*
X26549Y28302D01*
Y31471D01*
X26500Y31590D01*
X26500Y31719D01*
X26462Y31811D01*
X26371Y31902D01*
X26359Y31930D01*
X26331Y31942D01*
X26242Y32031D01*
X26230Y32059D01*
X26202Y32071D01*
X26111Y32162D01*
X26019Y32200D01*
X25890Y32200D01*
X25771Y32249D01*
X24822D01*
X24400Y32333D01*
X23978Y32249D01*
X22222D01*
X21800Y32333D01*
X21378Y32249D01*
X19322D01*
X18900Y32333D01*
X18478Y32249D01*
X16850D01*
X16391Y32059D01*
X16201Y31600D01*
Y30999D01*
X15739Y30808D01*
X14073Y32473D01*
X13627Y32772D01*
X13100Y32876D01*
X13056D01*
X13005Y32899D01*
X12740Y32906D01*
X12529Y32924D01*
X12359Y32952D01*
X12233Y32986D01*
X12153Y33018D01*
X12137Y33028D01*
X12134Y33057D01*
X12100Y33119D01*
Y33600D01*
X11578D01*
X11488Y33637D01*
X11454Y33623D01*
X11419Y33634D01*
X11357Y33600D01*
X8102Y33600D01*
X7774Y33857D01*
X7697Y34016D01*
X7642Y34290D01*
X7421Y34621D01*
X6420Y35622D01*
Y42778D01*
X7321Y43679D01*
X7401Y43798D01*
X7900Y43800D01*
X7971Y43800D01*
X8559D01*
X8800Y43400D01*
Y39200D01*
X13000D01*
Y42454D01*
X13012Y42484D01*
X13112Y42611D01*
X13113Y42613D01*
X13102Y42706D01*
X13137Y42793D01*
X13074Y42944D01*
X13054Y43106D01*
X13053Y43108D01*
X13000Y43149D01*
Y43400D01*
X12965D01*
X12951Y43622D01*
X12949Y43794D01*
X12922Y43860D01*
Y44479D01*
X12949Y44546D01*
X12950Y44610D01*
X13101Y44837D01*
X13233Y45500D01*
X13101Y46163D01*
X12726Y46726D01*
X12163Y47101D01*
X12100Y47114D01*
Y48000D01*
X8120D01*
X7900Y48000D01*
X7620Y48384D01*
Y48916D01*
X7900Y49300D01*
X8120Y49300D01*
X12100D01*
Y49815D01*
X12116Y49820D01*
X12210Y49835D01*
X12335Y49846D01*
X12505Y49851D01*
X12567Y49878D01*
X15688D01*
X15750Y49851D01*
X15923Y49846D01*
X16051Y49835D01*
X16143Y49820D01*
Y47351D01*
X16256Y46782D01*
X16300Y46300D01*
X16300Y46300D01*
X16300Y46300D01*
Y42300D01*
X26300D01*
Y46300D01*
X26738Y46451D01*
X29100D01*
X29559Y46641D01*
X29749Y47100D01*
Y47741D01*
X30249Y47893D01*
X30307Y47807D01*
X31026Y47088D01*
X31044Y47033D01*
X31155Y46905D01*
X31234Y46783D01*
X31312Y46626D01*
X31384Y46433D01*
X31449Y46204D01*
X31504Y45939D01*
X31546Y45646D01*
X31595Y44929D01*
X31598Y44525D01*
X31620Y44472D01*
X31739Y43573D01*
X32097Y42708D01*
X32666Y41966D01*
X33408Y41397D01*
X34273Y41039D01*
X35200Y40917D01*
X36127Y41039D01*
X36992Y41397D01*
X37678Y41924D01*
X38178Y41812D01*
Y39065D01*
X37788Y38674D01*
X37733Y38656D01*
X37605Y38545D01*
X37483Y38466D01*
X37326Y38388D01*
X37133Y38316D01*
X36904Y38251D01*
X36639Y38196D01*
X36346Y38154D01*
X35629Y38105D01*
X35225Y38102D01*
X35172Y38080D01*
X34273Y37961D01*
X33408Y37603D01*
X32666Y37034D01*
X32097Y36292D01*
X31739Y35427D01*
X31617Y34500D01*
X31739Y33573D01*
X32097Y32708D01*
X32666Y31966D01*
X33408Y31397D01*
X34273Y31039D01*
X35200Y30917D01*
X36127Y31039D01*
X36992Y31397D01*
X37734Y31966D01*
X38303Y32708D01*
X38661Y33573D01*
X38780Y34472D01*
X38802Y34525D01*
X38805Y34929D01*
X38854Y35646D01*
X38896Y35939D01*
X38951Y36204D01*
X39016Y36433D01*
X39088Y36626D01*
X39166Y36783D01*
X39245Y36905D01*
X39278Y36943D01*
X39700Y36856D01*
X39778Y36816D01*
Y30665D01*
X37788Y28674D01*
X37733Y28656D01*
X37693Y28622D01*
X37435Y28673D01*
X37149Y28616D01*
X37139Y28655D01*
X35936Y28157D01*
X35892Y28123D01*
X35629Y28105D01*
X35225Y28102D01*
X35172Y28080D01*
X34273Y27961D01*
X33408Y27603D01*
X32666Y27034D01*
X32097Y26292D01*
X31739Y25427D01*
X31617Y24500D01*
X31739Y23573D01*
X32097Y22708D01*
X32666Y21966D01*
X33408Y21397D01*
X34273Y21039D01*
X35200Y20917D01*
X36127Y21039D01*
X36992Y21397D01*
X37734Y21966D01*
X38303Y22708D01*
X38661Y23573D01*
X38780Y24472D01*
X38802Y24525D01*
X38805Y24929D01*
X38823Y25192D01*
X38857Y25236D01*
X39355Y26439D01*
X39316Y26449D01*
X39373Y26735D01*
X39322Y26993D01*
X39356Y27033D01*
X39374Y27088D01*
X40916Y28630D01*
X41378Y28439D01*
Y22400D01*
X41401Y22287D01*
X37760Y18646D01*
X37698Y18623D01*
X37696Y18621D01*
X37435Y18673D01*
X37149Y18616D01*
X37139Y18655D01*
X35936Y18157D01*
X35800Y18053D01*
X31647D01*
Y10947D01*
X38753D01*
Y15100D01*
X38857Y15236D01*
X39355Y16439D01*
X39316Y16449D01*
X39373Y16735D01*
X39320Y17002D01*
X39340Y17054D01*
X43293Y21007D01*
X43536Y21371D01*
X43622Y21800D01*
X43562Y22100D01*
X43622Y22400D01*
Y30439D01*
X44083Y30630D01*
X50892Y23822D01*
X50728Y23279D01*
X50337Y23201D01*
X49774Y22826D01*
X49399Y22263D01*
X49267Y21600D01*
X49308Y21393D01*
X49295Y21379D01*
X49268Y21310D01*
X49079Y21121D01*
X48858Y20790D01*
X48852Y20760D01*
X48562Y20567D01*
X48212Y20042D01*
X48089Y19424D01*
Y15487D01*
X48212Y14869D01*
X48562Y14345D01*
X49087Y13995D01*
X49705Y13872D01*
X50323Y13995D01*
X50847Y14345D01*
X51197Y14869D01*
X51320Y15487D01*
Y19424D01*
X51310Y19473D01*
X51588Y19984D01*
X51663Y19999D01*
X52226Y20374D01*
X52450Y20710D01*
X52759Y20903D01*
X53087Y20832D01*
X53437Y20599D01*
X54100Y20467D01*
X54208Y20488D01*
X54512Y20042D01*
X54389Y19424D01*
Y15487D01*
X54512Y14869D01*
X54862Y14345D01*
X55386Y13995D01*
X56004Y13872D01*
X56622Y13995D01*
X57146Y14345D01*
X57278Y14543D01*
X57879D01*
X58011Y14345D01*
X58535Y13995D01*
X59153Y13872D01*
X59409Y13923D01*
X59900Y13525D01*
Y9700D01*
X63398D01*
X63488Y9663D01*
X63575Y9698D01*
X63668Y9688D01*
X64100Y9700D01*
Y9807D01*
X65535Y9898D01*
X65991Y9901D01*
X66023Y9914D01*
X69471D01*
X69501Y9901D01*
X70761Y9879D01*
X71100Y9858D01*
Y9700D01*
X71810D01*
X71860Y9619D01*
X71950Y9392D01*
X71972Y9280D01*
X71979Y9183D01*
X71899Y9063D01*
X71767Y8400D01*
X71899Y7737D01*
X72274Y7174D01*
X72837Y6799D01*
X73500Y6667D01*
X74163Y6799D01*
X74726Y7174D01*
X75101Y7737D01*
X75233Y8400D01*
X75101Y9063D01*
X75021Y9183D01*
X75027Y9269D01*
X75068Y9459D01*
X75190Y9700D01*
X75300D01*
Y9792D01*
X75447Y9853D01*
X75461Y9887D01*
X75494Y9904D01*
X75555Y10112D01*
X75637Y10312D01*
X75623Y10346D01*
X75634Y10381D01*
X75530Y10571D01*
X75447Y10771D01*
X75413Y10785D01*
X75396Y10818D01*
X75300Y10846D01*
Y11366D01*
X75386Y11800D01*
X75300Y12234D01*
Y13505D01*
X75448Y13980D01*
X75520Y13995D01*
X76044Y14345D01*
X76176Y14543D01*
X76777D01*
X76909Y14345D01*
X77433Y13995D01*
X78051Y13872D01*
X78669Y13995D01*
X79193Y14345D01*
X79552Y14367D01*
X80085Y13748D01*
X80227Y13536D01*
X80258Y13505D01*
X80277Y13454D01*
X80862Y12828D01*
X81061Y12582D01*
X81200Y12385D01*
Y11970D01*
X81188Y11955D01*
X81194Y11899D01*
X81167Y11850D01*
X81200Y11733D01*
Y9700D01*
X85400D01*
Y13900D01*
X85400D01*
X85501Y14358D01*
X85843Y14869D01*
X85966Y15487D01*
Y19424D01*
X85843Y20042D01*
X85493Y20567D01*
X85376Y20645D01*
X85352Y20688D01*
X85306Y20701D01*
X85277Y20740D01*
X85227Y20748D01*
X85203Y21005D01*
X85200Y21188D01*
X85172Y21252D01*
X85184Y21321D01*
X85170Y21340D01*
Y26150D01*
Y28828D01*
X89910Y33569D01*
X89979Y33595D01*
X89992Y33608D01*
X90200Y33567D01*
X90863Y33699D01*
X91426Y34074D01*
X91801Y34637D01*
X91933Y35300D01*
X91801Y35963D01*
X91426Y36526D01*
X90863Y36901D01*
X90200Y37033D01*
X89537Y36901D01*
X88974Y36526D01*
X88599Y35963D01*
X88467Y35300D01*
X88508Y35092D01*
X88495Y35079D01*
X88468Y35010D01*
X85940Y32482D01*
X85479Y32728D01*
X85533Y33000D01*
X85401Y33663D01*
X85026Y34226D01*
X84463Y34601D01*
X83800Y34733D01*
X83137Y34601D01*
X82574Y34226D01*
X82370Y33920D01*
X80200D01*
X79810Y33842D01*
X79479Y33621D01*
X73981Y28122D01*
X73760Y27792D01*
X73682Y27402D01*
Y20451D01*
X73409Y20042D01*
X73286Y19424D01*
Y15487D01*
X73409Y14869D01*
X73723Y14400D01*
X73660Y14156D01*
X73526Y13900D01*
X72102D01*
X72012Y13937D01*
X71925Y13902D01*
X71832Y13912D01*
X71817Y13900D01*
X71100D01*
Y13774D01*
X69965Y13702D01*
X69679Y13700D01*
X69526Y14199D01*
X69744Y14345D01*
X70095Y14869D01*
X70218Y15487D01*
Y19424D01*
X70095Y20042D01*
X69744Y20567D01*
X69628Y20645D01*
X69604Y20688D01*
X69558Y20701D01*
X69529Y20740D01*
X69479Y20748D01*
X69455Y21005D01*
X69452Y21188D01*
X69424Y21252D01*
X69435Y21321D01*
X69422Y21340D01*
Y24220D01*
X69922Y24482D01*
X70500Y24367D01*
X71163Y24499D01*
X71726Y24874D01*
X72101Y25437D01*
X72233Y26100D01*
X72101Y26763D01*
X71858Y27128D01*
X71626Y27574D01*
X72001Y28137D01*
X72133Y28800D01*
X72001Y29463D01*
X71656Y29980D01*
X71663Y29999D01*
X72226Y30374D01*
X72601Y30937D01*
X72610Y30980D01*
X74307Y32677D01*
X76200D01*
X76668Y32770D01*
X77065Y33035D01*
X80992Y36961D01*
X83548D01*
X84016Y37055D01*
X84413Y37320D01*
X92169Y45077D01*
X100593D01*
X104833Y40836D01*
X104859Y40774D01*
X104875Y40758D01*
X104999Y40137D01*
X105374Y39574D01*
X105937Y39199D01*
X105837Y38921D01*
X105799Y38863D01*
X105667Y38200D01*
X105799Y37537D01*
X106174Y36974D01*
X106737Y36599D01*
X107400Y36467D01*
X108063Y36599D01*
X108626Y36974D01*
X109001Y37537D01*
X109133Y38200D01*
X109001Y38863D01*
X108652Y39387D01*
X108649Y39445D01*
X108624Y39498D01*
Y40000D01*
X108530Y40468D01*
X108328Y40772D01*
X108333Y40800D01*
X108201Y41463D01*
X107826Y42026D01*
X107263Y42401D01*
X106646Y42524D01*
X106602Y42563D01*
X106548Y42583D01*
X102263Y46867D01*
X102312Y47365D01*
X102326Y47374D01*
X102701Y47937D01*
X102833Y48600D01*
X103287Y48880D01*
X115600D01*
X115990Y48958D01*
X116321Y49179D01*
X117524Y50381D01*
X117984Y50135D01*
D02*
G37*
G36*
X2601Y34989D02*
X2621Y34736D01*
X2633Y34668D01*
X2647Y34607D01*
X2664Y34554D01*
X2683Y34509D01*
X2705Y34472D01*
X2730Y34443D01*
X1470D01*
X1495Y34472D01*
X1517Y34509D01*
X1536Y34554D01*
X1553Y34607D01*
X1568Y34668D01*
X1579Y34736D01*
X1595Y34897D01*
X1599Y34989D01*
X1600Y35088D01*
X2600D01*
X2601Y34989D01*
D02*
G37*
G36*
X38864Y37457D02*
X38725Y37296D01*
X38601Y37105D01*
X38492Y36885D01*
X38398Y36636D01*
X38320Y36358D01*
X38256Y36051D01*
X38207Y35715D01*
X38156Y34954D01*
X38153Y34530D01*
X35230Y37453D01*
X35654Y37456D01*
X36415Y37507D01*
X36751Y37556D01*
X37058Y37620D01*
X37337Y37698D01*
X37585Y37792D01*
X37805Y37901D01*
X37996Y38025D01*
X38157Y38164D01*
X38864Y37457D01*
D02*
G37*
G36*
X142731Y34969D02*
X141131D01*
X141141Y34991D01*
X141149Y35032D01*
X141157Y35091D01*
X141169Y35263D01*
X141182Y36013D01*
X142682D01*
X142731Y34969D01*
D02*
G37*
G36*
X60591Y26700D02*
X60526Y26697D01*
X60461Y26688D01*
X60396Y26671D01*
X60331Y26648D01*
X60265Y26618D01*
X60199Y26581D01*
X60132Y26537D01*
X60066Y26487D01*
X59998Y26429D01*
X59931Y26365D01*
X59365Y26931D01*
X59429Y26998D01*
X59487Y27066D01*
X59537Y27132D01*
X59581Y27199D01*
X59618Y27265D01*
X59648Y27331D01*
X59671Y27396D01*
X59688Y27461D01*
X59697Y27526D01*
X59700Y27591D01*
X60591Y26700D01*
D02*
G37*
G36*
X139106Y26419D02*
X139072Y26482D01*
X139027Y26539D01*
X138971Y26588D01*
X138902Y26632D01*
X138822Y26668D01*
X138731Y26698D01*
X138627Y26721D01*
X138512Y26738D01*
X138385Y26748D01*
X138247Y26751D01*
Y27551D01*
X138385Y27555D01*
X138512Y27564D01*
X138627Y27581D01*
X138731Y27604D01*
X138822Y27634D01*
X138902Y27671D01*
X138971Y27714D01*
X139027Y27764D01*
X139072Y27820D01*
X139106Y27883D01*
Y26419D01*
D02*
G37*
G36*
X99867Y27587D02*
X99851Y27543D01*
X99844Y27496D01*
X99848Y27445D01*
X99863Y27392D01*
X99888Y27335D01*
X99923Y27275D01*
X99968Y27212D01*
X100024Y27145D01*
X100090Y27075D01*
X99394Y26640D01*
X98717Y27441D01*
X99894Y27627D01*
X99867Y27587D01*
D02*
G37*
G36*
X11157Y25370D02*
X11128Y25395D01*
X11091Y25417D01*
X11046Y25436D01*
X10993Y25453D01*
X10932Y25468D01*
X10864Y25479D01*
X10703Y25495D01*
X10611Y25499D01*
X10512Y25500D01*
Y26500D01*
X10611Y26501D01*
X10864Y26521D01*
X10932Y26533D01*
X10993Y26547D01*
X11046Y26564D01*
X11091Y26583D01*
X11128Y26605D01*
X11157Y26630D01*
Y25370D01*
D02*
G37*
G36*
X25862Y31562D02*
X25900Y31471D01*
Y28302D01*
X25911Y28276D01*
X25907Y28266D01*
Y25400D01*
X16850D01*
Y31600D01*
X25771D01*
X25862Y31562D01*
D02*
G37*
G36*
X66240Y25714D02*
X66210Y25715D01*
X66176Y25708D01*
X66138Y25694D01*
X66094Y25671D01*
X66046Y25640D01*
X65993Y25602D01*
X65874Y25502D01*
X65736Y25370D01*
X65170Y25936D01*
X65240Y26007D01*
X65402Y26193D01*
X65440Y26246D01*
X65471Y26294D01*
X65494Y26338D01*
X65508Y26376D01*
X65515Y26410D01*
X65514Y26440D01*
X66240Y25714D01*
D02*
G37*
G36*
X145294Y27883D02*
X142984Y27742D01*
X142996Y27790D01*
X142993Y27846D01*
X142976Y27909D01*
X142946Y27981D01*
X142901Y28060D01*
X142843Y28146D01*
X142771Y28240D01*
X142584Y28452D01*
X142470Y28570D01*
X143628Y29533D01*
X145294Y27883D01*
D02*
G37*
G36*
X80991Y29800D02*
X80926Y29797D01*
X80862Y29788D01*
X80796Y29771D01*
X80731Y29748D01*
X80665Y29718D01*
X80599Y29681D01*
X80532Y29637D01*
X80466Y29587D01*
X80398Y29529D01*
X80331Y29465D01*
X79765Y30031D01*
X79829Y30098D01*
X79887Y30165D01*
X79937Y30232D01*
X79981Y30299D01*
X80018Y30365D01*
X80048Y30431D01*
X80071Y30496D01*
X80088Y30562D01*
X80097Y30626D01*
X80100Y30691D01*
X80991Y29800D01*
D02*
G37*
G36*
X11503Y32848D02*
X11548Y32722D01*
X11623Y32612D01*
X11728Y32516D01*
X11863Y32434D01*
X12028Y32368D01*
X12223Y32316D01*
X12448Y32280D01*
X12703Y32257D01*
X12988Y32250D01*
Y30750D01*
X12703Y30743D01*
X12448Y30720D01*
X12223Y30684D01*
X12028Y30632D01*
X11863Y30566D01*
X11728Y30484D01*
X11623Y30388D01*
X11548Y30278D01*
X11503Y30152D01*
X11488Y30012D01*
Y32988D01*
X11503Y32848D01*
D02*
G37*
G36*
X70902Y27347D02*
X70914Y27172D01*
X70925Y27096D01*
X70939Y27029D01*
X70956Y26969D01*
X70976Y26917D01*
X70999Y26873D01*
X71025Y26837D01*
X71055Y26809D01*
X69802Y26669D01*
X69821Y26697D01*
X69838Y26733D01*
X69852Y26777D01*
X69865Y26829D01*
X69876Y26889D01*
X69891Y27034D01*
X69899Y27210D01*
X69900Y27311D01*
X70900Y27446D01*
X70902Y27347D01*
D02*
G37*
G36*
X155796Y27796D02*
X155811Y27624D01*
X155836Y27472D01*
X155871Y27340D01*
X155916Y27229D01*
X155971Y27138D01*
X156036Y27067D01*
X156111Y27016D01*
X156196Y26986D01*
X156291Y26976D01*
X154291D01*
X154386Y26986D01*
X154471Y27016D01*
X154546Y27067D01*
X154611Y27138D01*
X154666Y27229D01*
X154711Y27340D01*
X154746Y27472D01*
X154771Y27624D01*
X154786Y27796D01*
X154791Y27988D01*
X155791D01*
X155796Y27796D01*
D02*
G37*
G36*
X71005Y28128D02*
X70983Y28091D01*
X70964Y28046D01*
X70947Y27993D01*
X70933Y27932D01*
X70921Y27864D01*
X70905Y27703D01*
X70901Y27611D01*
X70900Y27512D01*
X69900D01*
X69899Y27611D01*
X69879Y27864D01*
X69867Y27932D01*
X69853Y27993D01*
X69836Y28046D01*
X69817Y28091D01*
X69795Y28128D01*
X69770Y28157D01*
X71030D01*
X71005Y28128D01*
D02*
G37*
G36*
X146841Y46065D02*
X146795Y46058D01*
X146769Y46036D01*
X146763Y46001D01*
X146776Y45952D01*
X146810Y45888D01*
X146862Y45810D01*
X146935Y45718D01*
X147139Y45492D01*
X147271Y45358D01*
X145856D01*
X145714Y45494D01*
X145571Y45615D01*
X145429Y45723D01*
X145287Y45816D01*
X145145Y45895D01*
X145004Y45960D01*
X144863Y46011D01*
X144722Y46047D01*
X144582Y46069D01*
X144442Y46077D01*
X146841Y46065D01*
D02*
G37*
G36*
X175224Y46600D02*
X175214Y46695D01*
X175183Y46780D01*
X175133Y46855D01*
X175062Y46920D01*
X174971Y46975D01*
X174860Y47020D01*
X174728Y47055D01*
X174576Y47080D01*
X174404Y47095D01*
X174212Y47100D01*
Y48100D01*
X174404Y48105D01*
X174576Y48120D01*
X174728Y48145D01*
X174860Y48180D01*
X174971Y48225D01*
X175062Y48280D01*
X175133Y48345D01*
X175183Y48420D01*
X175214Y48505D01*
X175224Y48600D01*
Y46600D01*
D02*
G37*
G36*
X173094Y48250D02*
X173097Y48212D01*
X173288D01*
X173251Y48205D01*
X173218Y48184D01*
X173188Y48148D01*
X173163Y48098D01*
X173142Y48034D01*
X173126Y47963D01*
X173131Y47939D01*
X173911Y48100D01*
X174134Y47100D01*
X174034Y47099D01*
X173795Y47077D01*
X173736Y47065D01*
X173688Y47049D01*
X173650Y47031D01*
X173623Y47010D01*
X173606Y46986D01*
X173599Y46959D01*
X173096Y47596D01*
X173093Y47500D01*
X172093D01*
X172092Y47574D01*
X171998Y47563D01*
X172016Y47591D01*
X172032Y47627D01*
X172046Y47671D01*
X172059Y47723D01*
X172069Y47783D01*
X172075Y47842D01*
X172074Y47863D01*
X172059Y47956D01*
X172040Y48034D01*
X172017Y48098D01*
X171989Y48148D01*
X171957Y48184D01*
X171921Y48205D01*
X171881Y48212D01*
X172145D01*
X173093Y48350D01*
X173094Y48250D01*
D02*
G37*
G36*
X12307Y45095D02*
X12305Y45076D01*
X12301Y44824D01*
X12300Y44548D01*
X11300Y44082D01*
X11298Y44182D01*
X11284Y44354D01*
X11271Y44427D01*
X11255Y44492D01*
X11235Y44548D01*
X11212Y44595D01*
X11185Y44633D01*
X11154Y44663D01*
X11120Y44684D01*
X12308Y45104D01*
X12307Y45095D01*
D02*
G37*
G36*
X32404Y48025D02*
X32595Y47901D01*
X32814Y47792D01*
X33064Y47698D01*
X33342Y47620D01*
X33649Y47556D01*
X33985Y47507D01*
X34746Y47456D01*
X35171Y47453D01*
X32247Y44530D01*
X32244Y44954D01*
X32193Y45715D01*
X32144Y46051D01*
X32081Y46358D01*
X32002Y46637D01*
X31908Y46885D01*
X31799Y47105D01*
X31675Y47296D01*
X31536Y47457D01*
X32243Y48164D01*
X32404Y48025D01*
D02*
G37*
G36*
X10857Y44870D02*
X10828Y44895D01*
X10791Y44917D01*
X10746Y44936D01*
X10693Y44953D01*
X10632Y44967D01*
X10564Y44979D01*
X10403Y44995D01*
X10311Y44999D01*
X10212Y45000D01*
Y46000D01*
X10311Y46001D01*
X10564Y46021D01*
X10632Y46033D01*
X10693Y46047D01*
X10746Y46064D01*
X10791Y46083D01*
X10828Y46105D01*
X10857Y46130D01*
Y44870D01*
D02*
G37*
G36*
X88732Y50490D02*
X87713Y49750D01*
X87711Y49768D01*
X87702Y49793D01*
X87685Y49823D01*
X87660Y49859D01*
X87628Y49902D01*
X87538Y50005D01*
X87346Y50205D01*
X88382Y50867D01*
X88732Y50490D01*
D02*
G37*
G36*
X11498Y51905D02*
X11528Y51820D01*
X11578Y51745D01*
X11648Y51680D01*
X11738Y51625D01*
X11848Y51580D01*
X11978Y51545D01*
X12128Y51520D01*
X12298Y51505D01*
X12488Y51500D01*
Y50500D01*
X12298Y50495D01*
X12128Y50480D01*
X11978Y50455D01*
X11848Y50420D01*
X11738Y50375D01*
X11648Y50320D01*
X11578Y50255D01*
X11528Y50180D01*
X11498Y50095D01*
X11488Y50000D01*
Y52000D01*
X11498Y51905D01*
D02*
G37*
G36*
X16779Y50000D02*
X16769Y50095D01*
X16739Y50180D01*
X16688Y50255D01*
X16617Y50320D01*
X16526Y50375D01*
X16415Y50420D01*
X16283Y50455D01*
X16132Y50480D01*
X15960Y50495D01*
X15767Y50500D01*
Y51500D01*
X15960Y51505D01*
X16132Y51520D01*
X16283Y51545D01*
X16415Y51580D01*
X16526Y51625D01*
X16617Y51680D01*
X16688Y51745D01*
X16739Y51820D01*
X16769Y51905D01*
X16779Y52000D01*
Y50000D01*
D02*
G37*
G36*
X29100Y47200D02*
Y47100D01*
X20600D01*
Y54400D01*
X29100D01*
Y47200D01*
D02*
G37*
G36*
X66667Y48950D02*
X66133Y48932D01*
X65910Y48910D01*
X65717Y48878D01*
X65554Y48838D01*
X65421Y48788D01*
X65317Y48730D01*
X65243Y48662D01*
X65198Y48586D01*
X65183Y48500D01*
X63683D01*
X63670Y48586D01*
X63632Y48662D01*
X63568Y48730D01*
X63478Y48788D01*
X63362Y48838D01*
X63221Y48878D01*
X63055Y48910D01*
X62644Y48946D01*
X62400Y48950D01*
X64433Y50450D01*
X66667Y48950D01*
D02*
G37*
G36*
X102335Y49269D02*
X102271Y49202D01*
X102213Y49134D01*
X102163Y49068D01*
X102119Y49001D01*
X102082Y48935D01*
X102052Y48869D01*
X102029Y48804D01*
X102012Y48739D01*
X102003Y48674D01*
X102000Y48609D01*
X101109Y49500D01*
X101174Y49503D01*
X101239Y49512D01*
X101304Y49529D01*
X101369Y49552D01*
X101435Y49582D01*
X101501Y49619D01*
X101568Y49663D01*
X101635Y49713D01*
X101702Y49771D01*
X101769Y49835D01*
X102335Y49269D01*
D02*
G37*
G36*
X102867Y38323D02*
X102866Y38298D01*
X102870Y38271D01*
X102882Y38239D01*
X102899Y38205D01*
X102923Y38167D01*
X102953Y38126D01*
X102990Y38082D01*
X103083Y37983D01*
X102414Y37521D01*
X102003Y37905D01*
X102876Y38344D01*
X102867Y38323D01*
D02*
G37*
G36*
X108030Y38843D02*
X106770D01*
X106776Y38854D01*
X106781Y38875D01*
X106785Y38906D01*
X106792Y39000D01*
X106800Y39308D01*
X106800Y39411D01*
X108000D01*
X108030Y38843D01*
D02*
G37*
G36*
X149523Y40231D02*
X149655Y40119D01*
X149715Y40077D01*
X149772Y40043D01*
X149825Y40018D01*
X149875Y40002D01*
X149920Y39994D01*
X149962Y39996D01*
X150001Y40006D01*
X149488Y38855D01*
X149109Y39228D01*
X149451Y40300D01*
X149523Y40231D01*
D02*
G37*
G36*
X177391Y37400D02*
X177326Y37397D01*
X177261Y37388D01*
X177196Y37371D01*
X177131Y37348D01*
X177065Y37318D01*
X176999Y37281D01*
X176932Y37237D01*
X176865Y37187D01*
X176798Y37129D01*
X176731Y37065D01*
X176165Y37631D01*
X176229Y37698D01*
X176287Y37765D01*
X176337Y37832D01*
X176381Y37899D01*
X176418Y37965D01*
X176448Y38031D01*
X176471Y38096D01*
X176488Y38162D01*
X176497Y38226D01*
X176500Y38291D01*
X177391Y37400D01*
D02*
G37*
G36*
X155438Y38426D02*
X155471Y38414D01*
X155513Y38403D01*
X155563Y38394D01*
X155689Y38380D01*
X155849Y38371D01*
X156043Y38368D01*
X156277Y37369D01*
X156177Y37367D01*
X156003Y37354D01*
X155929Y37342D01*
X155862Y37327D01*
X155803Y37308D01*
X155752Y37287D01*
X155710Y37262D01*
X155676Y37233D01*
X155649Y37201D01*
X155413Y38439D01*
X155438Y38426D01*
D02*
G37*
G36*
X155055Y37356D02*
X155050Y37359D01*
X155034Y37361D01*
X155008Y37363D01*
X154631Y37368D01*
X154532Y37369D01*
Y38368D01*
X155055Y38381D01*
Y37356D01*
D02*
G37*
G36*
X106591Y41700D02*
X105700Y40809D01*
X105696Y40821D01*
X105685Y40839D01*
X105666Y40865D01*
X105605Y40936D01*
X105392Y41159D01*
X105320Y41232D01*
X106168Y42080D01*
X106591Y41700D01*
D02*
G37*
G36*
X2790Y43586D02*
X2843Y43547D01*
X2901Y43513D01*
X2963Y43483D01*
X3031Y43457D01*
X3104Y43437D01*
X3182Y43421D01*
X3265Y43409D01*
X3353Y43402D01*
X3446Y43400D01*
Y42600D01*
X3353Y42598D01*
X3265Y42591D01*
X3182Y42579D01*
X3104Y42563D01*
X3031Y42542D01*
X2963Y42517D01*
X2901Y42487D01*
X2843Y42453D01*
X2790Y42414D01*
X2743Y42370D01*
Y43630D01*
X2790Y43586D01*
D02*
G37*
G36*
X12302Y43598D02*
X12330Y43148D01*
X12347Y43038D01*
X12368Y42948D01*
X12392Y42878D01*
X12420Y42828D01*
X12452Y42798D01*
X12488Y42788D01*
X10800Y42776D01*
X10895Y42787D01*
X10980Y42818D01*
X11055Y42869D01*
X11120Y42940D01*
X11175Y43031D01*
X11220Y43142D01*
X11255Y43273D01*
X11280Y43425D01*
X11295Y43596D01*
X11300Y43788D01*
X12300D01*
X12302Y43598D01*
D02*
G37*
G36*
X73482Y40410D02*
X73511Y40363D01*
X73549Y40321D01*
X73594Y40285D01*
X73648Y40254D01*
X73710Y40229D01*
X73780Y40210D01*
X73858Y40196D01*
X73945Y40188D01*
X74040Y40185D01*
X73522Y39385D01*
X72904Y39353D01*
X73461Y40463D01*
X73482Y40410D01*
D02*
G37*
G36*
X163379Y40865D02*
X163254Y40821D01*
X163143Y40745D01*
X163047Y40641D01*
X162966Y40505D01*
X162900Y40341D01*
X162848Y40145D01*
X162844Y40119D01*
X162848Y40091D01*
X162900Y39897D01*
X162966Y39731D01*
X163047Y39597D01*
X163143Y39492D01*
X163254Y39417D01*
X163379Y39371D01*
X163520Y39356D01*
X160544D01*
X160684Y39371D01*
X160809Y39417D01*
X160920Y39492D01*
X161016Y39597D01*
X161097Y39731D01*
X161163Y39897D01*
X161215Y40091D01*
X161220Y40119D01*
X161215Y40145D01*
X161163Y40341D01*
X161097Y40505D01*
X161016Y40641D01*
X160920Y40745D01*
X160809Y40821D01*
X160684Y40865D01*
X160544Y40881D01*
X163520D01*
X163379Y40865D01*
D02*
G37*
G36*
X86176Y58870D02*
X86184Y58835D01*
X86205Y58715D01*
X86248Y58193D01*
X86251Y57998D01*
X86277Y57938D01*
Y50900D01*
X86370Y50432D01*
X86635Y50035D01*
X86796Y49874D01*
X86799Y49855D01*
X86849Y49820D01*
X86854Y49815D01*
X86878Y49755D01*
X86894Y49738D01*
X86867Y49600D01*
X86999Y48937D01*
X87374Y48374D01*
X87937Y47999D01*
X88600Y47867D01*
X88872Y47921D01*
X89118Y47460D01*
X82463Y40805D01*
X74213D01*
X74201Y40863D01*
X73826Y41426D01*
X73263Y41801D01*
X72600Y41933D01*
X72203Y41854D01*
X71957Y42315D01*
X84871Y55229D01*
X85092Y55560D01*
X85170Y55950D01*
Y58060D01*
X85184Y58079D01*
X85172Y58148D01*
X85200Y58212D01*
X85203Y58403D01*
X85213Y58552D01*
X85225Y58652D01*
X85277Y58660D01*
X85306Y58699D01*
X85352Y58712D01*
X85376Y58755D01*
X85493Y58833D01*
X85603Y58998D01*
X85695Y59036D01*
X85711Y59040D01*
X86176Y58870D01*
D02*
G37*
G36*
X12405Y25328D02*
X12383Y25291D01*
X12364Y25246D01*
X12347Y25193D01*
X12332Y25132D01*
X12321Y25064D01*
X12305Y24903D01*
X12301Y24811D01*
X12300Y24712D01*
X11300D01*
X11299Y24811D01*
X11279Y25064D01*
X11268Y25132D01*
X11253Y25193D01*
X11236Y25246D01*
X11217Y25291D01*
X11195Y25328D01*
X11170Y25357D01*
X12430D01*
X12405Y25328D01*
D02*
G37*
G36*
X187544Y13421D02*
X187522Y13474D01*
X187492Y13522D01*
X187453Y13563D01*
X187407Y13600D01*
X187353Y13630D01*
X187290Y13655D01*
X187220Y13675D01*
X187141Y13689D01*
X187055Y13697D01*
X186960Y13700D01*
X187448Y14500D01*
X187548Y14500D01*
X188023Y14528D01*
X188059Y14535D01*
X188086Y14544D01*
X187544Y13421D01*
D02*
G37*
G36*
X113553Y15010D02*
X113500Y14903D01*
X113453Y14787D01*
X113413Y14661D01*
X113378Y14527D01*
X113350Y14384D01*
X113312Y14071D01*
X113303Y13900D01*
X113300Y13721D01*
X112300Y13583D01*
X112295Y13870D01*
X112256Y14352D01*
X112222Y14548D01*
X112178Y14714D01*
X112124Y14849D01*
X112060Y14954D01*
X111986Y15028D01*
X111903Y15072D01*
X111810Y15086D01*
X113613Y15108D01*
X113553Y15010D01*
D02*
G37*
G36*
X82063Y15556D02*
X81990Y15451D01*
X81961Y15323D01*
X81976Y15171D01*
X82036Y14996D01*
X82139Y14798D01*
X82287Y14577D01*
X82479Y14333D01*
X82707Y14074D01*
X83216Y13649D01*
X83451Y13488D01*
X83671Y13364D01*
X83875Y13276D01*
X84065Y13225D01*
X84239Y13209D01*
X84398Y13231D01*
X84543Y13288D01*
X81812Y11776D01*
X81924Y11865D01*
X81988Y11982D01*
X82003Y12126D01*
X81970Y12297D01*
X81888Y12495D01*
X81758Y12721D01*
X81579Y12974D01*
X81352Y13254D01*
X80751Y13897D01*
X80802Y13911D01*
X79776Y15102D01*
X79804Y15157D01*
X79934Y15122D01*
X80166Y14999D01*
X80500Y14786D01*
X82180Y15638D01*
X82063Y15556D01*
D02*
G37*
G36*
X2779Y18503D02*
X2762Y18467D01*
X2748Y18423D01*
X2735Y18371D01*
X2724Y18311D01*
X2709Y18166D01*
X2702Y18002D01*
X2724Y17689D01*
X2735Y17629D01*
X2748Y17577D01*
X2762Y17533D01*
X2779Y17497D01*
X2798Y17469D01*
X2240Y16900D01*
X2798Y16331D01*
X2779Y16303D01*
X2762Y16267D01*
X2748Y16223D01*
X2735Y16171D01*
X2724Y16111D01*
X2701Y15790D01*
X2700Y15689D01*
X2041Y15600D01*
X2700Y15511D01*
X2701Y15410D01*
X2724Y15089D01*
X2735Y15029D01*
X2748Y14977D01*
X2762Y14933D01*
X2779Y14897D01*
X2798Y14869D01*
X2240Y14300D01*
X2798Y13731D01*
X2779Y13703D01*
X2762Y13667D01*
X2748Y13623D01*
X2735Y13571D01*
X2724Y13511D01*
X2701Y13190D01*
X2701Y13150D01*
X2701Y13110D01*
X2724Y12789D01*
X2735Y12729D01*
X2748Y12677D01*
X2762Y12633D01*
X2776Y12603D01*
X2809Y12583D01*
X2854Y12564D01*
X2907Y12547D01*
X2968Y12532D01*
X3036Y12521D01*
X3181Y12507D01*
X3364Y12521D01*
X3432Y12532D01*
X3493Y12547D01*
X3546Y12564D01*
X3591Y12583D01*
X3628Y12605D01*
X3657Y12630D01*
Y11370D01*
X3628Y11395D01*
X3591Y11417D01*
X3546Y11436D01*
X3493Y11453D01*
X3432Y11468D01*
X3364Y11479D01*
X3219Y11493D01*
X3036Y11479D01*
X2968Y11468D01*
X2907Y11453D01*
X2854Y11436D01*
X2809Y11417D01*
X2772Y11395D01*
X2743Y11370D01*
Y12575D01*
X1545Y12709D01*
X1575Y12737D01*
X1601Y12773D01*
X1624Y12817D01*
X1644Y12869D01*
X1661Y12929D01*
X1675Y12996D01*
X1686Y13072D01*
X1692Y13150D01*
X1686Y13228D01*
X1675Y13304D01*
X1661Y13371D01*
X1644Y13431D01*
X1624Y13483D01*
X1601Y13527D01*
X1575Y13563D01*
X1545Y13591D01*
X2240Y14300D01*
X1545Y15009D01*
X1575Y15037D01*
X1601Y15073D01*
X1624Y15117D01*
X1644Y15169D01*
X1661Y15229D01*
X1675Y15296D01*
X1686Y15372D01*
X1698Y15547D01*
X1699Y15600D01*
X1698Y15653D01*
X1686Y15828D01*
X1675Y15904D01*
X1661Y15971D01*
X1644Y16031D01*
X1624Y16083D01*
X1601Y16127D01*
X1575Y16163D01*
X1545Y16191D01*
X2240Y16900D01*
X1545Y17609D01*
X1575Y17637D01*
X1601Y17673D01*
X1624Y17717D01*
X1644Y17769D01*
X1661Y17829D01*
X1675Y17896D01*
X1686Y17972D01*
X1688Y18000D01*
X1686Y18028D01*
X1675Y18104D01*
X1661Y18171D01*
X1644Y18231D01*
X1624Y18283D01*
X1601Y18327D01*
X1575Y18363D01*
X1545Y18391D01*
X2798Y18531D01*
X2779Y18503D01*
D02*
G37*
G36*
X110413Y15024D02*
X110368Y14928D01*
X110329Y14821D01*
X110295Y14702D01*
X110266Y14573D01*
X110242Y14432D01*
X110211Y14116D01*
X110203Y13941D01*
X110201Y13819D01*
X110201Y13789D01*
X110221Y13536D01*
X110232Y13468D01*
X110247Y13407D01*
X110264Y13354D01*
X110283Y13309D01*
X110305Y13272D01*
X110330Y13243D01*
X109070D01*
X109095Y13272D01*
X109117Y13309D01*
X109136Y13354D01*
X109153Y13407D01*
X109168Y13468D01*
X109179Y13536D01*
X109195Y13697D01*
X109197Y13742D01*
X109196Y13755D01*
X109168Y14089D01*
X109143Y14233D01*
X109112Y14363D01*
X109073Y14478D01*
X109027Y14577D01*
X108974Y14662D01*
X108914Y14732D01*
X108846Y14786D01*
X110463Y15108D01*
X110413Y15024D01*
D02*
G37*
G36*
X63187Y15046D02*
X63159Y14959D01*
X63134Y14846D01*
X63113Y14709D01*
X63080Y14360D01*
X63076Y14250D01*
X63092Y14023D01*
X63123Y13828D01*
X63162Y13663D01*
X63210Y13528D01*
X63266Y13423D01*
X63331Y13348D01*
X63405Y13303D01*
X63488Y13288D01*
X60803Y13276D01*
X60946Y13292D01*
X61073Y13338D01*
X61186Y13413D01*
X61283Y13520D01*
X61366Y13656D01*
X61433Y13822D01*
X61486Y14018D01*
X61515Y14196D01*
X61472Y14846D01*
X61447Y14959D01*
X61419Y15046D01*
X61387Y15108D01*
X63219D01*
X63187Y15046D01*
D02*
G37*
G36*
X154991Y19624D02*
X155004Y19624D01*
X156252D01*
X156263Y19617D01*
X156259Y19597D01*
X156239Y19563D01*
X156204Y19516D01*
X156154Y19455D01*
X155909Y19190D01*
X155669Y18946D01*
X154991Y19624D01*
X154990Y19624D01*
X154979Y19625D01*
X154970Y19627D01*
X154963Y19629D01*
X154958Y19631D01*
X154955Y19635D01*
X154954Y19638D01*
X154954Y19643D01*
X154957Y19648D01*
X154962Y19654D01*
X154991Y19624D01*
D02*
G37*
G36*
X188557Y18970D02*
X188510Y19014D01*
X188457Y19053D01*
X188399Y19087D01*
X188337Y19117D01*
X188269Y19142D01*
X188196Y19163D01*
X188118Y19179D01*
X188035Y19191D01*
X187947Y19198D01*
X187854Y19200D01*
Y20000D01*
X187947Y20002D01*
X188035Y20009D01*
X188118Y20021D01*
X188196Y20037D01*
X188269Y20057D01*
X188337Y20083D01*
X188399Y20113D01*
X188457Y20147D01*
X188510Y20186D01*
X188557Y20230D01*
Y18970D01*
D02*
G37*
G36*
X62807Y21095D02*
X62820Y20935D01*
X62841Y20778D01*
X62870Y20627D01*
X62907Y20479D01*
X62953Y20335D01*
X63007Y20196D01*
X63069Y20061D01*
X63140Y19930D01*
X63219Y19804D01*
X61387D01*
X61466Y19930D01*
X61537Y20061D01*
X61599Y20196D01*
X61653Y20335D01*
X61699Y20479D01*
X61737Y20627D01*
X61766Y20778D01*
X61787Y20935D01*
X61799Y21095D01*
X61803Y21260D01*
X62803D01*
X62807Y21095D01*
D02*
G37*
G36*
X190344Y16021D02*
X190322Y16074D01*
X190292Y16122D01*
X190253Y16163D01*
X190207Y16200D01*
X190153Y16230D01*
X190090Y16255D01*
X190020Y16275D01*
X189941Y16289D01*
X189855Y16297D01*
X189760Y16300D01*
X190248Y17100D01*
X190348Y17100D01*
X190823Y17128D01*
X190859Y17135D01*
X190886Y17143D01*
X190344Y16021D01*
D02*
G37*
G36*
X38848Y17441D02*
X38649Y17235D01*
X38335Y16865D01*
X38221Y16702D01*
X38135Y16554D01*
X38077Y16420D01*
X38048Y16300D01*
X38046Y16194D01*
X38073Y16103D01*
X38129Y16026D01*
X36726Y17429D01*
X36803Y17373D01*
X36894Y17346D01*
X37000Y17347D01*
X37120Y17377D01*
X37254Y17435D01*
X37402Y17521D01*
X37565Y17635D01*
X37743Y17778D01*
X38141Y18148D01*
X38848Y17441D01*
D02*
G37*
G36*
X62834Y17986D02*
X61773D01*
X61778Y18007D01*
X61783Y18057D01*
X61792Y18245D01*
X61803Y19515D01*
X62803D01*
X62834Y17986D01*
D02*
G37*
G36*
X151020Y7954D02*
X150880Y7789D01*
X150764Y7597D01*
X150672Y7378D01*
X150603Y7132D01*
X150558Y6860D01*
X150538Y6560D01*
X150540Y6234D01*
X150567Y5881D01*
X150618Y5501D01*
X150692Y5095D01*
X147263Y7404D01*
X147752Y7498D01*
X149306Y7890D01*
X149594Y7991D01*
X149841Y8094D01*
X150049Y8197D01*
X150216Y8302D01*
X150343Y8409D01*
X151020Y7954D01*
D02*
G37*
G36*
X140681Y8216D02*
X140535Y8044D01*
X140419Y7850D01*
X140334Y7635D01*
X140278Y7398D01*
X140252Y7139D01*
X140256Y6858D01*
X140290Y6556D01*
X140354Y6231D01*
X140448Y5886D01*
X140572Y5518D01*
X136838Y7292D01*
X137360Y7474D01*
X139819Y8503D01*
X139912Y8578D01*
X140681Y8216D01*
D02*
G37*
G36*
X160011Y8546D02*
X159858Y8367D01*
X159743Y8177D01*
X159666Y7975D01*
X159628Y7760D01*
X159627Y7534D01*
X159665Y7295D01*
X159742Y7045D01*
X159856Y6782D01*
X160009Y6508D01*
X160199Y6221D01*
X156322Y7056D01*
X159040Y8705D01*
X160011Y8546D01*
D02*
G37*
G36*
X89808Y6708D02*
X90082Y6556D01*
X90345Y6442D01*
X90595Y6365D01*
X90834Y6328D01*
X91060Y6328D01*
X91275Y6366D01*
X91477Y6443D01*
X91667Y6558D01*
X91846Y6711D01*
X92005Y5740D01*
X91956Y5679D01*
X91880Y5572D01*
X91323Y4673D01*
X90356Y3022D01*
X89521Y6899D01*
X89808Y6708D01*
D02*
G37*
G36*
X121404Y7539D02*
X121276Y7387D01*
X121162Y7202D01*
X121062Y6984D01*
X120976Y6733D01*
X120904Y6449D01*
X120846Y6131D01*
X120801Y5781D01*
X120755Y4980D01*
X120753Y4530D01*
X117830Y7453D01*
X118280Y7455D01*
X119081Y7501D01*
X119431Y7546D01*
X119749Y7604D01*
X120033Y7676D01*
X120284Y7762D01*
X120502Y7862D01*
X120687Y7976D01*
X120839Y8104D01*
X121404Y7539D01*
D02*
G37*
G36*
X181404D02*
X181276Y7387D01*
X181162Y7202D01*
X181062Y6984D01*
X180976Y6733D01*
X180904Y6449D01*
X180846Y6131D01*
X180801Y5781D01*
X180755Y4980D01*
X180753Y4530D01*
X177830Y7453D01*
X178280Y7455D01*
X179081Y7501D01*
X179431Y7546D01*
X179749Y7604D01*
X180033Y7676D01*
X180284Y7762D01*
X180502Y7862D01*
X180687Y7976D01*
X180839Y8104D01*
X181404Y7539D01*
D02*
G37*
G36*
X184077Y12580D02*
X183799Y12163D01*
X183781Y12074D01*
X183658Y11890D01*
X183649Y11845D01*
X183404Y11588D01*
X183378Y11519D01*
X180477Y8619D01*
X180420Y8600D01*
X180399Y8583D01*
X180395Y8585D01*
X180004Y8663D01*
X179745Y8611D01*
X179735Y8651D01*
X178968Y8333D01*
X178775Y8324D01*
X178754Y8328D01*
X178486Y8310D01*
Y8310D01*
X177985Y8103D01*
X177826Y8102D01*
X177774Y8080D01*
X176873Y7961D01*
X176008Y7603D01*
X175266Y7034D01*
X174697Y6292D01*
X174339Y5427D01*
X174217Y4500D01*
X174339Y3573D01*
X174697Y2708D01*
X175163Y2100D01*
X174976Y1600D01*
X170624D01*
X170437Y2100D01*
X170903Y2708D01*
X171261Y3573D01*
X171328Y4081D01*
X171389Y4192D01*
X171483Y5073D01*
X171605Y5787D01*
X171673Y6072D01*
X171748Y6321D01*
X171824Y6524D01*
X171899Y6681D01*
X171966Y6789D01*
X172056Y6895D01*
X172074Y6952D01*
X178202Y13080D01*
X183874D01*
X184077Y12580D01*
D02*
G37*
G36*
X63513Y13243D02*
X63588Y13202D01*
X63713Y13167D01*
X63888Y13136D01*
X64113Y13110D01*
X64713Y13071D01*
X65988Y13050D01*
Y10550D01*
X65513Y10548D01*
X63713Y10433D01*
X63588Y10398D01*
X63513Y10357D01*
X63488Y10312D01*
Y13288D01*
X63513Y13243D01*
D02*
G37*
G36*
X184968Y10711D02*
X184916Y10733D01*
X184863Y10746D01*
X184807Y10750D01*
X184750Y10743D01*
X184691Y10727D01*
X184629Y10701D01*
X184566Y10665D01*
X184501Y10620D01*
X184434Y10564D01*
X184365Y10499D01*
X183874Y11140D01*
X184589Y11890D01*
X184968Y10711D01*
D02*
G37*
G36*
X171559Y7314D02*
X171440Y7172D01*
X171329Y6994D01*
X171226Y6779D01*
X171132Y6528D01*
X171046Y6241D01*
X170969Y5918D01*
X170839Y5162D01*
X170743Y4261D01*
X168098Y7438D01*
X168528Y7402D01*
X169299Y7387D01*
X169639Y7408D01*
X169949Y7448D01*
X170229Y7507D01*
X170478Y7585D01*
X170697Y7681D01*
X170887Y7797D01*
X171046Y7931D01*
X171559Y7314D01*
D02*
G37*
G36*
X170549Y8621D02*
X170571Y8380D01*
X170505Y8325D01*
X170396Y8258D01*
X170250Y8194D01*
X170065Y8136D01*
X169840Y8089D01*
X169577Y8055D01*
X169285Y8037D01*
X168562Y8051D01*
X168152Y8085D01*
X168046Y8051D01*
X167800Y8083D01*
X166873Y7961D01*
X166008Y7603D01*
X165266Y7034D01*
X164697Y6292D01*
X164339Y5427D01*
X164217Y4500D01*
X164339Y3573D01*
X164697Y2708D01*
X165163Y2100D01*
X164976Y1600D01*
X160624D01*
X160437Y2100D01*
X160903Y2708D01*
X161261Y3573D01*
X161383Y4500D01*
X161261Y5427D01*
X160903Y6292D01*
X160763Y6475D01*
X160745Y6573D01*
X160741Y6576D01*
X160740Y6581D01*
X160564Y6846D01*
X160439Y7070D01*
X160352Y7270D01*
X160300Y7441D01*
X160277Y7585D01*
X160277Y7702D01*
X160295Y7801D01*
X160329Y7892D01*
X160386Y7985D01*
X160504Y8122D01*
X160523Y8181D01*
X161222Y8880D01*
X170447D01*
X170549Y8621D01*
D02*
G37*
G36*
X72012Y10312D02*
X72666D01*
X72639Y10795D01*
X72609Y10898D01*
X72576Y10958D01*
X74424D01*
X74391Y10898D01*
X74361Y10795D01*
X74335Y10648D01*
X74313Y10457D01*
X74304Y10312D01*
X74988D01*
X74848Y10297D01*
X74722Y10252D01*
X74612Y10177D01*
X74516Y10072D01*
X74435Y9937D01*
X74368Y9772D01*
X74316Y9577D01*
X74279Y9352D01*
X74259Y9118D01*
X74250Y8400D01*
X72750D01*
X72748Y8852D01*
X72720Y9356D01*
X72684Y9577D01*
X72632Y9772D01*
X72566Y9937D01*
X72484Y10072D01*
X72388Y10177D01*
X72278Y10252D01*
X72152Y10297D01*
X72012Y10312D01*
X71987Y10357D01*
X71912Y10398D01*
X71787Y10433D01*
X71612Y10464D01*
X71387Y10491D01*
X70787Y10529D01*
X69512Y10550D01*
Y13050D01*
X69987Y13052D01*
X71787Y13167D01*
X71912Y13202D01*
X71987Y13243D01*
X72012Y13288D01*
Y10312D01*
D02*
G37*
G36*
X162299Y21778D02*
X162320Y21762D01*
X162355Y21747D01*
X162405Y21735D01*
X162469Y21724D01*
X162547Y21715D01*
X162745Y21704D01*
X163000Y21700D01*
Y20500D01*
X162865Y20499D01*
X162405Y20465D01*
X162355Y20453D01*
X162320Y20438D01*
X162299Y20422D01*
X162292Y20404D01*
Y21796D01*
X162299Y21778D01*
D02*
G37*
G36*
X168835Y21469D02*
X168771Y21402D01*
X168713Y21335D01*
X168663Y21268D01*
X168619Y21201D01*
X168582Y21135D01*
X168552Y21069D01*
X168529Y21004D01*
X168512Y20938D01*
X168503Y20874D01*
X168500Y20809D01*
X167609Y21700D01*
X167674Y21703D01*
X167738Y21712D01*
X167804Y21729D01*
X167869Y21752D01*
X167935Y21782D01*
X168001Y21819D01*
X168068Y21863D01*
X168134Y21913D01*
X168202Y21971D01*
X168269Y22035D01*
X168835Y21469D01*
D02*
G37*
G36*
X53614Y23395D02*
X53806Y23230D01*
X53863Y23190D01*
X53916Y23157D01*
X53965Y23132D01*
X54011Y23114D01*
X54053Y23103D01*
X54091Y23100D01*
X53200Y22209D01*
X53197Y22247D01*
X53186Y22289D01*
X53168Y22335D01*
X53143Y22384D01*
X53110Y22437D01*
X53070Y22494D01*
X52967Y22618D01*
X52905Y22686D01*
X52836Y22757D01*
X53543Y23464D01*
X53614Y23395D01*
D02*
G37*
G36*
X139106Y20317D02*
X139072Y20380D01*
X139027Y20436D01*
X138971Y20486D01*
X138902Y20529D01*
X138822Y20566D01*
X138731Y20596D01*
X138627Y20619D01*
X138512Y20636D01*
X138385Y20646D01*
X138247Y20649D01*
Y21449D01*
X138385Y21452D01*
X138512Y21462D01*
X138627Y21479D01*
X138731Y21502D01*
X138822Y21532D01*
X138902Y21568D01*
X138971Y21611D01*
X139027Y21661D01*
X139072Y21718D01*
X139106Y21781D01*
Y20317D01*
D02*
G37*
G36*
X50991Y20700D02*
X50926Y20697D01*
X50862Y20688D01*
X50796Y20671D01*
X50731Y20648D01*
X50665Y20618D01*
X50599Y20581D01*
X50532Y20537D01*
X50466Y20487D01*
X50398Y20429D01*
X50331Y20365D01*
X49765Y20931D01*
X49829Y20998D01*
X49887Y21066D01*
X49937Y21132D01*
X49981Y21199D01*
X50018Y21265D01*
X50048Y21331D01*
X50071Y21396D01*
X50088Y21462D01*
X50097Y21526D01*
X50100Y21591D01*
X50991Y20700D01*
D02*
G37*
G36*
X124480Y52504D02*
Y20785D01*
X124153Y20567D01*
X124021Y20369D01*
X123491D01*
X123120Y20745D01*
Y25300D01*
X123042Y25690D01*
X122821Y26021D01*
X122220Y26622D01*
Y48078D01*
X123321Y49179D01*
X123542Y49510D01*
X123620Y49900D01*
Y52204D01*
X123726Y52274D01*
X123980Y52656D01*
X124480Y52504D01*
D02*
G37*
G36*
X3435Y24069D02*
X3371Y24002D01*
X3313Y23934D01*
X3263Y23868D01*
X3219Y23801D01*
X3182Y23735D01*
X3152Y23669D01*
X3129Y23604D01*
X3112Y23539D01*
X3103Y23474D01*
X3100Y23409D01*
X2209Y24300D01*
X2274Y24303D01*
X2338Y24312D01*
X2404Y24329D01*
X2469Y24352D01*
X2535Y24382D01*
X2601Y24419D01*
X2668Y24463D01*
X2734Y24513D01*
X2802Y24571D01*
X2869Y24635D01*
X3435Y24069D01*
D02*
G37*
G36*
X38864Y27457D02*
X38725Y27296D01*
X38601Y27105D01*
X38492Y26886D01*
X38398Y26636D01*
X38320Y26358D01*
X38256Y26051D01*
X38207Y25714D01*
X38156Y24954D01*
X38153Y24530D01*
X35230Y27453D01*
X35654Y27456D01*
X36415Y27507D01*
X36751Y27556D01*
X37058Y27619D01*
X37337Y27698D01*
X37585Y27792D01*
X37805Y27901D01*
X37996Y28025D01*
X38157Y28164D01*
X38864Y27457D01*
D02*
G37*
G36*
X139094Y24538D02*
X139075Y24565D01*
X139041Y24590D01*
X138993Y24612D01*
X138930Y24631D01*
X138853Y24648D01*
X138762Y24661D01*
X138535Y24678D01*
X138251Y24684D01*
Y25484D01*
X138400Y25486D01*
X138853Y25521D01*
X138930Y25537D01*
X138993Y25556D01*
X139041Y25578D01*
X139075Y25603D01*
X139094Y25631D01*
Y24538D01*
D02*
G37*
G36*
X156196Y24002D02*
X156111Y23972D01*
X156036Y23922D01*
X155971Y23852D01*
X155916Y23762D01*
X155871Y23652D01*
X155836Y23522D01*
X155811Y23372D01*
X155805Y23300D01*
X155811Y23228D01*
X155836Y23078D01*
X155871Y22948D01*
X155916Y22838D01*
X155971Y22748D01*
X156036Y22678D01*
X156111Y22628D01*
X156196Y22598D01*
X156291Y22588D01*
X154291D01*
X154386Y22598D01*
X154471Y22628D01*
X154546Y22678D01*
X154611Y22748D01*
X154666Y22838D01*
X154711Y22948D01*
X154746Y23078D01*
X154771Y23228D01*
X154778Y23300D01*
X154771Y23372D01*
X154746Y23522D01*
X154711Y23652D01*
X154666Y23762D01*
X154611Y23852D01*
X154546Y23922D01*
X154471Y23972D01*
X154386Y24002D01*
X154291Y24012D01*
X156291D01*
X156196Y24002D01*
D02*
G37*
G36*
X12305Y23696D02*
X12320Y23524D01*
X12345Y23372D01*
X12380Y23240D01*
X12425Y23129D01*
X12480Y23038D01*
X12545Y22967D01*
X12620Y22917D01*
X12705Y22886D01*
X12800Y22876D01*
X10800D01*
X10895Y22886D01*
X10980Y22917D01*
X11055Y22967D01*
X11120Y23038D01*
X11175Y23129D01*
X11220Y23240D01*
X11255Y23372D01*
X11280Y23524D01*
X11295Y23696D01*
X11300Y23888D01*
X12300D01*
X12305Y23696D01*
D02*
G37*
G36*
X61762Y23602D02*
X61698Y23595D01*
X61635Y23581D01*
X61570Y23561D01*
X61506Y23534D01*
X61441Y23502D01*
X61375Y23462D01*
X61309Y23417D01*
X61243Y23365D01*
X61176Y23307D01*
X61109Y23243D01*
X60493Y23759D01*
X60557Y23826D01*
X60614Y23894D01*
X60663Y23961D01*
X60706Y24027D01*
X60740Y24094D01*
X60768Y24160D01*
X60788Y24225D01*
X60800Y24291D01*
X60806Y24356D01*
X60804Y24420D01*
X61762Y23602D01*
D02*
G37*
G36*
X84554Y20969D02*
X84586Y20628D01*
X84613Y20493D01*
X84649Y20382D01*
X84692Y20294D01*
X84743Y20231D01*
X84802Y20191D01*
X84869Y20175D01*
X84944Y20183D01*
X83435Y19804D01*
X83495Y19901D01*
X83548Y20003D01*
X83596Y20109D01*
X83637Y20221D01*
X83671Y20337D01*
X83700Y20459D01*
X83722Y20585D01*
X83738Y20716D01*
X83750Y20993D01*
X84550Y21176D01*
X84554Y20969D01*
D02*
G37*
G36*
X100652Y21460D02*
X100707Y20759D01*
X100740Y20558D01*
X100780Y20374D01*
X100828Y20207D01*
X100883Y20056D01*
X100945Y19921D01*
X101014Y19804D01*
X99183D01*
X99176Y19808D01*
X99170Y19840D01*
X99165Y19902D01*
X99151Y20433D01*
X99148Y21132D01*
X100648Y21726D01*
X100652Y21460D01*
D02*
G37*
G36*
X103452Y20969D02*
X103483Y20628D01*
X103511Y20493D01*
X103546Y20382D01*
X103590Y20294D01*
X103641Y20231D01*
X103700Y20191D01*
X103767Y20175D01*
X103841Y20183D01*
X102332Y19804D01*
X102392Y19901D01*
X102446Y20003D01*
X102493Y20109D01*
X102534Y20221D01*
X102569Y20337D01*
X102597Y20459D01*
X102620Y20585D01*
X102635Y20716D01*
X102648Y20993D01*
X103448Y21176D01*
X103452Y20969D01*
D02*
G37*
G36*
X68806D02*
X68838Y20628D01*
X68865Y20493D01*
X68901Y20382D01*
X68944Y20294D01*
X68995Y20231D01*
X69054Y20191D01*
X69121Y20175D01*
X69196Y20183D01*
X67686Y19804D01*
X67747Y19901D01*
X67800Y20003D01*
X67848Y20109D01*
X67889Y20221D01*
X67923Y20337D01*
X67952Y20459D01*
X67974Y20585D01*
X67990Y20716D01*
X68002Y20993D01*
X68802Y21176D01*
X68806Y20969D01*
D02*
G37*
G36*
X78255D02*
X78287Y20628D01*
X78314Y20493D01*
X78350Y20382D01*
X78393Y20294D01*
X78444Y20231D01*
X78503Y20191D01*
X78570Y20175D01*
X78645Y20183D01*
X77135Y19804D01*
X77195Y19901D01*
X77249Y20003D01*
X77296Y20109D01*
X77337Y20221D01*
X77372Y20337D01*
X77401Y20459D01*
X77423Y20585D01*
X77438Y20716D01*
X77451Y20993D01*
X78251Y21176D01*
X78255Y20969D01*
D02*
G37*
G36*
X81952Y21264D02*
X82032Y20065D01*
X82057Y19953D01*
X82085Y19866D01*
X82117Y19804D01*
X80285D01*
X80317Y19866D01*
X80345Y19953D01*
X80370Y20065D01*
X80391Y20203D01*
X80424Y20552D01*
X80449Y21264D01*
X80451Y21552D01*
X81951D01*
X81952Y21264D01*
D02*
G37*
G36*
X59600Y21095D02*
X59604Y20879D01*
X59635Y20510D01*
X59662Y20358D01*
X59698Y20228D01*
X59740Y20119D01*
X59791Y20032D01*
X59850Y19967D01*
X59916Y19923D01*
X59990Y19901D01*
X58453Y20125D01*
X58519Y20177D01*
X58578Y20240D01*
X58630Y20315D01*
X58675Y20400D01*
X58713Y20496D01*
X58744Y20604D01*
X58769Y20723D01*
X58786Y20852D01*
X58797Y20993D01*
X58800Y21145D01*
X59600Y21095D01*
D02*
G37*
G36*
X65857Y20907D02*
X65888Y20537D01*
X65915Y20387D01*
X65950Y20259D01*
X65993Y20155D01*
X66044Y20075D01*
X66102Y20017D01*
X66169Y19982D01*
X66243Y19970D01*
X64663D01*
X64737Y19982D01*
X64803Y20017D01*
X64862Y20075D01*
X64912Y20155D01*
X64955Y20259D01*
X64990Y20387D01*
X65018Y20537D01*
X65037Y20710D01*
X65049Y20907D01*
X65053Y21126D01*
X65853D01*
X65857Y20907D01*
D02*
G37*
G36*
X116048Y20826D02*
X116075Y20530D01*
X116090Y20460D01*
X116110Y20405D01*
X116132Y20364D01*
X116159Y20338D01*
X116188Y20326D01*
X116222Y20329D01*
X115079Y20004D01*
X115111Y20022D01*
X115139Y20057D01*
X115164Y20109D01*
X115186Y20179D01*
X115205Y20265D01*
X115220Y20369D01*
X115240Y20627D01*
X115246Y20954D01*
X116047D01*
X116048Y20826D01*
D02*
G37*
G36*
X106604Y20969D02*
X106635Y20627D01*
X106663Y20492D01*
X106698Y20381D01*
X106742Y20293D01*
X106793Y20230D01*
X106852Y20190D01*
X106919Y20174D01*
X106993Y20181D01*
X105482Y19804D01*
X105542Y19901D01*
X105596Y20004D01*
X105644Y20111D01*
X105685Y20223D01*
X105720Y20339D01*
X105749Y20461D01*
X105771Y20587D01*
X105787Y20718D01*
X105800Y20994D01*
X106600Y21175D01*
X106604Y20969D01*
D02*
G37*
G36*
X56500Y21062D02*
X56504Y20841D01*
X56535Y20463D01*
X56562Y20307D01*
X56598Y20172D01*
X56640Y20060D01*
X56691Y19969D01*
X56750Y19900D01*
X56816Y19852D01*
X56890Y19827D01*
X55303Y20125D01*
X55378Y20183D01*
X55446Y20251D01*
X55506Y20330D01*
X55557Y20417D01*
X55601Y20516D01*
X55637Y20623D01*
X55664Y20741D01*
X55684Y20869D01*
X55696Y21007D01*
X55700Y21155D01*
X56500Y21062D01*
D02*
G37*
G36*
X155793Y21031D02*
X155813Y20792D01*
X155824Y20733D01*
X155839Y20685D01*
X155856Y20648D01*
X155876Y20622D01*
X155898Y20606D01*
X155923Y20600D01*
X155028Y19847D01*
X154791Y20888D01*
X155791Y21131D01*
X155793Y21031D01*
D02*
G37*
G36*
X105645Y76541D02*
X105770Y76470D01*
X105906Y76406D01*
X106053Y76352D01*
X106210Y76305D01*
X106378Y76267D01*
X106556Y76238D01*
X106745Y76217D01*
X107153Y76200D01*
Y75000D01*
X106944Y74996D01*
X106556Y74962D01*
X106378Y74933D01*
X106210Y74895D01*
X106053Y74848D01*
X105906Y74794D01*
X105770Y74730D01*
X105645Y74659D01*
X105530Y74579D01*
Y76621D01*
X105645Y76541D01*
D02*
G37*
G36*
X128303Y76126D02*
X128312Y76061D01*
X128329Y75996D01*
X128352Y75931D01*
X128382Y75865D01*
X128419Y75799D01*
X128463Y75732D01*
X128513Y75665D01*
X128571Y75598D01*
X128635Y75531D01*
X128069Y74965D01*
X128002Y75029D01*
X127935Y75087D01*
X127868Y75137D01*
X127801Y75181D01*
X127735Y75218D01*
X127669Y75248D01*
X127604Y75271D01*
X127539Y75288D01*
X127474Y75297D01*
X127409Y75300D01*
X128300Y76191D01*
X128303Y76126D01*
D02*
G37*
G36*
X62345Y87394D02*
X62267Y87000D01*
X62399Y86337D01*
X62774Y85774D01*
X62900Y85690D01*
Y83700D01*
X67100D01*
Y84676D01*
X70049D01*
X70108Y84651D01*
X70421Y84645D01*
X70679Y84629D01*
X70890Y84605D01*
X70996Y84584D01*
X71176Y84316D01*
X71765Y83922D01*
X72460Y83784D01*
X74147D01*
X74160Y83704D01*
X74172Y83576D01*
X74176Y83404D01*
X74204Y83342D01*
Y82858D01*
X74176Y82796D01*
X74172Y82624D01*
X74160Y82496D01*
X74147Y82416D01*
X72460D01*
X71765Y82278D01*
X71176Y81884D01*
X70782Y81295D01*
X70644Y80600D01*
X70782Y79905D01*
X71176Y79316D01*
X71765Y78922D01*
X72460Y78784D01*
X76790D01*
X77486Y78922D01*
X78075Y79316D01*
X78468Y79905D01*
X78606Y80600D01*
X78468Y81295D01*
X78075Y81884D01*
X77486Y82278D01*
X76790Y82416D01*
X76503D01*
X76490Y82496D01*
X76479Y82624D01*
X76474Y82796D01*
X76447Y82858D01*
Y83342D01*
X76474Y83404D01*
X76479Y83576D01*
X76490Y83704D01*
X76503Y83784D01*
X76790D01*
X77486Y83922D01*
X78075Y84316D01*
X78468Y84905D01*
X78606Y85600D01*
X78471Y86280D01*
X78458Y86370D01*
X78738Y86780D01*
X98662D01*
X98942Y86370D01*
X98929Y86280D01*
X98794Y85600D01*
X98889Y85122D01*
X98835Y84824D01*
X98546Y84583D01*
X98137Y84501D01*
X97574Y84126D01*
X97199Y83563D01*
X97067Y82900D01*
X97199Y82237D01*
X97574Y81674D01*
X98137Y81299D01*
X98289Y80759D01*
X95523Y77993D01*
X95313Y77678D01*
X95239Y77308D01*
Y73654D01*
X94739Y73404D01*
X94158Y73520D01*
X93794Y73448D01*
X90921Y76321D01*
X90590Y76542D01*
X90200Y76620D01*
X78251D01*
X78075Y76884D01*
X77486Y77278D01*
X76790Y77416D01*
X72460D01*
X71765Y77278D01*
X71176Y76884D01*
X70782Y76295D01*
X70644Y75600D01*
X70782Y74905D01*
X71176Y74316D01*
X71765Y73922D01*
X72460Y73784D01*
X76790D01*
X77486Y73922D01*
X78075Y74316D01*
X78251Y74580D01*
X89778D01*
X92449Y71909D01*
X92424Y71786D01*
X92556Y71123D01*
X92932Y70561D01*
X93494Y70185D01*
X94158Y70053D01*
X94821Y70185D01*
X95013Y70313D01*
X95255Y70203D01*
X95494Y70033D01*
X95558Y69710D01*
X95779Y69379D01*
X95843Y69314D01*
X95763Y69046D01*
X95631Y68820D01*
X95037Y68701D01*
X94474Y68326D01*
X94099Y67763D01*
X93967Y67100D01*
X94099Y66437D01*
X94452Y65908D01*
X94414Y65773D01*
X94217Y65445D01*
X93799Y65528D01*
X93181Y65405D01*
X92657Y65055D01*
X92307Y64531D01*
X92184Y63913D01*
Y59976D01*
X92286Y59463D01*
X92289Y59336D01*
X92297Y59327D01*
X92305Y59306D01*
X92309Y59291D01*
X92313Y59272D01*
X92350Y58750D01*
X92351Y58617D01*
X92380Y58546D01*
Y58473D01*
X92377Y58439D01*
X92380Y58435D01*
Y50722D01*
X90740Y49082D01*
X90279Y49328D01*
X90333Y49600D01*
X90201Y50263D01*
X89826Y50826D01*
X89263Y51201D01*
X88888Y51276D01*
X88857Y51310D01*
X88791Y51340D01*
X88723Y51407D01*
Y57938D01*
X88749Y57998D01*
X88752Y58204D01*
X88761Y58380D01*
X88794Y58709D01*
X88816Y58835D01*
X88842Y58951D01*
X88871Y59049D01*
X88901Y59129D01*
X88930Y59190D01*
X88974Y59264D01*
X88986Y59348D01*
X88992Y59357D01*
X89016Y59478D01*
X89065Y59596D01*
X89048Y59638D01*
X89115Y59976D01*
Y63913D01*
X88992Y64531D01*
X88642Y65055D01*
X88118Y65405D01*
X87500Y65528D01*
X86882Y65405D01*
X86358Y65055D01*
X86226Y64857D01*
X85624D01*
X85493Y65055D01*
X84969Y65405D01*
X84350Y65528D01*
X83732Y65405D01*
X83208Y65055D01*
X82858Y64531D01*
X82735Y63913D01*
Y59976D01*
X82858Y59357D01*
X82865Y59347D01*
X82877Y59263D01*
X82881Y59260D01*
X82882Y59254D01*
X82930Y59177D01*
X82964Y59114D01*
X82994Y59047D01*
X83020Y58974D01*
X83044Y58896D01*
X83063Y58811D01*
X83078Y58728D01*
X83099Y58510D01*
X83101Y58393D01*
X83131Y58325D01*
Y56373D01*
X70681Y43922D01*
X70263Y44201D01*
X69819Y44290D01*
X69633Y44811D01*
X78321Y53499D01*
X78542Y53830D01*
X78620Y54220D01*
Y58473D01*
X78669Y58483D01*
X79193Y58833D01*
X79544Y59357D01*
X79667Y59976D01*
Y63913D01*
X79544Y64531D01*
X79193Y65055D01*
X78669Y65405D01*
X78051Y65528D01*
X77433Y65405D01*
X76909Y65055D01*
X76777Y64857D01*
X76176D01*
X76044Y65055D01*
X75520Y65405D01*
X74902Y65528D01*
X74283Y65405D01*
X73759Y65055D01*
X73193Y65042D01*
X73030Y65159D01*
X73004Y65517D01*
X73001Y65754D01*
X72951Y65874D01*
X72882Y66216D01*
X72617Y66613D01*
X71451Y67779D01*
X71427Y67840D01*
X71197Y68077D01*
X70815Y68514D01*
X70673Y68699D01*
X70555Y68872D01*
X70465Y69026D01*
X70401Y69157D01*
X70362Y69263D01*
X70349Y69318D01*
X70349Y69465D01*
X70410Y69562D01*
X70618Y69624D01*
X70986Y69600D01*
X71176Y69316D01*
X71765Y68922D01*
X72460Y68784D01*
X72689D01*
X73006Y68397D01*
X72967Y68200D01*
X73099Y67537D01*
X73474Y66974D01*
X74037Y66599D01*
X74700Y66467D01*
X75363Y66599D01*
X75926Y66974D01*
X76301Y67537D01*
X76433Y68200D01*
X76394Y68397D01*
X76667Y68730D01*
X76825Y68791D01*
X77486Y68922D01*
X78075Y69316D01*
X78468Y69905D01*
X78606Y70600D01*
X78468Y71295D01*
X78075Y71884D01*
X77486Y72278D01*
X76790Y72416D01*
X72460D01*
X71765Y72278D01*
X71176Y71884D01*
X70782Y71295D01*
X70691Y70836D01*
X70644Y70600D01*
X70691Y70365D01*
X70700Y70225D01*
X70675Y70151D01*
X70253Y70000D01*
X70094Y70000D01*
X69778Y70000D01*
X69688Y70037D01*
X69661Y70026D01*
X69633Y70035D01*
X69587Y70011D01*
X69101Y70063D01*
X68726Y70626D01*
X68163Y71001D01*
X67500Y71133D01*
X66837Y71001D01*
X66274Y70626D01*
X66145Y70431D01*
X66129Y70426D01*
X65566Y70466D01*
X65326Y70826D01*
X64763Y71201D01*
X64100Y71333D01*
X63437Y71201D01*
X63209Y71049D01*
X62654Y71280D01*
X62647Y71313D01*
X62271Y71876D01*
X61709Y72251D01*
X61046Y72383D01*
X60383Y72251D01*
X59820Y71876D01*
X59444Y71313D01*
X59313Y70650D01*
X59444Y69987D01*
X59701Y69603D01*
X59544Y69096D01*
X59511Y69056D01*
X59237Y69001D01*
X58674Y68626D01*
X58299Y68063D01*
X58167Y67400D01*
X58299Y66737D01*
X58674Y66174D01*
X58942Y65996D01*
X58836Y65465D01*
X58535Y65405D01*
X58011Y65055D01*
X57879Y64857D01*
X57278D01*
X57146Y65055D01*
X56622Y65405D01*
X56358Y65457D01*
X56002Y65798D01*
X56000Y66000D01*
Y70000D01*
X52543D01*
X52481Y70034D01*
X52446Y70023D01*
X52412Y70037D01*
X52322Y70000D01*
X51800D01*
Y70000D01*
X51400D01*
Y70000D01*
X50878D01*
X50788Y70037D01*
X50754Y70023D01*
X50719Y70034D01*
X50657Y70000D01*
X47280D01*
X46984Y70410D01*
X47402Y70828D01*
X47402Y70828D01*
X47645Y71192D01*
X47730Y71622D01*
X47730Y71622D01*
Y78191D01*
X47730Y78191D01*
X47645Y78620D01*
X47402Y78984D01*
X44993Y81393D01*
X44629Y81636D01*
X44326Y81697D01*
X44292Y81864D01*
X44116Y82127D01*
X43853Y82303D01*
X43542Y82365D01*
X42699D01*
X42465Y82865D01*
X42643Y83078D01*
X43215D01*
X43215Y83078D01*
X43283Y83092D01*
X47822D01*
X51978Y78935D01*
Y78462D01*
X51951Y78397D01*
X51950Y78376D01*
X51874Y78326D01*
X51499Y77763D01*
X51367Y77100D01*
X51499Y76437D01*
X51874Y75874D01*
X52437Y75499D01*
X53100Y75367D01*
X53763Y75499D01*
X54326Y75874D01*
X54701Y76437D01*
X54833Y77100D01*
X54767Y77433D01*
X55238Y77628D01*
X55474Y77274D01*
X56037Y76899D01*
X56700Y76767D01*
X57363Y76899D01*
X57926Y77274D01*
X58301Y77837D01*
X58433Y78500D01*
X58301Y79163D01*
X57926Y79726D01*
X57699Y79877D01*
X57771Y80225D01*
X57851Y80377D01*
X58463Y80499D01*
X59026Y80874D01*
X59401Y81437D01*
X59533Y82100D01*
X59401Y82763D01*
X59026Y83326D01*
X58463Y83701D01*
X57800Y83833D01*
X57710Y83815D01*
X57696Y83830D01*
X57630Y83856D01*
X54054Y87432D01*
X54246Y87894D01*
X61997D01*
X62345Y87394D01*
D02*
G37*
G36*
X43660Y75486D02*
X43640Y75448D01*
X43622Y75390D01*
X43606Y75314D01*
X43593Y75218D01*
X43573Y74970D01*
X43562Y74456D01*
X42562Y74447D01*
X42559Y74623D01*
X42531Y74927D01*
X42507Y75056D01*
X42476Y75170D01*
X42439Y75268D01*
X42394Y75351D01*
X42343Y75418D01*
X42284Y75470D01*
X42219Y75506D01*
X43683D01*
X43660Y75486D01*
D02*
G37*
G36*
X39451Y75479D02*
X39440Y75445D01*
X39431Y75391D01*
X39423Y75318D01*
X39406Y74981D01*
X39400Y74468D01*
X38400Y74481D01*
X38369Y75494D01*
X39463D01*
X39451Y75479D01*
D02*
G37*
G36*
X41425Y75482D02*
X41420Y75450D01*
X41415Y75398D01*
X41403Y74993D01*
X41400Y74481D01*
X40400Y74468D01*
X40399Y74659D01*
X40349Y75479D01*
X40337Y75494D01*
X41431D01*
X41425Y75482D01*
D02*
G37*
G36*
X16064Y79257D02*
X15995Y79186D01*
X15830Y78994D01*
X15790Y78937D01*
X15757Y78884D01*
X15732Y78835D01*
X15714Y78789D01*
X15703Y78747D01*
X15700Y78709D01*
X14809Y79600D01*
X14847Y79603D01*
X14889Y79614D01*
X14935Y79632D01*
X14984Y79657D01*
X15037Y79690D01*
X15094Y79730D01*
X15218Y79833D01*
X15286Y79895D01*
X15357Y79965D01*
X16064Y79257D01*
D02*
G37*
G36*
X106778Y79245D02*
Y77342D01*
X106688Y77199D01*
X106575Y77104D01*
X106278Y76962D01*
X106259Y76968D01*
X106157Y77006D01*
X106069Y77047D01*
X105992Y77091D01*
X105901Y77154D01*
X105781Y77181D01*
X105635Y77278D01*
X104940Y77416D01*
X100610D01*
X99914Y77278D01*
X99325Y76884D01*
X98932Y76295D01*
X98794Y75600D01*
X98932Y74905D01*
X99325Y74316D01*
X99914Y73922D01*
X100610Y73784D01*
X104940D01*
X105635Y73922D01*
X105781Y74019D01*
X105901Y74046D01*
X105992Y74109D01*
X106069Y74153D01*
X106157Y74194D01*
X106259Y74232D01*
X106374Y74266D01*
X106502Y74295D01*
X106637Y74317D01*
X106978Y74347D01*
X107120Y74350D01*
X107168Y74301D01*
X107400Y73900D01*
X107400D01*
X107400Y73900D01*
Y70347D01*
X107134Y70080D01*
X106737Y70001D01*
X106174Y69626D01*
X105799Y69063D01*
X105754Y68841D01*
X105199Y68611D01*
X105063Y68701D01*
X104400Y68833D01*
X103737Y68701D01*
X103174Y68326D01*
X102799Y67763D01*
X102667Y67100D01*
X102799Y66437D01*
X103174Y65874D01*
X103737Y65499D01*
X104400Y65367D01*
X104712Y65429D01*
X105084Y65059D01*
X105083Y64842D01*
X105066Y64771D01*
X104905Y64531D01*
X104782Y63913D01*
Y59976D01*
X104905Y59357D01*
X105131Y59020D01*
X104894Y58520D01*
X103029D01*
X102962Y58549D01*
X102943Y58550D01*
X102826Y58726D01*
X102263Y59101D01*
X102020Y59150D01*
X102006Y59157D01*
X101662Y59717D01*
X101714Y59976D01*
Y63913D01*
X101591Y64531D01*
X101432Y64768D01*
X101416Y64838D01*
X101371Y64865D01*
X101351Y64914D01*
X101328Y64923D01*
X101241Y65055D01*
X101183Y65093D01*
X101166Y65568D01*
X101326Y65674D01*
X101701Y66237D01*
X101833Y66900D01*
X101701Y67563D01*
X101326Y68126D01*
X100763Y68501D01*
X100100Y68633D01*
X99523Y68519D01*
X97889Y70153D01*
X98135Y70614D01*
X98258Y70589D01*
X98921Y70721D01*
X99483Y71097D01*
X99859Y71659D01*
X99991Y72323D01*
X99859Y72986D01*
X99483Y73548D01*
X98921Y73924D01*
X98258Y74056D01*
X97676Y73940D01*
X97176Y74190D01*
Y76907D01*
X99481Y79212D01*
X99914Y78922D01*
X100610Y78784D01*
X104940D01*
X105635Y78922D01*
X106224Y79316D01*
X106278Y79397D01*
X106778Y79245D01*
D02*
G37*
G36*
X123998Y80573D02*
X124028Y80559D01*
X124078Y80547D01*
X124148Y80537D01*
X124348Y80521D01*
X124798Y80510D01*
X124988Y80509D01*
Y79509D01*
X124796Y79504D01*
X124625Y79489D01*
X124474Y79464D01*
X124342Y79429D01*
X124231Y79384D01*
X124140Y79329D01*
X124069Y79264D01*
X124018Y79189D01*
X123987Y79104D01*
X123976Y79009D01*
X123988Y80588D01*
X123998Y80573D01*
D02*
G37*
G36*
X53601Y78289D02*
X53621Y78036D01*
X53632Y77968D01*
X53647Y77907D01*
X53664Y77854D01*
X53683Y77809D01*
X53705Y77772D01*
X53730Y77743D01*
X52470D01*
X52495Y77772D01*
X52517Y77809D01*
X52536Y77854D01*
X52553Y77907D01*
X52567Y77968D01*
X52579Y78036D01*
X52595Y78197D01*
X52599Y78289D01*
X52600Y78388D01*
X53600D01*
X53601Y78289D01*
D02*
G37*
G36*
X28288Y78712D02*
X28271Y78706D01*
X28256Y78688D01*
X28243Y78657D01*
X28232Y78614D01*
X28222Y78559D01*
X28214Y78492D01*
X28203Y78320D01*
X28200Y78100D01*
X27200D01*
X27199Y78218D01*
X27172Y78567D01*
X27160Y78624D01*
X27145Y78667D01*
X27128Y78699D01*
X27109Y78718D01*
X27088Y78724D01*
X28288Y78712D01*
D02*
G37*
G36*
X56214Y79695D02*
X56406Y79530D01*
X56463Y79490D01*
X56516Y79457D01*
X56565Y79432D01*
X56611Y79414D01*
X56653Y79403D01*
X56691Y79400D01*
X55800Y78509D01*
X55797Y78547D01*
X55786Y78589D01*
X55768Y78635D01*
X55743Y78684D01*
X55710Y78737D01*
X55670Y78794D01*
X55567Y78918D01*
X55505Y78986D01*
X55436Y79057D01*
X56143Y79764D01*
X56214Y79695D01*
D02*
G37*
G36*
X37537Y75478D02*
X37497Y75433D01*
X37462Y75370D01*
X37432Y75290D01*
X37407Y75193D01*
X37386Y75078D01*
X37370Y74947D01*
X37351Y74631D01*
X37349Y74447D01*
X36349D01*
X36347Y74631D01*
X36312Y75078D01*
X36291Y75193D01*
X36265Y75290D01*
X36235Y75370D01*
X36200Y75433D01*
X36161Y75478D01*
X36117Y75506D01*
X37581D01*
X37537Y75478D01*
D02*
G37*
G36*
X52412Y66412D02*
X52397Y66552D01*
X52352Y66678D01*
X52277Y66788D01*
X52172Y66884D01*
X52037Y66966D01*
X51872Y67032D01*
X51677Y67084D01*
X51600Y67096D01*
X51523Y67084D01*
X51328Y67032D01*
X51163Y66966D01*
X51028Y66884D01*
X50923Y66788D01*
X50848Y66678D01*
X50803Y66552D01*
X50788Y66412D01*
Y69388D01*
X50803Y69248D01*
X50848Y69122D01*
X50923Y69012D01*
X51028Y68916D01*
X51163Y68835D01*
X51328Y68768D01*
X51523Y68716D01*
X51600Y68704D01*
X51677Y68716D01*
X51872Y68768D01*
X52037Y68835D01*
X52172Y68916D01*
X52277Y69012D01*
X52352Y69122D01*
X52397Y69248D01*
X52412Y69388D01*
Y66412D01*
D02*
G37*
G36*
X120774Y69343D02*
X120764Y69337D01*
X120746Y69323D01*
X120722Y69303D01*
X120496Y69088D01*
X120358Y68951D01*
X119347Y69354D01*
X119416Y69425D01*
X119528Y69558D01*
X119571Y69618D01*
X119605Y69676D01*
X119631Y69729D01*
X119648Y69779D01*
X119657Y69826D01*
X119657Y69869D01*
X119649Y69909D01*
X120774Y69343D01*
D02*
G37*
G36*
X31700Y69300D02*
X14000D01*
Y77000D01*
X31700D01*
Y69300D01*
D02*
G37*
G36*
X99239Y67931D02*
X99306Y67876D01*
X99372Y67829D01*
X99438Y67791D01*
X99502Y67762D01*
X99565Y67742D01*
X99628Y67731D01*
X99689Y67729D01*
X99749Y67736D01*
X99809Y67751D01*
X99243Y66626D01*
X99225Y66676D01*
X99201Y66727D01*
X99172Y66781D01*
X99138Y66837D01*
X99053Y66954D01*
X99003Y67016D01*
X98821Y67214D01*
X99170Y67996D01*
X99239Y67931D01*
D02*
G37*
G36*
X140374Y73513D02*
X140374Y73506D01*
X140868D01*
X140773Y73496D01*
X140689Y73466D01*
X140613Y73415D01*
X140549Y73345D01*
X140494Y73254D01*
X140448Y73142D01*
X140437Y73100D01*
X140448Y73058D01*
X140494Y72947D01*
X140549Y72855D01*
X140613Y72785D01*
X140689Y72734D01*
X140773Y72704D01*
X140868Y72694D01*
X140374D01*
X140374Y72687D01*
X140370Y72544D01*
X140376Y72206D01*
X140387Y71686D01*
X140390Y71538D01*
X140846D01*
X140755Y71528D01*
X140674Y71499D01*
X140602Y71449D01*
X140540Y71380D01*
X140488Y71291D01*
X140448Y71189D01*
X140448Y71188D01*
X140492Y71076D01*
X140547Y70985D01*
X140611Y70913D01*
X140686Y70863D01*
X140770Y70832D01*
X140854Y70823D01*
X140853Y70839D01*
X140670Y70927D01*
X140566Y71005D01*
X140540Y71074D01*
X140592Y71134D01*
X140723Y71184D01*
X140932Y71225D01*
X141220Y71258D01*
X142030Y71294D01*
X142553Y71299D01*
Y69799D01*
X142293Y69794D01*
X141842Y69755D01*
X141651Y69722D01*
X141484Y69678D01*
X141339Y69625D01*
X141218Y69563D01*
X141121Y69490D01*
X141046Y69408D01*
X140994Y69317D01*
X140923Y69273D01*
X140859Y69205D01*
X140803Y69111D01*
X140754Y68993D01*
X140712Y68849D01*
X140679Y68681D01*
X140652Y68488D01*
X140622Y68026D01*
X140619Y67758D01*
X139119D01*
X139115Y68026D01*
X139058Y68681D01*
X139025Y68849D01*
X138983Y68993D01*
X138934Y69111D01*
X138878Y69205D01*
X138814Y69273D01*
X138743Y69317D01*
X140994D01*
X140854Y70822D01*
X140381D01*
X140373Y70737D01*
X140368Y70549D01*
X139368D01*
X139364Y70737D01*
X139357Y70822D01*
X138873D01*
X138967Y70832D01*
X139051Y70863D01*
X139126Y70913D01*
X139190Y70985D01*
X139245Y71076D01*
X139289Y71188D01*
X139289Y71189D01*
X139249Y71291D01*
X139197Y71380D01*
X139135Y71449D01*
X139063Y71499D01*
X138982Y71528D01*
X138891Y71538D01*
X139354D01*
X139360Y71602D01*
X139362Y71884D01*
X139368Y72523D01*
X139364Y72687D01*
X139363Y72694D01*
X138868D01*
X138963Y72704D01*
X139049Y72734D01*
X139123Y72785D01*
X139189Y72855D01*
X139243Y72947D01*
X139288Y73058D01*
X139300Y73100D01*
X139288Y73142D01*
X139243Y73254D01*
X139189Y73345D01*
X139123Y73415D01*
X139049Y73466D01*
X138963Y73496D01*
X138868Y73506D01*
X139363D01*
X139364Y73513D01*
X139368Y73706D01*
X140368D01*
X140374Y73513D01*
D02*
G37*
G36*
X75028Y69486D02*
X75032Y69433D01*
X75425D01*
X75349Y69425D01*
X75281Y69400D01*
X75221Y69360D01*
X75169Y69303D01*
X75125Y69230D01*
X75094Y69152D01*
X75115Y69102D01*
X75147Y69041D01*
X75185Y68986D01*
X75227Y68937D01*
X75274Y68893D01*
X75038Y68873D01*
X75029Y68775D01*
X75025Y68621D01*
X74225D01*
X74221Y68775D01*
X74219Y68805D01*
X74019Y68788D01*
X74058Y68838D01*
X74093Y68893D01*
X74124Y68953D01*
X74151Y69017D01*
X74174Y69087D01*
X74174Y69090D01*
X74161Y69140D01*
X74125Y69230D01*
X74081Y69303D01*
X74029Y69360D01*
X73969Y69400D01*
X73901Y69425D01*
X73825Y69433D01*
X74224D01*
X74225Y69505D01*
X75025Y69579D01*
X75028Y69486D01*
D02*
G37*
G36*
X134794Y73537D02*
X134775Y73565D01*
X134741Y73590D01*
X134693Y73612D01*
X134630Y73631D01*
X134553Y73648D01*
X134462Y73661D01*
X134235Y73678D01*
X133951Y73684D01*
Y74484D01*
X134100Y74486D01*
X134553Y74521D01*
X134630Y74537D01*
X134693Y74556D01*
X134741Y74578D01*
X134775Y74603D01*
X134794Y74631D01*
Y73537D01*
D02*
G37*
G36*
X151653Y74161D02*
X151795Y74041D01*
X151936Y73935D01*
X152078Y73843D01*
X152219Y73765D01*
X152360Y73701D01*
X152502Y73652D01*
X152643Y73616D01*
X152785Y73595D01*
X152926Y73588D01*
X150462D01*
X150520Y73595D01*
X150557Y73616D01*
X150573Y73652D01*
X150568Y73701D01*
X150542Y73765D01*
X150496Y73843D01*
X150427Y73935D01*
X150339Y74041D01*
X150098Y74295D01*
X151512D01*
X151653Y74161D01*
D02*
G37*
G36*
X140374Y75482D02*
X140383Y75378D01*
X140864D01*
X140770Y75368D01*
X140686Y75337D01*
X140611Y75287D01*
X140547Y75215D01*
X140492Y75124D01*
X140451Y75020D01*
X140494Y74915D01*
X140549Y74824D01*
X140613Y74753D01*
X140689Y74703D01*
X140773Y74672D01*
X140868Y74662D01*
X140383D01*
X140374Y74554D01*
X140368Y74361D01*
X139368D01*
X139364Y74554D01*
X139354Y74662D01*
X138868D01*
X138963Y74672D01*
X139049Y74703D01*
X139123Y74753D01*
X139189Y74824D01*
X139243Y74915D01*
X139286Y75020D01*
X139245Y75124D01*
X139190Y75215D01*
X139126Y75287D01*
X139051Y75337D01*
X138967Y75368D01*
X138873Y75378D01*
X139355D01*
X139364Y75482D01*
X139368Y75674D01*
X140368D01*
X140374Y75482D01*
D02*
G37*
G36*
X121303Y70620D02*
X121346Y70574D01*
X121395Y70533D01*
X121451Y70498D01*
X121513Y70468D01*
X121581Y70443D01*
X121656Y70424D01*
X121737Y70411D01*
X121824Y70403D01*
X121917Y70400D01*
X121711Y69600D01*
X121617Y69598D01*
X121444Y69586D01*
X121365Y69575D01*
X121220Y69543D01*
X121154Y69523D01*
X121094Y69499D01*
X121038Y69473D01*
X120987Y69443D01*
X121267Y70671D01*
X121303Y70620D01*
D02*
G37*
G36*
X11498Y71505D02*
X11528Y71420D01*
X11578Y71345D01*
X11648Y71280D01*
X11738Y71225D01*
X11848Y71180D01*
X11978Y71145D01*
X12128Y71120D01*
X12298Y71105D01*
X12488Y71100D01*
Y70100D01*
X12298Y70095D01*
X12128Y70080D01*
X11978Y70055D01*
X11848Y70020D01*
X11738Y69975D01*
X11648Y69920D01*
X11578Y69855D01*
X11528Y69780D01*
X11498Y69695D01*
X11488Y69600D01*
Y71600D01*
X11498Y71505D01*
D02*
G37*
G36*
X152895Y73475D02*
X152887Y73365D01*
X152902Y73246D01*
X152940Y73118D01*
X153000Y72981D01*
X153084Y72835D01*
X153190Y72680D01*
X153319Y72516D01*
X153471Y72344D01*
X153603Y72206D01*
X153792Y72040D01*
X153847Y71998D01*
X153898Y71964D01*
X153945Y71937D01*
X153988Y71917D01*
X154027Y71904D01*
X154062Y71898D01*
X153558Y71468D01*
X153488Y70905D01*
X153257Y71129D01*
X153209Y71170D01*
X153103Y71080D01*
X153103Y71120D01*
X153095Y71164D01*
X153079Y71211D01*
X153056Y71261D01*
X153025Y71315D01*
X153004Y71347D01*
X152856Y71475D01*
X152684Y71597D01*
X152533Y71686D01*
X152401Y71741D01*
X152290Y71763D01*
X152198Y71750D01*
X152126Y71704D01*
X152074Y71624D01*
X152926Y73576D01*
X152895Y73475D01*
D02*
G37*
G36*
X29719Y91456D02*
X29393Y91167D01*
X28842Y90616D01*
X28619Y90354D01*
X28430Y90102D01*
X28275Y89860D01*
X28155Y89626D01*
X28069Y89402D01*
X28017Y89188D01*
X28000Y88982D01*
X27200Y89037D01*
X27184Y89226D01*
X27136Y89432D01*
X27055Y89657D01*
X26943Y89899D01*
X26799Y90160D01*
X26622Y90439D01*
X26173Y91052D01*
X25900Y91385D01*
X25595Y91736D01*
X29719Y91456D01*
D02*
G37*
G36*
X120164Y91876D02*
X120027Y91578D01*
X119926Y91295D01*
X119861Y91027D01*
X119832Y90774D01*
X119839Y90536D01*
X119882Y90314D01*
X119961Y90107D01*
X120076Y89915D01*
X120228Y89738D01*
X119327Y89507D01*
X119261Y89561D01*
X119146Y89637D01*
X118768Y89858D01*
X116461Y91068D01*
X120337Y92190D01*
X120164Y91876D01*
D02*
G37*
G36*
X130164D02*
X130027Y91578D01*
X129926Y91295D01*
X129861Y91027D01*
X129832Y90774D01*
X129839Y90536D01*
X129882Y90314D01*
X129961Y90107D01*
X130076Y89915D01*
X130227Y89738D01*
X129327Y89507D01*
X129261Y89561D01*
X129146Y89637D01*
X128768Y89858D01*
X126461Y91068D01*
X130337Y92190D01*
X130164Y91876D01*
D02*
G37*
G36*
X20784Y86424D02*
X20809Y86356D01*
X20849Y86296D01*
X20906Y86244D01*
X20979Y86200D01*
X21068Y86164D01*
X21174Y86136D01*
X21296Y86116D01*
X21434Y86104D01*
X21588Y86100D01*
Y85300D01*
X21434Y85296D01*
X21296Y85284D01*
X21174Y85264D01*
X21068Y85236D01*
X20979Y85200D01*
X20906Y85156D01*
X20849Y85104D01*
X20809Y85044D01*
X20784Y84976D01*
X20776Y84900D01*
Y86500D01*
X20784Y86424D01*
D02*
G37*
G36*
X25312Y84900D02*
X25304Y84976D01*
X25280Y85044D01*
X25240Y85104D01*
X25184Y85156D01*
X25112Y85200D01*
X25024Y85236D01*
X24920Y85264D01*
X24800Y85284D01*
X24664Y85296D01*
X24512Y85300D01*
Y86100D01*
X24664Y86104D01*
X24800Y86116D01*
X24920Y86136D01*
X25024Y86164D01*
X25112Y86200D01*
X25184Y86244D01*
X25240Y86296D01*
X25280Y86356D01*
X25304Y86424D01*
X25312Y86500D01*
Y84900D01*
D02*
G37*
G36*
X28003Y87836D02*
X28026Y87580D01*
X28046Y87476D01*
X28072Y87388D01*
X28104Y87316D01*
X28141Y87260D01*
X28184Y87220D01*
X28233Y87196D01*
X28288Y87188D01*
X26800Y87176D01*
X26876Y87185D01*
X26944Y87209D01*
X27004Y87250D01*
X27056Y87308D01*
X27100Y87381D01*
X27136Y87470D01*
X27164Y87575D01*
X27184Y87697D01*
X27196Y87834D01*
X27200Y87988D01*
X28000D01*
X28003Y87836D01*
D02*
G37*
G36*
X44896Y95752D02*
X44697Y95492D01*
X44339Y94627D01*
X44217Y93700D01*
X44339Y92773D01*
X44697Y91908D01*
X45266Y91166D01*
X46008Y90597D01*
X46404Y90433D01*
X46304Y89933D01*
X41282D01*
X41215Y89920D01*
X29772D01*
X29564Y90420D01*
X29838Y90694D01*
X30150Y90970D01*
X30193Y91058D01*
X30334Y91166D01*
X30903Y91908D01*
X31261Y92773D01*
X31383Y93700D01*
X31261Y94627D01*
X30903Y95492D01*
X30704Y95752D01*
X30925Y96200D01*
X44675D01*
X44896Y95752D01*
D02*
G37*
G36*
X24896D02*
X24697Y95492D01*
X24339Y94627D01*
X24217Y93700D01*
X24339Y92773D01*
X24697Y91908D01*
X25065Y91428D01*
X25104Y91311D01*
X25403Y90966D01*
X25659Y90653D01*
X26085Y90073D01*
X26240Y89829D01*
X26364Y89605D01*
X26454Y89411D01*
X26498Y89288D01*
X26239Y88864D01*
X26063Y88600D01*
X26043Y88499D01*
X25785Y88076D01*
X25617Y87825D01*
X25612Y87800D01*
X24700D01*
Y86759D01*
X24627Y86753D01*
X24495Y86749D01*
X24428Y86720D01*
X21671D01*
X21605Y86749D01*
X21470Y86753D01*
X21400Y86759D01*
Y87800D01*
X17200D01*
Y86759D01*
X17127Y86753D01*
X16995Y86749D01*
X16871Y86694D01*
X16610Y86642D01*
X16279Y86421D01*
X12178Y82320D01*
X4400D01*
X4010Y82242D01*
X3679Y82021D01*
X1700Y80042D01*
X1223Y80205D01*
X1200Y80223D01*
Y96200D01*
X4247D01*
Y90147D01*
X11353D01*
Y96200D01*
X14675D01*
X14896Y95752D01*
X14697Y95492D01*
X14339Y94627D01*
X14217Y93700D01*
X14339Y92773D01*
X14697Y91908D01*
X15266Y91166D01*
X16008Y90597D01*
X16873Y90239D01*
X17800Y90117D01*
X18727Y90239D01*
X19592Y90597D01*
X20334Y91166D01*
X20903Y91908D01*
X21261Y92773D01*
X21383Y93700D01*
X21261Y94627D01*
X20903Y95492D01*
X20704Y95752D01*
X20925Y96200D01*
X24675D01*
X24896Y95752D01*
D02*
G37*
G36*
X193800Y1600D02*
X190624D01*
X190437Y2100D01*
X190903Y2708D01*
X191261Y3573D01*
X191383Y4500D01*
X191261Y5427D01*
X190903Y6292D01*
X190334Y7034D01*
X189592Y7603D01*
X188727Y7961D01*
X187800Y8083D01*
X186873Y7961D01*
X186008Y7603D01*
X185266Y7034D01*
X184697Y6292D01*
X184339Y5427D01*
X184217Y4500D01*
X184339Y3573D01*
X184697Y2708D01*
X185163Y2100D01*
X184976Y1600D01*
X180624D01*
X180437Y2100D01*
X180903Y2708D01*
X181261Y3573D01*
X181380Y4474D01*
X181402Y4526D01*
X181403Y4685D01*
X181610Y5186D01*
X181610D01*
X181628Y5454D01*
X181624Y5475D01*
X181633Y5668D01*
X181950Y6435D01*
X181911Y6445D01*
X181963Y6704D01*
X181885Y7095D01*
X181883Y7099D01*
X181900Y7119D01*
X181919Y7177D01*
X184679Y9937D01*
X184737Y9899D01*
X185400Y9767D01*
X186063Y9899D01*
X186626Y10274D01*
X187001Y10837D01*
X187133Y11500D01*
X187041Y11962D01*
X187490Y12263D01*
X187737Y12099D01*
X188400Y11967D01*
X189063Y12099D01*
X189626Y12474D01*
X190001Y13037D01*
X190133Y13700D01*
X190001Y14363D01*
X189891Y14529D01*
X190251Y14889D01*
X190537Y14699D01*
X191200Y14567D01*
X191863Y14699D01*
X192426Y15074D01*
X192801Y15637D01*
X192933Y16300D01*
X192801Y16963D01*
X192426Y17526D01*
X191863Y17901D01*
X191200Y18033D01*
X190652Y17924D01*
X190453Y18321D01*
X190436Y18390D01*
X190801Y18937D01*
X190933Y19600D01*
X190801Y20263D01*
X190426Y20826D01*
X189863Y21201D01*
X189200Y21333D01*
X188537Y21201D01*
X187974Y20826D01*
X187857Y20650D01*
X187838Y20649D01*
X187771Y20620D01*
X180315D01*
X180123Y21081D01*
X187673Y28631D01*
X187790Y28710D01*
X189821Y30740D01*
X190042Y31071D01*
X190120Y31461D01*
Y40537D01*
X190326Y40674D01*
X190701Y41237D01*
X190833Y41900D01*
X190708Y42531D01*
X190710Y42658D01*
X190979Y43047D01*
X191271Y43105D01*
X191585Y43315D01*
X192685Y44415D01*
X192895Y44729D01*
X192969Y45100D01*
Y62644D01*
X193020Y62900D01*
Y68500D01*
X192942Y68890D01*
X192721Y69221D01*
X191221Y70721D01*
X190890Y70942D01*
X190500Y71020D01*
X185184D01*
X185032Y71520D01*
X185121Y71579D01*
X188921Y75379D01*
X188961Y75439D01*
X189021Y75479D01*
X189030Y75492D01*
X189063Y75499D01*
X189626Y75874D01*
X190001Y76437D01*
X190133Y77100D01*
X190001Y77763D01*
X189626Y78326D01*
X189063Y78701D01*
X188400Y78833D01*
X188097Y78773D01*
X178820Y88050D01*
Y90277D01*
X179592Y90597D01*
X180334Y91166D01*
X180903Y91908D01*
X181261Y92773D01*
X181383Y93700D01*
X181261Y94627D01*
X180903Y95492D01*
X180704Y95752D01*
X180925Y96200D01*
X184675D01*
X184896Y95752D01*
X184697Y95492D01*
X184339Y94627D01*
X184217Y93700D01*
X184339Y92773D01*
X184697Y91908D01*
X185266Y91166D01*
X186008Y90597D01*
X186873Y90239D01*
X187800Y90117D01*
X188727Y90239D01*
X189592Y90597D01*
X190334Y91166D01*
X190903Y91908D01*
X191261Y92773D01*
X191383Y93700D01*
X191261Y94627D01*
X190903Y95492D01*
X190704Y95752D01*
X190925Y96200D01*
X193800D01*
Y1600D01*
D02*
G37*
G36*
X100298Y92062D02*
X100178Y91743D01*
X100092Y91441D01*
X100040Y91157D01*
X100021Y90891D01*
X100036Y90644D01*
X100084Y90415D01*
X100166Y90203D01*
X100281Y90010D01*
X100430Y89836D01*
X99590Y89544D01*
X99520Y89599D01*
X99399Y89674D01*
X99004Y89885D01*
X96597Y91004D01*
X100452Y92401D01*
X100298Y92062D01*
D02*
G37*
G36*
X140413Y92251D02*
X140313Y91911D01*
X140243Y91593D01*
X140204Y91294D01*
X140196Y91017D01*
X140219Y90761D01*
X140273Y90526D01*
X140358Y90311D01*
X140474Y90118D01*
X140621Y89945D01*
X139834Y89600D01*
X139750Y89667D01*
X139615Y89749D01*
X139432Y89846D01*
X138917Y90084D01*
X136767Y90934D01*
X140545Y92612D01*
X140413Y92251D01*
D02*
G37*
G36*
X150413D02*
X150313Y91911D01*
X150243Y91593D01*
X150204Y91294D01*
X150196Y91017D01*
X150219Y90761D01*
X150273Y90526D01*
X150358Y90311D01*
X150474Y90118D01*
X150621Y89945D01*
X149835Y89600D01*
X149750Y89667D01*
X149616Y89749D01*
X149432Y89846D01*
X148917Y90084D01*
X146767Y90934D01*
X150545Y92612D01*
X150413Y92251D01*
D02*
G37*
G36*
X17812Y84900D02*
X17804Y84976D01*
X17780Y85044D01*
X17740Y85104D01*
X17684Y85156D01*
X17612Y85200D01*
X17524Y85236D01*
X17420Y85264D01*
X17300Y85284D01*
X17164Y85296D01*
X17012Y85300D01*
Y86100D01*
X17164Y86104D01*
X17300Y86116D01*
X17420Y86136D01*
X17524Y86164D01*
X17612Y86200D01*
X17684Y86244D01*
X17740Y86296D01*
X17780Y86356D01*
X17804Y86424D01*
X17812Y86500D01*
Y84900D01*
D02*
G37*
G36*
X37351Y82569D02*
X37386Y82121D01*
X37407Y82007D01*
X37432Y81910D01*
X37462Y81830D01*
X37497Y81767D01*
X37537Y81722D01*
X37581Y81694D01*
X36117D01*
X36161Y81722D01*
X36200Y81767D01*
X36235Y81830D01*
X36265Y81910D01*
X36291Y82007D01*
X36312Y82121D01*
X36328Y82253D01*
X36347Y82569D01*
X36349Y82753D01*
X37349D01*
X37351Y82569D01*
D02*
G37*
G36*
X39463Y81706D02*
X38369D01*
X38378Y81719D01*
X38386Y81753D01*
X38393Y81806D01*
X38404Y81970D01*
X38416Y82725D01*
X39416D01*
X39463Y81706D01*
D02*
G37*
G36*
X41431D02*
X40337D01*
X40346Y81719D01*
X40354Y81753D01*
X40361Y81806D01*
X40373Y81970D01*
X40384Y82725D01*
X41384D01*
X41431Y81706D01*
D02*
G37*
G36*
X17812Y79200D02*
X17802Y79295D01*
X17772Y79380D01*
X17722Y79455D01*
X17652Y79520D01*
X17562Y79575D01*
X17452Y79620D01*
X17322Y79655D01*
X17172Y79680D01*
X17002Y79695D01*
X16812Y79700D01*
Y80700D01*
X17002Y80705D01*
X17172Y80720D01*
X17322Y80745D01*
X17452Y80780D01*
X17562Y80825D01*
X17652Y80880D01*
X17722Y80945D01*
X17772Y81020D01*
X17802Y81105D01*
X17812Y81200D01*
Y79200D01*
D02*
G37*
G36*
X120202Y80699D02*
X120852Y80660D01*
X120922Y80645D01*
X120972Y80628D01*
X121002Y80609D01*
X121012Y80588D01*
Y79200D01*
X121002Y79295D01*
X120972Y79380D01*
X120922Y79455D01*
X120852Y79520D01*
X120762Y79575D01*
X120652Y79620D01*
X120522Y79655D01*
X120372Y79680D01*
X120202Y79695D01*
X120012Y79700D01*
Y80700D01*
X120202Y80699D01*
D02*
G37*
G36*
X164896Y95752D02*
X164697Y95492D01*
X164339Y94627D01*
X164217Y93700D01*
X164339Y92773D01*
X164697Y91908D01*
X165266Y91166D01*
X166008Y90597D01*
X166873Y90239D01*
X167800Y90117D01*
X167905Y90130D01*
X168485Y89890D01*
X168494Y89924D01*
X168754Y89872D01*
X169144Y89950D01*
X169475Y90171D01*
X169597Y90354D01*
X170074Y90471D01*
X170197Y90460D01*
X176162Y84496D01*
X175998Y83953D01*
X175737Y83901D01*
X175174Y83526D01*
X174799Y82963D01*
X174667Y82300D01*
X174799Y81637D01*
X174889Y81501D01*
X174659Y80946D01*
X174437Y80901D01*
X173874Y80526D01*
X173499Y79963D01*
X173479Y79866D01*
X173001Y79721D01*
X160864Y91857D01*
X160903Y91908D01*
X161261Y92773D01*
X161383Y93700D01*
X161261Y94627D01*
X160903Y95492D01*
X160704Y95752D01*
X160925Y96200D01*
X164675D01*
X164896Y95752D01*
D02*
G37*
G36*
X38332Y87419D02*
X36056Y85142D01*
X35813Y84778D01*
X35727Y84349D01*
X35727Y84349D01*
Y82826D01*
X35699Y82761D01*
X35697Y82592D01*
X35681Y82312D01*
X35669Y82219D01*
X35657Y82153D01*
X35588Y81985D01*
X35483Y81837D01*
X35492Y81786D01*
X35480Y81725D01*
X35467Y81694D01*
X35472Y81683D01*
X35446Y81553D01*
Y79584D01*
X35508Y79273D01*
X35684Y79010D01*
X35898Y78866D01*
X35924Y78600D01*
X35898Y78334D01*
X35684Y78190D01*
X35508Y77927D01*
X35446Y77616D01*
Y75647D01*
X35472Y75516D01*
X35467Y75506D01*
X35480Y75475D01*
X35492Y75415D01*
X35483Y75363D01*
X35588Y75214D01*
X35657Y75047D01*
X35667Y74995D01*
X35697Y74602D01*
X35699Y74439D01*
X35727Y74374D01*
Y73013D01*
X32811Y70098D01*
X32349Y70289D01*
Y77000D01*
X32159Y77459D01*
X31700Y77649D01*
X29242D01*
X29047Y77785D01*
X28940Y77951D01*
X28900Y78100D01*
X28900D01*
Y78618D01*
X28937Y78706D01*
X28914Y78762D01*
X28917Y78772D01*
X28900Y78804D01*
Y82300D01*
X24700D01*
Y78100D01*
X24700Y78100D01*
X24700D01*
X24700Y78100D01*
X24581Y77649D01*
X21519D01*
X21400Y78100D01*
X21400D01*
Y82300D01*
X17200D01*
Y81385D01*
X17184Y81380D01*
X17090Y81365D01*
X16965Y81354D01*
X16795Y81349D01*
X16733Y81322D01*
X16300D01*
X16300Y81322D01*
X15871Y81236D01*
X15507Y80993D01*
X14970Y80456D01*
X14904Y80430D01*
X14890Y80415D01*
X14800Y80433D01*
X14137Y80301D01*
X13574Y79926D01*
X13199Y79363D01*
X13067Y78700D01*
X13199Y78037D01*
X13305Y77877D01*
X13541Y77459D01*
X13351Y77000D01*
Y72847D01*
X13031Y72513D01*
X12686Y72282D01*
X12222Y72407D01*
X12100Y72508D01*
Y72700D01*
X7900D01*
Y68500D01*
X12100D01*
Y69415D01*
X12116Y69420D01*
X12210Y69435D01*
X12335Y69446D01*
X12505Y69451D01*
X12567Y69478D01*
X13351D01*
Y69300D01*
X13541Y68841D01*
X14000Y68651D01*
X16200D01*
Y65300D01*
X26200D01*
Y68651D01*
X30711D01*
X30902Y68189D01*
X30307Y67593D01*
X30064Y67229D01*
X29978Y66800D01*
X29978Y66800D01*
Y55093D01*
X29478Y54893D01*
X29100Y55049D01*
X20600D01*
X20141Y54859D01*
X19951Y54400D01*
Y54181D01*
X17658D01*
X17078Y54066D01*
X16587Y53737D01*
X16259Y53246D01*
X16143Y52666D01*
Y52180D01*
X16051Y52165D01*
X15923Y52154D01*
X15750Y52149D01*
X15688Y52122D01*
X12567D01*
X12505Y52149D01*
X12335Y52154D01*
X12210Y52165D01*
X12116Y52180D01*
X12100Y52185D01*
Y53500D01*
X8002Y53500D01*
X7737Y53708D01*
X7604Y53878D01*
X7542Y54190D01*
X7321Y54521D01*
X6420Y55422D01*
Y59400D01*
X6342Y59790D01*
X6121Y60121D01*
X4031Y62210D01*
X4005Y62279D01*
X3992Y62292D01*
X4033Y62500D01*
X3991Y62713D01*
X4308Y63100D01*
X7200D01*
Y63276D01*
X7686Y63596D01*
X7900Y63493D01*
Y63000D01*
X12100D01*
Y63426D01*
X12463Y63499D01*
X13026Y63874D01*
X13401Y64437D01*
X13533Y65100D01*
X13401Y65763D01*
X13026Y66326D01*
X12463Y66701D01*
X12100Y66774D01*
Y67200D01*
X7900D01*
Y66707D01*
X7686Y66604D01*
X7200Y66924D01*
Y67300D01*
X3320D01*
Y78778D01*
X3785Y79243D01*
X4247Y79052D01*
Y73447D01*
X11353D01*
Y80280D01*
X12600D01*
X12990Y80358D01*
X13321Y80579D01*
X16738Y83996D01*
X17200Y83805D01*
Y83600D01*
X21400D01*
Y84641D01*
X21470Y84647D01*
X21605Y84651D01*
X21671Y84680D01*
X24428D01*
X24495Y84651D01*
X24627Y84647D01*
X24700Y84641D01*
Y83600D01*
X28900D01*
Y87043D01*
X28931Y87094D01*
X28918Y87145D01*
X28937Y87193D01*
X28900Y87282D01*
Y87800D01*
X29367Y87880D01*
X38141D01*
X38332Y87419D01*
D02*
G37*
G36*
X105687Y86397D02*
X105722Y86314D01*
X105787Y86240D01*
X105879Y86177D01*
X106001Y86123D01*
X106151Y86079D01*
X106330Y86044D01*
X106538Y86020D01*
X106775Y86005D01*
X107040Y86000D01*
X106953Y85000D01*
X106782Y84996D01*
X106458Y84962D01*
X106306Y84933D01*
X106160Y84895D01*
X106021Y84848D01*
X105888Y84794D01*
X105762Y84730D01*
X105643Y84659D01*
X105530Y84579D01*
X105680Y86490D01*
X105687Y86397D01*
D02*
G37*
G36*
X71720Y84710D02*
X71726Y84822D01*
X71696Y84922D01*
X71629Y85011D01*
X71524Y85087D01*
X71383Y85152D01*
X71205Y85206D01*
X70989Y85247D01*
X70736Y85276D01*
X70447Y85294D01*
X70120Y85300D01*
X70512Y86500D01*
X70720Y86502D01*
X71456Y86560D01*
X71615Y86586D01*
X71904Y86653D01*
X72034Y86694D01*
X72155Y86739D01*
X71720Y84710D01*
D02*
G37*
G36*
X75830Y82587D02*
X75845Y82415D01*
X75870Y82263D01*
X75905Y82131D01*
X75950Y82020D01*
X76005Y81929D01*
X76070Y81858D01*
X76145Y81808D01*
X76230Y81777D01*
X76325Y81767D01*
X74325D01*
X74420Y81777D01*
X74505Y81808D01*
X74580Y81858D01*
X74645Y81929D01*
X74700Y82020D01*
X74745Y82131D01*
X74780Y82263D01*
X74805Y82415D01*
X74820Y82587D01*
X74825Y82779D01*
X75825D01*
X75830Y82587D01*
D02*
G37*
G36*
X57314Y83295D02*
X57506Y83130D01*
X57563Y83090D01*
X57616Y83057D01*
X57665Y83032D01*
X57711Y83014D01*
X57753Y83003D01*
X57791Y83000D01*
X56900Y82109D01*
X56897Y82147D01*
X56886Y82189D01*
X56868Y82235D01*
X56843Y82284D01*
X56810Y82337D01*
X56770Y82394D01*
X56667Y82518D01*
X56605Y82586D01*
X56536Y82657D01*
X57243Y83364D01*
X57314Y83295D01*
D02*
G37*
G36*
X76230Y84423D02*
X76145Y84392D01*
X76070Y84342D01*
X76005Y84271D01*
X75950Y84180D01*
X75905Y84069D01*
X75870Y83937D01*
X75845Y83785D01*
X75830Y83613D01*
X75825Y83421D01*
X74825D01*
X74820Y83613D01*
X74805Y83785D01*
X74780Y83937D01*
X74745Y84069D01*
X74700Y84180D01*
X74645Y84271D01*
X74580Y84342D01*
X74505Y84392D01*
X74420Y84423D01*
X74325Y84433D01*
X76325D01*
X76230Y84423D01*
D02*
G37*
G36*
X49933Y66412D02*
X49817Y66497D01*
X49679Y66539D01*
X49520D01*
X49339Y66497D01*
X49138Y66412D01*
X48915Y66285D01*
X48671Y66115D01*
X48406Y65903D01*
X47812Y65351D01*
X46751Y66412D01*
X47048Y66720D01*
X47515Y67271D01*
X47685Y67515D01*
X47812Y67738D01*
X47897Y67939D01*
X47939Y68120D01*
Y68279D01*
X47897Y68417D01*
X47812Y68533D01*
X49933Y66412D01*
D02*
G37*
G36*
X158603Y57924D02*
X158611Y57837D01*
X158624Y57756D01*
X158643Y57681D01*
X158668Y57613D01*
X158698Y57551D01*
X158733Y57495D01*
X158774Y57446D01*
X158820Y57403D01*
X158871Y57367D01*
X157643Y57087D01*
X157673Y57138D01*
X157700Y57194D01*
X157723Y57254D01*
X157744Y57320D01*
X157761Y57390D01*
X157775Y57465D01*
X157794Y57628D01*
X157798Y57717D01*
X157800Y57811D01*
X158600Y58017D01*
X158603Y57924D01*
D02*
G37*
G36*
X88356Y59495D02*
X88302Y59381D01*
X88255Y59255D01*
X88214Y59115D01*
X88179Y58963D01*
X88151Y58797D01*
X88113Y58428D01*
X88103Y58224D01*
X88100Y58007D01*
X86900D01*
X86897Y58224D01*
X86849Y58797D01*
X86821Y58963D01*
X86786Y59115D01*
X86745Y59255D01*
X86698Y59381D01*
X86644Y59495D01*
X86584Y59596D01*
X88416D01*
X88356Y59495D01*
D02*
G37*
G36*
X109927Y59060D02*
X109964Y59060D01*
X109977Y59039D01*
X109967Y58998D01*
X109931Y58937D01*
X109872Y58856D01*
X109788Y58755D01*
X109392Y58329D01*
X109212Y58146D01*
X108498Y58564D01*
X108629Y58700D01*
X108821Y58938D01*
X108883Y59039D01*
X108922Y59129D01*
X108939Y59207D01*
X108932Y59273D01*
X108903Y59328D01*
X108850Y59371D01*
X108775Y59403D01*
X109927Y59060D01*
D02*
G37*
G36*
X102290Y58086D02*
X102343Y58047D01*
X102401Y58013D01*
X102463Y57983D01*
X102531Y57958D01*
X102604Y57937D01*
X102682Y57921D01*
X102765Y57909D01*
X102853Y57902D01*
X102946Y57900D01*
Y57100D01*
X102853Y57098D01*
X102765Y57091D01*
X102682Y57079D01*
X102604Y57063D01*
X102531Y57042D01*
X102463Y57017D01*
X102401Y56987D01*
X102343Y56953D01*
X102290Y56914D01*
X102243Y56870D01*
Y58130D01*
X102290Y58086D01*
D02*
G37*
G36*
X171657Y56870D02*
X171628Y56895D01*
X171591Y56917D01*
X171546Y56936D01*
X171493Y56953D01*
X171432Y56968D01*
X171364Y56979D01*
X171203Y56995D01*
X171111Y56999D01*
X171012Y57000D01*
Y58000D01*
X171111Y58001D01*
X171364Y58021D01*
X171432Y58033D01*
X171493Y58047D01*
X171546Y58064D01*
X171591Y58083D01*
X171628Y58105D01*
X171657Y58130D01*
Y56870D01*
D02*
G37*
G36*
X37778Y71185D02*
Y68400D01*
X37778Y68400D01*
X37864Y67971D01*
X38107Y67607D01*
X38178Y67535D01*
Y57188D01*
X37678Y57076D01*
X36992Y57603D01*
X36127Y57961D01*
X35200Y58083D01*
X34273Y57961D01*
X33408Y57603D01*
X32722Y57076D01*
X32222Y57188D01*
Y66335D01*
X37278Y71392D01*
X37778Y71185D01*
D02*
G37*
G36*
X166978Y56828D02*
X166968Y56923D01*
X166938Y57008D01*
X166887Y57083D01*
X166816Y57148D01*
X166725Y57203D01*
X166614Y57248D01*
X166482Y57283D01*
X166331Y57308D01*
X166254Y57315D01*
X166178Y57308D01*
X166026Y57283D01*
X165895Y57248D01*
X165783Y57203D01*
X165692Y57148D01*
X165621Y57083D01*
X165571Y57008D01*
X165541Y56923D01*
X165530Y56828D01*
Y58828D01*
X165541Y58733D01*
X165571Y58648D01*
X165621Y58573D01*
X165692Y58508D01*
X165783Y58453D01*
X165895Y58408D01*
X166026Y58373D01*
X166178Y58348D01*
X166254Y58342D01*
X166331Y58348D01*
X166482Y58373D01*
X166614Y58408D01*
X166725Y58453D01*
X166816Y58508D01*
X166887Y58573D01*
X166938Y58648D01*
X166968Y58733D01*
X166978Y58828D01*
Y56828D01*
D02*
G37*
G36*
X59553Y59404D02*
X59556Y59310D01*
X59564Y59223D01*
X59577Y59141D01*
X59596Y59066D01*
X59619Y58996D01*
X59648Y58932D01*
X59683Y58874D01*
X59722Y58823D01*
X59767Y58777D01*
X59817Y58737D01*
X58574Y58532D01*
X58608Y58585D01*
X58639Y58646D01*
X58666Y58715D01*
X58689Y58793D01*
X58709Y58878D01*
X58725Y58972D01*
X58746Y59184D01*
X58752Y59302D01*
X58754Y59428D01*
X59553Y59404D01*
D02*
G37*
G36*
X94193Y59084D02*
X94118Y59103D01*
X94051Y59097D01*
X93992Y59068D01*
X93941Y59014D01*
X93898Y58936D01*
X93862Y58834D01*
X93835Y58708D01*
X93815Y58557D01*
X93803Y58383D01*
X93799Y58184D01*
X93000Y58622D01*
X92999Y58775D01*
X92958Y59356D01*
X92943Y59435D01*
X92925Y59501D01*
X92905Y59555D01*
X92883Y59596D01*
X94193Y59084D01*
D02*
G37*
G36*
X50421Y59418D02*
X50354Y59383D01*
X50296Y59325D01*
X50245Y59245D01*
X50202Y59140D01*
X50167Y59013D01*
X50140Y58863D01*
X50120Y58690D01*
X50109Y58493D01*
X50105Y58274D01*
X49305D01*
X49301Y58493D01*
X49270Y58863D01*
X49242Y59013D01*
X49207Y59140D01*
X49164Y59245D01*
X49114Y59325D01*
X49055Y59383D01*
X48989Y59418D01*
X48915Y59430D01*
X50495D01*
X50421Y59418D01*
D02*
G37*
G36*
X56720D02*
X56653Y59383D01*
X56595Y59325D01*
X56544Y59245D01*
X56501Y59140D01*
X56466Y59013D01*
X56439Y58863D01*
X56419Y58690D01*
X56408Y58493D01*
X56404Y58274D01*
X55604D01*
X55600Y58493D01*
X55569Y58863D01*
X55541Y59013D01*
X55506Y59140D01*
X55463Y59245D01*
X55413Y59325D01*
X55354Y59383D01*
X55288Y59418D01*
X55214Y59430D01*
X56794D01*
X56720Y59418D01*
D02*
G37*
G36*
X66169D02*
X66102Y59383D01*
X66044Y59325D01*
X65993Y59245D01*
X65950Y59140D01*
X65915Y59013D01*
X65888Y58863D01*
X65868Y58690D01*
X65857Y58493D01*
X65853Y58274D01*
X65053D01*
X65049Y58493D01*
X65018Y58863D01*
X64990Y59013D01*
X64955Y59140D01*
X64912Y59245D01*
X64862Y59325D01*
X64803Y59383D01*
X64737Y59418D01*
X64663Y59430D01*
X66243D01*
X66169Y59418D01*
D02*
G37*
G36*
X128055Y52991D02*
X128006Y52949D01*
X127963Y52900D01*
X127925Y52846D01*
X127892Y52787D01*
X127864Y52722D01*
X127841Y52651D01*
X127823Y52574D01*
X127810Y52492D01*
X127803Y52405D01*
X127800Y52311D01*
X127000Y52412D01*
X126998Y52505D01*
X126982Y52677D01*
X126968Y52756D01*
X126951Y52830D01*
X126929Y52900D01*
X126903Y52965D01*
X126874Y53025D01*
X126840Y53080D01*
X126803Y53131D01*
X128055Y52991D01*
D02*
G37*
G36*
X48835Y54269D02*
X48771Y54202D01*
X48713Y54135D01*
X48663Y54068D01*
X48619Y54001D01*
X48582Y53935D01*
X48552Y53869D01*
X48529Y53804D01*
X48512Y53738D01*
X48503Y53674D01*
X48500Y53609D01*
X47609Y54500D01*
X47674Y54503D01*
X47739Y54512D01*
X47804Y54529D01*
X47869Y54552D01*
X47935Y54582D01*
X48001Y54619D01*
X48068Y54663D01*
X48134Y54713D01*
X48202Y54771D01*
X48269Y54835D01*
X48835Y54269D01*
D02*
G37*
G36*
X160220Y53489D02*
X161307Y53535D01*
X161293Y53518D01*
X161285Y53497D01*
X161283Y53474D01*
X161288Y53447D01*
X161300Y53417D01*
X161318Y53384D01*
X161342Y53348D01*
X161373Y53309D01*
X161410Y53267D01*
X161453Y53222D01*
X160696Y52565D01*
X160220Y53371D01*
X160212Y51412D01*
X160197Y51546D01*
X160152Y51666D01*
X160077Y51772D01*
X159972Y51864D01*
X159837Y51942D01*
X159672Y52005D01*
X159477Y52055D01*
X159274Y52087D01*
X158648Y52050D01*
X158603Y52032D01*
X158588Y52012D01*
X158576Y54369D01*
X158592Y54226D01*
X158638Y54098D01*
X158714Y53986D01*
X158820Y53888D01*
X158956Y53806D01*
X159122Y53738D01*
X159318Y53686D01*
X159400Y53672D01*
X159482Y53686D01*
X159678Y53738D01*
X159845Y53806D01*
X159981Y53888D01*
X160087Y53986D01*
X160163Y54098D01*
X160208Y54226D01*
X160224Y54369D01*
X160220Y53489D01*
D02*
G37*
G36*
X166805Y51996D02*
X166820Y51824D01*
X166845Y51672D01*
X166880Y51540D01*
X166925Y51429D01*
X166980Y51338D01*
X167045Y51267D01*
X167120Y51217D01*
X167205Y51186D01*
X167300Y51176D01*
X165300D01*
X165395Y51186D01*
X165480Y51217D01*
X165555Y51267D01*
X165620Y51338D01*
X165675Y51429D01*
X165720Y51540D01*
X165755Y51672D01*
X165780Y51824D01*
X165795Y51996D01*
X165800Y52188D01*
X166800D01*
X166805Y51996D01*
D02*
G37*
G36*
X2705Y52626D02*
X2683Y52585D01*
X2664Y52532D01*
X2647Y52469D01*
X2633Y52394D01*
X2621Y52309D01*
X2605Y52106D01*
X2604Y52053D01*
X2621Y51836D01*
X2633Y51768D01*
X2647Y51707D01*
X2664Y51654D01*
X2683Y51609D01*
X2705Y51572D01*
X2730Y51543D01*
X1470D01*
X1495Y51572D01*
X1517Y51609D01*
X1536Y51654D01*
X1553Y51707D01*
X1568Y51768D01*
X1579Y51836D01*
X1595Y51997D01*
X1596Y52024D01*
X1568Y52394D01*
X1553Y52469D01*
X1536Y52532D01*
X1517Y52585D01*
X1495Y52626D01*
X1470Y52657D01*
X2730D01*
X2705Y52626D01*
D02*
G37*
G36*
X3957Y51770D02*
X3928Y51795D01*
X3891Y51817D01*
X3846Y51836D01*
X3793Y51853D01*
X3732Y51868D01*
X3664Y51879D01*
X3503Y51895D01*
X3411Y51899D01*
X3312Y51900D01*
Y52900D01*
X3411Y52901D01*
X3664Y52921D01*
X3732Y52933D01*
X3793Y52947D01*
X3846Y52964D01*
X3891Y52983D01*
X3928Y53005D01*
X3957Y53030D01*
Y51770D01*
D02*
G37*
G36*
X67598Y56471D02*
X67665Y56413D01*
X67732Y56363D01*
X67799Y56319D01*
X67865Y56282D01*
X67931Y56252D01*
X67996Y56229D01*
X68062Y56212D01*
X68126Y56203D01*
X68191Y56200D01*
X67300Y55309D01*
X67297Y55374D01*
X67288Y55439D01*
X67271Y55504D01*
X67248Y55569D01*
X67218Y55635D01*
X67181Y55701D01*
X67137Y55768D01*
X67087Y55835D01*
X67029Y55902D01*
X66965Y55969D01*
X67531Y56535D01*
X67598Y56471D01*
D02*
G37*
G36*
X168696Y70462D02*
X168505Y70000D01*
X165500D01*
Y65800D01*
X165190Y65428D01*
X161954D01*
Y61228D01*
X165854D01*
X166154Y61228D01*
Y61228D01*
X166354D01*
X166354Y61228D01*
X170554D01*
Y65428D01*
X170011D01*
X170007Y65432D01*
X169700Y65800D01*
Y66319D01*
X169737Y66407D01*
X169705Y66487D01*
X169706Y66491D01*
X169700Y66501D01*
Y68805D01*
X170162Y68996D01*
X179180Y59978D01*
Y56645D01*
X178896Y56508D01*
X178680Y56456D01*
X178163Y56801D01*
X177500Y56933D01*
X176837Y56801D01*
X176274Y56426D01*
X175899Y55863D01*
X175767Y55200D01*
X175899Y54537D01*
X176274Y53974D01*
X176837Y53599D01*
X177500Y53467D01*
X178163Y53599D01*
X178680Y53944D01*
X178896Y53892D01*
X179180Y53755D01*
Y49989D01*
X178800Y49700D01*
X178680Y49700D01*
X174600D01*
Y49207D01*
X174381Y49101D01*
X173900Y49424D01*
Y51800D01*
X169700D01*
Y47600D01*
X169700Y47600D01*
Y47300D01*
X169700D01*
X169700Y47100D01*
Y43100D01*
X173900D01*
Y45602D01*
X174100Y45781D01*
X174600Y45558D01*
Y45500D01*
X178680D01*
X178800Y45500D01*
X179180Y45211D01*
Y39595D01*
X178680Y39444D01*
X178626Y39526D01*
X178063Y39901D01*
X177400Y40033D01*
X176737Y39901D01*
X176174Y39526D01*
X175799Y38963D01*
X175667Y38300D01*
X175708Y38092D01*
X175695Y38079D01*
X175669Y38010D01*
X174779Y37121D01*
X174558Y36790D01*
X174480Y36400D01*
Y29122D01*
X167890Y22532D01*
X167821Y22505D01*
X167807Y22492D01*
X167600Y22533D01*
X166937Y22401D01*
X166374Y22026D01*
X165999Y21463D01*
X165867Y20800D01*
X165999Y20137D01*
X166374Y19574D01*
X166937Y19199D01*
X167600Y19067D01*
X168263Y19199D01*
X168826Y19574D01*
X169201Y20137D01*
X169333Y20800D01*
X169292Y21008D01*
X169305Y21021D01*
X169332Y21090D01*
X176207Y27965D01*
X176224Y27980D01*
X176867Y28079D01*
X177137Y27899D01*
X177248Y27877D01*
X177412Y27334D01*
X168298Y18220D01*
X157572D01*
X157305Y18720D01*
X157517Y19037D01*
X157649Y19700D01*
X157517Y20363D01*
X157416Y20515D01*
Y23200D01*
X157416D01*
Y23400D01*
X157416D01*
Y27310D01*
X157416Y27600D01*
X157416D01*
X157391Y27800D01*
X157391Y27800D01*
Y32000D01*
X153191D01*
Y27800D01*
X153191Y27800D01*
X153191Y27800D01*
X153216Y27310D01*
Y23400D01*
X153216D01*
Y23200D01*
X153216D01*
Y19000D01*
X153993D01*
X154169Y18700D01*
X153904Y18220D01*
X151000D01*
X150610Y18142D01*
X150279Y17921D01*
X146678Y14320D01*
X127022D01*
X126754Y14820D01*
X126788Y14869D01*
X126911Y15487D01*
Y19424D01*
X126788Y20042D01*
X126520Y20444D01*
Y22480D01*
X130578D01*
X132730Y20328D01*
X133061Y20107D01*
X133451Y20029D01*
X138165D01*
X138232Y20000D01*
X138352Y19997D01*
X138440Y19990D01*
X138510Y19980D01*
X138558Y19969D01*
X138586Y19960D01*
X138599Y19949D01*
X138611Y19944D01*
X138647Y19858D01*
X138793Y19797D01*
X138914Y19696D01*
X138968Y19701D01*
X139075Y19680D01*
X139106Y19667D01*
X139117Y19672D01*
X139247Y19646D01*
X141216D01*
X141527Y19708D01*
X141790Y19884D01*
X141966Y20147D01*
X142028Y20458D01*
Y21639D01*
X141966Y21950D01*
X141824Y22164D01*
X141969Y22381D01*
X142027Y22673D01*
Y23559D01*
X141969Y23850D01*
X141806Y24100D01*
X141969Y24350D01*
X142027Y24641D01*
Y25527D01*
X141992Y25704D01*
X142069Y25896D01*
X142380Y25990D01*
X142610Y25986D01*
X142873Y25810D01*
X143184Y25748D01*
X145153D01*
X145464Y25810D01*
X145727Y25986D01*
X145903Y26250D01*
X145965Y26561D01*
Y27742D01*
X145939Y27875D01*
X145944Y27887D01*
X145936Y27904D01*
X145942Y27923D01*
X145920Y27969D01*
X145903Y28053D01*
X145824Y28172D01*
X145751Y28345D01*
X144671Y29414D01*
X144601Y29763D01*
X144226Y30326D01*
X143663Y30701D01*
X143000Y30833D01*
X142337Y30701D01*
X141774Y30326D01*
X141399Y29763D01*
X141267Y29100D01*
X141281Y29027D01*
X140866Y28554D01*
X139247D01*
X139117Y28528D01*
X139106Y28533D01*
X139075Y28520D01*
X138968Y28499D01*
X138914Y28504D01*
X138793Y28403D01*
X138647Y28342D01*
X138611Y28256D01*
X138599Y28251D01*
X138586Y28240D01*
X138558Y28231D01*
X138510Y28220D01*
X138440Y28210D01*
X138352Y28203D01*
X138232Y28200D01*
X138165Y28171D01*
X135771D01*
X131020Y32922D01*
Y54500D01*
X130942Y54890D01*
X130721Y55221D01*
X128431Y57511D01*
X128398Y57677D01*
X128412Y57745D01*
X128799Y58226D01*
X129163Y58299D01*
X129726Y58674D01*
X130101Y59237D01*
X130233Y59900D01*
X130101Y60563D01*
X130060Y60625D01*
Y61213D01*
X130171Y61324D01*
X132444D01*
X132495Y61301D01*
X132760Y61294D01*
X132971Y61276D01*
X132987Y61273D01*
X133221Y60879D01*
X133250Y60746D01*
X133237Y60701D01*
X132674Y60326D01*
X132299Y59763D01*
X132167Y59100D01*
X132299Y58437D01*
X132674Y57874D01*
X133237Y57499D01*
X133900Y57367D01*
X134563Y57499D01*
X135126Y57874D01*
X135501Y58437D01*
X135633Y59100D01*
X135501Y59763D01*
X135276Y60100D01*
X135544Y60600D01*
X137600D01*
Y61917D01*
X137629Y61965D01*
X137617Y62017D01*
X137637Y62067D01*
X137600Y62157D01*
Y62624D01*
X137665Y62738D01*
X137801Y62933D01*
X138234Y63445D01*
X138516Y63737D01*
X138537Y63790D01*
X138864Y64117D01*
X138905Y64130D01*
X138915Y64148D01*
X138933Y64155D01*
X139132Y64340D01*
X139319Y64489D01*
X139510Y64619D01*
X139707Y64731D01*
X139910Y64825D01*
X140120Y64902D01*
X140339Y64962D01*
X140566Y65006D01*
X140804Y65032D01*
X141075Y65042D01*
X141091Y65049D01*
X141274Y64774D01*
X141837Y64399D01*
X142500Y64267D01*
X143163Y64399D01*
X143726Y64774D01*
X144101Y65337D01*
X144233Y66000D01*
X144101Y66663D01*
X143726Y67226D01*
X143163Y67601D01*
X142500Y67733D01*
X142491Y67731D01*
X142059Y67817D01*
X141696D01*
X141292Y68317D01*
X141299Y68423D01*
X141319Y68573D01*
X141344Y68695D01*
X141368Y68778D01*
X141383Y68814D01*
X141398Y68830D01*
X141400Y68835D01*
X141453Y68858D01*
X141466Y68887D01*
X141494Y68902D01*
X141512Y68961D01*
X141524Y68970D01*
X141526Y68971D01*
X141527Y68972D01*
X141560Y68998D01*
X141568Y69012D01*
X141602Y69030D01*
X141678Y69058D01*
X141789Y69087D01*
X141926Y69111D01*
X142326Y69145D01*
X142393Y69146D01*
X142574Y68874D01*
X143137Y68499D01*
X143800Y68367D01*
X144463Y68499D01*
X145026Y68874D01*
X145401Y69437D01*
X145533Y70100D01*
X145401Y70763D01*
X145026Y71326D01*
X144463Y71701D01*
X143884Y71817D01*
X143878Y71820D01*
X143351Y71925D01*
X142608D01*
X142553Y71948D01*
X142550Y71947D01*
X142547Y71948D01*
X142164Y71945D01*
X141664Y72285D01*
Y72559D01*
X141606Y72850D01*
X141443Y73100D01*
X141606Y73350D01*
X141664Y73641D01*
Y74527D01*
X141606Y74819D01*
X141461Y75036D01*
X141603Y75250D01*
X141665Y75561D01*
Y76742D01*
X141603Y77053D01*
X141427Y77316D01*
X141164Y77492D01*
X140853Y77554D01*
X140497D01*
X140298Y77687D01*
X139868Y77773D01*
X139439Y77687D01*
X139240Y77554D01*
X138884D01*
X138573Y77492D01*
X138310Y77316D01*
X138166Y77102D01*
X137900Y77076D01*
X137634Y77102D01*
X137490Y77316D01*
X137227Y77492D01*
X136916Y77554D01*
X134947D01*
X134636Y77492D01*
X134373Y77316D01*
X134197Y77053D01*
X134135Y76742D01*
Y75561D01*
X134071Y75417D01*
X133739Y75104D01*
X129938D01*
X129131Y75910D01*
X129105Y75979D01*
X129092Y75993D01*
X129133Y76200D01*
X129001Y76863D01*
X128626Y77426D01*
X128063Y77801D01*
X127400Y77933D01*
X126737Y77801D01*
X126174Y77426D01*
X125799Y76863D01*
X125667Y76200D01*
X125799Y75537D01*
X126174Y74974D01*
X126737Y74599D01*
X127400Y74467D01*
X127608Y74508D01*
X127621Y74495D01*
X127690Y74468D01*
X128277Y73882D01*
X128085Y73420D01*
X126600D01*
X126210Y73342D01*
X125879Y73121D01*
X125062Y72304D01*
X124600Y72495D01*
Y74433D01*
X124633Y74600D01*
X124600Y74767D01*
Y75700D01*
X124210D01*
X124126Y75826D01*
X123563Y76201D01*
X122900Y76333D01*
X122237Y76201D01*
X121674Y75826D01*
X121590Y75700D01*
X120400D01*
Y73566D01*
X119900Y73414D01*
X119826Y73526D01*
X119263Y73901D01*
X118600Y74033D01*
X117937Y73901D01*
X117374Y73526D01*
X116999Y72963D01*
X116867Y72300D01*
X116999Y71637D01*
X117374Y71074D01*
X117278Y70620D01*
X116678Y70020D01*
X113200D01*
X112810Y69942D01*
X112479Y69721D01*
X109878Y67120D01*
X109190D01*
X108923Y67620D01*
X109001Y67737D01*
X109080Y68134D01*
X110473Y69527D01*
X110589Y69700D01*
X111600D01*
Y72731D01*
X111986Y73048D01*
X112250Y72995D01*
X112913Y73127D01*
X113476Y73503D01*
X113851Y74065D01*
X113983Y74729D01*
X113851Y75392D01*
X113476Y75954D01*
X112913Y76330D01*
X112250Y76462D01*
X111986Y76410D01*
X111600Y76727D01*
Y79078D01*
X119933D01*
X119995Y79051D01*
X120165Y79046D01*
X120290Y79035D01*
X120384Y79020D01*
X120400Y79015D01*
Y77000D01*
X124600D01*
Y77919D01*
X124623Y77934D01*
X124622Y77937D01*
X124864Y78098D01*
X125107Y78462D01*
X125191Y78887D01*
X144627D01*
X149602Y73912D01*
X149626Y73849D01*
X149831Y73632D01*
X149813Y73588D01*
X149829Y73550D01*
X149817Y73510D01*
X149850Y73452D01*
Y71000D01*
X152146D01*
X152207Y70988D01*
X152357Y70548D01*
X152399Y70337D01*
X152774Y69774D01*
X153337Y69399D01*
X154000Y69267D01*
X154663Y69399D01*
X155226Y69774D01*
X155601Y70337D01*
X155686Y70764D01*
X156216Y70942D01*
X157180Y69978D01*
Y66747D01*
X156700Y66700D01*
X156680Y66700D01*
X152500D01*
Y62500D01*
X155033D01*
X155200Y62467D01*
X155367Y62500D01*
X156680D01*
X156700Y62500D01*
X157180Y62453D01*
Y57890D01*
X157151Y57822D01*
X157150Y57789D01*
X156799Y57263D01*
X156667Y56600D01*
X156786Y56000D01*
X156717Y55784D01*
X156565Y55500D01*
X155000D01*
Y51300D01*
X159200D01*
X159600Y51059D01*
Y50800D01*
X160120D01*
X160209Y50763D01*
X160246Y50778D01*
X160284Y50767D01*
X160345Y50800D01*
X163700D01*
X163800Y50800D01*
X164200Y50559D01*
Y47600D01*
X164200D01*
Y47300D01*
X164200D01*
Y44940D01*
X164131Y44469D01*
X159932D01*
Y41012D01*
X159898Y40950D01*
X159908Y40914D01*
X159894Y40881D01*
X159932Y40790D01*
Y40268D01*
X159932D01*
Y39968D01*
X159932D01*
Y39447D01*
X159894Y39356D01*
X159908Y39323D01*
X159898Y39287D01*
X159932Y39226D01*
Y36376D01*
X159556Y36000D01*
X158632D01*
Y39968D01*
X154431D01*
Y39340D01*
X154237Y39301D01*
X153674Y38926D01*
X153299Y38363D01*
X153167Y37700D01*
X153299Y37037D01*
X153657Y36500D01*
X153628Y36358D01*
X153485Y36000D01*
X148898D01*
X148858Y36018D01*
X148495Y36027D01*
X148198Y36053D01*
X147952Y36094D01*
X147760Y36145D01*
X147625Y36200D01*
X147543Y36250D01*
X147507Y36284D01*
X147494Y36303D01*
X147487Y36323D01*
X147475Y36437D01*
X147453Y36477D01*
Y39352D01*
X147915Y39544D01*
X148625Y38834D01*
X148653Y38765D01*
X148685Y38735D01*
X148730Y38505D01*
X149106Y37943D01*
X149668Y37567D01*
X150331Y37435D01*
X150995Y37567D01*
X151557Y37943D01*
X151933Y38505D01*
X152065Y39169D01*
X151933Y39832D01*
X151557Y40394D01*
X150995Y40770D01*
X150331Y40902D01*
X149829Y40802D01*
X148353Y42277D01*
Y44690D01*
X148268Y45119D01*
X148025Y45483D01*
X148024Y45483D01*
X147761Y45746D01*
X147735Y45812D01*
X147612Y45937D01*
X147482Y46082D01*
X147470Y46112D01*
X147483Y46164D01*
X147453Y46213D01*
Y54527D01*
X136410D01*
Y45453D01*
X143159D01*
X144197Y45023D01*
X144209Y45065D01*
X144494Y45008D01*
X144923Y45094D01*
X145062Y45186D01*
X145164Y45109D01*
X145279Y45011D01*
X145409Y44887D01*
X145473Y44863D01*
X146110Y44225D01*
Y41813D01*
X146110Y41813D01*
X146195Y41384D01*
X146418Y41050D01*
X146370Y40829D01*
X146255Y40550D01*
X136410D01*
Y31476D01*
X147453D01*
Y32260D01*
X147475Y32300D01*
X147487Y32414D01*
X147494Y32434D01*
X147507Y32453D01*
X147543Y32487D01*
X147625Y32537D01*
X147760Y32592D01*
X147952Y32643D01*
X148198Y32684D01*
X148495Y32710D01*
X148858Y32719D01*
X148898Y32737D01*
X160231D01*
X160856Y32861D01*
X161385Y33215D01*
X161782Y33611D01*
X162081D01*
X162237Y33566D01*
X162372Y33495D01*
X163677Y32165D01*
X164099Y31703D01*
X163999Y31264D01*
X163915Y31157D01*
X163637Y31101D01*
X163391Y30937D01*
X162891Y31205D01*
Y32000D01*
X158691D01*
Y28578D01*
X158614Y28463D01*
X158482Y27800D01*
X158614Y27137D01*
X158716Y26985D01*
Y23700D01*
X158716Y23400D01*
X158716Y22900D01*
Y19000D01*
X162916D01*
Y19850D01*
X163005Y19851D01*
X163125Y19901D01*
X163468Y19970D01*
X163865Y20235D01*
X165665Y22035D01*
X165905Y22394D01*
X166026Y22474D01*
X166401Y23037D01*
X166533Y23700D01*
X166401Y24363D01*
X166026Y24926D01*
X165463Y25301D01*
X164800Y25433D01*
X164137Y25301D01*
X163574Y24926D01*
X163416Y24688D01*
X162916Y24840D01*
Y27600D01*
X162916Y27600D01*
X162916D01*
X163205Y27964D01*
X163391Y28063D01*
X163637Y27899D01*
X164300Y27767D01*
X164963Y27899D01*
X165526Y28274D01*
X165901Y28837D01*
X166033Y29500D01*
X165929Y30025D01*
X166123Y30361D01*
X166278Y30499D01*
X166856Y30614D01*
X167419Y30990D01*
X167492Y31100D01*
X168500D01*
Y35216D01*
X169093D01*
Y39416D01*
X167822D01*
Y43100D01*
X168400D01*
Y44292D01*
X168600Y44592D01*
X168724Y45216D01*
X168600Y45840D01*
X168400Y46139D01*
Y47300D01*
X168400D01*
Y47600D01*
X168400D01*
Y51800D01*
X167483D01*
X167481Y51808D01*
X167465Y51905D01*
X167454Y52033D01*
X167449Y52205D01*
X167422Y52267D01*
Y53811D01*
X167524Y53965D01*
X167656Y54628D01*
X167537Y55228D01*
X167606Y55445D01*
X167758Y55728D01*
X170554D01*
Y56136D01*
X170978Y56339D01*
X171024Y56350D01*
X171074Y56274D01*
X171637Y55899D01*
X172300Y55767D01*
X172963Y55899D01*
X173526Y56274D01*
X173901Y56837D01*
X174033Y57500D01*
X173901Y58163D01*
X173526Y58726D01*
X172963Y59101D01*
X172300Y59233D01*
X171637Y59101D01*
X171074Y58726D01*
X171024Y58650D01*
X170978Y58661D01*
X170554Y58864D01*
Y59928D01*
X166354D01*
Y59928D01*
X166154D01*
Y59928D01*
X161954D01*
Y56008D01*
X161454Y55740D01*
X161363Y55801D01*
X160700Y55933D01*
X160503Y55894D01*
X160078Y56319D01*
X160133Y56600D01*
X160001Y57263D01*
X159626Y57826D01*
X159223Y58095D01*
X159220Y58102D01*
Y58114D01*
X159229Y58180D01*
X159220Y58192D01*
Y70400D01*
X159142Y70790D01*
X158921Y71121D01*
X148424Y81618D01*
X148615Y82080D01*
X157078D01*
X168696Y70462D01*
D02*
G37*
G36*
X169952Y58405D02*
X169982Y58320D01*
X170032Y58245D01*
X170102Y58180D01*
X170192Y58125D01*
X170302Y58080D01*
X170432Y58045D01*
X170582Y58020D01*
X170752Y58005D01*
X170942Y58000D01*
Y57000D01*
X170752Y56995D01*
X170582Y56980D01*
X170432Y56955D01*
X170302Y56920D01*
X170192Y56875D01*
X170102Y56820D01*
X170032Y56755D01*
X169982Y56680D01*
X169952Y56595D01*
X169942Y56500D01*
Y58500D01*
X169952Y58405D01*
D02*
G37*
G36*
X2601Y54489D02*
X2621Y54236D01*
X2633Y54168D01*
X2647Y54107D01*
X2664Y54054D01*
X2683Y54009D01*
X2705Y53972D01*
X2730Y53943D01*
X1470D01*
X1495Y53972D01*
X1517Y54009D01*
X1536Y54054D01*
X1553Y54107D01*
X1568Y54168D01*
X1579Y54236D01*
X1595Y54397D01*
X1599Y54489D01*
X1600Y54588D01*
X2600D01*
X2601Y54489D01*
D02*
G37*
G36*
X61243Y66127D02*
X61600Y65984D01*
Y65800D01*
X61986D01*
X61999Y65737D01*
X62374Y65174D01*
X62937Y64799D01*
X63508Y64685D01*
X63713Y64496D01*
X63898Y64216D01*
X63837Y63913D01*
Y59976D01*
X63960Y59357D01*
X64121Y59117D01*
X64138Y59047D01*
X64183Y59019D01*
X64204Y58970D01*
X64225Y58961D01*
X64311Y58833D01*
X64370Y58794D01*
X64373Y58778D01*
X64400Y58460D01*
X64403Y58262D01*
X64433Y58194D01*
Y58047D01*
X64511Y57657D01*
X64732Y57326D01*
X66469Y55590D01*
X66495Y55521D01*
X66508Y55507D01*
X66467Y55300D01*
X66599Y54637D01*
X66974Y54074D01*
X67537Y53699D01*
X68200Y53567D01*
X68863Y53699D01*
X69426Y54074D01*
X69801Y54637D01*
X69933Y55300D01*
X69906Y55435D01*
X70300Y55867D01*
X70963Y55999D01*
X71526Y56374D01*
X71901Y56937D01*
X72033Y57600D01*
X71901Y58263D01*
X71959Y58401D01*
X72370Y58483D01*
X72894Y58833D01*
X73026Y59031D01*
X73498D01*
X73882Y58636D01*
Y53924D01*
X71112Y51154D01*
X70570Y51319D01*
X70501Y51663D01*
X70126Y52226D01*
X69563Y52601D01*
X68900Y52733D01*
X68237Y52601D01*
X67900Y52376D01*
X67667D01*
X67330Y52601D01*
X66667Y52733D01*
X66003Y52601D01*
X65550Y52298D01*
X65097Y52601D01*
X64433Y52733D01*
X63770Y52601D01*
X63317Y52298D01*
X62863Y52601D01*
X62200Y52733D01*
X61537Y52601D01*
X60974Y52226D01*
X60599Y51663D01*
X60467Y51000D01*
X60599Y50337D01*
X60824Y50000D01*
Y49500D01*
X60599Y49163D01*
X60467Y48500D01*
X60500Y48333D01*
X60200Y48033D01*
X59537Y47901D01*
X58974Y47526D01*
X58599Y46963D01*
X58467Y46300D01*
X58599Y45637D01*
X58974Y45074D01*
X59537Y44699D01*
X60200Y44567D01*
X60863Y44699D01*
X61333Y45012D01*
X61647Y45027D01*
X61951Y44961D01*
X62062Y44780D01*
X61967Y44300D01*
X62099Y43637D01*
X62474Y43074D01*
X63037Y42699D01*
X63700Y42567D01*
X64363Y42699D01*
X64926Y43074D01*
X64996Y43180D01*
X67472D01*
X67729Y42967D01*
X67893Y42733D01*
X67867Y42600D01*
X67999Y41937D01*
X68374Y41374D01*
X68937Y40999D01*
X69600Y40867D01*
X70263Y40999D01*
X70669Y41269D01*
X71029Y40909D01*
X70999Y40863D01*
X70867Y40200D01*
X70999Y39537D01*
X71374Y38974D01*
X71937Y38599D01*
X72600Y38467D01*
X73263Y38599D01*
X73462Y38732D01*
X73556Y38737D01*
X73605Y38760D01*
X73658Y38750D01*
X73680Y38765D01*
X78682D01*
X78873Y38304D01*
X76487Y35917D01*
X76026Y36163D01*
X76033Y36200D01*
X75901Y36863D01*
X75526Y37426D01*
X74963Y37801D01*
X74300Y37933D01*
X73637Y37801D01*
X73074Y37426D01*
X72957Y37250D01*
X72938Y37249D01*
X72871Y37220D01*
X70400D01*
X70010Y37142D01*
X69679Y36921D01*
X67681Y34923D01*
X67460Y34593D01*
X67383Y34202D01*
Y32195D01*
X67316Y32168D01*
X66883Y32111D01*
X66534Y32634D01*
X65922Y33043D01*
X65200Y33186D01*
X64478Y33043D01*
X63866Y32634D01*
X63780Y32547D01*
X63751Y32561D01*
X63575Y33197D01*
X63601Y33237D01*
X63733Y33900D01*
X63601Y34563D01*
X63226Y35126D01*
X62663Y35501D01*
X62000Y35633D01*
X61337Y35501D01*
X60774Y35126D01*
X60399Y34563D01*
X60357Y34354D01*
X60263Y33901D01*
X59600Y34033D01*
X58937Y33901D01*
X58374Y33526D01*
X57999Y32963D01*
X57867Y32300D01*
X57999Y31637D01*
X58374Y31074D01*
X58937Y30699D01*
X59600Y30567D01*
X59847Y30616D01*
X59949Y30569D01*
X60352Y30207D01*
X60457Y29678D01*
X60147Y29243D01*
X59937Y29201D01*
X59374Y28826D01*
X58999Y28263D01*
X58867Y27600D01*
X58908Y27393D01*
X58895Y27379D01*
X58868Y27310D01*
X55379Y23821D01*
X55376Y23817D01*
X54886Y23719D01*
X54763Y23801D01*
X54100Y23933D01*
X54010Y23915D01*
X53996Y23930D01*
X53930Y23956D01*
X45222Y32665D01*
Y56852D01*
X45500Y56989D01*
X45722Y57043D01*
X46237Y56699D01*
X46900Y56567D01*
X47563Y56699D01*
X48126Y57074D01*
X48185Y57163D01*
X48685Y57012D01*
Y56127D01*
X47890Y55331D01*
X47821Y55305D01*
X47807Y55292D01*
X47600Y55333D01*
X46937Y55201D01*
X46374Y54826D01*
X45999Y54263D01*
X45867Y53600D01*
X45999Y52937D01*
X46374Y52374D01*
X46937Y51999D01*
X47600Y51867D01*
X48263Y51999D01*
X48826Y52374D01*
X49201Y52937D01*
X49333Y53600D01*
X49292Y53807D01*
X49305Y53821D01*
X49332Y53890D01*
X50426Y54984D01*
X50647Y55314D01*
X50724Y55705D01*
Y58194D01*
X50754Y58262D01*
X50758Y58468D01*
X50768Y58634D01*
X50783Y58769D01*
X50787Y58794D01*
X50847Y58833D01*
X50932Y58961D01*
X50954Y58970D01*
X50974Y59019D01*
X51019Y59047D01*
X51210Y59089D01*
X51580Y59031D01*
X51712Y58833D01*
X52236Y58483D01*
X52854Y58360D01*
X53473Y58483D01*
X53996Y58833D01*
X54128Y59031D01*
X54498Y59089D01*
X54689Y59047D01*
X54734Y59019D01*
X54755Y58970D01*
X54776Y58961D01*
X54862Y58833D01*
X54921Y58794D01*
X54924Y58778D01*
X54951Y58460D01*
X54955Y58262D01*
X54984Y58194D01*
Y57796D01*
X55062Y57406D01*
X55283Y57075D01*
X57379Y54979D01*
X57710Y54758D01*
X58100Y54680D01*
X61214D01*
X61337Y54599D01*
X62000Y54467D01*
X62663Y54599D01*
X63226Y54974D01*
X63601Y55537D01*
X63733Y56200D01*
X63601Y56863D01*
X63226Y57426D01*
X62663Y57801D01*
X62000Y57933D01*
X61510Y57836D01*
X61213Y57938D01*
X60998Y58176D01*
X60901Y58663D01*
X60542Y59202D01*
X60646Y59357D01*
X60769Y59976D01*
Y63913D01*
X60646Y64531D01*
X60296Y65055D01*
X60087Y65194D01*
X60193Y65725D01*
X60563Y65799D01*
X61100Y66157D01*
X61243Y66127D01*
D02*
G37*
G36*
X2705Y55428D02*
X2683Y55391D01*
X2664Y55346D01*
X2647Y55293D01*
X2633Y55232D01*
X2621Y55164D01*
X2605Y55003D01*
X2601Y54911D01*
X2600Y54812D01*
X1600D01*
X1599Y54911D01*
X1579Y55164D01*
X1568Y55232D01*
X1553Y55293D01*
X1536Y55346D01*
X1517Y55391D01*
X1495Y55428D01*
X1470Y55457D01*
X2730D01*
X2705Y55428D01*
D02*
G37*
G36*
X84944Y59217D02*
X84869Y59225D01*
X84802Y59209D01*
X84743Y59169D01*
X84692Y59106D01*
X84649Y59018D01*
X84613Y58907D01*
X84586Y58772D01*
X84566Y58613D01*
X84554Y58430D01*
X84550Y58224D01*
X83750Y58407D01*
X83747Y58548D01*
X83722Y58815D01*
X83700Y58941D01*
X83671Y59063D01*
X83637Y59179D01*
X83596Y59291D01*
X83548Y59397D01*
X83495Y59499D01*
X83435Y59596D01*
X84944Y59217D01*
D02*
G37*
G36*
X106801Y65395D02*
X106833Y65025D01*
X106860Y64875D01*
X106895Y64748D01*
X106938Y64644D01*
X106989Y64563D01*
X107047Y64505D01*
X107114Y64470D01*
X107188Y64459D01*
X105608D01*
X105682Y64470D01*
X105748Y64505D01*
X105807Y64563D01*
X105857Y64644D01*
X105900Y64748D01*
X105935Y64875D01*
X105963Y65025D01*
X105982Y65198D01*
X105994Y65395D01*
X105998Y65615D01*
X106798D01*
X106801Y65395D01*
D02*
G37*
G36*
X11157Y64470D02*
X11128Y64495D01*
X11091Y64517D01*
X11046Y64536D01*
X10993Y64553D01*
X10932Y64568D01*
X10864Y64579D01*
X10703Y64595D01*
X10611Y64599D01*
X10512Y64600D01*
Y65600D01*
X10611Y65601D01*
X10864Y65621D01*
X10932Y65632D01*
X10993Y65647D01*
X11046Y65664D01*
X11091Y65683D01*
X11128Y65705D01*
X11157Y65730D01*
Y64470D01*
D02*
G37*
G36*
X100686Y66210D02*
X100647Y66157D01*
X100613Y66099D01*
X100583Y66036D01*
X100557Y65969D01*
X100537Y65896D01*
X100521Y65818D01*
X100509Y65735D01*
X100502Y65647D01*
X100501Y65579D01*
X100504Y65394D01*
X100535Y65024D01*
X100562Y64873D01*
X100598Y64746D01*
X100640Y64642D01*
X100691Y64561D01*
X100750Y64503D01*
X100816Y64468D01*
X100890Y64456D01*
X99310Y64461D01*
X99384Y64472D01*
X99450Y64507D01*
X99509Y64564D01*
X99560Y64645D01*
X99603Y64749D01*
X99638Y64876D01*
X99665Y65026D01*
X99684Y65200D01*
X99696Y65396D01*
X99699Y65580D01*
X99698Y65647D01*
X99691Y65735D01*
X99679Y65818D01*
X99663Y65896D01*
X99642Y65969D01*
X99617Y66036D01*
X99587Y66099D01*
X99553Y66157D01*
X99514Y66210D01*
X99470Y66257D01*
X100730D01*
X100686Y66210D01*
D02*
G37*
G36*
X113939Y65432D02*
X113758Y65244D01*
X113493Y64922D01*
X113407Y64788D01*
X113354Y64671D01*
X113332Y64571D01*
X113341Y64489D01*
X113382Y64425D01*
X113455Y64378D01*
X113560Y64349D01*
X111996Y64613D01*
X111849Y64522D01*
X111759Y64481D01*
X111725Y64490D01*
X111747Y64550D01*
X111825Y64660D01*
X111959Y64820D01*
X112698Y65602D01*
X113056Y65963D01*
X113939Y65432D01*
D02*
G37*
G36*
X72354Y65491D02*
X72411Y64731D01*
X72436Y64609D01*
X72467Y64515D01*
X72502Y64447D01*
X72542Y64406D01*
X72586Y64393D01*
X70918D01*
X70962Y64406D01*
X71002Y64447D01*
X71037Y64515D01*
X71068Y64609D01*
X71093Y64731D01*
X71114Y64881D01*
X71143Y65260D01*
X71152Y65748D01*
X72352D01*
X72354Y65491D01*
D02*
G37*
G36*
X139241Y66441D02*
X141052Y65691D01*
X140756Y65680D01*
X140469Y65649D01*
X140191Y65596D01*
X139922Y65521D01*
X139661Y65426D01*
X139410Y65309D01*
X139167Y65171D01*
X138933Y65012D01*
X138707Y64832D01*
X138491Y64630D01*
X138711Y66971D01*
X139338Y67599D01*
X139241Y66441D01*
D02*
G37*
G36*
X96603Y67053D02*
X96614Y67011D01*
X96632Y66965D01*
X96657Y66916D01*
X96690Y66863D01*
X96730Y66806D01*
X96833Y66682D01*
X96895Y66614D01*
X96965Y66543D01*
X96257Y65835D01*
X96186Y65905D01*
X95994Y66070D01*
X95937Y66110D01*
X95884Y66143D01*
X95835Y66168D01*
X95789Y66186D01*
X95747Y66197D01*
X95709Y66200D01*
X96600Y67091D01*
X96603Y67053D01*
D02*
G37*
G36*
X69701Y69237D02*
X69739Y69075D01*
X69802Y68902D01*
X69892Y68719D01*
X70006Y68524D01*
X70146Y68319D01*
X70312Y68102D01*
X70719Y67637D01*
X70961Y67388D01*
X70537Y66115D01*
X70475Y66171D01*
X70407Y66222D01*
X70335Y66266D01*
X70258Y66305D01*
X70176Y66338D01*
X70088Y66365D01*
X69996Y66385D01*
X69898Y66400D01*
X69796Y66409D01*
X69688Y66412D01*
Y69388D01*
X69701Y69237D01*
D02*
G37*
G36*
X97849Y65316D02*
X97865Y64292D01*
X96715Y64845D01*
X96740Y64840D01*
X96763Y64849D01*
X96783Y64872D01*
X96801Y64911D01*
X96815Y64964D01*
X96827Y65032D01*
X96837Y65115D01*
X96847Y65324D01*
X96849Y65451D01*
X97849Y65316D01*
D02*
G37*
G36*
X134197Y69147D02*
X134373Y68884D01*
X134636Y68708D01*
X134947Y68646D01*
X136916D01*
X137227Y68708D01*
X137490Y68884D01*
X137639Y69106D01*
X137702Y69120D01*
X137864Y69125D01*
X138165Y69091D01*
X138216Y69021D01*
X138284Y68858D01*
X138337Y68835D01*
X138339Y68830D01*
X138355Y68814D01*
X138369Y68778D01*
X138393Y68695D01*
X138415Y68589D01*
X138466Y67994D01*
X138469Y67749D01*
X138492Y67696D01*
Y67671D01*
X138251Y67431D01*
X138228Y67375D01*
X136597Y65743D01*
X136546Y65725D01*
X135970Y65189D01*
X135740Y65006D01*
X135538Y64865D01*
X135424Y64800D01*
X134957D01*
X134867Y64837D01*
X134817Y64817D01*
X134765Y64829D01*
X134717Y64800D01*
X134143D01*
X134081Y64834D01*
X134046Y64823D01*
X134012Y64837D01*
X133922Y64800D01*
X133400D01*
Y64319D01*
X133366Y64257D01*
X133363Y64228D01*
X133347Y64218D01*
X133267Y64186D01*
X133141Y64152D01*
X132971Y64124D01*
X132760Y64106D01*
X132495Y64099D01*
X132444Y64076D01*
X130028D01*
X129937Y64531D01*
X129587Y65055D01*
X129063Y65405D01*
X128445Y65528D01*
X127827Y65405D01*
X127303Y65055D01*
X127171Y64857D01*
X126569D01*
X126437Y65055D01*
X126352Y65713D01*
X126501Y65937D01*
X126615Y66509D01*
X127063Y66599D01*
X127626Y66974D01*
X128001Y67537D01*
X128133Y68200D01*
X128130Y68216D01*
X128396Y68483D01*
X128568Y68580D01*
X129163Y68699D01*
X129726Y69074D01*
X129863Y69280D01*
X134170D01*
X134197Y69147D01*
D02*
G37*
G36*
X169088Y66412D02*
X169063Y66402D01*
X169040Y66372D01*
X169020Y66322D01*
X169002Y66252D01*
X168988Y66162D01*
X168976Y66052D01*
X168958Y65662D01*
X168959Y65624D01*
X168974Y65452D01*
X168999Y65300D01*
X169034Y65169D01*
X169079Y65057D01*
X169134Y64966D01*
X169199Y64895D01*
X169274Y64845D01*
X169359Y64815D01*
X169454Y64804D01*
X167454D01*
X167549Y64815D01*
X167634Y64845D01*
X167709Y64895D01*
X167774Y64966D01*
X167829Y65057D01*
X167874Y65169D01*
X167909Y65300D01*
X167934Y65452D01*
X167948Y65614D01*
X167934Y65775D01*
X167909Y65927D01*
X167874Y66058D01*
X167829Y66169D01*
X167774Y66260D01*
X167709Y66331D01*
X167634Y66382D01*
X167549Y66413D01*
X167454Y66424D01*
X169088Y66412D01*
D02*
G37*
G36*
X166978Y63875D02*
X166987Y63872D01*
X167048Y63859D01*
X167116Y63848D01*
X167277Y63833D01*
X167469Y63828D01*
X167507Y62828D01*
X167407Y62827D01*
X167155Y62806D01*
X167087Y62794D01*
X167026Y62779D01*
X166978Y62762D01*
Y62555D01*
X166971Y62607D01*
X166947Y62653D01*
X166908Y62694D01*
X166884Y62710D01*
X166862Y62691D01*
X166861Y62724D01*
X166853Y62730D01*
X166782Y62760D01*
X166696Y62785D01*
X166594Y62804D01*
X166476Y62817D01*
X166342Y62826D01*
X166193Y62828D01*
X166067Y62827D01*
X165769Y62804D01*
X165696Y62791D01*
X165636Y62774D01*
X165590Y62755D01*
X165557Y62732D01*
X165538Y62708D01*
X165538Y62691D01*
X165534Y62694D01*
X165530Y62678D01*
Y62697D01*
X165508Y62717D01*
X165471Y62740D01*
X165427Y62761D01*
X165374Y62779D01*
X165313Y62794D01*
X165245Y62806D01*
X165169Y62816D01*
X164993Y62827D01*
X164893Y62828D01*
X164931Y63828D01*
X165031Y63830D01*
X165284Y63848D01*
X165352Y63859D01*
X165413Y63872D01*
X165466Y63888D01*
X165511Y63906D01*
X165530Y63917D01*
Y63979D01*
X165537Y63950D01*
X165552Y63930D01*
X165577Y63950D01*
X165576Y63911D01*
X165590Y63902D01*
X165636Y63883D01*
X165696Y63866D01*
X165769Y63852D01*
X165855Y63842D01*
X166067Y63830D01*
X166193Y63828D01*
X166342Y63831D01*
X166594Y63853D01*
X166696Y63872D01*
X166782Y63897D01*
X166824Y63914D01*
X166823Y63950D01*
X166852Y63927D01*
X166852Y63927D01*
X166853Y63927D01*
X166908Y63962D01*
X166947Y64003D01*
X166971Y64050D01*
X166978Y64102D01*
Y63875D01*
D02*
G37*
G36*
X138049Y64188D02*
X137752Y63880D01*
X137285Y63329D01*
X137115Y63085D01*
X136988Y62862D01*
X136903Y62661D01*
X136861Y62480D01*
Y62321D01*
X136903Y62183D01*
X136988Y62067D01*
X134867Y64188D01*
X134983Y64103D01*
X135121Y64061D01*
X135280D01*
X135461Y64103D01*
X135662Y64188D01*
X135885Y64315D01*
X136129Y64485D01*
X136394Y64697D01*
X136988Y65249D01*
X138049Y64188D01*
D02*
G37*
G36*
X2702Y63753D02*
X2709Y63665D01*
X2721Y63582D01*
X2737Y63504D01*
X2757Y63431D01*
X2783Y63363D01*
X2813Y63301D01*
X2847Y63243D01*
X2886Y63190D01*
X2930Y63143D01*
X1670D01*
X1714Y63190D01*
X1753Y63243D01*
X1787Y63301D01*
X1817Y63363D01*
X1843Y63431D01*
X1863Y63504D01*
X1879Y63582D01*
X1891Y63665D01*
X1898Y63753D01*
X1900Y63846D01*
X2700D01*
X2702Y63753D01*
D02*
G37*
G36*
X134012Y61212D02*
X133997Y61352D01*
X133952Y61478D01*
X133877Y61588D01*
X133772Y61684D01*
X133637Y61765D01*
X133472Y61832D01*
X133277Y61884D01*
X133052Y61920D01*
X132797Y61943D01*
X132512Y61950D01*
Y63450D01*
X132797Y63457D01*
X133052Y63480D01*
X133277Y63516D01*
X133472Y63568D01*
X133637Y63635D01*
X133772Y63716D01*
X133877Y63812D01*
X133952Y63922D01*
X133997Y64048D01*
X134012Y64188D01*
Y61212D01*
D02*
G37*
G36*
X3203Y62426D02*
X3212Y62362D01*
X3229Y62296D01*
X3252Y62231D01*
X3282Y62165D01*
X3319Y62099D01*
X3363Y62032D01*
X3413Y61966D01*
X3471Y61898D01*
X3535Y61831D01*
X2969Y61265D01*
X2902Y61329D01*
X2834Y61387D01*
X2768Y61437D01*
X2701Y61481D01*
X2635Y61518D01*
X2569Y61548D01*
X2504Y61571D01*
X2438Y61588D01*
X2374Y61597D01*
X2309Y61600D01*
X3200Y62491D01*
X3203Y62426D01*
D02*
G37*
G36*
X54012Y66408D02*
X53884Y66362D01*
X53772Y66286D01*
X53674Y66180D01*
X53592Y66043D01*
X53524Y65877D01*
X53472Y65681D01*
X53443Y65505D01*
X53463Y65247D01*
X53496Y65046D01*
X53536Y64862D01*
X53584Y64695D01*
X53638Y64544D01*
X53701Y64410D01*
X53770Y64292D01*
X51938D01*
X51932Y64296D01*
X51926Y64329D01*
X51921Y64390D01*
X51908Y64912D01*
X51904D01*
X51907Y64921D01*
X51907Y64921D01*
X51904Y65620D01*
X52181Y65730D01*
X52412Y66412D01*
X54154Y66424D01*
X54012Y66408D01*
D02*
G37*
G36*
X8524Y64100D02*
X8514Y64195D01*
X8484Y64280D01*
X8433Y64355D01*
X8362Y64420D01*
X8271Y64475D01*
X8160Y64520D01*
X8028Y64555D01*
X7876Y64580D01*
X7704Y64595D01*
X7512Y64600D01*
Y65600D01*
X7704Y65605D01*
X7876Y65620D01*
X8028Y65645D01*
X8160Y65680D01*
X8271Y65725D01*
X8362Y65780D01*
X8433Y65845D01*
X8484Y65920D01*
X8514Y66005D01*
X8524Y66100D01*
Y64100D01*
D02*
G37*
G36*
X6386Y66005D02*
X6417Y65920D01*
X6467Y65845D01*
X6538Y65780D01*
X6629Y65725D01*
X6740Y65680D01*
X6872Y65645D01*
X7024Y65620D01*
X7196Y65605D01*
X7388Y65600D01*
Y64600D01*
X7196Y64595D01*
X7024Y64580D01*
X6872Y64555D01*
X6740Y64520D01*
X6629Y64475D01*
X6538Y64420D01*
X6467Y64355D01*
X6417Y64280D01*
X6386Y64195D01*
X6376Y64100D01*
Y66100D01*
X6386Y66005D01*
D02*
G37*
%LPC*%
G36*
X133900Y53533D02*
X133237Y53401D01*
X132674Y53026D01*
X132299Y52463D01*
X132167Y51800D01*
X132299Y51137D01*
X132674Y50574D01*
X133237Y50199D01*
X133900Y50067D01*
X134563Y50199D01*
X135126Y50574D01*
X135501Y51137D01*
X135633Y51800D01*
X135501Y52463D01*
X135126Y53026D01*
X134563Y53401D01*
X133900Y53533D01*
D02*
G37*
G36*
X90650Y21040D02*
X90031Y20917D01*
X89507Y20567D01*
X89157Y20042D01*
X89034Y19424D01*
Y15487D01*
X89157Y14869D01*
X89507Y14345D01*
X90031Y13995D01*
X90650Y13872D01*
X91268Y13995D01*
X91792Y14345D01*
X92142Y14869D01*
X92265Y15487D01*
Y19424D01*
X92142Y20042D01*
X91792Y20567D01*
X91268Y20917D01*
X90650Y21040D01*
D02*
G37*
G36*
X189700Y27333D02*
X189037Y27201D01*
X188474Y26826D01*
X188099Y26263D01*
X187967Y25600D01*
X188099Y24937D01*
X188474Y24374D01*
X189037Y23999D01*
X189700Y23867D01*
X190363Y23999D01*
X190926Y24374D01*
X191301Y24937D01*
X191433Y25600D01*
X191301Y26263D01*
X190926Y26826D01*
X190363Y27201D01*
X189700Y27333D01*
D02*
G37*
G36*
X148700Y68733D02*
X148037Y68601D01*
X147474Y68226D01*
X147099Y67663D01*
X146967Y67000D01*
X147099Y66337D01*
X147474Y65774D01*
X148037Y65399D01*
X148700Y65267D01*
X148771Y65208D01*
Y60767D01*
X148744Y60705D01*
X148739Y60532D01*
X148728Y60405D01*
X148712Y60308D01*
X148710Y60300D01*
X147900D01*
Y56100D01*
X148375D01*
X148418Y56076D01*
X148746Y55600D01*
X148667Y55200D01*
X148799Y54537D01*
X149055Y54153D01*
Y53469D01*
X149067Y53407D01*
X149060Y53395D01*
X148955Y52868D01*
Y51760D01*
X148932Y51711D01*
X148915Y51193D01*
X148895Y51011D01*
X148871Y50863D01*
X148854Y50800D01*
X148500D01*
Y50280D01*
X148463Y50191D01*
X148485Y50137D01*
X148472Y50080D01*
X148500Y50035D01*
Y46600D01*
X152700D01*
Y50800D01*
X152606D01*
X152508Y50997D01*
X152701Y51300D01*
X153700D01*
Y55500D01*
X152523D01*
X152344Y55707D01*
X152100Y56100D01*
X152100D01*
X152100Y56100D01*
Y60300D01*
X151076D01*
X151074Y60308D01*
X151058Y60405D01*
X151047Y60532D01*
X151042Y60705D01*
X151014Y60767D01*
Y65807D01*
X150929Y66236D01*
X150686Y66600D01*
X150686Y66600D01*
X150456Y66830D01*
X150430Y66896D01*
X150416Y66910D01*
X150433Y67000D01*
X150301Y67663D01*
X149926Y68226D01*
X149363Y68601D01*
X148700Y68733D01*
D02*
G37*
G36*
X133800Y47133D02*
X133137Y47001D01*
X132574Y46626D01*
X132199Y46063D01*
X132067Y45400D01*
X132169Y44888D01*
Y44323D01*
X132173Y44300D01*
X132169Y44277D01*
Y37012D01*
X132067Y36500D01*
X132169Y35987D01*
Y34912D01*
X132067Y34400D01*
X132199Y33737D01*
X132574Y33174D01*
X133137Y32799D01*
X133800Y32667D01*
X134463Y32799D01*
X135026Y33174D01*
X135401Y33737D01*
X135533Y34400D01*
X135431Y34912D01*
Y35987D01*
X135533Y36500D01*
X135431Y37012D01*
Y44185D01*
X135454Y44300D01*
X135431Y44415D01*
Y44888D01*
X135533Y45400D01*
X135401Y46063D01*
X135026Y46626D01*
X134463Y47001D01*
X133800Y47133D01*
D02*
G37*
G36*
X150100Y25433D02*
X149437Y25301D01*
X148874Y24926D01*
X148499Y24363D01*
X148367Y23700D01*
X148499Y23037D01*
X148874Y22474D01*
X149437Y22099D01*
X150100Y21967D01*
X150763Y22099D01*
X151326Y22474D01*
X151701Y23037D01*
X151833Y23700D01*
X151701Y24363D01*
X151326Y24926D01*
X150763Y25301D01*
X150100Y25433D01*
D02*
G37*
%LPD*%
G36*
X151689Y52008D02*
X151561Y51962D01*
X151449Y51886D01*
X151351Y51780D01*
X151269Y51643D01*
X151201Y51477D01*
X151149Y51281D01*
X151119Y51100D01*
X151149Y50918D01*
X151201Y50722D01*
X151269Y50556D01*
X151351Y50419D01*
X151449Y50314D01*
X151561Y50238D01*
X151689Y50192D01*
X151831Y50176D01*
X149112Y50188D01*
X149201Y50203D01*
X149281Y50248D01*
X149351Y50323D01*
X149413Y50428D01*
X149464Y50563D01*
X149506Y50728D01*
X149539Y50923D01*
X149563Y51148D01*
X149582Y51688D01*
X149997D01*
X150112Y52012D01*
X151831Y52024D01*
X151689Y52008D01*
D02*
G37*
G36*
X149603Y66953D02*
X149614Y66911D01*
X149632Y66865D01*
X149657Y66816D01*
X149690Y66763D01*
X149730Y66706D01*
X149833Y66582D01*
X149895Y66514D01*
X149964Y66443D01*
X149257Y65736D01*
X149186Y65805D01*
X148994Y65970D01*
X148937Y66010D01*
X148884Y66043D01*
X148835Y66068D01*
X148789Y66086D01*
X148747Y66097D01*
X148709Y66100D01*
X149600Y66991D01*
X149603Y66953D01*
D02*
G37*
G36*
X150398Y60496D02*
X150413Y60324D01*
X150438Y60172D01*
X150473Y60040D01*
X150518Y59929D01*
X150573Y59838D01*
X150638Y59767D01*
X150713Y59716D01*
X150798Y59686D01*
X150893Y59676D01*
X148893D01*
X148988Y59686D01*
X149073Y59716D01*
X149148Y59767D01*
X149213Y59838D01*
X149268Y59929D01*
X149313Y60040D01*
X149348Y60172D01*
X149373Y60324D01*
X149388Y60496D01*
X149393Y60688D01*
X150393D01*
X150398Y60496D01*
D02*
G37*
D10*
X37680Y16980D02*
G03*
X36653Y14500I2480J-2480D01*
G01*
X145396Y46525D02*
G03*
X142916Y47553I-2480J-2480D01*
G01*
X167869Y65609D02*
G03*
X168954Y64194I2251J603D01*
G01*
X167588Y63828D02*
G03*
X167838Y65724I-2163J1249D01*
G01*
X171930Y34944D02*
G03*
X171649Y36780I-2232J598D01*
G01*
X11101Y45523D02*
G03*
X10771Y46470I-1308J75D01*
G01*
X18509Y74500D02*
G03*
X16754Y73724I60J-2508D01*
G01*
X17259Y72899D02*
G03*
X18100Y74902I-1997J2017D01*
G01*
X15454Y71528D02*
G03*
X13479Y71489I-942J-2403D01*
G01*
X13908Y71107D02*
G03*
X15257Y72106I-531J2128D01*
G01*
X15434Y71324D02*
G03*
X16962Y71591I490J1701D01*
G01*
X18723Y72232D02*
G03*
X20884Y72366I993J1474D01*
G01*
X18165Y71402D02*
G03*
X19901Y71510I798J1185D01*
G01*
X18364Y71524D02*
G03*
X16404Y71435I-873J-2410D01*
G01*
X19308Y73543D02*
G03*
X18892Y71980I1367J-1201D01*
G01*
X18504Y72300D02*
G03*
X20082Y72937I20J2224D01*
G01*
X21292Y71515D02*
G03*
X19432Y71095I-543J-1926D01*
G01*
X11534Y26538D02*
G03*
X10996Y25188I482J-974D01*
G01*
X35310Y23964D02*
G03*
X38252Y26735I-771J3766D01*
G01*
X37435Y27551D02*
G03*
X34664Y24610I995J-3713D01*
G01*
X35310Y13964D02*
G03*
X38252Y16735I-771J3766D01*
G01*
X37435Y17552D02*
G03*
X34664Y14610I995J-3713D01*
G01*
X37680Y16980D02*
G03*
X36653Y14500I2480J-2480D01*
G01*
X10881Y45427D02*
G03*
X11179Y43296I1607J-862D01*
G01*
X10000Y45900D02*
G03*
X10226Y44278I1223J-656D01*
G01*
X11176Y23667D02*
G03*
X12320Y22308I2024J542D01*
G01*
X11034Y21900D02*
G03*
X11237Y23441I-1758J1015D01*
G01*
X12341Y71188D02*
G03*
X10858Y70086I588J-2341D01*
G01*
X10514Y71458D02*
G03*
X12342Y71188I1240J2072D01*
G01*
X15936Y71199D02*
G03*
X17173Y73000I-686J1796D01*
G01*
X10000Y26000D02*
G03*
X10254Y24442I1134J-615D01*
G01*
X145396Y46525D02*
G03*
X142916Y47553I-2480J-2480D01*
G01*
X141359Y49845D02*
G03*
X144494Y46130I4235J393D01*
G01*
X167600Y67900D02*
G03*
X167368Y66370I841J-910D01*
G01*
X162246Y66911D02*
G03*
X160082Y65440I440J-2975D01*
G01*
X167869Y65609D02*
G03*
X168954Y64194I2251J603D01*
G01*
X167588Y63828D02*
G03*
X167838Y65724I-2163J1249D01*
G01*
X167869Y65609D02*
G03*
X168954Y64194I2251J603D01*
G01*
X167588Y63828D02*
G03*
X167838Y65724I-2163J1249D01*
G01*
X173038Y40049D02*
G03*
X173350Y37831I2769J-742D01*
G01*
X171930Y34944D02*
G03*
X171649Y36780I-2232J598D01*
G01*
X171930Y34944D02*
G03*
X171649Y36780I-2232J598D01*
G01*
X159302Y46610D02*
G03*
X160803Y47842I-609J2273D01*
G01*
X161200Y46534D02*
G03*
X159736Y46727I-965J-1671D01*
G01*
X122500Y79100D02*
G03*
X124071Y78892I921J917D01*
G01*
X11101Y45523D02*
G03*
X10771Y46470I-1308J75D01*
G01*
X11101Y45523D02*
G03*
X10771Y46470I-1308J75D01*
G01*
X10996Y45825D02*
G03*
X11169Y44630I772J-499D01*
G01*
X158075Y46504D02*
G03*
X160162Y46863I610J2698D01*
G01*
X16787Y73994D02*
G03*
X18149Y75092I-644J2192D01*
G01*
X18698Y74553D02*
G03*
X17627Y73171I1133J-1984D01*
G01*
X18509Y74500D02*
G03*
X16754Y73724I60J-2508D01*
G01*
X17259Y72899D02*
G03*
X18100Y74902I-1997J2017D01*
G01*
X18509Y74500D02*
G03*
X16754Y73724I60J-2508D01*
G01*
X17259Y72899D02*
G03*
X18100Y74902I-1997J2017D01*
G01*
X15454Y71527D02*
G03*
X14450Y71327I-345J-883D01*
G01*
X15145Y71509D02*
G03*
X16860Y71275I989J851D01*
G01*
X15454Y71528D02*
G03*
X13479Y71489I-942J-2403D01*
G01*
X13908Y71107D02*
G03*
X15257Y72106I-531J2128D01*
G01*
X15434Y71324D02*
G03*
X16962Y71591I490J1701D01*
G01*
X15496Y71514D02*
G03*
X13763Y71285I-591J-2207D01*
G01*
X15454Y71528D02*
G03*
X13479Y71489I-942J-2403D01*
G01*
X13908Y71107D02*
G03*
X15257Y72106I-531J2128D01*
G01*
X15434Y71324D02*
G03*
X16962Y71591I490J1701D01*
G01*
X18396Y71514D02*
G03*
X16663Y71285I-591J-2207D01*
G01*
X18413Y71510D02*
G03*
X17261Y71159I-266J-1195D01*
G01*
X18723Y72232D02*
G03*
X20884Y72366I993J1474D01*
G01*
X18165Y71402D02*
G03*
X19901Y71510I798J1185D01*
G01*
X18723Y72232D02*
G03*
X20884Y72366I993J1474D01*
G01*
X18165Y71402D02*
G03*
X19901Y71510I798J1185D01*
G01*
X18364Y71524D02*
G03*
X16404Y71435I-873J-2410D01*
G01*
X19308Y73543D02*
G03*
X18892Y71980I1367J-1201D01*
G01*
X18504Y72300D02*
G03*
X20082Y72937I20J2224D01*
G01*
X18364Y71524D02*
G03*
X16404Y71435I-873J-2410D01*
G01*
X19308Y73543D02*
G03*
X18892Y71980I1367J-1201D01*
G01*
X18504Y72300D02*
G03*
X20082Y72937I20J2224D01*
G01*
X21292Y71515D02*
G03*
X19432Y71095I-543J-1926D01*
G01*
X21292Y71515D02*
G03*
X19432Y71095I-543J-1926D01*
G01*
X11534Y26538D02*
G03*
X10996Y25188I482J-974D01*
G01*
X11534Y26538D02*
G03*
X10996Y25188I482J-974D01*
G01*
X98800Y82900D02*
X106400D01*
X106500Y83000D01*
X107900Y81600D01*
X165923Y54628D02*
X166072D01*
X166100Y54600D01*
X166300Y54400D01*
X168028Y57500D02*
X172300D01*
X167700Y57828D02*
X168028Y57500D01*
X164054Y57828D02*
X167700D01*
X112800Y13100D02*
X113000Y12900D01*
X166700Y44823D02*
X167093Y45216D01*
X166700Y37609D02*
Y44823D01*
Y37609D02*
X166993Y37316D01*
X35200Y24500D02*
X40900Y30200D01*
Y76616D01*
X21200Y73009D02*
Y74900D01*
X15600Y72100D02*
X18400D01*
X2200Y12000D02*
Y19100D01*
X2100Y32900D02*
X4400D01*
X2100Y52400D02*
X4600D01*
X70400Y26200D02*
X70500Y26100D01*
X70400Y26200D02*
Y28800D01*
X63800Y22900D02*
Y29900D01*
X62303Y21403D02*
X63800Y22900D01*
X62303Y17456D02*
Y21403D01*
X110300Y80300D02*
Y82600D01*
Y80300D02*
X110400Y80200D01*
X122200D01*
X122500Y79900D01*
X107400Y85500D02*
X110300Y82600D01*
X122500Y79700D02*
X122809Y80009D01*
X122500Y79700D02*
Y79900D01*
Y79100D02*
Y79700D01*
X154000Y71000D02*
Y71100D01*
X75025Y70200D02*
X75325Y70500D01*
X114800Y67000D02*
X117700D01*
X112497Y64697D02*
X114800Y67000D01*
X107900Y76200D02*
Y81600D01*
X107300Y75600D02*
X107900Y76200D01*
X106400Y62342D02*
X106798Y61944D01*
X109900Y61991D02*
X109947Y61944D01*
X97349D02*
Y65451D01*
X112800Y17159D02*
X113097Y17456D01*
X112800Y13100D02*
Y17159D01*
X109700Y17209D02*
X109947Y17456D01*
X109700Y12700D02*
Y17209D01*
Y12700D02*
X109800Y12600D01*
X115600Y61298D02*
X116246Y61944D01*
X44100Y69113D02*
X46609Y71622D01*
X44100Y32200D02*
Y69113D01*
Y32200D02*
X54100Y22200D01*
X39300Y38600D02*
Y68000D01*
X35200Y34500D02*
X39300Y38600D01*
X145091Y80009D02*
X154000Y71100D01*
X122809Y80009D02*
X145091D01*
X75325Y80500D02*
Y85500D01*
X103475D02*
X107400D01*
X95700Y67100D02*
X97349Y65451D01*
X116200Y17502D02*
X116246Y17456D01*
X31100Y48600D02*
Y66800D01*
Y48600D02*
X35200Y44500D01*
Y14500D02*
X42500Y21800D01*
X16300Y80200D02*
X19300D01*
X14800Y78700D02*
X16300Y80200D01*
X18309Y61591D02*
X21200D01*
X7700Y67800D02*
X12100D01*
X155291Y19324D02*
Y28100D01*
X155316Y19300D02*
X155716Y19700D01*
X155916D01*
X155291Y19324D02*
X155316Y19300D01*
X169189Y41663D02*
X173520D01*
X172493Y40636D02*
X173520Y41663D01*
X172493Y37316D02*
Y40636D01*
Y32316D02*
Y37316D01*
X164054Y63328D02*
X166193D01*
X147231Y41813D02*
X149876Y39169D01*
X150331D01*
X141931Y49990D02*
X147231Y44690D01*
Y41813D02*
Y44690D01*
X141931Y46613D02*
Y49990D01*
X158000Y45700D02*
Y47368D01*
Y49637D01*
Y47368D02*
X162132D01*
X156532Y45700D02*
X158000D01*
X154063D02*
X156532D01*
Y42369D02*
Y42768D01*
X158000Y49637D02*
X158031D01*
X154063D02*
X158000D01*
X154063Y45700D02*
Y49637D01*
X154532Y37868D02*
X156532D01*
X4900Y70600D02*
X7700Y67800D01*
X11440Y12900D02*
Y16047D01*
X10000Y51000D02*
X20309D01*
X24300Y74900D02*
X27100D01*
X24000D02*
X24300D01*
X30100Y71900D02*
Y74900D01*
X27800Y50700D02*
Y53200D01*
X2100Y52400D02*
Y53300D01*
Y50900D02*
Y52400D01*
Y53300D02*
Y56100D01*
Y32900D02*
Y33800D01*
Y31100D02*
Y32900D01*
Y33800D02*
Y36500D01*
X2200Y12000D02*
X4300D01*
X4900Y65100D02*
X10000D01*
Y70600D02*
X18791D01*
X10000Y26000D02*
X11800D01*
X10000Y45500D02*
X11500D01*
X10000Y65100D02*
X11800D01*
Y21700D02*
Y26000D01*
Y41300D02*
Y45500D01*
X176863Y41663D02*
X177300Y42100D01*
X174120Y41663D02*
X176863D01*
X172593Y47500D02*
Y49800D01*
X172700Y47600D02*
X176700D01*
X46955Y21655D02*
X47400Y22100D01*
X148700Y67000D02*
X149893Y65807D01*
X168454Y63328D02*
Y67854D01*
X168500Y67900D01*
X166300Y49700D02*
Y50509D01*
Y54400D01*
X167093Y45216D02*
Y49716D01*
X166300Y50509D02*
X167093Y49716D01*
X160700Y66500D02*
X162100Y67900D01*
X154500Y57800D02*
X154600Y57900D01*
X154500Y50074D02*
Y57800D01*
X154063Y49637D02*
X154500Y50074D01*
X150331Y42768D02*
X156532D01*
Y45700D01*
X46955Y17456D02*
Y21655D01*
X160700Y60735D02*
Y65065D01*
Y66500D01*
Y60335D02*
Y60735D01*
X166193Y63300D02*
Y63328D01*
X168454D01*
X149893Y56416D02*
Y65807D01*
X160434Y53534D02*
X161100Y52868D01*
X53100Y77100D02*
Y79400D01*
X40884Y83084D02*
X42000Y84200D01*
X43215D01*
X43229Y84213D01*
X42553Y85800D02*
X42566Y85813D01*
X41890Y87400D02*
X41903Y87413D01*
X52487D01*
X57800Y82100D01*
X42566Y85813D02*
X49387D01*
X56700Y78500D01*
X43229Y84213D02*
X48287D01*
X53100Y79400D01*
X27200Y74900D02*
Y77600D01*
X27700Y78100D01*
Y80100D01*
X27600Y80200D02*
X27700Y80100D01*
X40884Y80568D02*
Y83084D01*
X38916Y83716D02*
X41000Y85800D01*
X38916Y80568D02*
Y83716D01*
X41000Y85800D02*
X42553D01*
X36600Y80817D02*
X36849Y80568D01*
Y84349D01*
X39900Y87400D01*
X41890D01*
X42983Y80600D02*
X44200D01*
X42951Y80568D02*
X42983Y80600D01*
X44200D02*
X46609Y78191D01*
Y71622D02*
Y78191D01*
X42500Y69776D02*
X43062Y70338D01*
Y76521D01*
X42951Y76631D02*
X43062Y76521D01*
X42500Y22400D02*
Y69776D01*
X40884Y76631D02*
X40900Y76616D01*
X36849Y72549D02*
Y76631D01*
X31100Y66800D02*
X36849Y72549D01*
X38900Y68400D02*
X39300Y68000D01*
X38900Y68400D02*
Y76500D01*
X139868Y70549D02*
Y76651D01*
X117700Y67000D02*
X120500Y69800D01*
D11*
X88057Y14405D02*
G03*
X87383Y15284I-1398J-375D01*
G01*
X21711Y28280D02*
G03*
X20377Y28260I-655J-883D01*
G01*
X24273Y28321D02*
G03*
X23055Y28706I-834J-519D01*
G01*
X88057Y14405D02*
G03*
X87383Y15284I-1398J-375D01*
G01*
X88057Y14405D02*
G03*
X87383Y15284I-1398J-375D01*
G01*
X21711Y28280D02*
G03*
X20377Y28260I-655J-883D01*
G01*
X21711Y28280D02*
G03*
X20377Y28260I-655J-883D01*
G01*
X24273Y28321D02*
G03*
X23055Y28706I-834J-519D01*
G01*
X24273Y28321D02*
G03*
X23055Y28706I-834J-519D01*
G01*
X105200Y70600D02*
Y72700D01*
X107400Y68400D02*
X109500Y70500D01*
X118000Y9900D02*
X119900D01*
X16200Y28700D02*
X18900D01*
X66667Y48767D02*
X68900Y51000D01*
X64300Y50900D02*
X64433Y50767D01*
X64300Y50900D02*
X66567D01*
X66667Y50800D01*
X64300Y50900D02*
Y51000D01*
X64433Y49700D02*
X66667D01*
X62400D02*
X64433D01*
X66667Y48767D02*
Y49700D01*
Y48500D02*
Y48767D01*
Y49700D02*
Y50800D01*
X64433Y49700D02*
Y50767D01*
Y48500D02*
Y49700D01*
X62200Y49900D02*
Y51000D01*
Y48500D02*
Y49900D01*
X62400Y49700D01*
X64433Y48500D02*
X66667D01*
X62200D02*
X64433D01*
X62200Y51000D02*
X62300Y50900D01*
X64300D01*
X66567D02*
X66667Y51000D01*
X68900D01*
X89100Y12100D02*
X89400Y11800D01*
X81201Y61944D02*
Y71600D01*
X81600D01*
X79900Y56300D02*
X81201Y57601D01*
Y61944D01*
X71552Y17456D02*
X71752Y17656D01*
Y23352D01*
Y17456D02*
Y17656D01*
Y23352D02*
X71800Y23400D01*
Y23600D01*
X24400Y28700D02*
Y30500D01*
X21800Y28700D02*
Y30600D01*
X13100Y31500D02*
X16050Y28550D01*
X10000Y31500D02*
X13100D01*
X115000Y74700D02*
X115900Y75600D01*
X114900Y74600D02*
X115000Y74700D01*
Y77100D01*
Y72200D02*
Y74700D01*
X115900Y75600D02*
X118100D01*
X135500Y62700D02*
X139241Y66441D01*
X142059D02*
X142500Y66000D01*
X139241Y66441D02*
X142059D01*
X109500Y70500D02*
Y72200D01*
X102775Y70600D02*
X105200D01*
X62303Y12103D02*
Y17456D01*
X79800Y23500D02*
X81200Y22100D01*
Y14509D02*
Y22100D01*
Y14509D02*
X83300Y12409D01*
X93800Y24500D02*
X95300Y26000D01*
X93800Y17657D02*
Y24500D01*
X93599Y17456D02*
X93800Y17657D01*
X90600Y67200D02*
X92500Y69100D01*
X90600Y62094D02*
Y67200D01*
X90450Y61944D02*
X90600Y62094D01*
X46355Y61944D02*
Y64955D01*
X46555Y58645D02*
X46900Y58300D01*
X46555Y58645D02*
Y61944D01*
X46355Y64955D02*
X49300Y67900D01*
X99898Y17456D02*
Y23502D01*
X99400Y24000D02*
X99898Y23502D01*
X65000Y73200D02*
Y80600D01*
X87300Y13300D02*
X88800Y11800D01*
X83900D02*
Y11900D01*
X83650Y12150D02*
X83900Y11900D01*
X83300Y11800D02*
Y12409D01*
X53900Y67900D02*
X54600Y67200D01*
X68000Y83600D02*
X69400D01*
X65000Y80600D02*
X68000Y83600D01*
X65200Y73400D02*
X67400D01*
X65000Y73200D02*
X65200Y73400D01*
X49300Y67900D02*
X53900D01*
X52654Y66654D02*
X53900Y67900D01*
X52654Y61944D02*
Y66654D01*
X129601Y62700D02*
X135500D01*
X128845Y61944D02*
X129601Y62700D01*
X73500Y8400D02*
Y11800D01*
X141931Y34369D02*
Y36013D01*
X162031Y37868D02*
Y42369D01*
X157531Y52868D02*
X160400D01*
X150080Y56603D02*
X150493Y56190D01*
X144400Y57600D02*
Y60300D01*
X142000Y62700D02*
X144400Y60300D01*
X142000Y62700D02*
X143900D01*
X52854Y14046D02*
Y17456D01*
Y14046D02*
X55100Y11800D01*
X56500D02*
X57100D01*
X47600D02*
X55100D01*
X56500D01*
X46555Y12845D02*
X47600Y11800D01*
X46555Y12845D02*
Y17456D01*
X88800Y10400D02*
Y11800D01*
X87500Y17456D02*
Y29000D01*
X89300Y30800D01*
X87300Y13300D02*
Y17456D01*
X128445Y17455D02*
Y17456D01*
Y17455D02*
X129900Y16000D01*
Y15400D02*
Y16000D01*
X150331Y52868D02*
X152032D01*
X150432Y53469D02*
Y55877D01*
X150331Y48268D02*
Y52868D01*
X145700Y64500D02*
Y66200D01*
X143900Y62700D02*
X145700Y64500D01*
X49300Y73400D02*
X53900D01*
X79000Y11000D02*
Y11800D01*
X21800Y26500D02*
X24400D01*
X24300Y30600D02*
X24400Y30500D01*
X64000Y87000D02*
X65900D01*
X139241Y66441D02*
X139868Y67068D01*
Y70549D01*
X143351D01*
X143800Y70100D01*
X144168Y27151D02*
Y27931D01*
X143000Y29100D02*
X144168Y27931D01*
D12*
X185882Y30262D02*
G03*
X185887Y30287I-682J158D01*
G01*
D02*
G03*
X185900Y30420I-687J133D01*
G01*
X26180Y86609D02*
G03*
X28058Y89477I-2523J3701D01*
G01*
X166382Y93410D02*
G03*
X168754Y90892I3223J660D01*
G01*
X170608Y92746D02*
G03*
X168090Y95118I-3178J-852D01*
G01*
X140134Y90670D02*
G03*
X137743Y93559I-3880J-777D01*
G01*
X129433Y90986D02*
G03*
X127595Y92770I-2362J-595D01*
G01*
X119478Y90992D02*
G03*
X117604Y92768I-2383J-638D01*
G01*
X177930Y3866D02*
G03*
X180943Y6704I-790J3858D01*
G01*
X178090Y3082D02*
G03*
X180608Y5454I-660J3223D01*
G01*
X180004Y7643D02*
G03*
X177166Y4630I1019J-3804D01*
G01*
X178754Y7308D02*
G03*
X176382Y4790I852J-3178D01*
G01*
X147993Y3882D02*
G03*
X151037Y7054I-1361J4352D01*
G01*
X148232Y3119D02*
G03*
X150661Y5650I-1086J3473D01*
G01*
X147775Y4651D02*
G03*
X150175Y6823I-482J2945D01*
G01*
X117930Y3866D02*
G03*
X120943Y6704I-790J3858D01*
G01*
X118090Y3082D02*
G03*
X120608Y5454I-660J3223D01*
G01*
X120004Y7643D02*
G03*
X117166Y4630I1019J-3804D01*
G01*
X118754Y7308D02*
G03*
X116382Y4790I852J-3178D01*
G01*
X27110Y88361D02*
G03*
X27468Y86574I1195J-690D01*
G01*
X26655Y87573D02*
G03*
X26982Y85939I1094J-631D01*
G01*
X26999Y87560D02*
G03*
X27022Y85902I948J-816D01*
G01*
X26180Y86609D02*
G03*
X28058Y89477I-2523J3701D01*
G01*
X26180Y86609D02*
G03*
X28058Y89477I-2523J3701D01*
G01*
X49836Y19253D02*
G03*
X50376Y20184I-853J1117D01*
G01*
X109432Y60158D02*
G03*
X108810Y59281I748J-1190D01*
G01*
X68700Y89400D02*
X70300Y87800D01*
X65930Y89400D02*
X68700D01*
X65444Y88913D02*
X65930Y89400D01*
X41282Y88913D02*
X65444D01*
X58100Y55700D02*
X61500D01*
X62000Y56200D01*
X77600Y61493D02*
X78051Y61944D01*
X77600Y54220D02*
Y61493D01*
X67580Y44200D02*
X77600Y54220D01*
X112000Y55300D02*
X115600Y58900D01*
X100100Y55300D02*
X112000D01*
X98500Y56900D02*
X100100Y55300D01*
X96670Y54600D02*
X97570Y53700D01*
X96500Y54600D02*
X96670D01*
X97570Y53700D02*
X113400D01*
X118800Y59100D01*
X114800Y51800D02*
X121900Y58900D01*
X96500Y51800D02*
X114800D01*
X104400Y67100D02*
X105000D01*
X105100Y67200D01*
X102100Y65900D02*
Y70525D01*
X100100Y62146D02*
Y66900D01*
X102100Y65900D02*
X102800Y65200D01*
X105100Y67200D02*
X106398Y65902D01*
X118400Y70300D02*
Y72100D01*
X118600Y72300D01*
X117100Y69000D02*
X118400Y70300D01*
X113200Y69000D02*
X117100D01*
X93800Y72000D02*
X94158Y72358D01*
X90200Y75600D02*
X93800Y72000D01*
X74625Y75600D02*
X90200D01*
X94158Y71786D02*
Y72358D01*
X124200Y70000D02*
X126600Y72400D01*
X135647D01*
X135932Y72116D01*
X128500Y70300D02*
X135583D01*
X135883Y70000D01*
X121900Y58900D02*
Y61298D01*
X115600Y49900D02*
X125695Y59995D01*
X124300Y56000D02*
X124600Y55700D01*
Y55400D02*
Y55700D01*
X126700Y57500D02*
X126915D01*
X126957Y57543D01*
X124300Y56000D02*
X125500Y54800D01*
X120400Y51500D02*
X120500D01*
X118996Y50096D02*
X120400Y51500D01*
X118996Y17456D02*
Y50096D01*
X122600Y49900D02*
Y53400D01*
X120400Y51600D02*
X120500Y51500D01*
X121200Y48500D02*
X122600Y49900D01*
X122400Y53600D02*
X122600Y53400D01*
X121946Y17456D02*
X122100Y17610D01*
X121200Y26200D02*
Y48500D01*
X122100Y17610D02*
Y25300D01*
X121200Y26200D02*
X122100Y25300D01*
X125500Y17861D02*
Y54800D01*
X125095Y17456D02*
X125500Y17861D01*
X188900Y66209D02*
Y66900D01*
X160600Y88700D02*
X184700Y64600D01*
X192000Y62900D02*
Y68500D01*
X157800Y93480D02*
X181280Y70000D01*
X190500D02*
X192000Y68500D01*
X181280Y70000D02*
X190500D01*
X188500Y56800D02*
Y58300D01*
X158080Y84500D02*
X181600Y60980D01*
Y53200D02*
Y60980D01*
X157500Y83100D02*
X180200Y60400D01*
Y35500D02*
Y60400D01*
X182900Y76000D02*
Y76500D01*
X176400Y82300D02*
X177100D01*
X181300Y80800D02*
X181700D01*
X168400Y93700D02*
X181300Y80800D01*
X188300Y76200D02*
Y77200D01*
X177800Y87700D02*
Y91700D01*
X142700Y87300D02*
X159500D01*
X158660Y85900D02*
X183100Y61460D01*
Y72300D02*
X184400D01*
X181600Y53200D02*
X183800Y51000D01*
Y46700D02*
Y51000D01*
X187069Y29431D02*
X189100Y31461D01*
Y41900D01*
X186100Y30500D02*
Y39100D01*
X186400Y38800D01*
X168720Y17200D02*
X181700Y30180D01*
X183500Y37300D02*
X183900D01*
X181700Y35500D02*
X183500Y37300D01*
X181700Y30180D02*
Y35500D01*
X169700Y14100D02*
X186100Y30500D01*
X177600Y33300D02*
X178000D01*
X180200Y35500D01*
X175500Y28700D02*
Y36400D01*
X177400Y38300D01*
X183800Y30300D02*
Y34500D01*
X169000Y15500D02*
X183800Y30300D01*
X68602Y58398D02*
X69400Y57600D01*
X70300D01*
X65453Y58047D02*
X68200Y55300D01*
X63800Y44200D02*
X67580D01*
X74902Y53502D02*
Y61544D01*
X67700Y46300D02*
X74902Y53502D01*
X60200Y46300D02*
X67700D01*
X80200Y32900D02*
X83700D01*
X74702Y27402D02*
X80200Y32900D01*
X74702Y17456D02*
Y27402D01*
X97000Y27270D02*
Y36800D01*
Y27270D02*
X97400Y26870D01*
Y25130D02*
Y26870D01*
X97000Y24730D02*
X97400Y25130D01*
X97000Y17707D02*
Y24730D01*
X96749Y17456D02*
X97000Y17707D01*
X109900Y4500D02*
X116000Y10600D01*
Y10870D01*
X111820Y8400D02*
X114600Y11180D01*
Y11450D01*
X119750Y13300D02*
X147100D01*
X119550Y13500D02*
X119750Y13300D01*
X116650Y13500D02*
X119550D01*
X114600Y11450D02*
X116650Y13500D01*
X119170Y11900D02*
X148100D01*
X118970Y12100D02*
X119170Y11900D01*
X117230Y12100D02*
X118970D01*
X116000Y10870D02*
X117230Y12100D01*
X107800Y4500D02*
X109900D01*
X109490Y8400D02*
X111820D01*
X70400Y36200D02*
X74300D01*
X68402Y34202D02*
X70400Y36200D01*
X87800Y4500D02*
X90200D01*
X177600Y91900D02*
X177800Y91700D01*
Y93700D01*
X84150Y55950D02*
Y61944D01*
X70800Y42600D02*
X84150Y55950D01*
X69600Y42600D02*
X70800D01*
X93400Y50300D02*
Y61145D01*
X82885Y39785D02*
X93400Y50300D01*
X72527Y39785D02*
X82885D01*
X93400Y61145D02*
X93799Y61544D01*
X101300Y27900D02*
Y31200D01*
X99400Y33100D02*
X101300Y31200D01*
Y27900D02*
X106200Y23000D01*
X102400Y49900D02*
X115600D01*
X101100Y48600D02*
X102400Y49900D01*
X56004Y57796D02*
X58100Y55700D01*
X56004Y57796D02*
Y61944D01*
X49505Y55505D02*
X49705Y55705D01*
X47600Y53600D02*
X49505Y55505D01*
X49705Y55705D02*
Y61944D01*
X74902Y61544D02*
X75300Y61942D01*
X74902Y61544D02*
Y61944D01*
X63700Y44300D02*
X63800Y44200D01*
X68402Y17456D02*
Y34202D01*
X65453Y58047D02*
Y61944D01*
X68602Y58398D02*
Y61944D01*
X59153Y58846D02*
Y61944D01*
Y58846D02*
X59800Y58200D01*
X59200Y21900D02*
X61800Y24500D01*
X61700D02*
X61800D01*
X65453Y25653D02*
X66400Y26600D01*
X65453Y17456D02*
Y25653D01*
X96500Y70100D02*
X99900Y66700D01*
X113920Y81700D02*
X146900D01*
X114500Y83100D02*
X157500D01*
X108300Y89300D02*
X114500Y83100D01*
X100400Y89300D02*
X108300D01*
X124900Y84500D02*
X158080D01*
X117800Y91600D02*
X124900Y84500D01*
X74625Y68275D02*
X74700Y68200D01*
X74625Y68275D02*
Y70600D01*
X110300Y66100D02*
X113200Y69000D01*
X106398Y61944D02*
Y65902D01*
Y66100D02*
X110300D01*
X109500Y59000D02*
Y61991D01*
X108000Y57500D02*
X109500Y59000D01*
X101600Y57500D02*
X108000D01*
X109500Y61991D02*
X109900D01*
X99898Y61944D02*
X100100Y62146D01*
X59200Y17809D02*
Y21900D01*
Y17809D02*
X59553Y17456D01*
X56100Y23100D02*
X60600Y27600D01*
X56100Y17760D02*
Y23100D01*
Y17760D02*
X56404Y17456D01*
X49800Y20400D02*
X51000Y21600D01*
X49800Y17761D02*
Y20400D01*
Y17761D02*
X50105Y17456D01*
X102800Y62792D02*
Y65200D01*
Y62792D02*
X103648Y61944D01*
X125695Y59995D02*
Y61944D01*
X93799Y61544D02*
X94100Y61845D01*
X93799Y61544D02*
Y61944D01*
X103048Y17456D02*
Y23552D01*
X99200Y27400D02*
X103048Y23552D01*
X99200Y27400D02*
Y28200D01*
X106198Y17456D02*
X106200Y17458D01*
Y23000D01*
X84150Y26150D02*
Y29250D01*
X90200Y35300D01*
X84150Y17456D02*
Y26150D01*
X77851Y27551D02*
X81000Y30700D01*
X77851Y17456D02*
Y27551D01*
X83700Y32900D02*
X83800Y33000D01*
X77600Y17707D02*
X77851Y17456D01*
X125500Y23500D02*
X131000D01*
X127400Y31300D02*
Y53600D01*
X115647Y17456D02*
Y20954D01*
X110554Y26046D02*
X115647Y20954D01*
X115600Y58900D02*
Y61298D01*
X118800Y59100D02*
Y61348D01*
X119396Y61944D01*
X121900Y61298D02*
X122546Y61944D01*
X184600Y11500D02*
X185400D01*
X177800Y4500D02*
X184800Y11500D01*
X188000Y14100D02*
X188400Y13700D01*
X177780Y14100D02*
X188200D01*
X168180Y4500D02*
X177780Y14100D01*
X190800Y16700D02*
X191200Y16300D01*
X178400Y16700D02*
X191000D01*
X171600Y9900D02*
X178400Y16700D01*
X170900Y11300D02*
X179200Y19600D01*
X189400D01*
X167800Y4500D02*
X168180D01*
X141000Y9100D02*
X149500D01*
X137800Y5900D02*
X141000Y9100D01*
X137800Y4500D02*
Y5900D01*
X153800Y11300D02*
X170900D01*
X147800Y5300D02*
X153800Y11300D01*
X147800Y4500D02*
Y5300D01*
X153100Y12700D02*
X170300D01*
X149500Y9100D02*
X153100Y12700D01*
X152400Y14100D02*
X169700D01*
X148800Y10500D02*
X152400Y14100D01*
X123800Y10500D02*
X148800D01*
X151700Y15500D02*
X169000D01*
X148100Y11900D02*
X151700Y15500D01*
X151000Y17200D02*
X168720D01*
X147100Y13300D02*
X151000Y17200D01*
X117800Y4500D02*
X123800Y10500D01*
X160800Y9900D02*
X171600D01*
X147800Y92200D02*
Y93700D01*
X137800Y92200D02*
Y93700D01*
X127800Y91600D02*
Y93700D01*
X117800Y91600D02*
Y93700D01*
X97800Y91900D02*
Y93700D01*
X99400Y80500D02*
X103475D01*
X17000Y85700D02*
X19300D01*
X12600Y81300D02*
X17000Y85700D01*
X4400Y81300D02*
X12600D01*
X2300Y79200D02*
X4400Y81300D01*
X2300Y62500D02*
Y79200D01*
Y62500D02*
X5400Y59400D01*
Y43200D02*
X6600Y44400D01*
X2200Y23400D02*
X6700Y27900D01*
X5400Y35200D02*
X6700Y33900D01*
Y27900D02*
Y33900D01*
X2100Y43000D02*
X5200D01*
X5400Y35200D02*
Y43200D01*
Y55000D02*
Y59400D01*
Y55000D02*
X6600Y53800D01*
Y44400D02*
Y53800D01*
X147800Y4500D02*
X149400D01*
X157800D02*
Y6900D01*
X160800Y9900D01*
X127800Y91600D02*
X133500Y85900D01*
X137800Y92200D02*
X142700Y87300D01*
X147800Y92200D02*
X151300Y88700D01*
X97800Y91900D02*
X100400Y89300D01*
X146900Y81700D02*
X158200Y70400D01*
X126957Y57543D02*
X130000Y54500D01*
Y32500D02*
Y54500D01*
X184400Y72300D02*
X188200Y76100D01*
X133500Y85900D02*
X158660D01*
X151300Y88700D02*
X160600D01*
X170300Y12700D02*
X187050Y29450D01*
X167600Y20800D02*
X175500Y28700D01*
X158200Y56300D02*
Y70400D01*
X41269Y88900D02*
X41282Y88913D01*
X19300Y85700D02*
X27600D01*
X27700Y88900D02*
X41269D01*
X27600Y85700D02*
Y93500D01*
X27800Y93700D01*
X107153Y26046D02*
X110554D01*
X102800Y30400D02*
X107153Y26046D01*
X102800Y30400D02*
Y37700D01*
X102100Y38400D02*
X102800Y37700D01*
X135883Y70000D02*
X135932Y70049D01*
X129516Y74084D02*
X135932D01*
X127400Y76200D02*
X129516Y74084D01*
X120300Y70000D02*
X124200D01*
X120100Y70200D02*
X120300Y70000D01*
X133451Y21049D02*
X140232D01*
X131000Y23500D02*
X133451Y21049D01*
X127400Y31300D02*
X133616Y25084D01*
X140232D01*
X135349Y27151D02*
X140232D01*
X130000Y32500D02*
X135349Y27151D01*
X107820Y87800D02*
X113920Y81700D01*
X70300Y87800D02*
X107820D01*
X109437Y8453D02*
X109490Y8400D01*
X90200Y4500D02*
X94153Y8453D01*
X109437D01*
X157800Y93480D02*
Y93700D01*
X168000D02*
X168400D01*
X167988Y93747D02*
X168000Y93700D01*
X167900Y94100D02*
X167988Y93747D01*
D13*
X68705Y67273D02*
G03*
X69450Y66802I941J664D01*
G01*
X69200Y67613D02*
G03*
X68334Y68169I-1104J-766D01*
G01*
X67967Y67711D02*
G03*
X69909Y66655I2245J1816D01*
G01*
X67955Y67727D02*
G03*
X69407Y66810I1833J1294D01*
G01*
X68693Y67289D02*
G03*
X69846Y66662I1332J1078D01*
G01*
X68705Y67273D02*
G03*
X69450Y66802I941J664D01*
G01*
X69200Y67613D02*
G03*
X68334Y68169I-1104J-766D01*
G01*
X68705Y67273D02*
G03*
X69450Y66802I941J664D01*
G01*
X69200Y67613D02*
G03*
X68334Y68169I-1104J-766D01*
G01*
X76200Y33900D02*
X80485Y38185D01*
X73800Y33900D02*
X76200D01*
X71000Y31100D02*
X73800Y33900D01*
X71000Y31100D02*
Y31600D01*
X80485Y38185D02*
X83548D01*
X91663Y46300D02*
X101100D01*
X106600Y40800D01*
X107400Y40000D01*
Y38200D02*
Y40000D01*
X87300Y61944D02*
X87500Y62144D01*
X88600Y49600D02*
Y49800D01*
X87500Y50900D02*
X88600Y49800D01*
X87500Y50900D02*
Y61944D01*
X63800Y29900D02*
X64300Y30400D01*
X107600Y75600D02*
X109500Y73700D01*
X102775Y75600D02*
X107300D01*
X109500Y72200D02*
Y73700D01*
X62000Y11800D02*
X62303Y12103D01*
X69600Y67900D02*
X71752Y65748D01*
Y61944D02*
Y65748D01*
X107300Y75600D02*
X107600D01*
X160816Y21100D02*
X163000D01*
X164800Y22900D01*
Y23700D01*
X83548Y38185D02*
X91663Y46300D01*
X65000Y86100D02*
X65200Y85900D01*
X74925D01*
D18*
X122500Y73600D02*
D03*
Y79100D02*
D03*
X49300Y73400D02*
D03*
Y67900D02*
D03*
X65000Y80300D02*
D03*
Y85800D02*
D03*
X68200Y73400D02*
D03*
Y67900D02*
D03*
X63700Y73400D02*
D03*
Y67900D02*
D03*
X176700Y47600D02*
D03*
Y42100D02*
D03*
X154600Y64600D02*
D03*
Y59100D02*
D03*
X19300Y85700D02*
D03*
Y80200D02*
D03*
X161700Y47400D02*
D03*
Y52900D02*
D03*
X150600Y48700D02*
D03*
Y43200D02*
D03*
X168454Y63328D02*
D03*
Y57828D02*
D03*
X164054D02*
D03*
Y63328D02*
D03*
X10000Y31500D02*
D03*
Y26000D02*
D03*
X5100Y65200D02*
D03*
Y70700D02*
D03*
X10000Y70600D02*
D03*
Y65100D02*
D03*
X53900Y67900D02*
D03*
Y73400D02*
D03*
X11900Y15900D02*
D03*
Y21400D02*
D03*
X10900Y35800D02*
D03*
Y41300D02*
D03*
X10000Y51400D02*
D03*
Y45900D02*
D03*
X26800Y85700D02*
D03*
Y80200D02*
D03*
D19*
X95500Y11800D02*
D03*
X101000D02*
D03*
X156532Y37868D02*
D03*
X162031D02*
D03*
Y42369D02*
D03*
X156532D02*
D03*
X157100Y53400D02*
D03*
X151600D02*
D03*
X155316Y21100D02*
D03*
X160816D02*
D03*
Y25500D02*
D03*
X155316D02*
D03*
X160791Y29900D02*
D03*
X155291D02*
D03*
X172493Y37316D02*
D03*
X166993D02*
D03*
X171800Y49700D02*
D03*
X166300D02*
D03*
Y45200D02*
D03*
X171800D02*
D03*
X166400Y33200D02*
D03*
X171900D02*
D03*
X150000Y58200D02*
D03*
X144500D02*
D03*
X162100Y67900D02*
D03*
X167600D02*
D03*
X135500Y62700D02*
D03*
X141000D02*
D03*
X109500Y71800D02*
D03*
X115000D02*
D03*
X109500Y77400D02*
D03*
X115000D02*
D03*
X62000Y11800D02*
D03*
X56500D02*
D03*
X73200D02*
D03*
X78700D02*
D03*
X88800D02*
D03*
X83300D02*
D03*
D36*
X147700Y72600D02*
D03*
X151700D02*
D03*
D37*
X66200Y87300D02*
X66800D01*
X65900Y87000D02*
X66200Y87300D01*
X65000Y86100D02*
X65900Y87000D01*
D39*
X133800Y36500D02*
Y44277D01*
Y34400D02*
Y36500D01*
X166605Y44728D02*
X167093Y45216D01*
X162031Y36169D02*
Y37868D01*
X160231Y34369D02*
X162031Y36169D01*
X11800Y35800D02*
X21300D01*
X162031Y36169D02*
X165000Y33200D01*
X141931Y34369D02*
X160231D01*
X165000Y33200D02*
X166400D01*
X133800Y44277D02*
X133823Y44300D01*
X133800Y44323D02*
X133823Y44300D01*
X133800Y44323D02*
Y45400D01*
D40*
X96208Y77308D02*
X99400Y80500D01*
X96208Y71474D02*
Y77308D01*
Y71474D02*
X96500Y71181D01*
Y70100D02*
Y71181D01*
X184700Y64600D02*
X188600D01*
X190650Y50250D02*
Y62550D01*
X188600Y64600D02*
X190650Y62550D01*
X192000Y45100D02*
Y62900D01*
X188700Y48300D02*
X190650Y50250D01*
X190900Y44000D02*
X192000Y45100D01*
X159500Y87300D02*
X188500Y58300D01*
X183100Y54100D02*
Y61460D01*
X177299Y82300D02*
X182900Y76699D01*
X177100Y82300D02*
X177299D01*
X182900Y76500D02*
Y76699D01*
X177800Y87700D02*
X188300Y77200D01*
X183100Y54100D02*
X185900Y51300D01*
Y44500D02*
Y51300D01*
X186565Y42264D02*
X188301Y44000D01*
X185237Y42264D02*
X186565D01*
X188301Y44000D02*
X190900D01*
X183987Y41013D02*
X185237Y42264D01*
X188700Y46700D02*
Y48300D01*
D42*
X67000Y11800D02*
X73500D01*
X62000D02*
X67000D01*
X62200Y30400D02*
X64300D01*
X65200Y31300D01*
X11900Y15900D02*
X21400D01*
D43*
X26170Y51034D02*
X26170D01*
X25300Y50700D02*
X26170Y51034D01*
D47*
X187800Y85100D02*
D03*
X7800Y77000D02*
D03*
Y85300D02*
D03*
Y93700D02*
D03*
Y4500D02*
D03*
D48*
X35200Y64500D02*
D03*
Y54500D02*
D03*
Y44500D02*
D03*
Y34500D02*
D03*
Y24500D02*
D03*
X17800Y93700D02*
D03*
X27800D02*
D03*
X37800D02*
D03*
X47800D02*
D03*
X57800D02*
D03*
X67800D02*
D03*
X77800D02*
D03*
X87800D02*
D03*
X97800D02*
D03*
X107800D02*
D03*
X117800D02*
D03*
X127800D02*
D03*
X137800D02*
D03*
X147800D02*
D03*
X157800D02*
D03*
X167800D02*
D03*
X177800D02*
D03*
X187800D02*
D03*
X17800Y4500D02*
D03*
X27800D02*
D03*
X37800D02*
D03*
X47800D02*
D03*
X57800D02*
D03*
X67800D02*
D03*
X77800D02*
D03*
X87800D02*
D03*
X97800D02*
D03*
X107800D02*
D03*
X117800D02*
D03*
X127800D02*
D03*
X137800D02*
D03*
X147800D02*
D03*
X157800D02*
D03*
X167800D02*
D03*
X177800D02*
D03*
X187800D02*
D03*
D49*
X35200Y14500D02*
D03*
D50*
X66800Y87300D02*
D03*
X61046Y70650D02*
D03*
X62000Y56200D02*
D03*
X104400Y67100D02*
D03*
X100100Y66900D02*
D03*
X110300Y80600D02*
D03*
X105200Y72700D02*
D03*
X107400Y68400D02*
D03*
X94158Y71786D02*
D03*
X98258Y72323D02*
D03*
X98800Y82900D02*
D03*
X124900Y66600D02*
D03*
X128500Y59900D02*
D03*
X129200Y67200D02*
D03*
X126400Y68200D02*
D03*
X128500Y70300D02*
D03*
X120500Y70200D02*
D03*
X124600Y55400D02*
D03*
X126700Y57500D02*
D03*
X122500Y53500D02*
D03*
X120400Y51600D02*
D03*
X123300Y44800D02*
D03*
Y47100D02*
D03*
X165923Y54628D02*
D03*
X188600Y61100D02*
D03*
X188500Y56800D02*
D03*
X185300Y58300D02*
D03*
X177400Y79200D02*
D03*
X175100Y79300D02*
D03*
X181700Y80800D02*
D03*
X188900Y66900D02*
D03*
X183100Y72300D02*
D03*
X183800Y46700D02*
D03*
X185900Y44500D02*
D03*
X188200Y52000D02*
D03*
X188700Y46700D02*
D03*
X183987Y41013D02*
D03*
X189100Y41900D02*
D03*
X186400Y38800D02*
D03*
X183900Y37300D02*
D03*
X177600Y33300D02*
D03*
X183800Y34500D02*
D03*
X189600Y28400D02*
D03*
X189700Y25600D02*
D03*
X132900Y8200D02*
D03*
X70300Y57600D02*
D03*
X68200Y55300D02*
D03*
X113000Y12900D02*
D03*
X118100Y10000D02*
D03*
X99500Y12600D02*
D03*
X91600Y11600D02*
D03*
X71000Y31600D02*
D03*
X74300Y36200D02*
D03*
X188400Y77100D02*
D03*
X133800Y36500D02*
D03*
X67000Y11800D02*
D03*
X96500Y51800D02*
D03*
X88600Y49600D02*
D03*
X106600Y40800D02*
D03*
X107400Y38200D02*
D03*
X47600Y53600D02*
D03*
X68460Y67100D02*
D03*
X67500Y69400D02*
D03*
X71800Y23400D02*
D03*
X70500Y26100D02*
D03*
X70400Y28800D02*
D03*
X59300Y58000D02*
D03*
X60200Y46300D02*
D03*
X61700Y24500D02*
D03*
X11800Y26000D02*
D03*
X18900Y28300D02*
D03*
X24400Y30600D02*
D03*
Y28400D02*
D03*
Y26000D02*
D03*
X21800D02*
D03*
Y28400D02*
D03*
X18900Y30600D02*
D03*
X21800D02*
D03*
X112250Y74729D02*
D03*
X119200Y78000D02*
D03*
X118100Y75600D02*
D03*
X142500Y66000D02*
D03*
X154000Y71000D02*
D03*
X145700Y66200D02*
D03*
X153900Y78900D02*
D03*
X119900Y9900D02*
D03*
X74700Y68200D02*
D03*
X101600Y57500D02*
D03*
X118600Y72300D02*
D03*
X95300Y26000D02*
D03*
X99400Y24000D02*
D03*
X82000Y26500D02*
D03*
X83100Y83900D02*
D03*
X79900Y56300D02*
D03*
X69600Y42600D02*
D03*
X72600Y40200D02*
D03*
X63700Y44300D02*
D03*
X62300Y60000D02*
D03*
X46900Y58300D02*
D03*
X99200Y28200D02*
D03*
X99400Y33100D02*
D03*
X97000Y36800D02*
D03*
X90200Y35300D02*
D03*
X81000Y30700D02*
D03*
X83800Y33000D02*
D03*
X79800Y23500D02*
D03*
X69400Y83600D02*
D03*
X127500Y53700D02*
D03*
X92000Y69600D02*
D03*
X81600Y71600D02*
D03*
X96500Y54600D02*
D03*
X98500Y56900D02*
D03*
X107700Y45700D02*
D03*
X105300Y33300D02*
D03*
X107800Y31600D02*
D03*
X108100Y28200D02*
D03*
X122900Y74600D02*
D03*
X185400Y11500D02*
D03*
X188400Y13700D02*
D03*
X191200Y16300D02*
D03*
X189200Y19600D02*
D03*
X127400Y76200D02*
D03*
X64000Y87000D02*
D03*
X57800Y82100D02*
D03*
X73500Y8400D02*
D03*
X95700Y67100D02*
D03*
X109700Y12600D02*
D03*
X66400Y26600D02*
D03*
X51000Y21600D02*
D03*
X47500Y50800D02*
D03*
X155916Y19700D02*
D03*
X160216Y27800D02*
D03*
X166193Y32216D02*
D03*
X166200Y63300D02*
D03*
X155200Y64200D02*
D03*
X150400Y55200D02*
D03*
X150331Y39169D02*
D03*
X154900Y37700D02*
D03*
X13500Y53600D02*
D03*
X14100Y39900D02*
D03*
X11500Y12900D02*
D03*
X30100Y74900D02*
D03*
Y71900D02*
D03*
X27200D02*
D03*
Y74900D02*
D03*
X24300D02*
D03*
Y71900D02*
D03*
X21400D02*
D03*
X18500D02*
D03*
X15600D02*
D03*
Y74900D02*
D03*
X18500D02*
D03*
X21400D02*
D03*
X14800Y78700D02*
D03*
X22800Y50700D02*
D03*
X25300D02*
D03*
X27800D02*
D03*
Y53200D02*
D03*
X25300Y53300D02*
D03*
X22800D02*
D03*
X2100Y12000D02*
D03*
X7700Y56525D02*
D03*
Y59675D02*
D03*
Y20575D02*
D03*
Y17425D02*
D03*
Y40075D02*
D03*
Y36925D02*
D03*
X169189Y41663D02*
D03*
X173520D02*
D03*
X154032Y49968D02*
D03*
X157968D02*
D03*
X154032Y46031D02*
D03*
X157968D02*
D03*
X160700Y65065D02*
D03*
Y60735D02*
D03*
X2200Y23400D02*
D03*
X2100Y43000D02*
D03*
X2300Y62500D02*
D03*
X4300Y12000D02*
D03*
X2100Y36500D02*
D03*
Y33800D02*
D03*
Y56100D02*
D03*
Y53300D02*
D03*
X11500Y45500D02*
D03*
X11800Y65100D02*
D03*
X2100Y31100D02*
D03*
X4400Y32900D02*
D03*
X2100Y50900D02*
D03*
X4600Y52400D02*
D03*
X18900Y26000D02*
D03*
X2100Y19100D02*
D03*
Y38800D02*
D03*
Y16900D02*
D03*
Y14300D02*
D03*
Y58300D02*
D03*
X177500Y55200D02*
D03*
X172700Y47000D02*
D03*
X177400Y38300D02*
D03*
X150100Y23700D02*
D03*
X164300Y29500D02*
D03*
X177800D02*
D03*
X63200Y37500D02*
D03*
X62200Y30400D02*
D03*
X60600Y27600D02*
D03*
X59600Y32300D02*
D03*
X46700Y36500D02*
D03*
X54100Y22200D02*
D03*
X47400Y22000D02*
D03*
X62000Y33900D02*
D03*
X65200Y31300D02*
D03*
X143000Y29100D02*
D03*
X148700Y67000D02*
D03*
X172300Y57500D02*
D03*
X182900Y76000D02*
D03*
X164800Y23700D02*
D03*
X167600Y20800D02*
D03*
X89300Y30800D02*
D03*
X129900Y15400D02*
D03*
X158400Y56600D02*
D03*
X160700Y54200D02*
D03*
X56700Y78500D02*
D03*
X53100Y77100D02*
D03*
X50900Y74500D02*
D03*
X59900Y67400D02*
D03*
X52700Y90900D02*
D03*
X68900Y51000D02*
D03*
X101100Y48600D02*
D03*
X66667Y48500D02*
D03*
X62200D02*
D03*
Y51000D02*
D03*
X66667D02*
D03*
X64433D02*
D03*
Y48500D02*
D03*
X64700Y67900D02*
D03*
X133900Y59100D02*
D03*
Y51800D02*
D03*
X133800Y45400D02*
D03*
Y34400D02*
D03*
X77600Y11600D02*
D03*
X191900Y77600D02*
D03*
X172900Y84700D02*
D03*
X178700Y10000D02*
D03*
X162700Y7800D02*
D03*
X63600Y66400D02*
D03*
X64100Y69600D02*
D03*
X85200Y52700D02*
D03*
X76000Y43700D02*
D03*
X80300Y48200D02*
D03*
X53000Y8000D02*
D03*
X102100Y38800D02*
D03*
X30000Y40800D02*
D03*
X47500Y42500D02*
D03*
X87000Y85000D02*
D03*
X92500Y40100D02*
D03*
X143800Y70100D02*
D03*
X148300Y18600D02*
D03*
X178600Y76300D02*
D03*
X176400Y82300D02*
D03*
X32800Y8000D02*
D03*
X191300Y10700D02*
D03*
D51*
X74625Y85600D02*
D03*
Y80600D02*
D03*
Y75600D02*
D03*
Y70600D02*
D03*
X102775Y75600D02*
D03*
Y85600D02*
D03*
Y80600D02*
D03*
Y70600D02*
D03*
D52*
X141931Y49990D02*
D03*
Y36013D02*
D03*
D53*
X21400Y14191D02*
D03*
Y25609D02*
D03*
X21300Y38591D02*
D03*
Y50009D02*
D03*
X21200Y61591D02*
D03*
Y73009D02*
D03*
D54*
X46555Y61944D02*
D03*
X49705D02*
D03*
X52854D02*
D03*
X56004D02*
D03*
X59153D02*
D03*
X62303D02*
D03*
X65453D02*
D03*
X68602D02*
D03*
X71752D02*
D03*
X74902D02*
D03*
X78051D02*
D03*
X81201D02*
D03*
X84350D02*
D03*
X87500D02*
D03*
X90650D02*
D03*
X93799D02*
D03*
X96949D02*
D03*
X100098D02*
D03*
X103248D02*
D03*
X106398D02*
D03*
X109547D02*
D03*
X112697D02*
D03*
X115847D02*
D03*
X118996D02*
D03*
X122146D02*
D03*
X125295D02*
D03*
X128445D02*
D03*
X46555Y17456D02*
D03*
X49705D02*
D03*
X52854D02*
D03*
X56004D02*
D03*
X59153D02*
D03*
X62303D02*
D03*
X65453D02*
D03*
X68602D02*
D03*
X71752D02*
D03*
X74902D02*
D03*
X78051D02*
D03*
X81201D02*
D03*
X84350D02*
D03*
X87500D02*
D03*
X90650D02*
D03*
X93799D02*
D03*
X96949D02*
D03*
X100098D02*
D03*
X103248D02*
D03*
X106398D02*
D03*
X109547D02*
D03*
X112697D02*
D03*
X115847D02*
D03*
X118996D02*
D03*
X122146D02*
D03*
X125295D02*
D03*
X128445D02*
D03*
D55*
X36849Y76631D02*
D03*
X42951D02*
D03*
Y80568D02*
D03*
X36849D02*
D03*
D56*
X38916Y76631D02*
D03*
X40884D02*
D03*
Y80568D02*
D03*
X38916D02*
D03*
D57*
X135932Y76151D02*
D03*
Y70049D02*
D03*
X139868D02*
D03*
Y76151D02*
D03*
X140232Y27151D02*
D03*
Y21049D02*
D03*
X144168D02*
D03*
Y27151D02*
D03*
D58*
X135932Y74084D02*
D03*
Y72116D02*
D03*
X139868D02*
D03*
Y74084D02*
D03*
X140232Y25084D02*
D03*
Y23116D02*
D03*
X144168D02*
D03*
Y25084D02*
D03*
M02*
