G04 Layer_Physical_Order=2*
G04 Layer_Color=36540*
%FSLAX25Y25*%
%MOIN*%
G70*
G01*
G75*
%ADD10C,0.01000*%
%ADD11C,0.01500*%
%ADD12C,0.00800*%
%ADD43C,0.03500*%
%ADD45C,0.04000*%
%ADD46C,0.03000*%
%ADD47R,0.05906X0.05906*%
%ADD48C,0.05906*%
%ADD50C,0.02200*%
G36*
X15197Y96437D02*
X15240Y96200D01*
X14697Y95492D01*
X14696Y95489D01*
X14329Y95011D01*
X14067Y94379D01*
X13977Y93700D01*
X14067Y93021D01*
X14329Y92389D01*
X14696Y91911D01*
X14697Y91908D01*
X15266Y91166D01*
X15665Y90860D01*
X15715Y90773D01*
X15732Y90760D01*
X15736Y90739D01*
X15782Y90669D01*
X15849Y89591D01*
X15851Y89273D01*
X15878Y89209D01*
Y78732D01*
Y77035D01*
X15600Y76633D01*
X14937Y76501D01*
X14374Y76126D01*
X13999Y75563D01*
X13867Y74900D01*
X13999Y74237D01*
X14374Y73674D01*
X14423Y73642D01*
Y73158D01*
X14374Y73126D01*
X13999Y72563D01*
X13867Y71900D01*
X13999Y71237D01*
X14023Y71200D01*
X13756Y70700D01*
X13100D01*
Y66877D01*
X12600Y66610D01*
X12463Y66701D01*
X11800Y66833D01*
X11137Y66701D01*
X10574Y66326D01*
X10199Y65763D01*
X10067Y65100D01*
X10199Y64437D01*
X10574Y63874D01*
X11137Y63499D01*
X11800Y63367D01*
X12463Y63499D01*
X12600Y63590D01*
X13100Y63323D01*
Y55254D01*
X12837Y55201D01*
X12274Y54826D01*
X11899Y54263D01*
X11767Y53600D01*
X11899Y52937D01*
X12274Y52374D01*
X12837Y51999D01*
X13100Y51946D01*
Y46997D01*
X12600Y46810D01*
X12163Y47101D01*
X11500Y47233D01*
X10837Y47101D01*
X10274Y46726D01*
X9899Y46163D01*
X9767Y45500D01*
X9899Y44837D01*
X10274Y44274D01*
X10837Y43899D01*
X11500Y43767D01*
X12163Y43899D01*
X12600Y44190D01*
X13100Y44003D01*
Y41276D01*
X12874Y41126D01*
X12499Y40563D01*
X12367Y39900D01*
X12499Y39237D01*
X12874Y38674D01*
X13100Y38524D01*
Y27777D01*
X12600Y27510D01*
X12463Y27601D01*
X11800Y27733D01*
X11137Y27601D01*
X10574Y27226D01*
X10199Y26663D01*
X10067Y26000D01*
X10199Y25337D01*
X10574Y24774D01*
X11137Y24399D01*
X11800Y24267D01*
X12463Y24399D01*
X12600Y24490D01*
X13100Y24223D01*
Y14397D01*
X12600Y14210D01*
X12163Y14501D01*
X11500Y14633D01*
X10837Y14501D01*
X10274Y14126D01*
X9899Y13563D01*
X9767Y12900D01*
X9899Y12237D01*
X10274Y11674D01*
X10837Y11299D01*
X11500Y11167D01*
X12163Y11299D01*
X12600Y11590D01*
X13100Y11403D01*
Y9900D01*
X1500D01*
Y21296D01*
X2000Y21707D01*
X2200Y21667D01*
X2863Y21799D01*
X3426Y22174D01*
X3801Y22737D01*
X3933Y23400D01*
X3801Y24063D01*
X3426Y24626D01*
X2863Y25001D01*
X2200Y25133D01*
X2000Y25093D01*
X1500Y25504D01*
Y34380D01*
X1402Y34369D01*
X1421Y34399D01*
X1438Y34442D01*
X1452Y34497D01*
X1465Y34565D01*
X1484Y34738D01*
X1496Y34961D01*
X1500Y35234D01*
Y35289D01*
X1499Y35390D01*
X1476Y35711D01*
X1465Y35771D01*
X1452Y35823D01*
X1438Y35867D01*
X1421Y35903D01*
X1402Y35931D01*
X1500Y35920D01*
Y40992D01*
X1887Y41309D01*
X2100Y41267D01*
X2763Y41399D01*
X3326Y41774D01*
X3701Y42337D01*
X3833Y43000D01*
X3701Y43663D01*
X3326Y44226D01*
X2763Y44601D01*
X2100Y44733D01*
X1887Y44691D01*
X1500Y45008D01*
Y53822D01*
X1343Y53787D01*
X1354Y53809D01*
X1364Y53840D01*
X1372Y53880D01*
X1379Y53928D01*
X1391Y54052D01*
X1399Y54304D01*
X1400Y54406D01*
X1500Y54434D01*
Y54966D01*
X1400Y54994D01*
X1399Y55096D01*
X1372Y55520D01*
X1364Y55560D01*
X1354Y55591D01*
X1343Y55613D01*
X1500Y55577D01*
Y60434D01*
X2000Y60826D01*
X2300Y60767D01*
X2963Y60899D01*
X3526Y61274D01*
X3901Y61837D01*
X4033Y62500D01*
X3901Y63163D01*
X3526Y63726D01*
X2963Y64101D01*
X2300Y64233D01*
X2000Y64174D01*
X1500Y64566D01*
Y96700D01*
X15108D01*
X15197Y96437D01*
D02*
G37*
G36*
X122825Y76185D02*
X122848Y76187D01*
X122848Y76187D01*
X122859Y76183D01*
X122886Y76171D01*
X122887Y76171D01*
X122887Y76170D01*
X122939Y76147D01*
X122948Y76147D01*
X122948Y76147D01*
X123190Y76038D01*
X123266Y76036D01*
X123329Y75994D01*
X123332Y75993D01*
X123335Y75994D01*
X123336Y75993D01*
X123338Y75992D01*
X123340Y75993D01*
X123346Y75988D01*
X123349Y75988D01*
X123352Y75989D01*
X123357Y75986D01*
X123362Y75985D01*
X123376Y75987D01*
X123395Y75976D01*
X123442Y75969D01*
X123449Y75968D01*
X123449Y75968D01*
X123449Y75968D01*
X123458Y75966D01*
X123458Y75966D01*
X123458Y75966D01*
X123463Y75959D01*
X123464Y75959D01*
X123478Y75957D01*
X123487Y75951D01*
X123497Y75944D01*
X123497Y75944D01*
X123503Y75938D01*
X123503Y75938D01*
X123507Y75937D01*
X123507Y75937D01*
X123550Y75908D01*
X123564Y75905D01*
X123569Y75898D01*
X123571Y75897D01*
X123574Y75897D01*
X123577Y75892D01*
X123660Y75837D01*
X123716Y75826D01*
X123755Y75784D01*
X124537Y75433D01*
X124537Y75433D01*
X124544Y75429D01*
X124551Y75429D01*
X124560Y75425D01*
X124569Y75425D01*
X124576Y75419D01*
X124576Y75419D01*
X124589Y75419D01*
X124654Y75387D01*
X124770Y75380D01*
X124780Y75376D01*
X124780Y75376D01*
X124783Y75377D01*
X124792Y75373D01*
X124796Y75372D01*
X124796Y75372D01*
X124797Y75372D01*
X124797Y75372D01*
X124798Y75372D01*
X124798Y75372D01*
X124798Y75372D01*
X124805Y75370D01*
X124822Y75369D01*
X124934Y75322D01*
X125046Y75322D01*
X125053Y75319D01*
X125080Y75318D01*
X125102Y75327D01*
X125102Y75327D01*
X125117Y75327D01*
X125141Y75337D01*
X125192Y75335D01*
X125281Y75367D01*
X125329Y75366D01*
X125351Y75375D01*
X125377Y75385D01*
X125439Y75399D01*
X125520Y75406D01*
X125571Y75430D01*
X125830Y75490D01*
X126174Y74974D01*
X126737Y74599D01*
X127400Y74467D01*
X127477Y74482D01*
X127538Y74467D01*
X127943Y74235D01*
X127985Y74123D01*
X128064Y74040D01*
X128066Y74013D01*
X128066Y74013D01*
X128085Y73996D01*
X128092Y73964D01*
X128092Y73964D01*
X128097Y73961D01*
X128099Y73954D01*
X128100Y73952D01*
X128100Y73952D01*
X128100Y73952D01*
X128100Y73952D01*
X128113Y73933D01*
X128120Y73924D01*
X128121Y73923D01*
X128133Y73895D01*
X128144Y73884D01*
X128211Y73856D01*
X128252Y73797D01*
X128272Y73784D01*
X128272Y73784D01*
X128272Y73784D01*
X128272Y73784D01*
X128281Y73778D01*
X128317Y73772D01*
X128326Y73762D01*
X128331Y73762D01*
X128387Y73702D01*
X130659Y72680D01*
X130669Y72680D01*
X130677Y72672D01*
X130722Y72654D01*
X131021Y72421D01*
X131040Y72375D01*
X131070Y72345D01*
X131076Y72303D01*
X131100Y72259D01*
Y68765D01*
X130876Y68488D01*
X130685Y68379D01*
X130588Y68370D01*
X130426Y68426D01*
X130026Y68693D01*
X129867Y68895D01*
X129881Y69308D01*
X130101Y69637D01*
X130233Y70300D01*
X130101Y70963D01*
X129726Y71526D01*
X129163Y71901D01*
X128500Y72033D01*
X127837Y71901D01*
X127274Y71526D01*
X126899Y70963D01*
X126767Y70300D01*
X126899Y69637D01*
X127274Y69074D01*
X127674Y68807D01*
X127833Y68605D01*
X127819Y68192D01*
X127599Y67863D01*
X127467Y67200D01*
X127599Y66537D01*
X127974Y65974D01*
X128537Y65599D01*
X129200Y65467D01*
X129863Y65599D01*
X130061Y65731D01*
X130166Y65737D01*
X130554Y65259D01*
X130526Y65156D01*
X129522Y63680D01*
Y63680D01*
X129454Y63580D01*
X129445Y63576D01*
X129444Y63574D01*
X129442Y63570D01*
X129440Y63569D01*
X129435Y63564D01*
X129411Y63547D01*
X129411Y63547D01*
X129411Y63547D01*
X129378Y63510D01*
X129334Y63490D01*
X129334Y63489D01*
X129333Y63489D01*
X129321Y63484D01*
X129308Y63469D01*
X129304Y63469D01*
X129304Y63469D01*
X129295Y63459D01*
X129285Y63455D01*
X129280Y63451D01*
X129257Y63440D01*
X129250Y63432D01*
X129249Y63432D01*
X129240Y63428D01*
X129239Y63426D01*
X129238Y63426D01*
X129238D01*
X125900Y61900D01*
Y59010D01*
X125474Y58726D01*
X125099Y58163D01*
X124967Y57500D01*
X124970Y57484D01*
X124704Y57217D01*
X124532Y57120D01*
X123937Y57001D01*
X123374Y56626D01*
X122999Y56063D01*
X122918Y55660D01*
X122500Y55233D01*
X121837Y55101D01*
X121274Y54726D01*
X120899Y54163D01*
X120818Y53760D01*
X120400Y53333D01*
X119737Y53201D01*
X119174Y52826D01*
X118799Y52263D01*
X118667Y51600D01*
X118799Y50937D01*
X119174Y50374D01*
X119737Y49999D01*
X120400Y49867D01*
X121063Y49999D01*
X121626Y50374D01*
X122001Y50937D01*
X122082Y51340D01*
X122500Y51767D01*
X123163Y51899D01*
X123726Y52274D01*
X124101Y52837D01*
X124182Y53240D01*
X124600Y53667D01*
X125263Y53799D01*
X125278Y53809D01*
X125428Y53776D01*
X125796Y53553D01*
X125899Y53037D01*
X126274Y52474D01*
X126837Y52099D01*
X127500Y51967D01*
X128163Y52099D01*
X128726Y52474D01*
X129101Y53037D01*
X129233Y53700D01*
X129101Y54363D01*
X128726Y54926D01*
X128163Y55301D01*
X127500Y55433D01*
X127498Y55433D01*
X127363Y55899D01*
X127926Y56274D01*
X128301Y56837D01*
X128357Y57115D01*
X128795Y57425D01*
X128923Y57444D01*
X129048Y57413D01*
X129048Y57413D01*
X129797Y57226D01*
X129797D01*
X130868Y56958D01*
X130907Y56934D01*
X130945Y56872D01*
X130945Y56872D01*
X130951Y56861D01*
X130958Y56856D01*
X130959Y56855D01*
X131101Y56514D01*
X131127Y46770D01*
X131137Y43306D01*
X131198Y20596D01*
X131195Y20593D01*
X131167Y20499D01*
X131098Y20430D01*
X131096Y20425D01*
X124667Y16948D01*
X124667Y16948D01*
X124667D01*
X124511Y16879D01*
X124511D01*
X124233Y16758D01*
X124233Y16758D01*
X124229Y16756D01*
X124229Y16756D01*
X124226Y16755D01*
X124226D01*
X124225Y16755D01*
X124225Y16755D01*
X124222Y16753D01*
X124222D01*
X124219Y16752D01*
X124219D01*
X124219Y16752D01*
X124219Y16752D01*
X124184Y16737D01*
X124184D01*
X124184Y16737D01*
X124167Y16738D01*
X124160Y16736D01*
X124160Y16736D01*
X124157Y16735D01*
X124155Y16735D01*
X124154Y16735D01*
X124154Y16735D01*
X124147Y16733D01*
X124144Y16733D01*
X124144Y16733D01*
X124128Y16734D01*
X124128Y16734D01*
X124068Y16714D01*
X124029Y16718D01*
X124028Y16718D01*
X124022Y16713D01*
X124016Y16713D01*
X124015Y16713D01*
X124014Y16713D01*
X124014D01*
X124010Y16711D01*
X124010D01*
X124006Y16710D01*
X123986Y16703D01*
X123957Y16705D01*
X123957Y16705D01*
X123957Y16705D01*
X123953Y16704D01*
X123940Y16705D01*
X123935Y16707D01*
X123935Y16707D01*
X123930Y16705D01*
X123897Y16709D01*
X123868Y16700D01*
X113200D01*
X110417Y14165D01*
X110363Y14201D01*
X109700Y14333D01*
X109037Y14201D01*
X108474Y13826D01*
X108099Y13263D01*
X107967Y12600D01*
X107978Y12542D01*
X107978Y12542D01*
X107289Y12405D01*
X107261Y12386D01*
X107261Y12386D01*
X107168Y12368D01*
X107127Y12340D01*
X107092Y12343D01*
X107081Y12340D01*
X107079Y12338D01*
X107077Y12338D01*
X107076Y12338D01*
X107075Y12338D01*
X107072Y12337D01*
X107010Y12284D01*
X107006Y12283D01*
X106985Y12265D01*
X106962Y12265D01*
X106949Y12260D01*
X106935Y12246D01*
X106878Y12228D01*
X106870Y12222D01*
X106868Y12218D01*
X106854Y12214D01*
X106853Y12213D01*
X106849Y12204D01*
X106805Y12167D01*
X106803Y12164D01*
X106768Y12153D01*
X106766Y12152D01*
X102917Y12189D01*
X102913Y12188D01*
X102910Y12189D01*
X102910D01*
X102902Y12186D01*
X102894Y12189D01*
X102857Y12190D01*
X102850Y12186D01*
X102844Y12189D01*
X102822Y12189D01*
X102742Y12155D01*
X102738Y12154D01*
X102706Y12156D01*
X102703Y12155D01*
X102701Y12154D01*
X102679Y12163D01*
X102655Y12153D01*
X102621Y12155D01*
X102573Y12139D01*
X102561Y12129D01*
X102553Y12125D01*
X102502D01*
X102473Y12113D01*
X102435Y12113D01*
X102432Y12111D01*
X102430Y12111D01*
X102401Y12099D01*
X102400Y12098D01*
X102396Y12098D01*
X102393Y12097D01*
X102389Y12097D01*
X102389Y12097D01*
X102387Y12095D01*
X102386Y12095D01*
X102385Y12095D01*
X102383Y12095D01*
X102383Y12094D01*
X102383D01*
X102381Y12094D01*
X102377Y12095D01*
X102377D01*
X102375Y12094D01*
X102375D01*
X102372Y12093D01*
X102372D01*
X102370Y12093D01*
X102363Y12093D01*
X102350Y12087D01*
X102350Y12087D01*
X102350Y12087D01*
X102345Y12087D01*
X102339Y12084D01*
X102329D01*
X102328Y12084D01*
X102326Y12082D01*
X102319Y12082D01*
X102315Y12081D01*
X102307Y12072D01*
X102295D01*
X102267Y12060D01*
X102267Y12060D01*
X102267Y12060D01*
X102247Y12062D01*
X102242Y12060D01*
X102181Y12060D01*
X102163Y12052D01*
X102160Y12052D01*
X102160Y12052D01*
X102160Y12052D01*
X102152Y12052D01*
X102143Y12049D01*
X102136Y12049D01*
X102135Y12048D01*
X102135D01*
X102133Y12048D01*
X102111Y12039D01*
X102106Y12039D01*
X102103Y12040D01*
X102088D01*
X102086Y12039D01*
X102067Y12047D01*
X100789Y12037D01*
X100730Y12012D01*
X100667Y12025D01*
X100599Y12011D01*
X100492Y11940D01*
X100365Y11914D01*
X100258Y11843D01*
X100257Y11842D01*
X99910Y11610D01*
X99858Y11600D01*
X99142D01*
X99090Y11610D01*
X98743Y11843D01*
X98723Y11872D01*
X98644Y11925D01*
X98620Y11982D01*
X98620Y11982D01*
X98549Y12011D01*
X98492Y12082D01*
X98470Y12094D01*
X98470Y12094D01*
X98470Y12094D01*
X98397Y12134D01*
X98391Y12134D01*
X98387Y12139D01*
X98373Y12146D01*
X98370Y12147D01*
X98368Y12149D01*
X98361Y12153D01*
X98356Y12154D01*
X98354Y12157D01*
X98353Y12157D01*
X98259Y12167D01*
X98193Y12212D01*
X98192Y12212D01*
X98190Y12212D01*
X98180Y12218D01*
X98178Y12219D01*
X98148Y12213D01*
X98148Y12213D01*
X98142Y12212D01*
X98118Y12207D01*
X98049Y12236D01*
X97350Y12243D01*
X97350Y12243D01*
X97349D01*
Y17502D01*
X97350Y17502D01*
X97387Y17587D01*
X97387Y17599D01*
X97398Y17610D01*
X97405Y17628D01*
Y17628D01*
X97408Y17632D01*
X97440Y17711D01*
X97452Y17722D01*
X97468Y17736D01*
X97468Y17736D01*
X97490Y17756D01*
X97495Y17766D01*
X98377Y18615D01*
X98377Y18615D01*
X98706Y18931D01*
X98706Y18931D01*
X98706Y18931D01*
X98736Y18961D01*
X98736D01*
X98824Y18995D01*
X98830Y19001D01*
X98833D01*
X98836Y19003D01*
X98842Y19003D01*
X98844Y19003D01*
X98848Y19007D01*
X98853D01*
X98959Y19051D01*
X103882D01*
X104002Y19100D01*
X104131D01*
X104351Y19191D01*
X104443Y19283D01*
X104562Y19332D01*
X106520Y21290D01*
X106520D01*
X107063Y21653D01*
X107063Y21653D01*
X107063D01*
X107063Y21653D01*
X107063Y21653D01*
X107063Y21653D01*
X107063Y21653D01*
X107063Y21653D01*
X107063D01*
X107126Y21695D01*
X107131Y21696D01*
X107131Y21696D01*
X107134Y21701D01*
X107141Y21703D01*
X107142Y21704D01*
X107146Y21703D01*
X107146Y21703D01*
X107147Y21704D01*
X107147D01*
X107263Y21727D01*
X107263Y21727D01*
X107263Y21727D01*
X107864Y21847D01*
X117191D01*
X117306Y21894D01*
X117431Y21893D01*
X117700Y22000D01*
Y22045D01*
X117720Y22064D01*
X117846Y22119D01*
X118087Y22366D01*
X118116Y22440D01*
X118180Y22488D01*
X118239Y22587D01*
X118258Y22719D01*
X118262Y22723D01*
X118265Y22727D01*
X118265Y22727D01*
X118283Y22746D01*
X118291Y22764D01*
Y22783D01*
X118326Y22846D01*
X118329Y22871D01*
X118318Y22908D01*
X118318Y22908D01*
X118336Y22942D01*
X118338Y22959D01*
X118345Y22972D01*
X118335Y23009D01*
X118349Y23044D01*
Y23080D01*
X118349Y23080D01*
Y42519D01*
X118349Y42520D01*
Y42520D01*
X118349Y42521D01*
X118349Y42522D01*
X118349Y42650D01*
X118299Y42770D01*
Y42770D01*
X118299Y42770D01*
X118299Y42900D01*
X118249Y43018D01*
X118249Y43018D01*
Y43018D01*
X118249Y43018D01*
Y43019D01*
X118173Y43200D01*
Y43201D01*
X118173Y43201D01*
X118173Y43202D01*
Y43202D01*
X118173Y43202D01*
X118173Y43203D01*
X118172Y43203D01*
X118170Y43206D01*
X118121Y43323D01*
X118033Y43412D01*
X118032Y43413D01*
X118032Y43414D01*
X118030Y43414D01*
X118030Y43415D01*
X118030Y43415D01*
X118030Y43418D01*
X118030Y43419D01*
X118026Y43422D01*
X117978Y43536D01*
X117892Y43621D01*
X117892Y43622D01*
X117891Y43623D01*
X117891Y43623D01*
X117890Y43624D01*
X117887Y43627D01*
X117886Y43627D01*
X117885Y43630D01*
X115582Y45908D01*
X110711Y50725D01*
X109561Y51862D01*
X109533Y51873D01*
X109529Y51886D01*
X109511Y51904D01*
X109468Y51924D01*
X109468Y51925D01*
X109468Y51925D01*
X109467Y51925D01*
X109442Y51936D01*
X109439Y51945D01*
X109439Y51945D01*
X109404Y51960D01*
X109403Y51961D01*
X109358Y52006D01*
X109326Y52019D01*
X109279Y52065D01*
X109224Y52088D01*
X109224D01*
X109224Y52088D01*
X109192Y52101D01*
X109192D01*
X109100Y52200D01*
X98154D01*
X98101Y52463D01*
X97726Y53026D01*
Y53374D01*
X98101Y53937D01*
X98233Y54600D01*
X98195Y54791D01*
X98625Y55192D01*
X99163Y55299D01*
X99726Y55674D01*
X99950Y56010D01*
X100259Y56203D01*
X100587Y56132D01*
X100937Y55899D01*
X101600Y55767D01*
X102263Y55899D01*
X102826Y56274D01*
X103201Y56837D01*
X103333Y57500D01*
X103201Y58163D01*
X102826Y58726D01*
X102263Y59101D01*
X101600Y59233D01*
X100937Y59101D01*
X100374Y58726D01*
X100150Y58390D01*
X99841Y58197D01*
X99513Y58268D01*
X99163Y58501D01*
X98500Y58633D01*
X97837Y58501D01*
X97274Y58126D01*
X96899Y57563D01*
X96767Y56900D01*
X96805Y56709D01*
X96375Y56308D01*
X95837Y56201D01*
X95274Y55826D01*
X94899Y55263D01*
X94767Y54600D01*
X94899Y53937D01*
X95274Y53374D01*
Y53026D01*
X94899Y52463D01*
X94892Y52458D01*
X94361Y52272D01*
X94360Y52272D01*
X94255Y52272D01*
X94190Y52246D01*
X94181Y52249D01*
X94175D01*
X94111Y52223D01*
X94099D01*
X94092Y52226D01*
X94083Y52225D01*
X94076Y52222D01*
X94073Y52223D01*
X94052D01*
X94051Y52223D01*
X94046Y52224D01*
X94032Y52223D01*
X94031Y52223D01*
X94031Y52223D01*
X93988D01*
X93932Y52200D01*
X87595D01*
X87595Y52200D01*
X87585D01*
X87573Y52210D01*
X87467Y52203D01*
X87368Y52244D01*
X87361D01*
X87356Y52248D01*
X87130Y52337D01*
X86933Y52700D01*
X86801Y53363D01*
X86426Y53926D01*
X85863Y54301D01*
X85200Y54433D01*
X84537Y54301D01*
X83974Y53926D01*
X83599Y53363D01*
X83467Y52700D01*
X83489Y52587D01*
X83172Y52200D01*
X81371D01*
X81371Y52200D01*
X81371Y52200D01*
X81148Y52331D01*
X81148D01*
X81062Y52382D01*
X81046Y52384D01*
X81041Y52391D01*
X81037Y52393D01*
X81032Y52393D01*
X81028Y52398D01*
X81027Y52398D01*
X81025Y52398D01*
X81021Y52401D01*
X81020Y52401D01*
X81019Y52403D01*
X81014Y52406D01*
X81013Y52406D01*
X81013Y52406D01*
X81010Y52408D01*
X81007Y52408D01*
X81005Y52411D01*
X81001Y52413D01*
X81001Y52413D01*
X81001Y52413D01*
X80997Y52413D01*
X80997Y52414D01*
X80996Y52414D01*
X80992Y52415D01*
X80992Y52415D01*
X80980Y52416D01*
X80969Y52423D01*
X80967Y52423D01*
X80950Y52433D01*
X80944Y52434D01*
X80940Y52439D01*
X80913Y52454D01*
X80818Y52464D01*
X80791Y52481D01*
X80791Y52481D01*
X80784Y52479D01*
X80773Y52486D01*
X80766Y52484D01*
X80760Y52487D01*
X80758Y52487D01*
X80738Y52499D01*
X80737Y52499D01*
X80730Y52497D01*
X80728Y52498D01*
X80726Y52500D01*
X80719Y52503D01*
X80667Y52531D01*
X80653Y52533D01*
X80614Y52521D01*
X80576Y52536D01*
X80513Y52536D01*
X80487Y52547D01*
X80486Y52546D01*
X80477Y52549D01*
X80471D01*
X80471Y52549D01*
X80471Y52549D01*
X80436Y52549D01*
X80436Y52549D01*
X69641D01*
X69563Y52601D01*
X68900Y52733D01*
X68237Y52601D01*
X68159Y52549D01*
X67408D01*
X67330Y52601D01*
X66667Y52733D01*
X66003Y52601D01*
X65926Y52549D01*
X65174D01*
X65097Y52601D01*
X64433Y52733D01*
X63770Y52601D01*
X63692Y52549D01*
X62941D01*
X62863Y52601D01*
X62200Y52733D01*
X61537Y52601D01*
X61459Y52549D01*
X60972D01*
X60971Y52549D01*
X60970Y52549D01*
X60866Y52549D01*
X60746Y52499D01*
X60616Y52498D01*
X60507Y52452D01*
X60507Y52451D01*
X60506Y52451D01*
X60279Y52355D01*
X60266Y52342D01*
X60265Y52342D01*
X60262Y52341D01*
X60184Y52261D01*
X60069Y52211D01*
X60058Y52200D01*
X59600D01*
X59628Y51117D01*
Y51117D01*
X59696Y48445D01*
X59696Y48444D01*
X59700Y48300D01*
X59537Y47901D01*
X58974Y47526D01*
X58599Y46963D01*
X58467Y46300D01*
X58599Y45637D01*
X58974Y45074D01*
X59537Y44699D01*
X60200Y44567D01*
X60863Y44699D01*
X61027Y44808D01*
X61510Y44680D01*
X62821Y42059D01*
X62821Y42051D01*
X62832Y42028D01*
X62833Y41991D01*
X62840Y41976D01*
X62839Y41971D01*
X62839Y41968D01*
X62845Y41954D01*
X62841Y41939D01*
X62841Y41939D01*
X62854Y41914D01*
X62853Y41897D01*
X62876Y41871D01*
X62877Y41856D01*
X62875Y41849D01*
X62876Y41846D01*
X62878Y41843D01*
X62878Y41840D01*
X62879Y41814D01*
X62881Y41809D01*
X62881Y41809D01*
X62883Y41782D01*
X62884Y41781D01*
X62883Y41780D01*
X62884Y41767D01*
X62895Y41747D01*
X62895Y41736D01*
X62895Y41735D01*
Y41735D01*
X62900Y41725D01*
Y39174D01*
X62537Y39101D01*
X61974Y38726D01*
X61599Y38163D01*
X61467Y37500D01*
X61599Y36837D01*
X61974Y36274D01*
X62537Y35899D01*
X62900Y35826D01*
Y32504D01*
X62400Y32094D01*
X62200Y32133D01*
X61537Y32001D01*
X60974Y31626D01*
X60599Y31063D01*
X60467Y30400D01*
X60585Y29807D01*
X60532Y29631D01*
X60289Y29300D01*
X57877D01*
X57877Y29300D01*
X57748Y29300D01*
X57527Y29391D01*
X57082Y29837D01*
X57079Y29838D01*
X57079Y29838D01*
X57066Y29851D01*
X57058Y29869D01*
X57058Y29870D01*
X56938Y29919D01*
X56847Y30011D01*
X56827Y30019D01*
X56826D01*
X56825Y30020D01*
X56437Y30178D01*
X56430Y30178D01*
X56344Y30214D01*
X56340D01*
X56336Y30217D01*
X56336Y30217D01*
X56322Y30217D01*
X56311Y30227D01*
X56310Y30227D01*
X56289Y30226D01*
X56287Y30227D01*
X56191Y30227D01*
X56191Y30227D01*
X56184D01*
X56095Y30264D01*
X56095D01*
X56095Y30264D01*
X56095Y30264D01*
X56077Y30264D01*
X56077Y30264D01*
X56051Y30274D01*
X56043D01*
X56038Y30276D01*
X56038D01*
X56023Y30270D01*
X56023Y30270D01*
X56007Y30271D01*
X55994Y30276D01*
X55983D01*
X55977Y30273D01*
X53800Y30451D01*
X53777Y30462D01*
X53674Y30471D01*
X53587Y30525D01*
X53562Y30529D01*
X53369Y30649D01*
X53207Y30799D01*
X53207Y30800D01*
X53206Y30800D01*
X53206Y30800D01*
X53206Y30800D01*
X53201Y30806D01*
X53201Y30808D01*
X53188Y30823D01*
X53189Y30843D01*
X53189Y30843D01*
X53178Y30855D01*
X53178Y30857D01*
X53178Y30857D01*
X53175Y30861D01*
X53176Y30881D01*
X53156Y30940D01*
X53154Y30943D01*
X53154Y30946D01*
X53127Y31028D01*
X53121Y31035D01*
X53122Y31048D01*
X53122Y31048D01*
X53119Y31052D01*
X53118Y31053D01*
X53116Y31056D01*
X53046Y31141D01*
X53010Y31263D01*
X53006Y31268D01*
X52997Y31273D01*
X52993Y31283D01*
X52951Y31304D01*
X52929Y31349D01*
X52588Y31649D01*
X52587Y31649D01*
X52587Y31650D01*
X52572Y31663D01*
X52476Y31695D01*
X52429Y31744D01*
X52418Y31757D01*
X52325Y31803D01*
X52213Y31811D01*
X52190Y31823D01*
X52173Y31824D01*
X52173Y31824D01*
X52081Y31870D01*
X51870Y31885D01*
X51500Y32200D01*
Y32200D01*
X51500Y32200D01*
X48581Y32208D01*
X44946Y32218D01*
X38802Y32235D01*
X38744Y32265D01*
X38712Y32269D01*
X38689Y32291D01*
X38632Y32315D01*
X38460Y32521D01*
X38431Y32613D01*
X38398Y32772D01*
X38408Y32962D01*
X38661Y33573D01*
X38783Y34500D01*
X38661Y35427D01*
X38303Y36292D01*
X37734Y37034D01*
X36992Y37603D01*
X36127Y37961D01*
X35200Y38083D01*
X34273Y37961D01*
X33408Y37603D01*
X32666Y37034D01*
X32097Y36292D01*
X31739Y35427D01*
X31617Y34500D01*
X31739Y33573D01*
X32012Y32913D01*
X32021Y32869D01*
X32022Y32818D01*
X31855Y32368D01*
X31787Y32296D01*
X31694Y32254D01*
X26832Y32267D01*
X24702Y32273D01*
X24400Y32333D01*
X24106Y32275D01*
X22066Y32280D01*
X21927Y32308D01*
X21927D01*
X21800Y32333D01*
X21541Y32282D01*
X19126Y32289D01*
X19125Y32289D01*
X19027Y32308D01*
X18900Y32333D01*
X18681Y32290D01*
X15254Y32299D01*
X14901Y32654D01*
X14923Y38405D01*
X15326Y38674D01*
X15701Y39237D01*
X15833Y39900D01*
X15701Y40563D01*
X15326Y41126D01*
X14934Y41387D01*
X14978Y52752D01*
X15101Y52937D01*
X15233Y53600D01*
X15101Y54263D01*
X14984Y54439D01*
X15000Y58600D01*
X15916D01*
X15928Y58583D01*
X15943Y58572D01*
X15943Y58572D01*
X15946Y58566D01*
X15946Y58566D01*
X15946Y58566D01*
X15997Y58514D01*
X16075Y58482D01*
X16078Y58479D01*
X16100Y58470D01*
X16138Y58433D01*
X16138D01*
X16138Y58433D01*
X16156Y58425D01*
X16156Y58425D01*
X16156Y58425D01*
X16156D01*
X16157Y58425D01*
X16186Y58425D01*
X16289Y58346D01*
X16380Y58322D01*
X16442Y58330D01*
X16457Y58324D01*
X16473Y58331D01*
X16548Y58300D01*
X44892D01*
X44906Y58291D01*
X44970Y58279D01*
X44970Y58278D01*
X44971Y58273D01*
X44980Y58260D01*
X45005Y58243D01*
X45017Y58232D01*
X45017Y58232D01*
X45017Y58232D01*
X45031Y58226D01*
X45062Y58196D01*
X45069Y58185D01*
X45107Y58160D01*
X45142Y58107D01*
X45152Y58085D01*
X45160Y58081D01*
X45195Y58058D01*
X45216Y58054D01*
X45299Y57637D01*
X45674Y57074D01*
X46237Y56699D01*
X46900Y56567D01*
X47563Y56699D01*
X48126Y57074D01*
X48501Y57637D01*
X48611Y58189D01*
X48624Y58198D01*
X48642Y58223D01*
X48651Y58272D01*
X48653Y58274D01*
X48658Y58277D01*
X48707D01*
X48763Y58300D01*
X50495D01*
X50621Y58352D01*
X50758Y58355D01*
X51169Y58537D01*
X51274Y58647D01*
X51353Y58675D01*
X51404Y58721D01*
X51447Y58810D01*
X51492Y58851D01*
X51505Y58878D01*
X51506Y58890D01*
X51512Y58896D01*
X51512Y58904D01*
X51578Y58976D01*
X51960Y59992D01*
X51958Y60043D01*
X52000Y60100D01*
X52034Y64226D01*
X52093Y71445D01*
X52313Y72111D01*
X52612Y72245D01*
X52802Y72300D01*
X61607D01*
X62000Y72042D01*
X62000D01*
X62000Y72042D01*
Y67065D01*
X61999Y67063D01*
X61867Y66400D01*
X61999Y65737D01*
X62000Y65735D01*
Y65600D01*
X62131Y65539D01*
X62151Y65509D01*
X62163Y65479D01*
X62186Y65456D01*
X62374Y65174D01*
X62529Y65071D01*
X62818Y64782D01*
X62938Y64732D01*
X63029Y64641D01*
X63250Y64549D01*
X63379D01*
X63498Y64500D01*
X63627D01*
X63627Y64500D01*
X64218D01*
X64231Y64495D01*
X64345D01*
X64346Y64495D01*
X64450Y64446D01*
X64450Y64446D01*
X64450Y64446D01*
X64463Y64445D01*
X64476Y64439D01*
X64477Y64439D01*
X65200Y64100D01*
X71800D01*
X71848Y64107D01*
X71848Y64107D01*
X81800Y65600D01*
X90671D01*
X90703Y65587D01*
X90731D01*
X90738Y65583D01*
X90812Y65578D01*
X90812Y65578D01*
X90812Y65578D01*
X90855Y65554D01*
X90855Y65554D01*
X90855Y65554D01*
X90857Y65554D01*
X90859Y65552D01*
X90871Y65545D01*
X90874Y65545D01*
X90876Y65543D01*
X90879Y65541D01*
X90913Y65537D01*
X90943Y65520D01*
X90944Y65520D01*
X90945Y65520D01*
X90945Y65520D01*
X91722Y65088D01*
X91757Y65084D01*
X91839Y65039D01*
X91877Y65035D01*
X91904Y65007D01*
X91904Y65007D01*
X91995Y65007D01*
X91999Y65007D01*
X91999Y65007D01*
X92031Y64993D01*
X92067Y64993D01*
X92154Y64957D01*
X92247Y64957D01*
X92280Y64944D01*
X92316Y64944D01*
X92316Y64944D01*
X92316Y64944D01*
X93877Y64945D01*
X93904Y64956D01*
X93932Y64947D01*
X94130Y65050D01*
X94336Y65135D01*
X94347Y65162D01*
X94373Y65176D01*
X94717Y65585D01*
X95037Y65499D01*
X95700Y65367D01*
X96363Y65499D01*
X96828Y65315D01*
X96947Y65216D01*
X96980Y65137D01*
X97029Y65117D01*
X97073Y65058D01*
X97110Y65037D01*
X97174Y65028D01*
X97210Y64998D01*
X97298Y65006D01*
X97439Y64947D01*
X98260Y64948D01*
X98306Y64967D01*
X98317Y64962D01*
X98355Y64978D01*
X98424Y64969D01*
X98480Y64983D01*
X98617Y65087D01*
X98637Y65096D01*
X98684Y65100D01*
X98702Y65122D01*
X98776Y65153D01*
X98836Y65213D01*
X99187Y65330D01*
X99296Y65347D01*
X99359Y65351D01*
X99437Y65299D01*
X100100Y65167D01*
X100763Y65299D01*
X101214Y65600D01*
X102628Y65599D01*
X103586Y65600D01*
X103737Y65499D01*
X104400Y65367D01*
X105063Y65499D01*
X105214Y65600D01*
X107864Y65600D01*
X110500Y65600D01*
X114772Y69795D01*
X116100Y71100D01*
Y73961D01*
X116143Y74058D01*
X116143Y74066D01*
X116143Y74066D01*
X116148Y74071D01*
X116189Y74168D01*
X116189Y74169D01*
X116216Y74195D01*
X116251Y74198D01*
X116302Y74262D01*
X116333Y74274D01*
X116337Y74278D01*
X116340Y74284D01*
X116398Y74308D01*
X116414Y74311D01*
X116886Y74350D01*
X116956Y74320D01*
X117309Y74084D01*
X117391Y73537D01*
X117374Y73526D01*
X116999Y72963D01*
X116867Y72300D01*
X116999Y71637D01*
X117374Y71074D01*
X117937Y70699D01*
X118340Y70618D01*
X118732Y70234D01*
X118788Y70094D01*
X118899Y69537D01*
X119274Y68974D01*
X119837Y68599D01*
X120500Y68467D01*
X121163Y68599D01*
X121726Y68974D01*
X122101Y69537D01*
X122233Y70200D01*
X122101Y70863D01*
X121726Y71426D01*
X121163Y71801D01*
X120760Y71882D01*
X120368Y72266D01*
X120312Y72406D01*
X120201Y72963D01*
X119826Y73526D01*
X119390Y73816D01*
X119309Y74363D01*
X119326Y74374D01*
X119701Y74937D01*
X119833Y75600D01*
X119791Y75814D01*
X120108Y76200D01*
X122701D01*
X122701Y76200D01*
X122701D01*
X122701Y76200D01*
X122710Y76196D01*
X122718D01*
X122726Y76200D01*
X122781D01*
X122825Y76185D01*
D02*
G37*
G36*
X80485Y51897D02*
X80490Y51892D01*
X80490Y51892D01*
X80492D01*
X80493Y51891D01*
X80500Y51888D01*
X80508D01*
X80512Y51886D01*
X80584Y51887D01*
X80598Y51885D01*
X80625Y51871D01*
X80625Y51871D01*
X80652Y51855D01*
X80654Y51855D01*
X80675Y51843D01*
X80676Y51843D01*
X80679Y51843D01*
X80681Y51842D01*
X80681Y51842D01*
X80684Y51843D01*
X80686Y51842D01*
X80688Y51841D01*
X80689Y51842D01*
X80690Y51841D01*
X80692Y51841D01*
X80693Y51841D01*
X80693Y51841D01*
X80696Y51839D01*
X80699Y51838D01*
X80699Y51838D01*
X80704Y51835D01*
X80708Y51834D01*
X80713Y51829D01*
X80720Y51825D01*
X80722Y51825D01*
X80722Y51825D01*
X80726Y51823D01*
X80726Y51823D01*
X80726Y51823D01*
X80733Y51822D01*
X80819Y51771D01*
X80819D01*
X81042Y51640D01*
X81042Y51640D01*
X83263Y50334D01*
X83264Y50334D01*
X92476Y44919D01*
X95836Y42944D01*
X95952Y42872D01*
X95952Y42872D01*
X96028Y42825D01*
X96078Y42756D01*
X96112Y42735D01*
X96112Y42735D01*
X96125Y42698D01*
X96182Y42636D01*
X96213Y42551D01*
X96213Y42551D01*
X96232Y42497D01*
X96237Y42492D01*
X96244Y42465D01*
X96245Y42464D01*
X96258Y42409D01*
X96334Y42307D01*
X96334Y42305D01*
X96355Y42202D01*
X96550Y41908D01*
X96553Y41906D01*
X96553Y41906D01*
X96585Y41856D01*
X96591Y41852D01*
X96592Y41845D01*
X96610Y41818D01*
X96627Y41806D01*
X96632Y41787D01*
X96633Y41786D01*
X96713Y41739D01*
X96719Y41729D01*
X96728Y41722D01*
X96730Y41722D01*
X96730Y41722D01*
X96731Y41721D01*
X96731Y41721D01*
X96736Y41714D01*
X96760Y41700D01*
X96823Y41617D01*
X96911Y41565D01*
X96911D01*
X96925Y41545D01*
X96949Y41532D01*
X96949D01*
X96949Y41531D01*
X97707Y41086D01*
X97730Y41083D01*
X97746Y41065D01*
X97746Y41065D01*
X97832Y41059D01*
X97840Y41054D01*
X97879Y41051D01*
X97979Y40999D01*
X98048Y40993D01*
X98061Y40985D01*
X98061Y40985D01*
X98076Y40990D01*
X98157Y40979D01*
X98266Y41007D01*
X98305Y41001D01*
X98317Y41005D01*
X98404Y40992D01*
X98405Y40992D01*
X98421Y41004D01*
X98441Y41002D01*
X98772Y41105D01*
X98809Y41109D01*
X98876Y41088D01*
X98932Y41093D01*
X98980Y41065D01*
X99049Y41055D01*
X100192Y40383D01*
X100192Y40383D01*
X100192Y40383D01*
X100328Y40303D01*
X100336Y40293D01*
X100436Y40234D01*
X100503Y40138D01*
X100527Y40035D01*
X100558Y39552D01*
X100499Y39463D01*
X100367Y38800D01*
X100499Y38137D01*
X100874Y37574D01*
X101437Y37199D01*
X102100Y37067D01*
X102763Y37199D01*
X103326Y37574D01*
X103701Y38137D01*
X103701Y38137D01*
X104188Y38034D01*
X107688Y35977D01*
X109835Y34714D01*
X110115Y34464D01*
X110117Y34459D01*
X110186Y34390D01*
X110200Y34347D01*
Y27009D01*
X110153Y26932D01*
X109946Y26776D01*
X109911Y26754D01*
X109860Y26744D01*
X109797Y26702D01*
X109797Y26702D01*
X109721Y26701D01*
X109721Y26701D01*
X109721D01*
X109674Y26680D01*
X104776Y26582D01*
X100916Y26569D01*
X100915Y26569D01*
X100816Y26612D01*
X100810Y26612D01*
X100805Y26617D01*
X100805Y26617D01*
X100805Y26617D01*
X100756Y26637D01*
X100752Y26641D01*
X100685Y26781D01*
X100601Y26856D01*
X100559Y26959D01*
X100514Y27106D01*
X100801Y27537D01*
X100933Y28200D01*
X100801Y28863D01*
X100426Y29426D01*
X99863Y29801D01*
X99200Y29933D01*
X98537Y29801D01*
X97974Y29426D01*
X97599Y28863D01*
X97467Y28200D01*
X97599Y27537D01*
X97725Y27348D01*
X97842Y27073D01*
X97830Y26956D01*
X97707Y26638D01*
X97673Y26594D01*
X97655Y26593D01*
X97586Y26558D01*
X97013Y26557D01*
X96901Y26663D01*
X96526Y27226D01*
X95963Y27601D01*
X95300Y27733D01*
X94637Y27601D01*
X94074Y27226D01*
X93699Y26663D01*
X93675Y26546D01*
X89076Y26530D01*
X83917Y26513D01*
X83653Y26904D01*
X83601Y27163D01*
X83226Y27726D01*
X82663Y28101D01*
X82000Y28233D01*
X81337Y28101D01*
X80774Y27726D01*
X80399Y27163D01*
X80267Y26501D01*
X79900Y26500D01*
X79512Y26127D01*
X79512Y26127D01*
X78467Y25122D01*
X78467Y25122D01*
X77492Y24185D01*
X77300Y24000D01*
X77300Y23723D01*
X77300Y23723D01*
Y19537D01*
X77296Y19531D01*
X77262Y19397D01*
X77266Y19374D01*
X77264Y19370D01*
X77264Y19354D01*
X77254Y19343D01*
X77253Y19342D01*
X77253Y19335D01*
X77249Y19330D01*
X77235Y19295D01*
Y19295D01*
X77230Y19289D01*
X77226Y19281D01*
Y19281D01*
X77225Y19280D01*
X77224Y19279D01*
X77224Y19279D01*
X77224Y19279D01*
X77223Y19277D01*
X77223Y19276D01*
X77222Y19274D01*
X77221Y19274D01*
X77217Y19263D01*
Y19263D01*
X77208Y19256D01*
X77200Y19240D01*
X77200Y19240D01*
X77200Y19240D01*
X77189Y19228D01*
X77177Y19199D01*
X77174Y19197D01*
X77167Y19181D01*
X77147Y19163D01*
X77145Y19158D01*
X77145Y19157D01*
X77144Y19157D01*
X77132Y19144D01*
X77128Y19143D01*
X77120Y19135D01*
X77113Y19118D01*
X77101Y19108D01*
X77100Y19106D01*
X77093Y19102D01*
X77093Y19102D01*
X77090Y19090D01*
X77090Y19090D01*
X77090Y19090D01*
X77045Y19045D01*
X77045Y19045D01*
X74999Y16999D01*
X74999Y16999D01*
X74971Y16971D01*
X74971Y16971D01*
X74554Y16554D01*
X74554Y16554D01*
X72883Y14883D01*
X72880Y14882D01*
X72876Y14878D01*
X72875Y14875D01*
X72872Y14874D01*
X72800Y14801D01*
X72440Y14702D01*
X72440D01*
X72435Y14700D01*
X62300D01*
Y2100D01*
X61002D01*
X60781Y2548D01*
X60903Y2708D01*
X61261Y3573D01*
X61383Y4500D01*
X61261Y5427D01*
X60903Y6292D01*
X60334Y7034D01*
X59592Y7603D01*
X58727Y7961D01*
X57800Y8083D01*
X56873Y7961D01*
X56008Y7603D01*
X55266Y7034D01*
X54697Y6292D01*
X54339Y5427D01*
X54217Y4500D01*
X54339Y3573D01*
X54697Y2708D01*
X54819Y2548D01*
X54598Y2100D01*
X51002D01*
X50781Y2548D01*
X50903Y2708D01*
X51261Y3573D01*
X51383Y4500D01*
X51261Y5427D01*
X50903Y6292D01*
X50334Y7034D01*
X49592Y7603D01*
X48727Y7961D01*
X47800Y8083D01*
X46873Y7961D01*
X46008Y7603D01*
X45266Y7034D01*
X44697Y6292D01*
X44339Y5427D01*
X44217Y4500D01*
X44339Y3573D01*
X44697Y2708D01*
X44819Y2548D01*
X44598Y2100D01*
X41002D01*
X40781Y2548D01*
X40903Y2708D01*
X41261Y3573D01*
X41383Y4500D01*
X41261Y5427D01*
X40903Y6292D01*
X40334Y7034D01*
X39592Y7603D01*
X38727Y7961D01*
X37800Y8083D01*
X36873Y7961D01*
X36008Y7603D01*
X35266Y7034D01*
X34697Y6292D01*
X34339Y5427D01*
X34217Y4500D01*
X34339Y3573D01*
X34697Y2708D01*
X34819Y2548D01*
X34598Y2100D01*
X21002D01*
X20781Y2548D01*
X20903Y2708D01*
X21261Y3573D01*
X21383Y4500D01*
X21261Y5427D01*
X20903Y6292D01*
X20465Y6863D01*
X20438Y6951D01*
X20363Y7042D01*
X20313Y7121D01*
X20262Y7228D01*
X20212Y7363D01*
X20166Y7527D01*
X20126Y7719D01*
X20094Y7932D01*
X20054Y8463D01*
X20049Y8764D01*
X20041Y8783D01*
Y14737D01*
X19878Y15556D01*
X19414Y16251D01*
X17441Y18224D01*
Y25200D01*
Y31290D01*
D01*
Y31600D01*
X17752D01*
X17795Y31643D01*
X18679Y31640D01*
X18741Y31666D01*
X18807Y31653D01*
X18900Y31671D01*
X18999Y31651D01*
X19063Y31664D01*
X19124Y31639D01*
X21540Y31632D01*
X21602Y31658D01*
X21668Y31645D01*
X21800Y31671D01*
X21939Y31644D01*
X22004Y31656D01*
X22064Y31631D01*
X24104Y31625D01*
X24167Y31651D01*
X24233Y31638D01*
X24400Y31671D01*
X24575Y31636D01*
X24640Y31649D01*
X24700Y31624D01*
X31813Y31604D01*
X31823Y31608D01*
X31832Y31605D01*
X32051Y31702D01*
X32056Y31704D01*
X32064Y31703D01*
X32074Y31712D01*
X32273Y31793D01*
X32537Y31859D01*
X32852Y31824D01*
X33408Y31397D01*
X34273Y31039D01*
X35200Y30917D01*
X36127Y31039D01*
X36992Y31397D01*
X37734Y31966D01*
X38192Y31826D01*
X38195Y31822D01*
X38223Y31807D01*
X38236Y31777D01*
X38439Y31692D01*
X38634Y31589D01*
X38665Y31598D01*
X38694Y31586D01*
X44944Y31569D01*
X51025Y31552D01*
X51030Y31541D01*
X51036Y31521D01*
X51038Y31520D01*
X51041Y31515D01*
X51068Y31488D01*
X51187Y31438D01*
X51251Y31365D01*
X51251Y31365D01*
X51251Y31365D01*
X51338Y31321D01*
X51402Y31317D01*
X51414Y31309D01*
X51439Y31314D01*
X51453Y31313D01*
X51462Y31308D01*
X51463Y31308D01*
X51463Y31308D01*
X51463Y31308D01*
X51481Y31299D01*
X51495Y31298D01*
X51495Y31298D01*
X51583Y31254D01*
X51608Y31253D01*
X51608Y31253D01*
X51608Y31253D01*
X51697Y31246D01*
X51697Y31246D01*
X52035Y31222D01*
X52127Y31176D01*
X52144Y31175D01*
X52158Y31163D01*
X52159Y31161D01*
X52159Y31161D01*
X52500Y30862D01*
X52500Y30861D01*
X52504Y30856D01*
X52503Y30845D01*
X52505Y30839D01*
X52512Y30831D01*
X52511Y30821D01*
X52539Y30739D01*
X52540Y30733D01*
X52541Y30733D01*
X52561Y30674D01*
X52564Y30671D01*
X52562Y30652D01*
X52562Y30652D01*
X52573Y30639D01*
X52573Y30638D01*
X52573Y30638D01*
X52586Y30623D01*
X52584Y30602D01*
X52585Y30601D01*
X52591Y30594D01*
X52591Y30592D01*
X52591Y30591D01*
X52658Y30515D01*
X52697Y30397D01*
X52710Y30382D01*
X52711Y30382D01*
X52712Y30379D01*
X52715Y30375D01*
X52715Y30375D01*
X52715Y30375D01*
X52749Y30358D01*
X52766Y30322D01*
X52928Y30172D01*
X52989Y30150D01*
X53026Y30098D01*
X53312Y29920D01*
X53313Y29920D01*
X53313Y29919D01*
X53328Y29910D01*
X53481Y29884D01*
X53619Y29814D01*
X55926Y29626D01*
X55928Y29627D01*
X55930Y29626D01*
X55970Y29622D01*
X55983Y29627D01*
X55994D01*
X56009Y29619D01*
X56014Y29619D01*
X56038Y29627D01*
X56038D01*
X56038Y29627D01*
X56043Y29625D01*
X56051D01*
X56076Y29614D01*
X56095Y29614D01*
X56095Y29614D01*
X56095Y29614D01*
X56095D01*
X56095Y29614D01*
X56096Y29614D01*
X56184Y29577D01*
X56191D01*
X56579Y29419D01*
X56599Y29411D01*
X56599Y29410D01*
X56607Y29392D01*
X56620Y29379D01*
X56622Y29378D01*
X57068Y28932D01*
X57187Y28883D01*
X57279Y28791D01*
X57499Y28700D01*
X57628Y28700D01*
X57748Y28651D01*
X57877D01*
X57877Y28651D01*
X58702D01*
X58976Y28150D01*
X58867Y27600D01*
X58999Y26937D01*
X59374Y26374D01*
X59937Y25999D01*
X60041Y25978D01*
X60272Y25422D01*
X60099Y25163D01*
X59967Y24500D01*
X60099Y23837D01*
X60474Y23274D01*
X61037Y22899D01*
X61700Y22767D01*
X62363Y22899D01*
X62926Y23274D01*
X63301Y23837D01*
X63433Y24500D01*
X63301Y25163D01*
X62926Y25726D01*
X62363Y26101D01*
X62258Y26122D01*
X62028Y26678D01*
X62201Y26937D01*
X62333Y27600D01*
X62214Y28199D01*
X62212Y28280D01*
X62494Y28725D01*
X62863Y28799D01*
X63200Y29024D01*
X64300D01*
X64827Y29128D01*
X65273Y29427D01*
X65466Y29620D01*
X65863Y29699D01*
X66426Y30074D01*
X66801Y30637D01*
X66933Y31300D01*
X66801Y31963D01*
X66426Y32526D01*
X65863Y32901D01*
X65200Y33033D01*
X64537Y32901D01*
X64155Y32647D01*
X63670Y32839D01*
X63601Y33237D01*
X63733Y33900D01*
X63601Y34563D01*
X63549Y34641D01*
Y35826D01*
X63555Y35837D01*
X63863Y35899D01*
X64426Y36274D01*
X64801Y36837D01*
X64933Y37500D01*
X64801Y38163D01*
X64426Y38726D01*
X63863Y39101D01*
X63555Y39163D01*
X63549Y39174D01*
Y41725D01*
X63538Y41752D01*
X63544Y41768D01*
X63543Y41779D01*
X63530Y41807D01*
X63532Y41814D01*
X63531Y41827D01*
X63531Y41828D01*
X63529Y41854D01*
X63527Y41859D01*
X63527Y41860D01*
X63526Y41884D01*
X63522Y41891D01*
X63525Y41898D01*
X63524Y41915D01*
X63513Y41936D01*
X63517Y41949D01*
X63516Y41952D01*
X63487Y41999D01*
X63487Y42003D01*
X63487Y42003D01*
X63487Y42003D01*
X63482Y42013D01*
X63481Y42059D01*
X63470Y42083D01*
X63469Y42103D01*
X63591Y42348D01*
X63692Y42500D01*
X63700Y42508D01*
X63838Y42594D01*
X64363Y42699D01*
X64926Y43074D01*
X65301Y43637D01*
X65433Y44300D01*
X65301Y44963D01*
X64926Y45526D01*
X64363Y45901D01*
X63700Y46033D01*
X63037Y45901D01*
X62474Y45526D01*
X61937Y45566D01*
X61822Y45738D01*
X61933Y46300D01*
X61801Y46963D01*
X61426Y47526D01*
X60863Y47901D01*
X60695Y47935D01*
X60353Y48312D01*
X60346Y48461D01*
X60346Y48461D01*
X60346Y48461D01*
X60277Y51134D01*
X60302Y51395D01*
X60519Y51744D01*
X60522Y51745D01*
X60534Y51758D01*
X60760Y51854D01*
X60868Y51900D01*
X60972Y51900D01*
X80436D01*
X80436Y51900D01*
X80471Y51900D01*
X80471Y51900D01*
X80477D01*
X80485Y51897D01*
D02*
G37*
G36*
X67796Y76822D02*
X82191Y76753D01*
X82194Y76749D01*
X82206Y76745D01*
X82213D01*
X82213Y76745D01*
X82213D01*
X82288Y76711D01*
X82299Y76710D01*
X82299Y76710D01*
X82300Y76710D01*
X82308Y76703D01*
X82314Y76700D01*
X82424Y76700D01*
X82434Y76696D01*
X82443Y76695D01*
X82449Y76697D01*
X82562Y76651D01*
X115959D01*
X116071Y75215D01*
X115940Y74769D01*
X115939Y74767D01*
X115889Y74748D01*
X115884Y74743D01*
X115884Y74743D01*
X115826Y74721D01*
X115740Y74638D01*
X115695Y74536D01*
X115694Y74535D01*
X115693Y74532D01*
X115689Y74530D01*
X115683Y74525D01*
X115674Y74503D01*
X115589Y74417D01*
X115548Y74320D01*
X115548Y74320D01*
X115506Y74223D01*
X115503Y74102D01*
X115494Y74081D01*
X115493Y74073D01*
X115495Y74069D01*
X115493Y74066D01*
X115494Y74065D01*
X115451Y73961D01*
Y71372D01*
X114317Y70259D01*
X110234Y66249D01*
X107864Y66249D01*
X107815Y66749D01*
X108063Y66799D01*
X108626Y67174D01*
X109001Y67737D01*
X109133Y68400D01*
X109001Y69063D01*
X108626Y69626D01*
X108063Y70001D01*
X107400Y70133D01*
X106737Y70001D01*
X106174Y69626D01*
X105799Y69063D01*
X105754Y68841D01*
X105199Y68611D01*
X105063Y68701D01*
X104400Y68833D01*
X103737Y68701D01*
X103174Y68326D01*
X102799Y67763D01*
X102667Y67100D01*
X102715Y66856D01*
X102391Y66435D01*
X102203Y66435D01*
X101831Y66889D01*
X101833Y66900D01*
X101701Y67563D01*
X101326Y68126D01*
X100763Y68501D01*
X100100Y68633D01*
X99437Y68501D01*
X98874Y68126D01*
X98499Y67563D01*
X98367Y66900D01*
X98499Y66237D01*
X98532Y66188D01*
X98377Y65672D01*
X98316Y65612D01*
X98260Y65597D01*
X97439Y65597D01*
X97402Y65618D01*
X97172Y66054D01*
X97233Y66334D01*
X97301Y66437D01*
X97433Y67100D01*
X97301Y67763D01*
X96926Y68326D01*
X96363Y68701D01*
X95700Y68833D01*
X95037Y68701D01*
X94474Y68326D01*
X94099Y67763D01*
X93967Y67100D01*
X94099Y66437D01*
X94209Y66272D01*
X94220Y66003D01*
X93876Y65594D01*
X92316Y65593D01*
X92316Y65593D01*
X92280Y65593D01*
X92247Y65607D01*
X92154Y65607D01*
X92154Y65607D01*
X92073Y65652D01*
X92073Y65652D01*
X92037Y65656D01*
X92037Y65656D01*
X91260Y66088D01*
X91259Y66088D01*
X91228Y66105D01*
X91194Y66109D01*
X91191Y66110D01*
X91189Y66113D01*
X91189Y66113D01*
X91186Y66113D01*
X91174Y66120D01*
X91174Y66120D01*
X91174Y66120D01*
X91172Y66122D01*
X91172Y66122D01*
X91170Y66122D01*
X91128Y66145D01*
X91036Y66156D01*
X91020Y66165D01*
X91019Y66165D01*
X91019Y66165D01*
X90986Y66183D01*
X90968Y66185D01*
X90947Y66197D01*
X90947Y66197D01*
X90936Y66194D01*
X90930Y66198D01*
X90927Y66197D01*
X90919Y66200D01*
X90909D01*
X90858Y66225D01*
X90785Y66231D01*
X90777Y66234D01*
X90754Y66227D01*
X90732Y66236D01*
X90703D01*
X90671Y66249D01*
X81800D01*
X81753Y66230D01*
X81704Y66242D01*
X71752Y64749D01*
X71752Y64749D01*
X71751Y64749D01*
X65345D01*
X64739Y65033D01*
X64725Y65034D01*
X64621Y65083D01*
X64506Y65088D01*
X64493Y65094D01*
X64479Y65095D01*
X64479Y65095D01*
X64479Y65095D01*
X64466Y65100D01*
X64452D01*
X64346Y65144D01*
X64231D01*
X64218Y65149D01*
X63627D01*
X63627Y65149D01*
X63498D01*
X63278Y65241D01*
X62988Y65530D01*
X62927Y65556D01*
X62890Y65611D01*
X62843Y65643D01*
X62831Y65660D01*
X62780Y65694D01*
X62768Y65754D01*
X62726Y65817D01*
X62671Y65854D01*
X62646Y65915D01*
X62622Y65938D01*
X62619Y65945D01*
X62529Y66400D01*
X62636Y66937D01*
X62623Y67001D01*
X62649Y67065D01*
Y69959D01*
X62701Y70037D01*
X62833Y70700D01*
X62701Y71363D01*
X62649Y71441D01*
Y72171D01*
X62587Y72322D01*
X62569Y72484D01*
X62502Y72845D01*
X62540Y73038D01*
X62561Y73185D01*
X62583Y73206D01*
X62600Y73248D01*
Y73295D01*
X62632Y73372D01*
Y73455D01*
X62649Y73497D01*
Y76191D01*
X62668Y76282D01*
X62797Y76678D01*
X62797Y76678D01*
X62821Y76698D01*
X62885Y76714D01*
X62960Y76771D01*
X63002Y76782D01*
X63018Y76794D01*
X63094Y76811D01*
X63094Y76811D01*
X63110Y76836D01*
X63131Y76845D01*
X63131Y76845D01*
X63131Y76845D01*
X67796Y76822D01*
D02*
G37*
G36*
X19400Y8753D02*
X19405Y8434D01*
X19448Y7860D01*
X19486Y7606D01*
X19534Y7373D01*
X19593Y7163D01*
X19663Y6974D01*
X19744Y6806D01*
X19835Y6661D01*
X19937Y6538D01*
X15806Y6678D01*
X15919Y6797D01*
X16020Y6939D01*
X16109Y7104D01*
X16186Y7290D01*
X16251Y7498D01*
X16305Y7729D01*
X16346Y7981D01*
X16376Y8256D01*
X16400Y8871D01*
X19400Y8753D01*
D02*
G37*
G36*
X193300Y79311D02*
X192800Y79043D01*
X192563Y79201D01*
X191900Y79333D01*
X191237Y79201D01*
X190674Y78826D01*
X190299Y78263D01*
X190292Y78229D01*
X189761Y78123D01*
X189626Y78326D01*
X189063Y78701D01*
X188400Y78833D01*
X187737Y78701D01*
X187174Y78326D01*
X186799Y77763D01*
X186667Y77100D01*
X186799Y76437D01*
X187174Y75874D01*
X187737Y75499D01*
X188400Y75367D01*
X189063Y75499D01*
X189626Y75874D01*
X190001Y76437D01*
X190008Y76471D01*
X190539Y76577D01*
X190674Y76374D01*
X191237Y75999D01*
X191900Y75867D01*
X192563Y75999D01*
X192800Y76157D01*
X193300Y75889D01*
Y17019D01*
X192801Y16963D01*
X192426Y17526D01*
X191863Y17901D01*
X191200Y18033D01*
X190652Y17924D01*
X190453Y18321D01*
X190436Y18390D01*
X190801Y18937D01*
X190933Y19600D01*
X190801Y20263D01*
X190426Y20826D01*
X189863Y21201D01*
X189200Y21333D01*
X188537Y21201D01*
X187974Y20826D01*
X187599Y20263D01*
X187467Y19600D01*
X187599Y18937D01*
X187974Y18374D01*
X188537Y17999D01*
X189200Y17867D01*
X189748Y17976D01*
X189947Y17579D01*
X189964Y17511D01*
X189599Y16963D01*
X189467Y16300D01*
X189599Y15637D01*
X189709Y15471D01*
X189349Y15111D01*
X189063Y15301D01*
X188400Y15433D01*
X187737Y15301D01*
X187174Y14926D01*
X186799Y14363D01*
X186667Y13700D01*
X186759Y13238D01*
X186310Y12936D01*
X186063Y13101D01*
X185400Y13233D01*
X184737Y13101D01*
X184174Y12726D01*
X183799Y12163D01*
X183667Y11500D01*
X183799Y10837D01*
X184174Y10274D01*
X184737Y9899D01*
X185400Y9767D01*
X186063Y9899D01*
X186626Y10274D01*
X187001Y10837D01*
X187133Y11500D01*
X187041Y11962D01*
X187490Y12263D01*
X187737Y12099D01*
X188400Y11967D01*
X189063Y12099D01*
X189626Y12474D01*
X190001Y13037D01*
X190133Y13700D01*
X190001Y14363D01*
X189891Y14529D01*
X190251Y14889D01*
X190537Y14699D01*
X191200Y14567D01*
X191863Y14699D01*
X192426Y15074D01*
X192801Y15637D01*
X193300Y15581D01*
Y11667D01*
X192800Y11515D01*
X192526Y11926D01*
X191963Y12301D01*
X191300Y12433D01*
X190637Y12301D01*
X190074Y11926D01*
X189699Y11363D01*
X189567Y10700D01*
X189699Y10037D01*
X190074Y9474D01*
X190637Y9099D01*
X191300Y8967D01*
X191963Y9099D01*
X192526Y9474D01*
X192800Y9885D01*
X193300Y9733D01*
Y2100D01*
X191002D01*
X190781Y2548D01*
X190903Y2708D01*
X191261Y3573D01*
X191383Y4500D01*
X191261Y5427D01*
X190903Y6292D01*
X190334Y7034D01*
X189592Y7603D01*
X188727Y7961D01*
X187800Y8083D01*
X186873Y7961D01*
X186008Y7603D01*
X185266Y7034D01*
X184697Y6292D01*
X184339Y5427D01*
X184217Y4500D01*
X184339Y3573D01*
X184697Y2708D01*
X184819Y2548D01*
X184598Y2100D01*
X181002D01*
X180781Y2548D01*
X180903Y2708D01*
X181261Y3573D01*
X181383Y4500D01*
X181261Y5427D01*
X180903Y6292D01*
X180334Y7034D01*
X179592Y7603D01*
X179052Y7827D01*
X179103Y8347D01*
X179363Y8399D01*
X179926Y8774D01*
X180301Y9337D01*
X180433Y10000D01*
X180301Y10663D01*
X179926Y11226D01*
X179363Y11601D01*
X178700Y11733D01*
X178037Y11601D01*
X177474Y11226D01*
X177099Y10663D01*
X176967Y10000D01*
X177099Y9337D01*
X177474Y8774D01*
X177788Y8565D01*
X177640Y8062D01*
X176873Y7961D01*
X176008Y7603D01*
X175266Y7034D01*
X174697Y6292D01*
X174339Y5427D01*
X174217Y4500D01*
X174339Y3573D01*
X174697Y2708D01*
X174819Y2548D01*
X174598Y2100D01*
X171002D01*
X170781Y2548D01*
X170903Y2708D01*
X171261Y3573D01*
X171383Y4500D01*
X171261Y5427D01*
X170903Y6292D01*
X170334Y7034D01*
X169592Y7603D01*
X168727Y7961D01*
X167800Y8083D01*
X166873Y7961D01*
X166008Y7603D01*
X165266Y7034D01*
X164697Y6292D01*
X164339Y5427D01*
X164217Y4500D01*
X164339Y3573D01*
X164697Y2708D01*
X164819Y2548D01*
X164598Y2100D01*
X161002D01*
X160781Y2548D01*
X160903Y2708D01*
X161261Y3573D01*
X161383Y4500D01*
X161261Y5427D01*
X160903Y6292D01*
X160334Y7034D01*
X159592Y7603D01*
X158727Y7961D01*
X157800Y8083D01*
X156873Y7961D01*
X156008Y7603D01*
X155266Y7034D01*
X154697Y6292D01*
X154339Y5427D01*
X154217Y4500D01*
X154339Y3573D01*
X154697Y2708D01*
X154819Y2548D01*
X154598Y2100D01*
X151002D01*
X150781Y2548D01*
X150903Y2708D01*
X151261Y3573D01*
X151383Y4500D01*
X151261Y5427D01*
X150903Y6292D01*
X150334Y7034D01*
X149592Y7603D01*
X148727Y7961D01*
X147800Y8083D01*
X146873Y7961D01*
X146008Y7603D01*
X145266Y7034D01*
X144697Y6292D01*
X144339Y5427D01*
X144217Y4500D01*
X144339Y3573D01*
X144697Y2708D01*
X144819Y2548D01*
X144598Y2100D01*
X141002D01*
X140781Y2548D01*
X140903Y2708D01*
X141261Y3573D01*
X141383Y4500D01*
X141261Y5427D01*
X140903Y6292D01*
X140334Y7034D01*
X139592Y7603D01*
X138727Y7961D01*
X137800Y8083D01*
X136873Y7961D01*
X136008Y7603D01*
X135266Y7034D01*
X134697Y6292D01*
X134339Y5427D01*
X134217Y4500D01*
X134339Y3573D01*
X134697Y2708D01*
X134819Y2548D01*
X134598Y2100D01*
X131002D01*
X130781Y2548D01*
X130903Y2708D01*
X131261Y3573D01*
X131383Y4500D01*
X131261Y5427D01*
X130903Y6292D01*
X130334Y7034D01*
X129592Y7603D01*
X128727Y7961D01*
X127800Y8083D01*
X126873Y7961D01*
X126008Y7603D01*
X125266Y7034D01*
X124697Y6292D01*
X124339Y5427D01*
X124217Y4500D01*
X124339Y3573D01*
X124697Y2708D01*
X124819Y2548D01*
X124598Y2100D01*
X121002D01*
X120781Y2548D01*
X120903Y2708D01*
X121261Y3573D01*
X121383Y4500D01*
X121261Y5427D01*
X120903Y6292D01*
X120334Y7034D01*
X119592Y7603D01*
X119327Y7713D01*
X119310Y7741D01*
X119275Y8276D01*
X119290Y8285D01*
X119299Y8286D01*
X119900Y8167D01*
X120563Y8299D01*
X121126Y8674D01*
X121501Y9237D01*
X121633Y9900D01*
X121501Y10563D01*
X121126Y11126D01*
X120563Y11501D01*
X119900Y11633D01*
X119237Y11501D01*
X119075Y11393D01*
X118763Y11601D01*
X118100Y11733D01*
X117437Y11601D01*
X116874Y11226D01*
X116499Y10663D01*
X116367Y10000D01*
X116499Y9337D01*
X116874Y8774D01*
X117260Y8517D01*
X117139Y7996D01*
X116873Y7961D01*
X116008Y7603D01*
X115266Y7034D01*
X114697Y6292D01*
X114339Y5427D01*
X114217Y4500D01*
X114339Y3573D01*
X114697Y2708D01*
X114819Y2548D01*
X114598Y2100D01*
X111002D01*
X110781Y2548D01*
X110903Y2708D01*
X111261Y3573D01*
X111383Y4500D01*
X111261Y5427D01*
X110903Y6292D01*
X110334Y7034D01*
X109592Y7603D01*
X108727Y7961D01*
X107800Y8083D01*
X106873Y7961D01*
X106008Y7603D01*
X105266Y7034D01*
X104697Y6292D01*
X104339Y5427D01*
X104217Y4500D01*
X104339Y3573D01*
X104697Y2708D01*
X104819Y2548D01*
X104598Y2100D01*
X101002D01*
X100781Y2548D01*
X100903Y2708D01*
X101261Y3573D01*
X101383Y4500D01*
X101261Y5427D01*
X100903Y6292D01*
X100334Y7034D01*
X99592Y7603D01*
X98727Y7961D01*
X97800Y8083D01*
X96873Y7961D01*
X96008Y7603D01*
X95266Y7034D01*
X94697Y6292D01*
X94339Y5427D01*
X94217Y4500D01*
X94339Y3573D01*
X94697Y2708D01*
X94819Y2548D01*
X94598Y2100D01*
X91002D01*
X90781Y2548D01*
X90903Y2708D01*
X91261Y3573D01*
X91383Y4500D01*
X91261Y5427D01*
X90903Y6292D01*
X90334Y7034D01*
X89592Y7603D01*
X88727Y7961D01*
X87800Y8083D01*
X86873Y7961D01*
X86008Y7603D01*
X85266Y7034D01*
X84697Y6292D01*
X84339Y5427D01*
X84217Y4500D01*
X84339Y3573D01*
X84697Y2708D01*
X84819Y2548D01*
X84598Y2100D01*
X81002D01*
X80781Y2548D01*
X80903Y2708D01*
X81261Y3573D01*
X81383Y4500D01*
X81261Y5427D01*
X80903Y6292D01*
X80334Y7034D01*
X79592Y7603D01*
X78727Y7961D01*
X77800Y8083D01*
X76873Y7961D01*
X76008Y7603D01*
X75266Y7034D01*
X74697Y6292D01*
X74339Y5427D01*
X74217Y4500D01*
X74339Y3573D01*
X74697Y2708D01*
X74819Y2548D01*
X74598Y2100D01*
X71002D01*
X70781Y2548D01*
X70903Y2708D01*
X71261Y3573D01*
X71383Y4500D01*
X71261Y5427D01*
X70903Y6292D01*
X70334Y7034D01*
X69592Y7603D01*
X68727Y7961D01*
X67800Y8083D01*
X66873Y7961D01*
X66008Y7603D01*
X65266Y7034D01*
X64697Y6292D01*
X64339Y5427D01*
X64217Y4500D01*
X64339Y3573D01*
X64697Y2708D01*
X64819Y2548D01*
X64598Y2100D01*
X63300D01*
Y14051D01*
X72435D01*
X72440Y14053D01*
X72440D01*
X72523Y14087D01*
X72613Y14076D01*
X72973Y14175D01*
X73101Y14275D01*
X73119Y14276D01*
X73124D01*
X73124Y14276D01*
X73124D01*
X73128Y14277D01*
X73147Y14296D01*
X73262Y14345D01*
X73334Y14418D01*
X73335Y14418D01*
X73339Y14423D01*
X73342Y14424D01*
X75013Y16094D01*
X75013Y16094D01*
X75431Y16512D01*
X75431Y16512D01*
X75431Y16512D01*
X75458Y16540D01*
X75458Y16540D01*
X77504Y18586D01*
X77504Y18586D01*
X77504Y18586D01*
X77549Y18631D01*
X77549Y18631D01*
X77549Y18631D01*
X77565Y18670D01*
X77579Y18675D01*
X77581Y18677D01*
X77583Y18677D01*
X77584Y18680D01*
X77588Y18684D01*
X77588Y18684D01*
X77591Y18686D01*
X77604Y18698D01*
X77605Y18702D01*
X77607Y18704D01*
X77610Y18711D01*
X77613Y18712D01*
X77613Y18712D01*
X77615Y18720D01*
X77616Y18721D01*
X77618Y18723D01*
X77637Y18765D01*
X77648Y18769D01*
X77659Y18780D01*
X77665Y18795D01*
X77671Y18800D01*
X77671Y18802D01*
X77676Y18804D01*
X77680Y18814D01*
X77681Y18815D01*
X77682Y18817D01*
X77683Y18818D01*
X77684Y18821D01*
X77685Y18821D01*
X77686Y18823D01*
X77687Y18824D01*
X77688Y18824D01*
X77690Y18831D01*
X77696Y18833D01*
X77697Y18834D01*
X77706Y18860D01*
X77734Y18885D01*
X77736Y18890D01*
X77736Y18890D01*
X77756Y18909D01*
X77764Y18925D01*
X77764Y18934D01*
X77781Y18949D01*
X77789Y18965D01*
X77790Y18977D01*
X77797Y18984D01*
X77797Y18996D01*
X77818Y19016D01*
X77821Y19026D01*
X77822Y19026D01*
X77823Y19028D01*
Y19029D01*
X77826Y19033D01*
X77827Y19034D01*
X77827Y19034D01*
Y19034D01*
X77830Y19041D01*
Y19045D01*
X77830Y19045D01*
X77831Y19048D01*
X77831Y19051D01*
X77842Y19063D01*
X77855Y19098D01*
X77855Y19105D01*
X77860Y19110D01*
X77860Y19112D01*
X77860Y19117D01*
X77864Y19121D01*
X77866Y19125D01*
X77866Y19204D01*
X77893Y19240D01*
X77926Y19374D01*
X77914Y19452D01*
X77949Y19537D01*
Y23723D01*
X77949Y23723D01*
X78917Y24654D01*
X78917Y24654D01*
X79962Y25659D01*
X79964Y25659D01*
X80557Y25600D01*
X80774Y25274D01*
X81337Y24899D01*
X82000Y24767D01*
X82663Y24899D01*
X83226Y25274D01*
X83601Y25837D01*
X83920Y25864D01*
X89078Y25881D01*
X93587Y25896D01*
X93699Y25337D01*
X94074Y24774D01*
X94637Y24399D01*
X95300Y24267D01*
X95963Y24399D01*
X96526Y24774D01*
X96901Y25337D01*
X97015Y25907D01*
X97015Y25907D01*
X97588Y25909D01*
X97688Y25951D01*
X97704Y25945D01*
X97722Y25947D01*
X97734Y25953D01*
X97747Y25949D01*
X97788Y25972D01*
X97880Y25979D01*
X97948Y26013D01*
X98009Y26085D01*
X98047Y26101D01*
X98053Y26114D01*
X98165Y26171D01*
X98169Y26184D01*
X98181Y26191D01*
X98216Y26234D01*
X98243Y26331D01*
X98313Y26404D01*
X98350Y26500D01*
X99033D01*
X99200Y26467D01*
X99367Y26500D01*
X100099D01*
Y26500D01*
X100167Y26359D01*
X100248Y26287D01*
X100288Y26187D01*
X100291Y26183D01*
X100344Y26161D01*
X100344Y26160D01*
X100345Y26159D01*
X100346Y26158D01*
X100346Y26158D01*
X100347Y26157D01*
X100348Y26156D01*
X100352Y26152D01*
X100422Y26123D01*
X100509Y26036D01*
X100559Y26016D01*
X100559D01*
X100559Y26016D01*
X100658Y25973D01*
X100781Y25971D01*
X100800Y25963D01*
X100801Y25963D01*
X100897Y25920D01*
X100897Y25920D01*
X100908Y25924D01*
X100918Y25920D01*
X104778Y25933D01*
X104784Y25935D01*
X104789Y25933D01*
X109687Y26031D01*
X109734Y26051D01*
X109734Y26051D01*
X109810Y26053D01*
X109838Y26065D01*
X109869Y26057D01*
X109919Y26085D01*
X109934Y26085D01*
X109982Y26106D01*
X109982Y26106D01*
X110033Y26116D01*
X110078Y26145D01*
X110153Y26160D01*
X110216Y26201D01*
X110267Y26211D01*
X110302Y26234D01*
X110315Y26252D01*
X110337Y26258D01*
X110544Y26414D01*
X110606Y26520D01*
X110632Y26539D01*
X110659Y26550D01*
X110664Y26561D01*
X110705Y26591D01*
X110752Y26667D01*
X110775Y26807D01*
X110796Y26842D01*
X110790Y26865D01*
X110849Y27009D01*
Y34347D01*
X110833Y34386D01*
X110835Y34390D01*
X110809Y34453D01*
X110816Y34552D01*
X110802Y34595D01*
X110717Y34693D01*
Y34707D01*
X110715Y34712D01*
X110692Y34735D01*
X110645Y34849D01*
X110576Y34918D01*
X110559Y34925D01*
X110548Y34947D01*
X110269Y35198D01*
X110205Y35220D01*
X110164Y35274D01*
X108017Y36536D01*
X104517Y38594D01*
X104411Y38609D01*
X104322Y38669D01*
X103835Y38772D01*
X103829Y38779D01*
X103833Y38800D01*
X103701Y39463D01*
X103326Y40026D01*
X102763Y40401D01*
X102100Y40533D01*
X101536Y40421D01*
X101391Y40414D01*
X101037Y40508D01*
X100970Y40604D01*
X100856Y40677D01*
X100854Y40684D01*
X100847Y40694D01*
X100836Y40701D01*
X100766Y40794D01*
X100665Y40853D01*
X100665D01*
X100657Y40863D01*
X100522Y40943D01*
X100522Y40943D01*
X99378Y41615D01*
X99309Y41624D01*
X99309Y41624D01*
X99261Y41653D01*
X99202Y41661D01*
X99139Y41698D01*
X99070Y41708D01*
X99003Y41729D01*
X98930Y41722D01*
X98874Y41740D01*
X98818Y41735D01*
X98818Y41735D01*
X98751Y41756D01*
X98714Y41752D01*
X98650Y41719D01*
X98578Y41725D01*
X98247Y41622D01*
X98247Y41622D01*
X98247Y41622D01*
X98166Y41633D01*
X98162Y41632D01*
X98154Y41633D01*
X98141Y41630D01*
X98141Y41630D01*
X98133Y41634D01*
X98113Y41636D01*
X98106Y41640D01*
X98037Y41646D01*
X98036Y41646D01*
X97278Y42091D01*
X97278Y42091D01*
X97278Y42091D01*
X97278Y42091D01*
X97255Y42105D01*
X97254Y42106D01*
X97250Y42112D01*
X97250Y42112D01*
X97239Y42125D01*
X97237Y42126D01*
X97224Y42143D01*
X97223Y42144D01*
X97223Y42145D01*
X97222Y42145D01*
X96965Y42461D01*
X96964Y42463D01*
X96928Y42512D01*
X96895Y42562D01*
X96888Y42566D01*
X96875Y42621D01*
X96874Y42622D01*
X96874Y42622D01*
X96867Y42649D01*
X96867Y42649D01*
X96856Y42693D01*
X96843Y42711D01*
X96843Y42718D01*
X96823Y42772D01*
X96823Y42772D01*
X96793Y42856D01*
X96736Y42919D01*
Y42919D01*
X96722Y42956D01*
X96692Y42989D01*
X96662Y43073D01*
X96605Y43136D01*
Y43136D01*
X96604Y43137D01*
X96590Y43174D01*
X96590Y43174D01*
X96570Y43183D01*
X96555Y43205D01*
X96479Y43252D01*
X96453Y43288D01*
X96421Y43308D01*
X96411Y43331D01*
X96411Y43331D01*
X96399Y43336D01*
X96370Y43377D01*
X96294Y43424D01*
X96293Y43424D01*
X96177Y43496D01*
X96170Y43498D01*
X96165Y43504D01*
X92805Y45479D01*
X92805Y45479D01*
X83593Y50894D01*
X83593Y50894D01*
X83536Y50928D01*
X83577Y51483D01*
X83831Y51586D01*
X83974Y51474D01*
X84537Y51099D01*
X85200Y50967D01*
X85863Y51099D01*
X86426Y51474D01*
X86433Y51485D01*
X86893Y51732D01*
X87119Y51644D01*
X87224Y51600D01*
X87347D01*
X87361Y51594D01*
X87368D01*
X87368Y51594D01*
X87473Y51551D01*
X87595Y51551D01*
X87595Y51551D01*
X93932D01*
X93988Y51574D01*
X94031D01*
X94041Y51578D01*
X94052Y51574D01*
X94073D01*
X94077Y51575D01*
X94093Y51576D01*
X94099Y51574D01*
X94111D01*
X94119Y51577D01*
X94128Y51577D01*
X94175Y51600D01*
X94175Y51600D01*
X94181D01*
X94203Y51609D01*
X94236Y51607D01*
X94255Y51623D01*
X94360Y51623D01*
X94780Y51443D01*
X94845Y51405D01*
X94899Y51137D01*
X95274Y50574D01*
X95837Y50199D01*
X96500Y50067D01*
X97163Y50199D01*
X97726Y50574D01*
X98101Y51137D01*
X98184Y51551D01*
X108885D01*
X108901Y51544D01*
X108946Y51500D01*
X108947Y51499D01*
X108947Y51499D01*
X108979Y51486D01*
X108979D01*
X108979Y51486D01*
X108979Y51486D01*
X109034Y51464D01*
X109051Y51445D01*
X109078Y51405D01*
X109078Y51405D01*
X109105Y51400D01*
X110254Y50263D01*
X115125Y45446D01*
X117428Y43169D01*
X117429Y43167D01*
X117429Y43167D01*
X117429Y43167D01*
X117430Y43166D01*
X117433Y43163D01*
Y43163D01*
X117433Y43162D01*
X117521Y43075D01*
X117570Y42957D01*
X117572Y42955D01*
X117572Y42955D01*
X117572Y42955D01*
X117573Y42954D01*
Y42953D01*
X117650Y42769D01*
Y42768D01*
X117650Y42767D01*
Y42767D01*
X117700Y42649D01*
X117700Y42521D01*
X117700Y42520D01*
Y42520D01*
X117700Y42519D01*
Y23080D01*
X117700Y23080D01*
Y23044D01*
X117696Y23041D01*
X117693Y23036D01*
X117691Y23013D01*
X117683Y22994D01*
X117683Y22943D01*
X117680Y22918D01*
X117622Y22819D01*
X117381Y22572D01*
X117191Y22496D01*
X107864D01*
X107802Y22471D01*
X107737Y22484D01*
X107136Y22364D01*
X107136Y22364D01*
X107020Y22341D01*
X107017Y22339D01*
X107015Y22340D01*
X107014Y22339D01*
X107013Y22340D01*
X107007Y22338D01*
X106991Y22328D01*
X106975Y22330D01*
X106975Y22330D01*
X106893Y22266D01*
X106858Y22269D01*
X106858Y22269D01*
X106858Y22269D01*
X106858Y22269D01*
X106858Y22269D01*
X106842Y22256D01*
X106781Y22243D01*
X106780Y22242D01*
X106778Y22240D01*
X106776Y22240D01*
X106776Y22240D01*
X106773Y22237D01*
X106765Y22235D01*
X106702Y22193D01*
X106702Y22193D01*
X106702Y22193D01*
X106159Y21830D01*
X106122Y21775D01*
X106060Y21749D01*
X104103Y19791D01*
X103882Y19700D01*
X98900D01*
X98855Y19657D01*
X98853Y19657D01*
X98847D01*
X98833Y19651D01*
X98710D01*
X98605Y19607D01*
X98605Y19607D01*
X98604Y19606D01*
X98597Y19606D01*
X98597Y19606D01*
X98590Y19600D01*
X98587Y19600D01*
X98499Y19566D01*
X98446Y19514D01*
X98415Y19512D01*
X98415Y19512D01*
X98372Y19463D01*
X98286Y19429D01*
X98255Y19399D01*
X98255Y19399D01*
X98255Y19399D01*
X97926Y19083D01*
X97926Y19083D01*
X97045Y18234D01*
X97041Y18226D01*
X97026Y18213D01*
X97015Y18191D01*
X96993Y18182D01*
X96981Y18170D01*
X96947Y18088D01*
X96945Y18087D01*
X96945Y18087D01*
X96945Y18086D01*
X96941Y18082D01*
X96939Y18077D01*
X96914Y18056D01*
X96909Y18046D01*
X96908Y18024D01*
X96838Y17953D01*
X96806Y17874D01*
X96806Y17873D01*
X96801Y17867D01*
X96794Y17849D01*
Y17849D01*
X96792Y17847D01*
X96754Y17762D01*
X96752Y17650D01*
X96700Y17600D01*
Y11600D01*
X97343Y11594D01*
X97343Y11594D01*
X98042Y11587D01*
X98044Y11586D01*
X98050Y11582D01*
X98052Y11582D01*
X98060Y11577D01*
X98063Y11575D01*
X98065Y11575D01*
X98078Y11568D01*
X98082Y11563D01*
X98082Y11563D01*
X98088Y11562D01*
X98161Y11523D01*
X98161Y11523D01*
X98162Y11523D01*
X98183Y11511D01*
X98274Y11374D01*
X98837Y10999D01*
X99500Y10867D01*
X100163Y10999D01*
X100618Y11303D01*
X100618Y11303D01*
X100726Y11374D01*
X100794Y11388D01*
X102071Y11397D01*
X102088Y11390D01*
X102103D01*
X102125Y11400D01*
X102126Y11399D01*
X102130Y11399D01*
X102132Y11400D01*
X102135Y11399D01*
X102135D01*
X102144Y11403D01*
X102152Y11403D01*
X102152Y11403D01*
X102152Y11403D01*
X102156Y11403D01*
X102181Y11413D01*
X102186Y11410D01*
X102247Y11411D01*
X102257Y11415D01*
X102267Y11411D01*
X102295Y11423D01*
X102307D01*
X102309Y11423D01*
X102311Y11423D01*
X102348Y11438D01*
X102348Y11438D01*
X102350Y11438D01*
X102351Y11438D01*
X102353Y11438D01*
X102354Y11438D01*
X102358Y11438D01*
X102372Y11444D01*
X102372D01*
X102375Y11445D01*
X102375D01*
X102376Y11445D01*
X102376Y11445D01*
X102377Y11446D01*
X102377D01*
X102378Y11445D01*
X102379Y11445D01*
X102381Y11446D01*
X102383Y11445D01*
X102383D01*
X102387Y11447D01*
X102391Y11446D01*
X102394Y11446D01*
X102399Y11447D01*
X102448Y11444D01*
X102453Y11446D01*
X102470Y11460D01*
X102515Y11460D01*
X102543Y11472D01*
X102555Y11471D01*
X102568Y11483D01*
X102572Y11484D01*
X102572Y11484D01*
X102576D01*
X102577Y11484D01*
X102591Y11484D01*
X102604Y11490D01*
X102618Y11489D01*
X102619Y11489D01*
X102619Y11490D01*
X102619D01*
X102623Y11491D01*
X102625Y11493D01*
X102628D01*
X102630Y11496D01*
X102636Y11496D01*
X102637Y11496D01*
X102638Y11497D01*
X102644Y11497D01*
X102651Y11500D01*
X102651Y11501D01*
X102654Y11501D01*
X102682Y11513D01*
X102683Y11514D01*
X102703Y11506D01*
X102751Y11525D01*
X102779Y11523D01*
X102826Y11539D01*
X102849Y11539D01*
X102851Y11540D01*
X102887Y11540D01*
X102907Y11539D01*
X102910Y11540D01*
X102910Y11540D01*
X102910D01*
X102910Y11540D01*
X107000Y11500D01*
X107185Y11655D01*
X107186Y11655D01*
X107199Y11660D01*
X107202Y11663D01*
X107222Y11670D01*
X107266Y11706D01*
X107273Y11719D01*
X107276Y11720D01*
X107276Y11721D01*
X107287Y11724D01*
X107295Y11731D01*
X107388Y11749D01*
X107416Y11768D01*
X107416Y11768D01*
X108105Y11905D01*
X108122Y11902D01*
X108474Y11374D01*
X109037Y10999D01*
X109700Y10867D01*
X110363Y10999D01*
X110926Y11374D01*
X111150Y11710D01*
X111733Y11737D01*
X111774Y11674D01*
X112337Y11299D01*
X113000Y11167D01*
X113663Y11299D01*
X114226Y11674D01*
X114601Y12237D01*
X114733Y12900D01*
X114601Y13563D01*
X114226Y14126D01*
X113663Y14501D01*
X113000Y14633D01*
X112537Y14541D01*
X112303Y15004D01*
X113451Y16051D01*
X123868D01*
X123889Y16059D01*
X123889Y16059D01*
X123889Y16059D01*
X123909Y16057D01*
X123921Y16061D01*
X123932Y16056D01*
X123942Y16055D01*
X123975Y16066D01*
X123976Y16065D01*
X123982Y16065D01*
X123993Y16069D01*
X123994Y16068D01*
X124010Y16062D01*
X124010D01*
X124014Y16064D01*
X124014D01*
X124048Y16078D01*
X124052Y16077D01*
X124082Y16086D01*
X124082Y16086D01*
X124098Y16085D01*
X124099Y16085D01*
X124099Y16085D01*
X124102Y16085D01*
X124109Y16087D01*
X124110Y16087D01*
X124113Y16086D01*
X124123Y16090D01*
X124138Y16089D01*
X124140Y16090D01*
X124148Y16086D01*
X124149Y16086D01*
X124157Y16090D01*
X124162Y16089D01*
X124162Y16089D01*
X124163Y16090D01*
X124187Y16088D01*
X124187Y16089D01*
X124196Y16097D01*
X124213Y16095D01*
X124213Y16095D01*
X124218Y16100D01*
X124226Y16099D01*
X124227Y16099D01*
X124229Y16101D01*
X124273Y16097D01*
X124333Y16117D01*
X124349Y16116D01*
X124350Y16117D01*
X124351Y16117D01*
X124355Y16117D01*
X124361Y16119D01*
X124362Y16120D01*
X124366Y16119D01*
X124373Y16122D01*
X124382Y16130D01*
X124394Y16130D01*
X124397Y16131D01*
X124399Y16133D01*
X124411Y16131D01*
X124411Y16132D01*
X124423Y16141D01*
X124444Y16142D01*
X124478Y16157D01*
X124479Y16157D01*
X124479D01*
X124479Y16157D01*
X124480Y16158D01*
X124480Y16158D01*
X124483Y16159D01*
X124484Y16159D01*
X124485Y16159D01*
X124486Y16160D01*
X124487Y16160D01*
X124487Y16161D01*
X124487Y16161D01*
X124487D01*
X124488Y16161D01*
X124488D01*
X124492Y16163D01*
X124493Y16163D01*
X124493Y16163D01*
X124770Y16284D01*
X124770D01*
X124927Y16352D01*
X124947Y16373D01*
X124976Y16376D01*
X131405Y19854D01*
X131464Y19927D01*
X131476Y19928D01*
X131487Y19942D01*
X131558Y19972D01*
X131627Y20041D01*
X131674Y20155D01*
X131696Y20177D01*
X131699Y20183D01*
Y20183D01*
X131699Y20184D01*
X131703Y20188D01*
X131712Y20218D01*
X131789Y20314D01*
X131817Y20407D01*
X131809Y20483D01*
X131816Y20501D01*
X131812Y20512D01*
X131847Y20598D01*
X131786Y43308D01*
X131777Y46772D01*
X131751Y56515D01*
X131701Y56634D01*
X131701Y56763D01*
X131558Y57105D01*
X131523Y57140D01*
X131515Y57190D01*
X131515Y57191D01*
X131508Y57196D01*
X131502Y57206D01*
X131502Y57206D01*
X131502Y57206D01*
X131464Y57268D01*
X131415Y57305D01*
X131404Y57331D01*
X131363Y57348D01*
X131346Y57377D01*
X131339Y57382D01*
X131318Y57387D01*
X131241Y57491D01*
X131202Y57515D01*
X131114Y57528D01*
X131065Y57564D01*
X131059Y57563D01*
X131026Y57588D01*
X129954Y57856D01*
X129954D01*
X129723Y57914D01*
X129206Y58043D01*
X129206Y58043D01*
X129080Y58074D01*
X128952Y58055D01*
X128827Y58087D01*
X128699Y58068D01*
X128422Y58134D01*
X128204Y58309D01*
X127926Y58726D01*
X127363Y59101D01*
X126700Y59233D01*
X126549Y59357D01*
Y61483D01*
X129508Y62835D01*
X129509Y62837D01*
X129519Y62841D01*
X129527Y62849D01*
X129527Y62849D01*
X129551Y62860D01*
X129570Y62881D01*
X129580Y62882D01*
X129580Y62882D01*
X129591Y62893D01*
X129603Y62898D01*
X129604Y62900D01*
X129607Y62900D01*
X129651Y62921D01*
X129691Y62964D01*
X129695Y62966D01*
X129701Y62966D01*
X129701Y62966D01*
X129705Y62971D01*
X129709Y62973D01*
X129711Y62978D01*
X129713Y62981D01*
X129740Y62991D01*
X129744Y62996D01*
X129746Y63000D01*
X129748Y63003D01*
X129772Y63008D01*
X129797Y63024D01*
X129821Y63060D01*
X129869Y63085D01*
X129896Y63116D01*
X129913Y63124D01*
X129918Y63129D01*
X129918Y63131D01*
X129920Y63132D01*
X129936Y63177D01*
X129951Y63187D01*
X129951Y63187D01*
X129951Y63188D01*
X129991Y63214D01*
X130059Y63314D01*
Y63314D01*
X130059Y63314D01*
X131295Y65131D01*
X131296Y65140D01*
X131304Y65145D01*
X131347Y65382D01*
X131396Y65618D01*
X131391Y65625D01*
X131392Y65634D01*
X131369Y65742D01*
X131327Y65803D01*
X131324Y65877D01*
X131190Y66001D01*
X131100Y66130D01*
Y67638D01*
X131289Y67695D01*
X131412Y67796D01*
X131559Y67857D01*
X131597Y67948D01*
X131673Y68010D01*
X131688Y68169D01*
X131749Y68316D01*
Y72360D01*
X131733Y72399D01*
X131744Y72440D01*
X131640Y72624D01*
X131559Y72819D01*
X131559Y72819D01*
X131520Y72835D01*
X131499Y72872D01*
X131121Y73166D01*
X131100Y73172D01*
Y73200D01*
X130971Y73254D01*
X130970Y73254D01*
X130925Y73273D01*
X130925D01*
X128653Y74294D01*
X128647Y74303D01*
X128647Y74303D01*
X128632Y74324D01*
X128632Y74324D01*
X128632Y74325D01*
X128632Y74325D01*
X128632Y74325D01*
X128632Y74325D01*
X128603Y74343D01*
X128592Y74354D01*
X128550Y74466D01*
X128620Y74938D01*
X128658Y75024D01*
X129001Y75537D01*
X129133Y76200D01*
X129001Y76863D01*
X128626Y77426D01*
X128063Y77801D01*
X127400Y77933D01*
X126737Y77801D01*
X126174Y77426D01*
X125799Y76863D01*
X125667Y76200D01*
X125302Y76024D01*
X125223Y75984D01*
X125135Y75988D01*
X125131Y75987D01*
X125120Y75977D01*
X125106Y75977D01*
X125084Y75968D01*
X125057Y75968D01*
X125050Y75971D01*
X124938Y75972D01*
X124836Y76021D01*
X124827Y76017D01*
X124818Y76022D01*
X124817Y76022D01*
X124817Y76022D01*
X124810Y76022D01*
X124803Y76025D01*
X124803Y76025D01*
X124021Y76377D01*
X124021D01*
X123938Y76432D01*
X123933Y76433D01*
X123930Y76438D01*
X123928Y76440D01*
X123918Y76442D01*
X123916Y76445D01*
X123873Y76474D01*
X123867Y76475D01*
X123864Y76480D01*
X123854Y76487D01*
X123848Y76488D01*
X123846Y76493D01*
X123837Y76498D01*
X123822Y76501D01*
X123818Y76506D01*
X123810Y76508D01*
X123810Y76508D01*
X123809Y76508D01*
X123804Y76509D01*
X123801Y76514D01*
X123800Y76514D01*
X123796Y76515D01*
X123793Y76519D01*
X123793Y76519D01*
X123754Y76521D01*
X123748Y76522D01*
X123712Y76553D01*
X123677Y76551D01*
X123638Y76578D01*
X123638Y76578D01*
X123626Y76576D01*
X123586Y76603D01*
X123577Y76605D01*
X123574Y76604D01*
X123572Y76606D01*
X123565Y76607D01*
X123560Y76606D01*
X123557Y76608D01*
X123553Y76607D01*
X123550Y76609D01*
X123550Y76609D01*
X123544Y76607D01*
X123537Y76612D01*
X123490Y76619D01*
X123484Y76622D01*
X123479Y76623D01*
X123479Y76623D01*
X123477Y76625D01*
X123474Y76625D01*
X123472Y76625D01*
X123466Y76629D01*
X123464Y76630D01*
X123461Y76629D01*
X123460Y76630D01*
X123457Y76630D01*
X123457Y76630D01*
X123456Y76631D01*
X123214Y76739D01*
X123205Y76740D01*
X123205Y76740D01*
X123154Y76763D01*
X123153Y76763D01*
X123153Y76763D01*
X123125Y76776D01*
X123092Y76777D01*
X123066Y76798D01*
X123056Y76802D01*
X123032Y76800D01*
X123031Y76801D01*
X122987Y76816D01*
X122927Y76812D01*
X122910Y76820D01*
X122909Y76820D01*
X122906Y76819D01*
X122903Y76820D01*
X122890Y76815D01*
X122878Y76814D01*
X122819Y76836D01*
X122817Y76835D01*
X122781Y76849D01*
X122726D01*
X122718Y76846D01*
X122710D01*
X122709Y76846D01*
X122701Y76849D01*
X122701D01*
X122701Y76849D01*
X122695D01*
X122677Y76842D01*
X122658Y76849D01*
X122288D01*
X121200Y77300D01*
X120894Y77800D01*
X120933Y78000D01*
X120801Y78663D01*
X120426Y79226D01*
X119863Y79601D01*
X119200Y79733D01*
X118537Y79601D01*
X117974Y79226D01*
X117599Y78663D01*
X117467Y78000D01*
X117507Y77800D01*
X117096Y77300D01*
X82562D01*
X82556Y77303D01*
X82464Y77344D01*
X82454Y77345D01*
X82454Y77345D01*
X82443Y77349D01*
X82343Y77349D01*
X82320Y77360D01*
X82309Y77360D01*
X82304Y77358D01*
X82300Y77360D01*
X82298Y77359D01*
X82213Y77394D01*
X82213D01*
X82213Y77394D01*
X82213D01*
X82194Y77402D01*
X67799Y77472D01*
X63135Y77495D01*
X63133Y77494D01*
X63131Y77495D01*
X63033Y77454D01*
X62926Y77461D01*
X62926Y77461D01*
X62908Y77445D01*
X62883D01*
X62782Y77403D01*
X62722Y77343D01*
X62721Y77343D01*
X62639Y77321D01*
X62611Y77300D01*
X62611Y77300D01*
X62000D01*
Y76224D01*
X62000Y76224D01*
X62000D01*
Y73497D01*
X61983Y73455D01*
Y73372D01*
X61940Y73302D01*
X61914Y73253D01*
X61554Y72949D01*
X52802D01*
X52714Y72913D01*
X52620Y72924D01*
X52431Y72869D01*
X52132Y73263D01*
X52126Y73274D01*
X52501Y73837D01*
X52633Y74500D01*
X52540Y74968D01*
X52859Y75364D01*
X52925Y75402D01*
X53100Y75367D01*
X53763Y75499D01*
X54326Y75874D01*
X54701Y76437D01*
X54833Y77100D01*
X54767Y77433D01*
X55238Y77628D01*
X55474Y77274D01*
X56037Y76899D01*
X56700Y76767D01*
X57363Y76899D01*
X57926Y77274D01*
X58301Y77837D01*
X58433Y78500D01*
X58301Y79163D01*
X57926Y79726D01*
X57699Y79877D01*
X57771Y80225D01*
X57851Y80377D01*
X58463Y80499D01*
X59026Y80874D01*
X59401Y81437D01*
X59533Y82100D01*
X59401Y82763D01*
X59026Y83326D01*
X58463Y83701D01*
X57800Y83833D01*
X57137Y83701D01*
X56574Y83326D01*
X56199Y82763D01*
X56067Y82100D01*
X56199Y81437D01*
X56574Y80874D01*
X56801Y80723D01*
X56729Y80375D01*
X56649Y80223D01*
X56037Y80101D01*
X55474Y79726D01*
X55099Y79163D01*
X54967Y78500D01*
X55033Y78167D01*
X54562Y77972D01*
X54326Y78326D01*
X53763Y78701D01*
X53100Y78833D01*
X52437Y78701D01*
X51874Y78326D01*
X51499Y77763D01*
X51367Y77100D01*
X51460Y76632D01*
X51142Y76236D01*
X51075Y76199D01*
X50900Y76233D01*
X50237Y76101D01*
X49674Y75726D01*
X49299Y75163D01*
X49167Y74500D01*
X49299Y73837D01*
X49674Y73274D01*
X50237Y72899D01*
X50900Y72767D01*
X51534Y72893D01*
X51553Y72879D01*
X51713Y72350D01*
X51706Y72343D01*
X51707Y72327D01*
X51696Y72315D01*
X51476Y71649D01*
X51484Y71546D01*
X51444Y71451D01*
X51384Y64231D01*
X51351Y60220D01*
X50970Y59204D01*
X50919Y59158D01*
X50906Y59131D01*
X50495Y58949D01*
X48763D01*
X48707Y58926D01*
X48658D01*
X48594Y58900D01*
X48514D01*
X48458Y58877D01*
X48423Y58842D01*
X48296Y58816D01*
X48292Y58814D01*
X48291Y58812D01*
X48290Y58812D01*
X48256Y58760D01*
X48198Y58736D01*
X48198Y58735D01*
X48195Y58734D01*
X48192Y58731D01*
X48142Y58612D01*
X48101Y58584D01*
X48084Y58558D01*
X45609Y58546D01*
X45576Y58595D01*
X45554Y58599D01*
X45519Y58622D01*
X45511Y58635D01*
X45509Y58640D01*
X45505Y58644D01*
X45481Y58679D01*
X45476Y58691D01*
X45430Y58738D01*
X45325Y58781D01*
X45280Y58826D01*
X45265Y58832D01*
X45265Y58832D01*
X45252Y58841D01*
X45190Y58853D01*
X45096Y58916D01*
X45031Y58928D01*
X44989Y58920D01*
X44970Y58928D01*
X44957Y58923D01*
X44892Y58949D01*
X16548D01*
X16457Y58974D01*
X16405Y59025D01*
X16405Y59025D01*
X16405Y59025D01*
X16386Y59033D01*
X16375Y59059D01*
X16326Y59079D01*
X16305Y59112D01*
X16289Y59122D01*
X16230Y59134D01*
X16200Y59164D01*
Y70400D01*
X14900D01*
Y72454D01*
X14923Y72510D01*
Y72576D01*
X14960Y72632D01*
X14984Y72750D01*
X14995Y72768D01*
X15009Y72835D01*
X15044Y72887D01*
X15055Y72946D01*
Y72946D01*
X15078Y73002D01*
Y73065D01*
X15099Y73114D01*
X15100Y73188D01*
X15105D01*
Y73195D01*
X15128Y73251D01*
Y73612D01*
X15100D01*
X15099Y73711D01*
X15082Y73927D01*
X15078Y73935D01*
Y73968D01*
X15070Y74019D01*
X15055Y74054D01*
X15055Y74054D01*
Y74054D01*
X15044Y74113D01*
X15009Y74165D01*
X14997Y74224D01*
X14995Y74228D01*
X14970Y74257D01*
X14979D01*
X14958Y74288D01*
X14958D01*
X14958Y74288D01*
X14958Y74288D01*
X14947Y74347D01*
X14935Y74364D01*
X14935Y74364D01*
X14900Y74417D01*
Y75383D01*
X14987Y75513D01*
X14987Y75513D01*
X14987D01*
X15019Y75534D01*
D01*
X15268Y75701D01*
D01*
X15600Y75767D01*
D01*
X15727Y75792D01*
X15834Y75864D01*
X15961Y75889D01*
X16033Y75997D01*
X16140Y76069D01*
X16165Y76195D01*
X16200Y76247D01*
D01*
X16201Y76249D01*
X16235Y76300D01*
D01*
Y76300D01*
X16237Y76303D01*
X16239Y76315D01*
X16337Y76355D01*
X16352Y76392D01*
X16391Y76416D01*
X16404Y76435D01*
X16421Y76504D01*
X16464Y76547D01*
Y76662D01*
X16527Y76814D01*
Y76930D01*
X16527Y76930D01*
Y78668D01*
X16533Y78700D01*
X16527Y78732D01*
Y89209D01*
X16499Y89276D01*
X16500Y89277D01*
X16498Y89595D01*
X16491Y89613D01*
X16497Y89631D01*
X16475Y89991D01*
X16428Y90758D01*
X16408Y90798D01*
X16417Y90842D01*
X16405Y90906D01*
X16278Y91098D01*
X16200Y91232D01*
Y96100D01*
X24598D01*
X24819Y95652D01*
X24697Y95492D01*
X24339Y94627D01*
X24217Y93700D01*
X24339Y92773D01*
X24697Y91908D01*
X25266Y91166D01*
X26008Y90597D01*
X26873Y90239D01*
X27800Y90117D01*
X28727Y90239D01*
X29592Y90597D01*
X30334Y91166D01*
X30903Y91908D01*
X31261Y92773D01*
X31383Y93700D01*
X31261Y94627D01*
X30903Y95492D01*
X30781Y95652D01*
X31002Y96100D01*
X34598D01*
X34819Y95652D01*
X34697Y95492D01*
X34339Y94627D01*
X34217Y93700D01*
X34339Y92773D01*
X34697Y91908D01*
X35266Y91166D01*
X36008Y90597D01*
X36873Y90239D01*
X37800Y90117D01*
X38727Y90239D01*
X39592Y90597D01*
X40334Y91166D01*
X40903Y91908D01*
X41261Y92773D01*
X41383Y93700D01*
X41261Y94627D01*
X40903Y95492D01*
X40781Y95652D01*
X41002Y96100D01*
X44598D01*
X44819Y95652D01*
X44697Y95492D01*
X44339Y94627D01*
X44217Y93700D01*
X44339Y92773D01*
X44697Y91908D01*
X45266Y91166D01*
X46008Y90597D01*
X46873Y90239D01*
X47800Y90117D01*
X48727Y90239D01*
X49592Y90597D01*
X50334Y91166D01*
X50571Y91476D01*
X51039Y91264D01*
X50967Y90900D01*
X51099Y90237D01*
X51474Y89674D01*
X52037Y89299D01*
X52700Y89167D01*
X53363Y89299D01*
X53926Y89674D01*
X54301Y90237D01*
X54433Y90900D01*
X54301Y91563D01*
X53926Y92126D01*
X53363Y92501D01*
X52700Y92633D01*
X52037Y92501D01*
X51558Y92181D01*
X51221Y92362D01*
X51127Y92449D01*
X51261Y92773D01*
X51383Y93700D01*
X51261Y94627D01*
X50903Y95492D01*
X50781Y95652D01*
X51002Y96100D01*
X54598D01*
X54819Y95652D01*
X54697Y95492D01*
X54339Y94627D01*
X54217Y93700D01*
X54339Y92773D01*
X54697Y91908D01*
X55266Y91166D01*
X56008Y90597D01*
X56873Y90239D01*
X57800Y90117D01*
X58727Y90239D01*
X59592Y90597D01*
X60334Y91166D01*
X60903Y91908D01*
X61261Y92773D01*
X61383Y93700D01*
X61261Y94627D01*
X60903Y95492D01*
X60781Y95652D01*
X61002Y96100D01*
X64598D01*
X64819Y95652D01*
X64697Y95492D01*
X64339Y94627D01*
X64217Y93700D01*
X64339Y92773D01*
X64697Y91908D01*
X65266Y91166D01*
X66008Y90597D01*
X66873Y90239D01*
X67800Y90117D01*
X68727Y90239D01*
X69592Y90597D01*
X70334Y91166D01*
X70903Y91908D01*
X71261Y92773D01*
X71383Y93700D01*
X71261Y94627D01*
X70903Y95492D01*
X70781Y95652D01*
X71002Y96100D01*
X74598D01*
X74819Y95652D01*
X74697Y95492D01*
X74339Y94627D01*
X74217Y93700D01*
X74339Y92773D01*
X74697Y91908D01*
X75266Y91166D01*
X76008Y90597D01*
X76873Y90239D01*
X77800Y90117D01*
X78727Y90239D01*
X79592Y90597D01*
X80334Y91166D01*
X80903Y91908D01*
X81261Y92773D01*
X81383Y93700D01*
X81261Y94627D01*
X80903Y95492D01*
X80781Y95652D01*
X81002Y96100D01*
X84598D01*
X84819Y95652D01*
X84697Y95492D01*
X84339Y94627D01*
X84217Y93700D01*
X84339Y92773D01*
X84697Y91908D01*
X85266Y91166D01*
X86008Y90597D01*
X86873Y90239D01*
X87800Y90117D01*
X88727Y90239D01*
X89592Y90597D01*
X90334Y91166D01*
X90903Y91908D01*
X91261Y92773D01*
X91383Y93700D01*
X91261Y94627D01*
X90903Y95492D01*
X90781Y95652D01*
X91002Y96100D01*
X94598D01*
X94819Y95652D01*
X94697Y95492D01*
X94339Y94627D01*
X94217Y93700D01*
X94339Y92773D01*
X94697Y91908D01*
X95266Y91166D01*
X96008Y90597D01*
X96873Y90239D01*
X97800Y90117D01*
X98727Y90239D01*
X99592Y90597D01*
X100334Y91166D01*
X100903Y91908D01*
X101261Y92773D01*
X101383Y93700D01*
X101261Y94627D01*
X100903Y95492D01*
X100781Y95652D01*
X101002Y96100D01*
X104598D01*
X104819Y95652D01*
X104697Y95492D01*
X104339Y94627D01*
X104217Y93700D01*
X104339Y92773D01*
X104697Y91908D01*
X105266Y91166D01*
X106008Y90597D01*
X106873Y90239D01*
X107800Y90117D01*
X108727Y90239D01*
X109592Y90597D01*
X110334Y91166D01*
X110903Y91908D01*
X111261Y92773D01*
X111383Y93700D01*
X111261Y94627D01*
X110903Y95492D01*
X110781Y95652D01*
X111002Y96100D01*
X114598D01*
X114819Y95652D01*
X114697Y95492D01*
X114339Y94627D01*
X114217Y93700D01*
X114339Y92773D01*
X114697Y91908D01*
X115266Y91166D01*
X116008Y90597D01*
X116873Y90239D01*
X117800Y90117D01*
X118727Y90239D01*
X119592Y90597D01*
X120334Y91166D01*
X120903Y91908D01*
X121261Y92773D01*
X121383Y93700D01*
X121261Y94627D01*
X120903Y95492D01*
X120781Y95652D01*
X121002Y96100D01*
X124598D01*
X124819Y95652D01*
X124697Y95492D01*
X124339Y94627D01*
X124217Y93700D01*
X124339Y92773D01*
X124697Y91908D01*
X125266Y91166D01*
X126008Y90597D01*
X126873Y90239D01*
X127800Y90117D01*
X128727Y90239D01*
X129592Y90597D01*
X130334Y91166D01*
X130903Y91908D01*
X131261Y92773D01*
X131383Y93700D01*
X131261Y94627D01*
X130903Y95492D01*
X130781Y95652D01*
X131002Y96100D01*
X134598D01*
X134819Y95652D01*
X134697Y95492D01*
X134339Y94627D01*
X134217Y93700D01*
X134339Y92773D01*
X134697Y91908D01*
X135266Y91166D01*
X136008Y90597D01*
X136873Y90239D01*
X137800Y90117D01*
X138727Y90239D01*
X139592Y90597D01*
X140334Y91166D01*
X140903Y91908D01*
X141261Y92773D01*
X141383Y93700D01*
X141261Y94627D01*
X140903Y95492D01*
X140781Y95652D01*
X141002Y96100D01*
X144598D01*
X144819Y95652D01*
X144697Y95492D01*
X144339Y94627D01*
X144217Y93700D01*
X144339Y92773D01*
X144697Y91908D01*
X145266Y91166D01*
X146008Y90597D01*
X146873Y90239D01*
X147800Y90117D01*
X148727Y90239D01*
X149592Y90597D01*
X150334Y91166D01*
X150903Y91908D01*
X151261Y92773D01*
X151383Y93700D01*
X151261Y94627D01*
X150903Y95492D01*
X150781Y95652D01*
X151002Y96100D01*
X154598D01*
X154819Y95652D01*
X154697Y95492D01*
X154339Y94627D01*
X154217Y93700D01*
X154339Y92773D01*
X154697Y91908D01*
X155266Y91166D01*
X156008Y90597D01*
X156873Y90239D01*
X157800Y90117D01*
X158727Y90239D01*
X159592Y90597D01*
X160334Y91166D01*
X160903Y91908D01*
X161261Y92773D01*
X161383Y93700D01*
X161261Y94627D01*
X160903Y95492D01*
X160781Y95652D01*
X161002Y96100D01*
X164598D01*
X164819Y95652D01*
X164697Y95492D01*
X164339Y94627D01*
X164217Y93700D01*
X164339Y92773D01*
X164697Y91908D01*
X165266Y91166D01*
X166008Y90597D01*
X166873Y90239D01*
X167800Y90117D01*
X168727Y90239D01*
X169592Y90597D01*
X170334Y91166D01*
X170903Y91908D01*
X171261Y92773D01*
X171383Y93700D01*
X171261Y94627D01*
X170903Y95492D01*
X170781Y95652D01*
X171002Y96100D01*
X174598D01*
X174819Y95652D01*
X174697Y95492D01*
X174339Y94627D01*
X174217Y93700D01*
X174339Y92773D01*
X174697Y91908D01*
X175266Y91166D01*
X176008Y90597D01*
X176873Y90239D01*
X177800Y90117D01*
X178727Y90239D01*
X179592Y90597D01*
X180334Y91166D01*
X180903Y91908D01*
X181261Y92773D01*
X181383Y93700D01*
X181261Y94627D01*
X180903Y95492D01*
X180781Y95652D01*
X181002Y96100D01*
X184598D01*
X184819Y95652D01*
X184697Y95492D01*
X184339Y94627D01*
X184217Y93700D01*
X184339Y92773D01*
X184697Y91908D01*
X185266Y91166D01*
X186008Y90597D01*
X186873Y90239D01*
X187800Y90117D01*
X188727Y90239D01*
X189592Y90597D01*
X190334Y91166D01*
X190903Y91908D01*
X191261Y92773D01*
X191383Y93700D01*
X191261Y94627D01*
X190903Y95492D01*
X190781Y95652D01*
X191002Y96100D01*
X193300D01*
Y79311D01*
D02*
G37*
%LPC*%
G36*
X154900Y39433D02*
X154237Y39301D01*
X153674Y38926D01*
X153299Y38363D01*
X153167Y37700D01*
X153299Y37037D01*
X153674Y36474D01*
X154237Y36099D01*
X154900Y35967D01*
X155563Y36099D01*
X156126Y36474D01*
X156501Y37037D01*
X156633Y37700D01*
X156501Y38363D01*
X156126Y38926D01*
X155563Y39301D01*
X154900Y39433D01*
D02*
G37*
G36*
X7700Y41808D02*
X7037Y41676D01*
X6474Y41300D01*
X6099Y40738D01*
X5967Y40075D01*
X6099Y39412D01*
X6474Y38849D01*
X6623Y38750D01*
Y38250D01*
X6474Y38151D01*
X6099Y37589D01*
X5967Y36925D01*
X6099Y36262D01*
X6474Y35700D01*
X7037Y35324D01*
X7700Y35192D01*
X8363Y35324D01*
X8926Y35700D01*
X9301Y36262D01*
X9433Y36925D01*
X9301Y37589D01*
X8926Y38151D01*
X8777Y38250D01*
Y38750D01*
X8926Y38849D01*
X9301Y39412D01*
X9433Y40075D01*
X9301Y40738D01*
X8926Y41300D01*
X8363Y41676D01*
X7700Y41808D01*
D02*
G37*
G36*
X177400Y40033D02*
X176737Y39901D01*
X176174Y39526D01*
X175799Y38963D01*
X175667Y38300D01*
X175799Y37637D01*
X176174Y37074D01*
X176737Y36699D01*
X177400Y36567D01*
X178063Y36699D01*
X178626Y37074D01*
X179001Y37637D01*
X179133Y38300D01*
X179001Y38963D01*
X178626Y39526D01*
X178063Y39901D01*
X177400Y40033D01*
D02*
G37*
G36*
X183987Y42747D02*
X183323Y42615D01*
X182761Y42239D01*
X182385Y41677D01*
X182253Y41013D01*
X182385Y40350D01*
X182761Y39788D01*
X183304Y39425D01*
X183317Y39340D01*
X183282Y38910D01*
X183237Y38901D01*
X182674Y38526D01*
X182299Y37963D01*
X182167Y37300D01*
X182299Y36637D01*
X182674Y36074D01*
X182489Y35597D01*
X182199Y35163D01*
X182067Y34500D01*
X182199Y33837D01*
X182574Y33274D01*
X183137Y32899D01*
X183800Y32767D01*
X184463Y32899D01*
X185026Y33274D01*
X185401Y33837D01*
X185533Y34500D01*
X185401Y35163D01*
X185026Y35726D01*
X185212Y36203D01*
X185501Y36637D01*
X185530Y36781D01*
X186108Y37125D01*
X186400Y37067D01*
X187063Y37199D01*
X187626Y37574D01*
X188001Y38137D01*
X188133Y38800D01*
X188001Y39463D01*
X187626Y40026D01*
X187063Y40401D01*
X186400Y40533D01*
X186123Y40478D01*
X185698Y40903D01*
X185720Y41013D01*
X185588Y41677D01*
X185212Y42239D01*
X184650Y42615D01*
X183987Y42747D01*
D02*
G37*
G36*
X90200Y37033D02*
X89537Y36901D01*
X88974Y36526D01*
X88599Y35963D01*
X88467Y35300D01*
X88599Y34637D01*
X88974Y34074D01*
X89537Y33699D01*
X90200Y33567D01*
X90863Y33699D01*
X91426Y34074D01*
X91801Y34637D01*
X91933Y35300D01*
X91801Y35963D01*
X91426Y36526D01*
X90863Y36901D01*
X90200Y37033D01*
D02*
G37*
G36*
X83800Y34733D02*
X83137Y34601D01*
X82574Y34226D01*
X82199Y33663D01*
X82067Y33000D01*
X82151Y32577D01*
X81701Y32276D01*
X81663Y32301D01*
X81000Y32433D01*
X80337Y32301D01*
X79774Y31926D01*
X79399Y31363D01*
X79267Y30700D01*
X79399Y30037D01*
X79774Y29474D01*
X80337Y29099D01*
X81000Y28967D01*
X81663Y29099D01*
X82226Y29474D01*
X82601Y30037D01*
X82733Y30700D01*
X82649Y31123D01*
X83099Y31424D01*
X83137Y31399D01*
X83800Y31267D01*
X84463Y31399D01*
X85026Y31774D01*
X85401Y32337D01*
X85533Y33000D01*
X85401Y33663D01*
X85026Y34226D01*
X84463Y34601D01*
X83800Y34733D01*
D02*
G37*
G36*
X74300Y37933D02*
X73637Y37801D01*
X73074Y37426D01*
X72699Y36863D01*
X72567Y36200D01*
X72699Y35537D01*
X73074Y34974D01*
X73637Y34599D01*
X74300Y34467D01*
X74963Y34599D01*
X75526Y34974D01*
X75901Y35537D01*
X76033Y36200D01*
X75901Y36863D01*
X75526Y37426D01*
X74963Y37801D01*
X74300Y37933D01*
D02*
G37*
G36*
X97000Y38533D02*
X96337Y38401D01*
X95774Y38026D01*
X95399Y37463D01*
X95267Y36800D01*
X95399Y36137D01*
X95774Y35574D01*
X96337Y35199D01*
X97000Y35067D01*
X97663Y35199D01*
X98226Y35574D01*
X98601Y36137D01*
X98733Y36800D01*
X98601Y37463D01*
X98226Y38026D01*
X97663Y38401D01*
X97000Y38533D01*
D02*
G37*
G36*
X46700Y38233D02*
X46037Y38101D01*
X45474Y37726D01*
X45099Y37163D01*
X44967Y36500D01*
X45099Y35837D01*
X45474Y35274D01*
X46037Y34899D01*
X46700Y34767D01*
X47363Y34899D01*
X47926Y35274D01*
X48301Y35837D01*
X48433Y36500D01*
X48301Y37163D01*
X47926Y37726D01*
X47363Y38101D01*
X46700Y38233D01*
D02*
G37*
G36*
X35200Y48083D02*
X34273Y47961D01*
X33408Y47603D01*
X32666Y47034D01*
X32097Y46292D01*
X31739Y45427D01*
X31617Y44500D01*
X31739Y43573D01*
X32097Y42708D01*
X32666Y41966D01*
X33408Y41397D01*
X34273Y41039D01*
X35200Y40917D01*
X36127Y41039D01*
X36992Y41397D01*
X37734Y41966D01*
X38303Y42708D01*
X38661Y43573D01*
X38783Y44500D01*
X38661Y45427D01*
X38303Y46292D01*
X37734Y47034D01*
X36992Y47603D01*
X36127Y47961D01*
X35200Y48083D01*
D02*
G37*
G36*
X47500Y44233D02*
X46837Y44101D01*
X46274Y43726D01*
X45899Y43163D01*
X45767Y42500D01*
X45899Y41837D01*
X46274Y41274D01*
X46837Y40899D01*
X47500Y40767D01*
X48163Y40899D01*
X48726Y41274D01*
X49101Y41837D01*
X49233Y42500D01*
X49101Y43163D01*
X48726Y43726D01*
X48163Y44101D01*
X47500Y44233D01*
D02*
G37*
G36*
X123300Y48833D02*
X122637Y48701D01*
X122074Y48326D01*
X121699Y47763D01*
X121567Y47100D01*
X121699Y46437D01*
X122024Y45950D01*
X121699Y45463D01*
X121567Y44800D01*
X121699Y44137D01*
X122074Y43574D01*
X122637Y43199D01*
X123300Y43067D01*
X123963Y43199D01*
X124526Y43574D01*
X124901Y44137D01*
X125033Y44800D01*
X124901Y45463D01*
X124576Y45950D01*
X124901Y46437D01*
X125033Y47100D01*
X124901Y47763D01*
X124526Y48326D01*
X123963Y48701D01*
X123300Y48833D01*
D02*
G37*
G36*
X76000Y45433D02*
X75337Y45301D01*
X74774Y44926D01*
X74399Y44363D01*
X74267Y43700D01*
X74399Y43037D01*
X74774Y42474D01*
X75337Y42099D01*
X76000Y41967D01*
X76663Y42099D01*
X77226Y42474D01*
X77601Y43037D01*
X77733Y43700D01*
X77601Y44363D01*
X77226Y44926D01*
X76663Y45301D01*
X76000Y45433D01*
D02*
G37*
G36*
X189100Y43633D02*
X188437Y43501D01*
X187874Y43126D01*
X187499Y42563D01*
X187367Y41900D01*
X187499Y41237D01*
X187874Y40674D01*
X188437Y40299D01*
X189100Y40167D01*
X189763Y40299D01*
X190326Y40674D01*
X190701Y41237D01*
X190833Y41900D01*
X190701Y42563D01*
X190326Y43126D01*
X189763Y43501D01*
X189100Y43633D01*
D02*
G37*
G36*
X92500Y41833D02*
X91837Y41701D01*
X91274Y41326D01*
X90899Y40763D01*
X90767Y40100D01*
X90899Y39437D01*
X91274Y38874D01*
X91837Y38499D01*
X92500Y38367D01*
X93163Y38499D01*
X93726Y38874D01*
X94101Y39437D01*
X94233Y40100D01*
X94101Y40763D01*
X93726Y41326D01*
X93163Y41701D01*
X92500Y41833D01*
D02*
G37*
G36*
X150331Y40902D02*
X149668Y40770D01*
X149106Y40394D01*
X148730Y39832D01*
X148598Y39169D01*
X148730Y38505D01*
X149106Y37943D01*
X149668Y37567D01*
X150331Y37435D01*
X150995Y37567D01*
X151557Y37943D01*
X151933Y38505D01*
X152065Y39169D01*
X151933Y39832D01*
X151557Y40394D01*
X150995Y40770D01*
X150331Y40902D01*
D02*
G37*
G36*
X30000Y42533D02*
X29337Y42401D01*
X28774Y42026D01*
X28399Y41463D01*
X28267Y40800D01*
X28399Y40137D01*
X28774Y39574D01*
X29337Y39199D01*
X30000Y39067D01*
X30663Y39199D01*
X31226Y39574D01*
X31601Y40137D01*
X31733Y40800D01*
X31601Y41463D01*
X31226Y42026D01*
X30663Y42401D01*
X30000Y42533D01*
D02*
G37*
G36*
X69600Y44333D02*
X68937Y44201D01*
X68374Y43826D01*
X67999Y43263D01*
X67867Y42600D01*
X67999Y41937D01*
X68374Y41374D01*
X68937Y40999D01*
X69600Y40867D01*
X70263Y40999D01*
X70669Y41269D01*
X71029Y40909D01*
X70999Y40863D01*
X70867Y40200D01*
X70999Y39537D01*
X71374Y38974D01*
X71937Y38599D01*
X72600Y38467D01*
X73263Y38599D01*
X73826Y38974D01*
X74201Y39537D01*
X74333Y40200D01*
X74201Y40863D01*
X73826Y41426D01*
X73263Y41801D01*
X72600Y41933D01*
X71937Y41801D01*
X71531Y41530D01*
X71171Y41891D01*
X71201Y41937D01*
X71333Y42600D01*
X71201Y43263D01*
X70826Y43826D01*
X70263Y44201D01*
X69600Y44333D01*
D02*
G37*
G36*
X177600Y35033D02*
X176937Y34901D01*
X176374Y34526D01*
X175999Y33963D01*
X175867Y33300D01*
X175999Y32637D01*
X176374Y32074D01*
X176937Y31699D01*
X177600Y31567D01*
X178263Y31699D01*
X178826Y32074D01*
X179201Y32637D01*
X179333Y33300D01*
X179201Y33963D01*
X178826Y34526D01*
X178263Y34901D01*
X177600Y35033D01*
D02*
G37*
G36*
X53000Y9733D02*
X52337Y9601D01*
X51774Y9226D01*
X51399Y8663D01*
X51267Y8000D01*
X51399Y7337D01*
X51774Y6774D01*
X52337Y6399D01*
X53000Y6267D01*
X53663Y6399D01*
X54226Y6774D01*
X54601Y7337D01*
X54733Y8000D01*
X54601Y8663D01*
X54226Y9226D01*
X53663Y9601D01*
X53000Y9733D01*
D02*
G37*
G36*
X148300Y20333D02*
X147637Y20201D01*
X147074Y19826D01*
X146699Y19263D01*
X146567Y18600D01*
X146699Y17937D01*
X147074Y17374D01*
X147637Y16999D01*
X148300Y16867D01*
X148963Y16999D01*
X149526Y17374D01*
X149901Y17937D01*
X150033Y18600D01*
X149901Y19263D01*
X149526Y19826D01*
X148963Y20201D01*
X148300Y20333D01*
D02*
G37*
G36*
X35200Y28083D02*
X34273Y27961D01*
X33408Y27603D01*
X32666Y27034D01*
X32097Y26292D01*
X31739Y25427D01*
X31617Y24500D01*
X31739Y23573D01*
X32097Y22708D01*
X32666Y21966D01*
X33408Y21397D01*
X34273Y21039D01*
X35200Y20917D01*
X36127Y21039D01*
X36992Y21397D01*
X37734Y21966D01*
X38303Y22708D01*
X38661Y23573D01*
X38783Y24500D01*
X38661Y25427D01*
X38303Y26292D01*
X37734Y27034D01*
X36992Y27603D01*
X36127Y27961D01*
X35200Y28083D01*
D02*
G37*
G36*
X155916Y21433D02*
X155252Y21301D01*
X154690Y20926D01*
X154314Y20363D01*
X154182Y19700D01*
X154314Y19037D01*
X154690Y18474D01*
X155252Y18099D01*
X155916Y17967D01*
X156579Y18099D01*
X157141Y18474D01*
X157517Y19037D01*
X157649Y19700D01*
X157517Y20363D01*
X157141Y20926D01*
X156579Y21301D01*
X155916Y21433D01*
D02*
G37*
G36*
X7700Y22308D02*
X7037Y22176D01*
X6474Y21800D01*
X6099Y21238D01*
X5967Y20575D01*
X6099Y19911D01*
X6474Y19349D01*
X6623Y19250D01*
Y18750D01*
X6474Y18651D01*
X6099Y18089D01*
X5967Y17425D01*
X6099Y16762D01*
X6474Y16200D01*
X7037Y15824D01*
X7700Y15692D01*
X8363Y15824D01*
X8926Y16200D01*
X9301Y16762D01*
X9433Y17425D01*
X9301Y18089D01*
X8926Y18651D01*
X8777Y18750D01*
Y19250D01*
X8926Y19349D01*
X9301Y19911D01*
X9433Y20575D01*
X9301Y21238D01*
X8926Y21800D01*
X8363Y22176D01*
X7700Y22308D01*
D02*
G37*
G36*
X91600Y13333D02*
X90937Y13201D01*
X90374Y12826D01*
X89999Y12263D01*
X89867Y11600D01*
X89999Y10937D01*
X90374Y10374D01*
X90937Y9999D01*
X91600Y9867D01*
X92263Y9999D01*
X92826Y10374D01*
X93201Y10937D01*
X93333Y11600D01*
X93201Y12263D01*
X92826Y12826D01*
X92263Y13201D01*
X91600Y13333D01*
D02*
G37*
G36*
X77600D02*
X76937Y13201D01*
X76374Y12826D01*
X75999Y12263D01*
X75867Y11600D01*
X75999Y10937D01*
X76374Y10374D01*
X76937Y9999D01*
X77600Y9867D01*
X78263Y9999D01*
X78826Y10374D01*
X79201Y10937D01*
X79333Y11600D01*
X79201Y12263D01*
X78826Y12826D01*
X78263Y13201D01*
X77600Y13333D01*
D02*
G37*
G36*
X129900Y17133D02*
X129237Y17001D01*
X128674Y16626D01*
X128299Y16063D01*
X128167Y15400D01*
X128299Y14737D01*
X128674Y14174D01*
X129237Y13799D01*
X129900Y13667D01*
X130563Y13799D01*
X131126Y14174D01*
X131501Y14737D01*
X131633Y15400D01*
X131501Y16063D01*
X131126Y16626D01*
X130563Y17001D01*
X129900Y17133D01*
D02*
G37*
G36*
X38753Y18053D02*
X31647D01*
Y10947D01*
X38753D01*
Y18053D01*
D02*
G37*
G36*
X71800Y25133D02*
X71137Y25001D01*
X70574Y24626D01*
X70199Y24063D01*
X70067Y23400D01*
X70199Y22737D01*
X70574Y22174D01*
X71137Y21799D01*
X71800Y21667D01*
X72463Y21799D01*
X73026Y22174D01*
X73401Y22737D01*
X73533Y23400D01*
X73401Y24063D01*
X73026Y24626D01*
X72463Y25001D01*
X71800Y25133D01*
D02*
G37*
G36*
X162700Y9533D02*
X162037Y9401D01*
X161474Y9026D01*
X161099Y8463D01*
X160967Y7800D01*
X161099Y7137D01*
X161474Y6574D01*
X162037Y6199D01*
X162700Y6067D01*
X163363Y6199D01*
X163926Y6574D01*
X164301Y7137D01*
X164433Y7800D01*
X164301Y8463D01*
X163926Y9026D01*
X163363Y9401D01*
X162700Y9533D01*
D02*
G37*
G36*
X71000Y33333D02*
X70337Y33201D01*
X69774Y32826D01*
X69399Y32263D01*
X69267Y31600D01*
X69399Y30937D01*
X69774Y30374D01*
X70337Y29999D01*
X71000Y29867D01*
X71663Y29999D01*
X72226Y30374D01*
X72601Y30937D01*
X72733Y31600D01*
X72601Y32263D01*
X72226Y32826D01*
X71663Y33201D01*
X71000Y33333D01*
D02*
G37*
G36*
X99400Y34833D02*
X98737Y34701D01*
X98174Y34326D01*
X97799Y33763D01*
X97667Y33100D01*
X97799Y32437D01*
X98174Y31874D01*
X98737Y31499D01*
X99400Y31367D01*
X100063Y31499D01*
X100626Y31874D01*
X101001Y32437D01*
X101133Y33100D01*
X101001Y33763D01*
X100626Y34326D01*
X100063Y34701D01*
X99400Y34833D01*
D02*
G37*
G36*
X107800Y33333D02*
X107137Y33201D01*
X106574Y32826D01*
X106199Y32263D01*
X106067Y31600D01*
X106199Y30937D01*
X106574Y30374D01*
X107137Y29999D01*
X107800Y29867D01*
X108463Y29999D01*
X109026Y30374D01*
X109401Y30937D01*
X109533Y31600D01*
X109401Y32263D01*
X109026Y32826D01*
X108463Y33201D01*
X107800Y33333D01*
D02*
G37*
G36*
X32800Y9733D02*
X32137Y9601D01*
X31574Y9226D01*
X31199Y8663D01*
X31067Y8000D01*
X31199Y7337D01*
X31574Y6774D01*
X32137Y6399D01*
X32800Y6267D01*
X33463Y6399D01*
X34026Y6774D01*
X34401Y7337D01*
X34533Y8000D01*
X34401Y8663D01*
X34026Y9226D01*
X33463Y9601D01*
X32800Y9733D01*
D02*
G37*
G36*
X66400Y28333D02*
X65737Y28201D01*
X65174Y27826D01*
X64799Y27263D01*
X64667Y26600D01*
X64799Y25937D01*
X65174Y25374D01*
X65737Y24999D01*
X66400Y24867D01*
X67063Y24999D01*
X67626Y25374D01*
X68001Y25937D01*
X68133Y26600D01*
X68001Y27263D01*
X67626Y27826D01*
X67063Y28201D01*
X66400Y28333D01*
D02*
G37*
G36*
X54100Y23933D02*
X53437Y23801D01*
X52874Y23426D01*
X52650Y23090D01*
X52341Y22897D01*
X52013Y22968D01*
X51663Y23201D01*
X51000Y23333D01*
X50337Y23201D01*
X49774Y22826D01*
X49547Y22485D01*
X49016Y22590D01*
X49001Y22663D01*
X48626Y23226D01*
X48063Y23601D01*
X47400Y23733D01*
X46737Y23601D01*
X46174Y23226D01*
X45799Y22663D01*
X45667Y22000D01*
X45799Y21337D01*
X46174Y20774D01*
X46737Y20399D01*
X47400Y20267D01*
X48063Y20399D01*
X48626Y20774D01*
X48853Y21115D01*
X49384Y21010D01*
X49399Y20937D01*
X49774Y20374D01*
X50337Y19999D01*
X51000Y19867D01*
X51663Y19999D01*
X52226Y20374D01*
X52450Y20710D01*
X52759Y20903D01*
X53087Y20832D01*
X53437Y20599D01*
X54100Y20467D01*
X54763Y20599D01*
X55326Y20974D01*
X55701Y21537D01*
X55833Y22200D01*
X55701Y22863D01*
X55326Y23426D01*
X54763Y23801D01*
X54100Y23933D01*
D02*
G37*
G36*
X89300Y32533D02*
X88637Y32401D01*
X88074Y32026D01*
X87699Y31463D01*
X87567Y30800D01*
X87699Y30137D01*
X88074Y29574D01*
X88637Y29199D01*
X89300Y29067D01*
X89963Y29199D01*
X90526Y29574D01*
X90901Y30137D01*
X91033Y30800D01*
X90901Y31463D01*
X90526Y32026D01*
X89963Y32401D01*
X89300Y32533D01*
D02*
G37*
G36*
X160216Y29533D02*
X159552Y29401D01*
X158990Y29026D01*
X158614Y28463D01*
X158482Y27800D01*
X158614Y27137D01*
X158990Y26574D01*
X159552Y26199D01*
X160216Y26067D01*
X160879Y26199D01*
X161441Y26574D01*
X161817Y27137D01*
X161949Y27800D01*
X161817Y28463D01*
X161441Y29026D01*
X160879Y29401D01*
X160216Y29533D01*
D02*
G37*
G36*
X182900Y77733D02*
X182237Y77601D01*
X181674Y77226D01*
X181299Y76663D01*
X181167Y76000D01*
X181299Y75337D01*
X181674Y74774D01*
X182237Y74399D01*
X182324Y74381D01*
X182389Y74103D01*
X182376Y73861D01*
X181874Y73526D01*
X181499Y72963D01*
X181367Y72300D01*
X181499Y71637D01*
X181874Y71074D01*
X182437Y70699D01*
X183100Y70567D01*
X183763Y70699D01*
X184326Y71074D01*
X184701Y71637D01*
X184833Y72300D01*
X184701Y72963D01*
X184326Y73526D01*
X183763Y73901D01*
X183676Y73919D01*
X183611Y74196D01*
X183624Y74439D01*
X184126Y74774D01*
X184501Y75337D01*
X184633Y76000D01*
X184501Y76663D01*
X184126Y77226D01*
X183563Y77601D01*
X182900Y77733D01*
D02*
G37*
G36*
X81600Y73333D02*
X80937Y73201D01*
X80374Y72826D01*
X79999Y72263D01*
X79867Y71600D01*
X79999Y70937D01*
X80374Y70374D01*
X80937Y69999D01*
X81600Y69867D01*
X82263Y69999D01*
X82826Y70374D01*
X83201Y70937D01*
X83333Y71600D01*
X83201Y72263D01*
X82826Y72826D01*
X82263Y73201D01*
X81600Y73333D01*
D02*
G37*
G36*
X105200Y74433D02*
X104537Y74301D01*
X103974Y73926D01*
X103599Y73363D01*
X103467Y72700D01*
X103599Y72037D01*
X103974Y71474D01*
X104537Y71099D01*
X105200Y70967D01*
X105863Y71099D01*
X106426Y71474D01*
X106801Y72037D01*
X106933Y72700D01*
X106801Y73363D01*
X106426Y73926D01*
X105863Y74301D01*
X105200Y74433D01*
D02*
G37*
G36*
X178600Y78033D02*
X177937Y77901D01*
X177374Y77526D01*
X176999Y76963D01*
X176867Y76300D01*
X176999Y75637D01*
X177374Y75074D01*
X177937Y74699D01*
X178600Y74567D01*
X179263Y74699D01*
X179826Y75074D01*
X180201Y75637D01*
X180333Y76300D01*
X180201Y76963D01*
X179826Y77526D01*
X179263Y77901D01*
X178600Y78033D01*
D02*
G37*
G36*
X94158Y73520D02*
X93494Y73388D01*
X92932Y73012D01*
X92556Y72450D01*
X92424Y71786D01*
X92448Y71668D01*
X92094Y71315D01*
X92000Y71333D01*
X91337Y71201D01*
X90774Y70826D01*
X90399Y70263D01*
X90267Y69600D01*
X90399Y68937D01*
X90774Y68374D01*
X91337Y67999D01*
X92000Y67867D01*
X92663Y67999D01*
X93226Y68374D01*
X93601Y68937D01*
X93733Y69600D01*
X93710Y69718D01*
X94063Y70072D01*
X94158Y70053D01*
X94821Y70185D01*
X95383Y70561D01*
X95759Y71123D01*
X95891Y71786D01*
X95759Y72450D01*
X95383Y73012D01*
X94821Y73388D01*
X94158Y73520D01*
D02*
G37*
G36*
X67500Y71133D02*
X66837Y71001D01*
X66274Y70626D01*
X65899Y70063D01*
X65767Y69400D01*
X65899Y68737D01*
X66274Y68174D01*
X66452Y68055D01*
X66859Y67763D01*
X66727Y67100D01*
X66859Y66437D01*
X67234Y65874D01*
X67797Y65499D01*
X68460Y65367D01*
X69123Y65499D01*
X69686Y65874D01*
X70061Y66437D01*
X70193Y67100D01*
X70061Y67763D01*
X69686Y68326D01*
X69508Y68445D01*
X69101Y68737D01*
X69233Y69400D01*
X69101Y70063D01*
X68726Y70626D01*
X68163Y71001D01*
X67500Y71133D01*
D02*
G37*
G36*
X160700Y66799D02*
X160037Y66667D01*
X159474Y66291D01*
X159099Y65729D01*
X158967Y65065D01*
X159099Y64402D01*
X159474Y63840D01*
X160037Y63464D01*
X160700Y63332D01*
X161363Y63464D01*
X161926Y63840D01*
X162301Y64402D01*
X162433Y65065D01*
X162301Y65729D01*
X161926Y66291D01*
X161363Y66667D01*
X160700Y66799D01*
D02*
G37*
G36*
X74700Y69933D02*
X74037Y69801D01*
X73474Y69426D01*
X73099Y68863D01*
X72967Y68200D01*
X73099Y67537D01*
X73474Y66974D01*
X74037Y66599D01*
X74700Y66467D01*
X75363Y66599D01*
X75926Y66974D01*
X76301Y67537D01*
X76433Y68200D01*
X76301Y68863D01*
X75926Y69426D01*
X75363Y69801D01*
X74700Y69933D01*
D02*
G37*
G36*
X154000Y72733D02*
X153337Y72601D01*
X152774Y72226D01*
X152399Y71663D01*
X152267Y71000D01*
X152399Y70337D01*
X152774Y69774D01*
X153337Y69399D01*
X154000Y69267D01*
X154663Y69399D01*
X155226Y69774D01*
X155601Y70337D01*
X155733Y71000D01*
X155601Y71663D01*
X155226Y72226D01*
X154663Y72601D01*
X154000Y72733D01*
D02*
G37*
G36*
X148700Y68733D02*
X148037Y68601D01*
X147474Y68226D01*
X147192Y67803D01*
X147093Y67663D01*
X146587Y67652D01*
X146363Y67801D01*
X145700Y67933D01*
X145037Y67801D01*
X144474Y67426D01*
X144099Y66863D01*
X143967Y66200D01*
X144099Y65537D01*
X144474Y64974D01*
X145037Y64599D01*
X145700Y64467D01*
X146363Y64599D01*
X146926Y64974D01*
X147208Y65397D01*
X147307Y65537D01*
X147813Y65548D01*
X148037Y65399D01*
X148700Y65267D01*
X149363Y65399D01*
X149926Y65774D01*
X150301Y66337D01*
X150433Y67000D01*
X150301Y67663D01*
X149926Y68226D01*
X149363Y68601D01*
X148700Y68733D01*
D02*
G37*
G36*
X69400Y85333D02*
X68737Y85201D01*
X68174Y84826D01*
X67799Y84263D01*
X67667Y83600D01*
X67799Y82937D01*
X68174Y82374D01*
X68737Y81999D01*
X69400Y81867D01*
X70063Y81999D01*
X70626Y82374D01*
X71001Y82937D01*
X71133Y83600D01*
X71001Y84263D01*
X70626Y84826D01*
X70063Y85201D01*
X69400Y85333D01*
D02*
G37*
G36*
X11353Y88853D02*
X4247D01*
Y81747D01*
X11353D01*
Y88853D01*
D02*
G37*
G36*
X83100Y85633D02*
X82437Y85501D01*
X81874Y85126D01*
X81499Y84563D01*
X81367Y83900D01*
X81499Y83237D01*
X81874Y82674D01*
X82437Y82299D01*
X83100Y82167D01*
X83763Y82299D01*
X84326Y82674D01*
X84701Y83237D01*
X84833Y83900D01*
X84701Y84563D01*
X84326Y85126D01*
X83763Y85501D01*
X83100Y85633D01*
D02*
G37*
G36*
X87000Y86733D02*
X86337Y86601D01*
X85774Y86226D01*
X85399Y85663D01*
X85267Y85000D01*
X85399Y84337D01*
X85774Y83774D01*
X86337Y83399D01*
X87000Y83267D01*
X87663Y83399D01*
X88226Y83774D01*
X88601Y84337D01*
X88733Y85000D01*
X88601Y85663D01*
X88226Y86226D01*
X87663Y86601D01*
X87000Y86733D01*
D02*
G37*
G36*
X172900Y86433D02*
X172237Y86301D01*
X171674Y85926D01*
X171299Y85363D01*
X171167Y84700D01*
X171299Y84037D01*
X171674Y83474D01*
X172237Y83099D01*
X172900Y82967D01*
X173563Y83099D01*
X174126Y83474D01*
X174501Y84037D01*
X174633Y84700D01*
X174501Y85363D01*
X174126Y85926D01*
X173563Y86301D01*
X172900Y86433D01*
D02*
G37*
G36*
X110300Y82333D02*
X109637Y82201D01*
X109074Y81826D01*
X108699Y81263D01*
X108567Y80600D01*
X108699Y79937D01*
X109074Y79374D01*
X109637Y78999D01*
X110300Y78867D01*
X110963Y78999D01*
X111526Y79374D01*
X111901Y79937D01*
X112033Y80600D01*
X111901Y81263D01*
X111526Y81826D01*
X110963Y82201D01*
X110300Y82333D01*
D02*
G37*
G36*
X153900Y80633D02*
X153237Y80501D01*
X152674Y80126D01*
X152299Y79563D01*
X152167Y78900D01*
X152299Y78237D01*
X152674Y77674D01*
X153237Y77299D01*
X153900Y77167D01*
X154563Y77299D01*
X155126Y77674D01*
X155501Y78237D01*
X155633Y78900D01*
X155501Y79563D01*
X155126Y80126D01*
X154563Y80501D01*
X153900Y80633D01*
D02*
G37*
G36*
X181700Y82533D02*
X181037Y82401D01*
X180474Y82026D01*
X180099Y81463D01*
X179967Y80800D01*
X180099Y80137D01*
X180474Y79574D01*
X181037Y79199D01*
X181700Y79067D01*
X182363Y79199D01*
X182926Y79574D01*
X183301Y80137D01*
X183433Y80800D01*
X183301Y81463D01*
X182926Y82026D01*
X182363Y82401D01*
X181700Y82533D01*
D02*
G37*
G36*
X191353Y88653D02*
X184247D01*
Y81547D01*
X191353D01*
Y88653D01*
D02*
G37*
G36*
X176400Y84033D02*
X175737Y83901D01*
X175174Y83526D01*
X174799Y82963D01*
X174667Y82300D01*
X174799Y81637D01*
X175174Y81074D01*
X175737Y80699D01*
X176400Y80567D01*
X177063Y80699D01*
X177626Y81074D01*
X178001Y81637D01*
X178133Y82300D01*
X178001Y82963D01*
X177626Y83526D01*
X177063Y83901D01*
X176400Y84033D01*
D02*
G37*
G36*
X188600Y62833D02*
X187937Y62701D01*
X187374Y62326D01*
X186999Y61763D01*
X186867Y61100D01*
X186999Y60437D01*
X187374Y59874D01*
X187937Y59499D01*
X188600Y59367D01*
X189263Y59499D01*
X189826Y59874D01*
X190201Y60437D01*
X190333Y61100D01*
X190201Y61763D01*
X189826Y62326D01*
X189263Y62701D01*
X188600Y62833D01*
D02*
G37*
G36*
X157968Y51702D02*
X157305Y51570D01*
X156743Y51194D01*
X156367Y50632D01*
X156255Y50068D01*
X155745D01*
X155633Y50632D01*
X155257Y51194D01*
X154695Y51570D01*
X154032Y51702D01*
X153368Y51570D01*
X152806Y51194D01*
X152430Y50632D01*
X152298Y49968D01*
X152430Y49305D01*
X152806Y48743D01*
X153368Y48367D01*
X153932Y48255D01*
Y47745D01*
X153368Y47633D01*
X152806Y47257D01*
X152430Y46695D01*
X152298Y46031D01*
X152430Y45368D01*
X152806Y44806D01*
X153368Y44430D01*
X154032Y44298D01*
X154695Y44430D01*
X155257Y44806D01*
X155633Y45368D01*
X155745Y45932D01*
X156255D01*
X156367Y45368D01*
X156743Y44806D01*
X157305Y44430D01*
X157968Y44298D01*
X158632Y44430D01*
X159194Y44806D01*
X159570Y45368D01*
X159702Y46031D01*
X159570Y46695D01*
X159194Y47257D01*
X158632Y47633D01*
X158068Y47745D01*
Y48255D01*
X158632Y48367D01*
X159194Y48743D01*
X159570Y49305D01*
X159702Y49968D01*
X159570Y50632D01*
X159194Y51194D01*
X158632Y51570D01*
X157968Y51702D01*
D02*
G37*
G36*
X101100Y50333D02*
X100437Y50201D01*
X99874Y49826D01*
X99499Y49263D01*
X99367Y48600D01*
X99499Y47937D01*
X99874Y47374D01*
X100437Y46999D01*
X101100Y46867D01*
X101763Y46999D01*
X102326Y47374D01*
X102701Y47937D01*
X102833Y48600D01*
X102701Y49263D01*
X102326Y49826D01*
X101763Y50201D01*
X101100Y50333D01*
D02*
G37*
G36*
X47600Y55333D02*
X46937Y55201D01*
X46374Y54826D01*
X45999Y54263D01*
X45867Y53600D01*
X45999Y52937D01*
X46374Y52374D01*
X46189Y51897D01*
X45899Y51463D01*
X45767Y50800D01*
X45899Y50137D01*
X46274Y49574D01*
X46837Y49199D01*
X47500Y49067D01*
X48163Y49199D01*
X48726Y49574D01*
X49101Y50137D01*
X49233Y50800D01*
X49101Y51463D01*
X48726Y52026D01*
X48911Y52503D01*
X49201Y52937D01*
X49333Y53600D01*
X49201Y54263D01*
X48826Y54826D01*
X48263Y55201D01*
X47600Y55333D01*
D02*
G37*
G36*
X70300Y59333D02*
X69637Y59201D01*
X69074Y58826D01*
X68699Y58263D01*
X68567Y57600D01*
X68594Y57465D01*
X68200Y57033D01*
X67537Y56901D01*
X66974Y56526D01*
X66599Y55963D01*
X66467Y55300D01*
X66599Y54637D01*
X66974Y54074D01*
X67537Y53699D01*
X68200Y53567D01*
X68863Y53699D01*
X69426Y54074D01*
X69801Y54637D01*
X69933Y55300D01*
X69906Y55435D01*
X70300Y55867D01*
X70963Y55999D01*
X71526Y56374D01*
X71901Y56937D01*
X72033Y57600D01*
X71901Y58263D01*
X71526Y58826D01*
X70963Y59201D01*
X70300Y59333D01*
D02*
G37*
G36*
X79900Y58033D02*
X79237Y57901D01*
X78674Y57526D01*
X78299Y56963D01*
X78167Y56300D01*
X78299Y55637D01*
X78674Y55074D01*
X79237Y54699D01*
X79900Y54567D01*
X80563Y54699D01*
X81126Y55074D01*
X81501Y55637D01*
X81633Y56300D01*
X81501Y56963D01*
X81126Y57526D01*
X80563Y57901D01*
X79900Y58033D01*
D02*
G37*
G36*
X188500Y58533D02*
X187837Y58401D01*
X187274Y58026D01*
X186899Y57463D01*
X186767Y56800D01*
X186899Y56137D01*
X187274Y55574D01*
X187837Y55199D01*
X188500Y55067D01*
X189163Y55199D01*
X189726Y55574D01*
X190101Y56137D01*
X190233Y56800D01*
X190101Y57463D01*
X189726Y58026D01*
X189163Y58401D01*
X188500Y58533D01*
D02*
G37*
G36*
X7700Y61408D02*
X7037Y61276D01*
X6474Y60900D01*
X6099Y60338D01*
X5967Y59675D01*
X6099Y59012D01*
X6474Y58449D01*
X6623Y58350D01*
Y57850D01*
X6474Y57751D01*
X6099Y57188D01*
X5967Y56525D01*
X6099Y55862D01*
X6474Y55300D01*
X7037Y54924D01*
X7700Y54792D01*
X8363Y54924D01*
X8926Y55300D01*
X9301Y55862D01*
X9433Y56525D01*
X9301Y57188D01*
X8926Y57751D01*
X8777Y57850D01*
Y58350D01*
X8926Y58449D01*
X9301Y59012D01*
X9433Y59675D01*
X9301Y60338D01*
X8926Y60900D01*
X8363Y61276D01*
X7700Y61408D01*
D02*
G37*
G36*
X80300Y49933D02*
X79637Y49801D01*
X79074Y49426D01*
X78699Y48863D01*
X78567Y48200D01*
X78699Y47537D01*
X79074Y46974D01*
X79637Y46599D01*
X80300Y46467D01*
X80963Y46599D01*
X81526Y46974D01*
X81901Y47537D01*
X82033Y48200D01*
X81901Y48863D01*
X81526Y49426D01*
X80963Y49801D01*
X80300Y49933D01*
D02*
G37*
G36*
X107700Y47433D02*
X107037Y47301D01*
X106474Y46926D01*
X106099Y46363D01*
X105967Y45700D01*
X106099Y45037D01*
X106474Y44474D01*
X107037Y44099D01*
X107700Y43967D01*
X108363Y44099D01*
X108926Y44474D01*
X109301Y45037D01*
X109433Y45700D01*
X109301Y46363D01*
X108926Y46926D01*
X108363Y47301D01*
X107700Y47433D01*
D02*
G37*
G36*
X166200Y65033D02*
X165537Y64901D01*
X164974Y64526D01*
X164599Y63963D01*
X164467Y63300D01*
X164599Y62637D01*
X164974Y62074D01*
X165537Y61699D01*
X166200Y61567D01*
X166863Y61699D01*
X167426Y62074D01*
X167801Y62637D01*
X167933Y63300D01*
X167801Y63963D01*
X167426Y64526D01*
X166863Y64901D01*
X166200Y65033D01*
D02*
G37*
G36*
X155200Y65933D02*
X154537Y65801D01*
X153974Y65426D01*
X153599Y64863D01*
X153467Y64200D01*
X153599Y63537D01*
X153974Y62974D01*
X154537Y62599D01*
X155200Y62467D01*
X155863Y62599D01*
X156426Y62974D01*
X156801Y63537D01*
X156933Y64200D01*
X156801Y64863D01*
X156426Y65426D01*
X155863Y65801D01*
X155200Y65933D01*
D02*
G37*
G36*
X35200Y68083D02*
X34273Y67961D01*
X33408Y67603D01*
X32666Y67034D01*
X32097Y66292D01*
X31739Y65427D01*
X31617Y64500D01*
X31739Y63573D01*
X32097Y62708D01*
X32666Y61966D01*
X33408Y61397D01*
X34273Y61039D01*
X35200Y60917D01*
X36127Y61039D01*
X36992Y61397D01*
X37734Y61966D01*
X38303Y62708D01*
X38661Y63573D01*
X38783Y64500D01*
X38661Y65427D01*
X38303Y66292D01*
X37734Y67034D01*
X36992Y67603D01*
X36127Y67961D01*
X35200Y68083D01*
D02*
G37*
G36*
X188700Y48433D02*
X188037Y48301D01*
X187474Y47926D01*
X187099Y47363D01*
X186967Y46700D01*
X187028Y46392D01*
X186578Y46092D01*
X186563Y46101D01*
X185900Y46233D01*
X185863Y46226D01*
X185509Y46580D01*
X185533Y46700D01*
X185401Y47363D01*
X185026Y47926D01*
X184463Y48301D01*
X183800Y48433D01*
X183137Y48301D01*
X182574Y47926D01*
X182199Y47363D01*
X182067Y46700D01*
X182199Y46037D01*
X182574Y45474D01*
X183137Y45099D01*
X183800Y44967D01*
X183837Y44974D01*
X184191Y44620D01*
X184167Y44500D01*
X184299Y43837D01*
X184674Y43274D01*
X185237Y42899D01*
X185900Y42767D01*
X186563Y42899D01*
X187126Y43274D01*
X187501Y43837D01*
X187633Y44500D01*
X187572Y44808D01*
X188022Y45108D01*
X188037Y45099D01*
X188700Y44967D01*
X189363Y45099D01*
X189926Y45474D01*
X190301Y46037D01*
X190433Y46700D01*
X190301Y47363D01*
X189926Y47926D01*
X189363Y48301D01*
X188700Y48433D01*
D02*
G37*
G36*
X62300Y61733D02*
X61637Y61601D01*
X61074Y61226D01*
X60699Y60663D01*
X60567Y60000D01*
X60613Y59769D01*
X60163Y59468D01*
X59963Y59601D01*
X59300Y59733D01*
X58637Y59601D01*
X58074Y59226D01*
X57699Y58663D01*
X57567Y58000D01*
X57699Y57337D01*
X58074Y56774D01*
X58637Y56399D01*
X59300Y56267D01*
X59790Y56364D01*
X60087Y56262D01*
X60302Y56024D01*
X60399Y55537D01*
X60774Y54974D01*
X61337Y54599D01*
X62000Y54467D01*
X62663Y54599D01*
X63226Y54974D01*
X63601Y55537D01*
X63733Y56200D01*
X63601Y56863D01*
X63226Y57426D01*
X62663Y57801D01*
X62593Y57815D01*
Y58325D01*
X62963Y58399D01*
X63526Y58774D01*
X63901Y59337D01*
X64033Y60000D01*
X63901Y60663D01*
X63526Y61226D01*
X62963Y61601D01*
X62300Y61733D01*
D02*
G37*
G36*
X160700Y62468D02*
X160037Y62336D01*
X159474Y61960D01*
X159099Y61398D01*
X158967Y60735D01*
X159009Y60522D01*
X158599Y60022D01*
X154100D01*
X154100Y60022D01*
X153671Y59936D01*
X153307Y59693D01*
X150523Y56909D01*
X150400Y56933D01*
X149737Y56801D01*
X149174Y56426D01*
X148799Y55863D01*
X148667Y55200D01*
X148799Y54537D01*
X149174Y53974D01*
X149737Y53599D01*
X150400Y53467D01*
X151063Y53599D01*
X151626Y53974D01*
X152001Y54537D01*
X152133Y55200D01*
X152109Y55323D01*
X154565Y57778D01*
X156613D01*
X156848Y57337D01*
X156799Y57263D01*
X156667Y56600D01*
X156799Y55937D01*
X157174Y55374D01*
X157737Y54999D01*
X158400Y54867D01*
X158597Y54906D01*
X159022Y54481D01*
X158967Y54200D01*
X159099Y53537D01*
X159474Y52974D01*
X160037Y52599D01*
X160700Y52467D01*
X161363Y52599D01*
X161926Y52974D01*
X162301Y53537D01*
X162433Y54200D01*
X162301Y54863D01*
X161926Y55426D01*
X161363Y55801D01*
X160700Y55933D01*
X160503Y55894D01*
X160078Y56319D01*
X160133Y56600D01*
X160118Y56678D01*
X160528Y57178D01*
X164800D01*
X164800Y57178D01*
X165229Y57264D01*
X165593Y57507D01*
X166865Y58778D01*
X170508D01*
X170776Y58278D01*
X170699Y58163D01*
X170615Y57741D01*
X170564Y57689D01*
X170537Y57623D01*
X168049Y55135D01*
X167570Y55237D01*
X167514Y55307D01*
X167148Y55854D01*
X166586Y56230D01*
X165923Y56362D01*
X165260Y56230D01*
X164697Y55854D01*
X164321Y55292D01*
X164190Y54628D01*
X164321Y53965D01*
X164697Y53403D01*
X165244Y53037D01*
X165314Y52982D01*
X165416Y52502D01*
X161807Y48893D01*
X161564Y48529D01*
X161478Y48100D01*
X161478Y48100D01*
Y31200D01*
X161478Y31200D01*
X161564Y30771D01*
X161807Y30407D01*
X162544Y29670D01*
X162570Y29604D01*
X162584Y29590D01*
X162567Y29500D01*
X162699Y28837D01*
X163074Y28274D01*
X163637Y27899D01*
X164300Y27767D01*
X164963Y27899D01*
X165526Y28274D01*
X165901Y28837D01*
X166033Y29500D01*
X165929Y30025D01*
X166123Y30361D01*
X166278Y30499D01*
X166856Y30614D01*
X167419Y30990D01*
X167794Y31552D01*
X167926Y32216D01*
X167914Y32275D01*
Y33225D01*
X167929Y33295D01*
X167914Y33371D01*
Y39869D01*
X168414Y40136D01*
X168526Y40062D01*
X169189Y39930D01*
X169780Y40047D01*
X170180Y39887D01*
X170280Y39833D01*
Y24822D01*
X166162D01*
X166097Y24849D01*
X166076Y24850D01*
X166026Y24926D01*
X165463Y25301D01*
X164800Y25433D01*
X164137Y25301D01*
X163574Y24926D01*
X163524Y24850D01*
X163503Y24849D01*
X163438Y24822D01*
X151462D01*
X151397Y24849D01*
X151376Y24850D01*
X151326Y24926D01*
X150763Y25301D01*
X150100Y25433D01*
X149437Y25301D01*
X148874Y24926D01*
X148499Y24363D01*
X148367Y23700D01*
X148499Y23037D01*
X148874Y22474D01*
X149437Y22099D01*
X150100Y21967D01*
X150763Y22099D01*
X151326Y22474D01*
X151376Y22550D01*
X151397Y22551D01*
X151462Y22579D01*
X163438D01*
X163503Y22551D01*
X163524Y22550D01*
X163574Y22474D01*
X164137Y22099D01*
X164800Y21967D01*
X165463Y22099D01*
X165847Y22355D01*
X165986Y22322D01*
X166195Y21757D01*
X165999Y21463D01*
X165867Y20800D01*
X165999Y20137D01*
X166374Y19574D01*
X166937Y19199D01*
X167600Y19067D01*
X168263Y19199D01*
X168826Y19574D01*
X169201Y20137D01*
X169333Y20800D01*
X169201Y21463D01*
X168826Y22026D01*
X168747Y22079D01*
X168898Y22579D01*
X184000D01*
X184000Y22578D01*
X184429Y22664D01*
X184793Y22907D01*
X186365Y24478D01*
X188338D01*
X188403Y24451D01*
X188424Y24450D01*
X188474Y24374D01*
X189037Y23999D01*
X189700Y23867D01*
X190363Y23999D01*
X190926Y24374D01*
X191301Y24937D01*
X191433Y25600D01*
X191301Y26263D01*
X191012Y26697D01*
X190826Y27174D01*
X191201Y27737D01*
X191333Y28400D01*
X191201Y29063D01*
X190826Y29626D01*
X190263Y30001D01*
X189600Y30133D01*
X188937Y30001D01*
X188374Y29626D01*
X187999Y29063D01*
X187867Y28400D01*
X187999Y27737D01*
X188288Y27303D01*
X188335Y27182D01*
X188291Y27005D01*
X188152Y26722D01*
X185900D01*
X185900Y26722D01*
X185471Y26636D01*
X185107Y26393D01*
X185107Y26393D01*
X183535Y24822D01*
X172320D01*
Y39890D01*
X172761Y40126D01*
X172856Y40062D01*
X173520Y39930D01*
X174183Y40062D01*
X174745Y40437D01*
X175121Y41000D01*
X175253Y41663D01*
X175121Y42326D01*
X174745Y42889D01*
X174183Y43264D01*
X173520Y43396D01*
X172856Y43264D01*
X172761Y43200D01*
X172320Y43436D01*
Y44923D01*
X172700Y45267D01*
X173363Y45399D01*
X173926Y45774D01*
X174301Y46337D01*
X174433Y47000D01*
X174301Y47663D01*
X173926Y48226D01*
X173363Y48601D01*
X172700Y48733D01*
X172037Y48601D01*
X171474Y48226D01*
X171099Y47663D01*
X170967Y47000D01*
X170984Y46910D01*
X170970Y46896D01*
X170944Y46830D01*
X170507Y46393D01*
X170264Y46029D01*
X170178Y45600D01*
X170264Y45171D01*
X170280Y45146D01*
Y43493D01*
X170180Y43439D01*
X169780Y43279D01*
X169189Y43396D01*
X168526Y43264D01*
X168414Y43190D01*
X167914Y43457D01*
Y46528D01*
X175465Y54078D01*
X176138D01*
X176203Y54051D01*
X176224Y54050D01*
X176274Y53974D01*
X176837Y53599D01*
X177500Y53467D01*
X178163Y53599D01*
X178726Y53974D01*
X179101Y54537D01*
X179233Y55200D01*
X179101Y55863D01*
X178726Y56426D01*
X178163Y56801D01*
X177500Y56933D01*
X176837Y56801D01*
X176274Y56426D01*
X176224Y56350D01*
X176203Y56349D01*
X176138Y56322D01*
X175000D01*
X174571Y56236D01*
X174207Y55993D01*
X174207Y55993D01*
X166000Y47786D01*
X165757Y47422D01*
X165671Y46993D01*
X165671Y46993D01*
Y33845D01*
X165530Y33817D01*
X164967Y33441D01*
X164592Y32879D01*
X164460Y32216D01*
X164494Y32045D01*
X164143Y31525D01*
X163722Y31890D01*
Y47635D01*
X171825Y55739D01*
X171825Y55739D01*
X171826Y55740D01*
X171899Y55813D01*
X171958Y55835D01*
X172300Y55767D01*
X172963Y55899D01*
X173526Y56274D01*
X173901Y56837D01*
X174033Y57500D01*
X173901Y58163D01*
X173824Y58278D01*
X174092Y58778D01*
X179235D01*
X186579Y51435D01*
X186599Y51337D01*
X186974Y50774D01*
X187537Y50399D01*
X188200Y50267D01*
X188863Y50399D01*
X189426Y50774D01*
X189801Y51337D01*
X189933Y52000D01*
X189801Y52663D01*
X189426Y53226D01*
X188863Y53601D01*
X188200Y53733D01*
X187577Y53609D01*
X180493Y60693D01*
X180129Y60936D01*
X179700Y61022D01*
X179700Y61022D01*
X166400D01*
X166400Y61022D01*
X165971Y60936D01*
X165607Y60693D01*
X165607Y60693D01*
X164335Y59422D01*
X162469D01*
X162201Y59922D01*
X162301Y60071D01*
X162433Y60735D01*
X162301Y61398D01*
X161926Y61960D01*
X161363Y62336D01*
X160700Y62468D01*
D02*
G37*
%LPD*%
G36*
X172691Y46100D02*
X172653Y46097D01*
X172611Y46086D01*
X172565Y46068D01*
X172516Y46043D01*
X172463Y46010D01*
X172406Y45970D01*
X172282Y45867D01*
X172214Y45805D01*
X172143Y45735D01*
X171435Y46443D01*
X171505Y46514D01*
X171670Y46706D01*
X171710Y46763D01*
X171743Y46816D01*
X171768Y46865D01*
X171786Y46911D01*
X171797Y46953D01*
X171800Y46991D01*
X172691Y46100D01*
D02*
G37*
G36*
X189057Y24970D02*
X189028Y24995D01*
X188991Y25017D01*
X188946Y25036D01*
X188893Y25053D01*
X188832Y25067D01*
X188764Y25079D01*
X188603Y25095D01*
X188511Y25099D01*
X188412Y25100D01*
Y26100D01*
X188511Y26101D01*
X188764Y26121D01*
X188832Y26133D01*
X188893Y26147D01*
X188946Y26164D01*
X188991Y26183D01*
X189028Y26205D01*
X189057Y26230D01*
Y24970D01*
D02*
G37*
G36*
X165472Y24305D02*
X165509Y24283D01*
X165554Y24264D01*
X165607Y24247D01*
X165668Y24232D01*
X165736Y24221D01*
X165897Y24205D01*
X165989Y24201D01*
X166088Y24200D01*
Y23200D01*
X165989Y23199D01*
X165736Y23179D01*
X165668Y23167D01*
X165607Y23153D01*
X165554Y23136D01*
X165509Y23117D01*
X165472Y23095D01*
X165443Y23070D01*
Y24330D01*
X165472Y24305D01*
D02*
G37*
G36*
X167293Y33427D02*
X167077Y32383D01*
X166152Y33115D01*
X166179Y33121D01*
X166203Y33138D01*
X166224Y33166D01*
X166242Y33204D01*
X166258Y33252D01*
X166270Y33311D01*
X166280Y33380D01*
X166287Y33459D01*
X166293Y33650D01*
X167293Y33427D01*
D02*
G37*
G36*
X163814Y30695D02*
X164006Y30530D01*
X164063Y30490D01*
X164116Y30457D01*
X164165Y30432D01*
X164211Y30414D01*
X164253Y30403D01*
X164291Y30400D01*
X163400Y29509D01*
X163397Y29547D01*
X163386Y29589D01*
X163368Y29635D01*
X163343Y29684D01*
X163310Y29737D01*
X163270Y29794D01*
X163167Y29918D01*
X163105Y29986D01*
X163036Y30057D01*
X163743Y30764D01*
X163814Y30695D01*
D02*
G37*
G36*
X172079Y56628D02*
X172038Y56633D01*
X171994Y56631D01*
X171947Y56620D01*
X171896Y56601D01*
X171842Y56573D01*
X171784Y56537D01*
X171723Y56494D01*
X171658Y56441D01*
X171519Y56312D01*
X171026Y57233D01*
X171097Y57305D01*
X171378Y57621D01*
X171400Y57654D01*
X171415Y57682D01*
X171423Y57703D01*
X172079Y56628D01*
D02*
G37*
G36*
X176857Y54570D02*
X176828Y54595D01*
X176791Y54617D01*
X176746Y54636D01*
X176693Y54653D01*
X176632Y54668D01*
X176564Y54679D01*
X176403Y54695D01*
X176311Y54699D01*
X176212Y54700D01*
Y55700D01*
X176311Y55701D01*
X176564Y55721D01*
X176632Y55733D01*
X176693Y55747D01*
X176746Y55764D01*
X176791Y55783D01*
X176828Y55805D01*
X176857Y55830D01*
Y54570D01*
D02*
G37*
G36*
X164157Y23070D02*
X164128Y23095D01*
X164091Y23117D01*
X164046Y23136D01*
X163993Y23153D01*
X163932Y23167D01*
X163864Y23179D01*
X163703Y23195D01*
X163611Y23199D01*
X163512Y23200D01*
Y24200D01*
X163611Y24201D01*
X163864Y24221D01*
X163932Y24232D01*
X163993Y24247D01*
X164046Y24264D01*
X164091Y24283D01*
X164128Y24305D01*
X164157Y24330D01*
Y23070D01*
D02*
G37*
G36*
X150772Y24305D02*
X150809Y24283D01*
X150854Y24264D01*
X150907Y24247D01*
X150968Y24232D01*
X151036Y24221D01*
X151197Y24205D01*
X151289Y24201D01*
X151388Y24200D01*
Y23200D01*
X151289Y23199D01*
X151036Y23179D01*
X150968Y23167D01*
X150907Y23153D01*
X150854Y23136D01*
X150809Y23117D01*
X150772Y23095D01*
X150743Y23070D01*
Y24330D01*
X150772Y24305D01*
D02*
G37*
D10*
X159423Y58900D02*
X160023Y58300D01*
X154100Y58900D02*
X159423D01*
X150400Y55200D02*
X154100Y58900D01*
X164800Y58300D02*
X166400Y59900D01*
X160023Y58300D02*
X164800D01*
X166400Y59900D02*
X179700D01*
X162600Y48100D02*
X172000Y57500D01*
X179700Y59900D02*
X187900Y51700D01*
X24300Y72100D02*
X27100D01*
Y74900D01*
Y71900D02*
Y72100D01*
X27200D01*
X21400D02*
X24000D01*
X18500D02*
X21400D01*
X15600D02*
X18500D01*
X25300Y53300D02*
X27800D01*
X2000Y34600D02*
Y36500D01*
Y34600D02*
X2100D01*
X1900Y53400D02*
Y56200D01*
X1800Y56000D02*
Y56100D01*
X106600Y39000D02*
Y40800D01*
Y39000D02*
X107400Y38200D01*
X27800Y52304D02*
Y53200D01*
Y50700D02*
Y52304D01*
Y53200D02*
Y53300D01*
X22800Y50700D02*
X25300D01*
X22800D02*
Y53300D01*
X25300D01*
Y50700D02*
Y53300D01*
Y50700D02*
X27800D01*
X27200Y71900D02*
X30100D01*
Y74900D01*
X27200D02*
X30100D01*
X27100D02*
X27200D01*
X24300D02*
X27100D01*
X24300Y72100D02*
Y74900D01*
X21400D02*
X24300D01*
X18500Y72100D02*
Y74900D01*
X21400D01*
Y72100D02*
Y74900D01*
X15600Y72100D02*
Y74900D01*
X18400D01*
X13500Y78700D02*
X14800D01*
X2200Y12000D02*
X3700D01*
X2100Y34600D02*
X2200Y34500D01*
Y34400D02*
Y34500D01*
X1800Y56100D02*
X1900Y56200D01*
X2100Y31100D02*
X3400Y32400D01*
X4700Y50900D02*
X4800D01*
X166793Y32216D02*
Y46993D01*
X175000Y55200D01*
X177500D01*
X185900Y25600D02*
X189900D01*
X184000Y23700D02*
X185900Y25600D01*
X162600Y31200D02*
X164300Y29500D01*
X171300Y45600D02*
X172700Y47000D01*
X171300Y23700D02*
X184000D01*
X162600Y31200D02*
Y48100D01*
X172000Y57500D02*
X172300D01*
X150700Y23700D02*
X164800D01*
X171300D01*
D11*
X19000Y26600D02*
Y28600D01*
X18900Y28700D02*
X19000D01*
Y30600D01*
Y28700D02*
X20700D01*
X19000Y30600D02*
X21800D01*
Y28700D02*
Y30600D01*
X64300Y30400D02*
X65200Y31300D01*
X62200Y30400D02*
X64300D01*
X20700Y28700D02*
X21800D01*
D12*
X171300Y23700D02*
Y45600D01*
D43*
X28044Y52377D02*
X35200Y54500D01*
X27800Y52304D02*
X28044Y52377D01*
X26100Y51800D02*
X27362Y52175D01*
X28044Y52377D02*
X28044D01*
X27362Y52175D02*
X27800Y52304D01*
D45*
X20525Y74290D02*
G03*
X21115Y73838I842J486D01*
G01*
X18500Y74900D02*
Y91800D01*
X27500Y4700D02*
Y21900D01*
X27300Y4500D02*
X27500Y4700D01*
X16600Y93700D02*
X18500Y91800D01*
X20700Y28700D02*
X27500Y21900D01*
D46*
X17900Y5100D02*
Y14737D01*
X17300Y4500D02*
X17900Y5100D01*
X22800Y43000D02*
Y50700D01*
X15300Y17337D02*
X17900Y14737D01*
X15300Y17337D02*
Y35500D01*
X22800Y43000D01*
D47*
X7800Y77000D02*
D03*
Y93700D02*
D03*
D48*
X35200Y54500D02*
D03*
X17800Y93700D02*
D03*
Y4500D02*
D03*
X27800D02*
D03*
D50*
X66800Y87300D02*
D03*
X61046Y70650D02*
D03*
X98258Y72323D02*
D03*
X98800Y82900D02*
D03*
X124900Y66600D02*
D03*
X128500Y59900D02*
D03*
X126400Y68200D02*
D03*
X185300Y58300D02*
D03*
X177400Y79200D02*
D03*
X175100Y79300D02*
D03*
X188900Y66900D02*
D03*
X188200Y52000D02*
D03*
X189700Y25600D02*
D03*
X132900Y8200D02*
D03*
X118100Y10000D02*
D03*
X99500Y12600D02*
D03*
X133800Y36500D02*
D03*
X67000Y11800D02*
D03*
X88600Y49600D02*
D03*
X106600Y40800D02*
D03*
X107400Y38200D02*
D03*
X70500Y26100D02*
D03*
X70400Y28800D02*
D03*
X18900Y28300D02*
D03*
X24400Y30600D02*
D03*
Y28400D02*
D03*
Y26000D02*
D03*
X21800D02*
D03*
Y28400D02*
D03*
X18900Y30600D02*
D03*
X21800D02*
D03*
X112250Y74729D02*
D03*
X142500Y66000D02*
D03*
X119900Y9900D02*
D03*
X99400Y24000D02*
D03*
X46900Y58300D02*
D03*
X79800Y23500D02*
D03*
X105300Y33300D02*
D03*
X108100Y28200D02*
D03*
X122900Y74600D02*
D03*
X64000Y87000D02*
D03*
X73500Y8400D02*
D03*
X166193Y32216D02*
D03*
X150400Y55200D02*
D03*
X30100Y74900D02*
D03*
Y71900D02*
D03*
X27200D02*
D03*
Y74900D02*
D03*
X24300D02*
D03*
Y71900D02*
D03*
X21400D02*
D03*
X18500D02*
D03*
X15600D02*
D03*
Y74900D02*
D03*
X18500D02*
D03*
X21400D02*
D03*
X14800Y78700D02*
D03*
X22800Y50700D02*
D03*
X25300D02*
D03*
X27800D02*
D03*
Y53200D02*
D03*
X25300Y53300D02*
D03*
X22800D02*
D03*
X2100Y12000D02*
D03*
X4300D02*
D03*
X2100Y36500D02*
D03*
Y33800D02*
D03*
Y56100D02*
D03*
Y53300D02*
D03*
Y31100D02*
D03*
X4400Y32900D02*
D03*
X2100Y50900D02*
D03*
X4600Y52400D02*
D03*
X18900Y26000D02*
D03*
X2100Y19100D02*
D03*
Y38800D02*
D03*
Y16900D02*
D03*
Y14300D02*
D03*
Y58300D02*
D03*
X177500Y55200D02*
D03*
X172700Y47000D02*
D03*
X150100Y23700D02*
D03*
X164300Y29500D02*
D03*
X177800D02*
D03*
X62200Y30400D02*
D03*
X59600Y32300D02*
D03*
X62000Y33900D02*
D03*
X65200Y31300D02*
D03*
X143000Y29100D02*
D03*
X172300Y57500D02*
D03*
X164800Y23700D02*
D03*
X59900Y67400D02*
D03*
X68900Y51000D02*
D03*
X66667Y48500D02*
D03*
X62200D02*
D03*
Y51000D02*
D03*
X66667D02*
D03*
X64433D02*
D03*
Y48500D02*
D03*
X64700Y67900D02*
D03*
X133900Y59100D02*
D03*
Y51800D02*
D03*
X133800Y45400D02*
D03*
Y34400D02*
D03*
X63600Y66400D02*
D03*
X64100Y69600D02*
D03*
X143800Y70100D02*
D03*
M02*
