M48
;Layer_Color=9474304
;FILE_FORMAT=2:5
INCH,LZ
;TYPE=PLATED
T1F00S00C0.01200
T2F00S00C0.03543
%
T01
X00021Y0012
X00043
X00021Y00143
Y00169
Y00191
X00022Y00234
X00021Y00311
Y00338
Y00365
Y00388
Y0043
Y00509
X00115Y00455
X00141Y00399
X00077Y0040075
Y0036925
X00044Y00329
X00118Y0026
X00189
Y00283
Y00306
X00218
Y00284
Y0026
X00244
Y00284
Y00306
X003Y00408
X00278Y00507
X00253
X00228
X00475Y00508
Y00425
X00467Y00365
X00474Y0022
X0051Y00216
X00541Y00222
X00617Y00245
X00606Y00276
X00622Y00304
X0062Y00339
X00596Y00323
X00652Y00313
X00664Y00266
X00705Y00261
X00704Y00288
X0071Y00316
X00743Y00362
X00726Y00402
X00696Y00426
X0076Y00437
X00803Y00482
X00886Y00496
X00925Y00401
X00902Y00353
X00893Y00308
X00838Y0033
X0081Y00307
X0082Y00265
X00798Y00235
X00718Y00234
X0067Y00118
X00735Y00084
X00776Y00116
X00916
X00995Y00126
X01097
X0113Y00129
X01181Y001
X01199Y00099
X01329Y00082
X01299Y00154
X01483Y00186
X01501Y00237
X0143Y00291
X01338Y00344
Y00365
Y00454
X01233Y00448
Y00471
X01077Y00457
X01066Y00408
X01074Y00382
X01021Y00388
X0097Y00368
X00994Y00331
X00992Y00282
X00994Y0024
X00953Y0026
X01081Y00282
X01078Y00316
X01053Y00333
X01011Y00486
X0066667Y00485
X0064433
X00622
Y0051
X0064433
X0066667
X00689
X00637Y00443
X00602Y00463
X00632Y00375
X0053Y0008
X00328
X00115Y00129
X00077Y0017425
Y0020575
X0150331Y0039169
X01549Y00377
X0154032Y0046031
Y0049968
X0157968
Y0046031
X0169189Y0041663
X017352
X01727Y0047
X01838Y00467
X01859Y00445
X01887Y00467
X01891Y00419
X01864Y00388
X01839Y00373
X01838Y00345
X0183987Y0041013
X01774Y00383
X01776Y00333
X01778Y00295
X01896Y00284
X01897Y00256
X01892Y00196
X01912Y00163
X01884Y00137
X01854Y00115
X01913Y00107
X01787Y001
X01627Y00078
X01676Y00208
X01648Y00237
X01643Y00295
X0166193Y0032216
X0160216Y00278
X0155916Y00197
X01607Y00542
X01584Y00566
X01607Y0060735
Y0065065
X01552Y00642
X0154Y0071
X01539Y00789
X01751Y00793
X01774Y00792
X01786Y00763
X01829Y0076
X01831Y00723
X01817Y00808
X01764Y00823
X01729Y00847
X01884Y00771
X01919Y00776
X01889Y00669
X01886Y00611
X01885Y00568
X01853Y00583
X01882Y0052
X01775Y00552
X01723Y00575
X0165923Y0054628
X01662Y00633
X01487Y0067
X01457Y00662
X01425Y0066
X01438Y00701
X01285Y00703
X01292Y00672
X01264Y00682
X01249Y00666
X01205Y00702
X01186Y00723
X01181Y00756
X01192Y0078
X01229Y00746
X01274Y00762
X011225Y0074729
X01103Y00806
X01052Y00727
X01044Y00671
X01074Y00684
X01001Y00669
X00957Y00671
X0092Y00696
X0094158Y0071786
X0098258Y0072323
X00988Y00829
X0087Y0085
X00831Y00839
X00816Y00716
X00747Y00682
X006846Y00671
X00675Y00694
X00641Y00696
X00647Y00679
X00636Y00664
X00599Y00674
X0061046Y007065
X00623Y006
X0062Y00562
X00593Y0058
X00703Y00576
X00682Y00553
X00799Y00563
X00852Y00527
X00965Y00518
Y00546
X00985Y00569
X01016Y00575
X01204Y00516
X01225Y00535
X01246Y00554
X01267Y00575
X01285Y00599
X01339Y00591
Y00518
X01275Y00537
X01504Y00552
X00476Y00536
X00469Y00583
X00509Y00745
X00531Y00771
X00567Y00785
X00578Y00821
X0064Y0087
X00668Y00873
X00694Y00836
X00527Y00909
X00301Y00749
X00272
X00243
X00214
X00185
X00156
Y00719
X00185
X00214
X00243
X00272
X00301
X00278Y00532
X00253Y00533
X00228
X00135Y00536
X00077Y0056525
Y0059675
X00021Y00583
Y00561
Y00533
X00046Y00524
X00023Y00625
X00118Y00651
X00148Y00787
T02
X00078Y00045
X00178
X00278
X00378
X00478
X00578
X00678
X00778
X00878
X00978
X01078
X01178
X01278
X01378
X01478
X00352Y00145
Y00245
Y00345
Y00445
X01578Y00045
X01678
X01778
X01878
Y00851
Y00937
X01778
X01678
X01578
X01478
X01378
X01278
X01178
X01078
X00978
X00878
X00778
X00678
X00578
X00478
X00378
X00278
X00178
X00078
Y00853
Y0077
X00352Y00645
Y00545
M30
