G04 Layer_Color=32768*
%FSLAX25Y25*%
%MOIN*%
G70*
G01*
G75*
%ADD60C,0.00394*%
%ADD111C,0.00000*%
%ADD112C,0.00197*%
D60*
X86731Y78100D02*
X90668D01*
X88700Y76131D02*
Y80068D01*
X153777Y68410D02*
Y82190D01*
X138423Y68410D02*
Y82190D01*
Y68410D02*
X153777D01*
X138423Y82190D02*
X153777D01*
X144132Y75300D02*
X148068D01*
X146100Y73331D02*
Y77268D01*
X7700Y56132D02*
Y60069D01*
X5731Y58100D02*
X9668D01*
X156247Y23700D02*
X160184D01*
X158216Y21732D02*
Y25668D01*
X5731Y19000D02*
X9668D01*
X7700Y17031D02*
Y20968D01*
X5731Y38500D02*
X9668D01*
X7700Y36531D02*
Y40468D01*
X169386Y41663D02*
X173323D01*
X171354Y39694D02*
Y43632D01*
X154032Y48000D02*
X157968D01*
X156000Y46031D02*
Y49968D01*
X160700Y60931D02*
Y64868D01*
X158731Y62900D02*
X162669D01*
X41831Y65881D02*
X133169D01*
X41831Y13519D02*
X133169D01*
X41831D02*
Y65881D01*
X133169Y13519D02*
Y65881D01*
X87500Y37732D02*
Y41668D01*
X85532Y39700D02*
X89468D01*
X81631Y47700D02*
X85568D01*
X83600Y45731D02*
Y49668D01*
D111*
X0Y0D02*
Y98000D01*
Y0D02*
X195000D01*
Y98000D01*
X0D02*
X195000D01*
D112*
X70393Y66486D02*
Y89714D01*
X107007D01*
X70393Y66486D02*
X107007D01*
Y89714D01*
X2582Y62628D02*
X12818D01*
X2582Y53572D02*
X12818D01*
X2582D02*
Y62628D01*
X12818Y53572D02*
Y62628D01*
X150342Y16613D02*
Y30787D01*
X166090Y16613D02*
Y30787D01*
X150342D02*
X166090D01*
X150342Y16613D02*
X166090D01*
X12818Y14472D02*
Y23528D01*
X2582Y14472D02*
Y23528D01*
Y14472D02*
X12818D01*
X2582Y23528D02*
X12818D01*
Y33972D02*
Y43028D01*
X2582Y33972D02*
Y43028D01*
Y33972D02*
X12818D01*
X2582Y43028D02*
X12818D01*
X164268Y28868D02*
Y54458D01*
X178441Y28868D02*
Y54458D01*
X164268Y28868D02*
X178441D01*
X164268Y54458D02*
X178441D01*
X148618Y41504D02*
Y54496D01*
X163382Y41504D02*
Y54496D01*
X148618D02*
X163382D01*
X148618Y41504D02*
X163382D01*
X147905Y69987D02*
X173495D01*
X147905Y55813D02*
X173495D01*
X147905D02*
Y69987D01*
X173495Y55813D02*
Y69987D01*
X117852Y13448D02*
Y81952D01*
X49348Y13448D02*
Y81952D01*
X117852D01*
X49348Y13448D02*
X117852D01*
M02*
